<svg width="1028" height="768" viewBox="0 0 1028 768" fill="none" xmlns="http://www.w3.org/2000/svg">
<path d="M1028 0H0V768H1028V0Z" fill="#FCFDFF"/>
<mask id="mask0_15_355" style="mask-type:luminance" maskUnits="userSpaceOnUse" x="0" y="0" width="1028" height="768">
<path d="M1028 0H0V768H1028V0Z" fill="white"/>
</mask>
<g mask="url(#mask0_15_355)">
<path d="M1075.63 584.227C1070.48 582.811 1000.52 444.628 829.446 448.063C656.666 451.532 613.486 646.467 380.22 667.197C146.951 687.927 108.086 604.945 -51.746 655.277C-211.577 705.616 -285 800.299 -285 800.299H1110.08L1075.63 584.227Z" fill="#B6E08C"/>
<path d="M42.0002 463.218C42.0002 463.218 -42.8078 405.72 12.5582 248.637C12.5582 248.637 119.723 389.496 42.0002 463.218Z" fill="#62AB72"/>
<path d="M88.8974 461.261C88.8974 461.261 28.8704 420.564 68.0578 309.384C68.0578 309.384 143.91 409.083 88.8974 461.261Z" fill="#B3DE8A"/>
<path d="M8.25926 469.472C8.25926 469.472 -61.7599 442.856 -31.1152 353.127C-31.1152 353.127 54.4802 410.833 8.25926 469.472Z" fill="url(#paint0_linear_15_355)"/>
<path d="M971.713 621.735C971.713 621.735 955.87 617.858 945.787 623.888C935.704 629.916 946.266 622.166 946.266 622.166L957.309 604.08C957.309 604.08 935.223 610.108 929.943 618.721L932.345 605.804C932.345 605.804 927.544 607.956 925.143 612.693L911.7 597.191L922.743 594.607C922.743 594.607 913.621 587.718 903.059 589.87C903.059 589.87 912.182 585.994 917.942 575.231C917.942 575.231 901.618 570.925 890.096 578.675C890.096 578.675 901.618 557.576 903.538 551.978C903.538 551.978 869.931 556.715 855.047 579.536L856.008 557.576C856.008 557.576 850.475 562.013 844.656 568.581C830.665 569.476 822.881 575.087 822.881 575.087C828.642 562.455 825.122 546.094 825.122 546.094C814.24 549.251 802.397 566.188 802.397 566.188C799.517 555.854 786.393 547.816 786.393 547.816C786.393 547.816 782.553 547.241 784.473 547.528C786.393 547.816 800.477 546.379 801.758 545.806C796.636 534.611 776.475 530.016 776.475 530.016C789.599 531.45 798.886 524.845 798.886 524.845C787.683 509.63 758.886 514.504 758.886 514.504C777.771 507.327 784.831 486.933 784.831 486.933C752.823 485.498 736.221 503.269 736.221 503.269C739.101 487.193 730.219 472.212 725.098 467.619C711.974 476.518 714.697 503.682 714.697 503.682L709.575 488.251L707.174 498.155C707.174 498.155 707.655 479.208 703.333 474.473C693.25 479.21 688.931 497.726 688.931 497.726C685.571 489.975 678.848 489.544 678.848 489.544L681.25 502.461C673.087 493.418 657.244 496.001 657.244 496.001C659.164 504.183 673.087 513.226 673.087 513.226C663.005 514.948 652.443 536.909 652.443 536.909C650.042 529.588 642.841 523.991 641.4 523.991C639.48 531.312 642.841 539.924 642.841 539.924C629.878 530.451 608.755 531.312 608.755 531.312C609.325 532.336 609.908 533.305 610.501 534.24C608.973 533.178 607.419 532.437 605.875 532.173C605.875 532.173 619.798 523.13 621.718 514.95C621.718 514.95 605.875 512.367 597.712 521.41L600.112 508.493C600.112 508.493 593.391 508.922 590.029 516.674C590.029 516.674 585.707 498.159 575.627 493.422C571.305 498.159 571.786 517.104 571.786 517.104L569.385 507.2L564.263 522.631C564.263 522.631 566.983 495.467 553.862 486.567C548.74 491.161 539.858 506.142 542.739 522.218C542.739 522.218 526.135 504.447 494.129 505.882C494.129 505.882 501.191 526.276 520.076 533.453C520.076 533.453 491.279 528.579 480.076 543.794C480.076 543.794 489.363 550.399 502.487 548.965C502.487 548.965 482.325 553.56 477.204 564.755C478.485 565.328 492.568 566.765 494.489 566.479C496.409 566.191 492.568 566.767 492.568 566.767C492.568 566.767 485.481 571.12 480.582 577.53C480.278 576.887 480.086 576.529 480.086 576.529C477.432 577.917 475.28 579.514 473.511 581.146C471.314 578.434 468.104 574.775 464.475 571.581C463.042 564.7 461.005 558.257 458.963 554.998C448.88 563.61 447.441 573.945 447.441 573.945C445.521 556.722 422.956 538.637 422.956 538.637L423.917 560.597C409.033 537.775 375.426 533.038 375.426 533.038C377.346 538.637 388.868 559.736 388.868 559.736C377.346 551.985 361.021 556.291 361.021 556.291C366.782 567.056 375.905 570.93 375.905 570.93C365.343 568.777 356.221 575.668 356.221 575.668L367.263 578.251L353.821 593.752C351.422 589.015 346.619 586.863 346.619 586.863L349.021 599.78C343.739 591.168 321.655 585.139 321.655 585.139L332.698 603.224C332.698 603.224 343.26 610.975 333.179 604.947C323.099 598.919 307.253 602.793 307.253 602.793C312.054 609.253 319.256 612.266 319.256 612.266C288.05 614.849 279.888 625.183 279.888 625.183C291.409 628.198 301.492 626.044 301.492 626.044C287.018 628.64 280.321 635.282 277.466 639.393H992.565C986.831 636.311 976.686 632.616 959.716 631.211C959.712 631.209 966.912 628.194 971.713 621.735ZM628.433 551.738C628.369 551.845 628.306 551.95 628.242 552.057C627.535 552.142 626.311 552.29 624.757 552.478C623.916 550.945 622.804 549.016 621.494 546.958C624.767 549.713 627.397 551.205 628.433 551.738Z" fill="#4B9F66"/>
<path d="M1354.11 652.159C1354.11 652.159 1338.27 648.283 1328.18 654.312C1318.1 660.342 1328.67 652.59 1328.67 652.59L1339.71 634.504C1339.71 634.504 1317.62 640.532 1312.34 649.144L1314.74 636.227C1314.74 636.227 1309.94 638.38 1307.54 643.116L1294.1 627.615L1305.14 625.032C1305.14 625.032 1296.02 618.142 1285.46 620.294C1285.46 620.294 1294.58 616.418 1300.34 605.655C1300.34 605.655 1284.02 601.349 1272.5 609.099C1272.5 609.099 1284.02 588 1285.94 582.402C1285.94 582.402 1252.33 587.139 1237.45 609.961L1238.41 588C1238.41 588 1232.87 592.437 1227.06 599.005C1213.07 599.9 1205.28 605.511 1205.28 605.511C1211.04 592.88 1207.52 576.518 1207.52 576.518C1196.64 579.675 1184.8 596.612 1184.8 596.612C1181.92 586.278 1168.79 578.24 1168.79 578.24C1168.79 578.24 1164.95 577.665 1166.87 577.952C1168.79 578.24 1182.88 576.804 1184.16 576.228C1179.04 565.033 1158.88 560.438 1158.88 560.438C1172 561.873 1181.29 555.268 1181.29 555.268C1170.08 540.053 1141.29 544.926 1141.29 544.926C1160.17 537.75 1167.23 517.355 1167.23 517.355C1135.22 515.92 1118.62 533.691 1118.62 533.691C1121.5 517.615 1112.62 502.634 1107.5 498.041C1094.38 506.94 1097.1 534.104 1097.1 534.104L1091.98 518.673L1089.58 528.578C1089.58 528.578 1090.06 509.63 1085.74 504.895C1075.65 509.632 1071.33 528.148 1071.33 528.148C1067.97 520.398 1061.25 519.966 1061.25 519.966L1063.65 532.885C1055.49 523.842 1039.65 526.426 1039.65 526.426C1041.57 534.607 1055.49 543.65 1055.49 543.65C1045.41 545.373 1034.84 567.333 1034.84 567.333C1032.45 560.012 1025.24 554.416 1023.8 554.416C1021.88 561.736 1025.24 570.348 1025.24 570.348C1012.28 560.875 991.157 561.736 991.157 561.736C991.726 562.76 992.31 563.73 992.902 564.665C991.375 563.602 989.82 562.861 988.276 562.597C988.276 562.597 1002.2 553.554 1004.12 545.373C1004.12 545.373 988.276 542.789 980.114 551.832L982.513 538.915C982.513 538.915 975.792 539.346 972.431 547.097C972.431 547.097 968.109 528.581 958.029 523.844C953.707 528.581 954.188 547.526 954.188 547.526L951.786 537.622L946.665 553.053C946.665 553.053 949.385 525.889 936.264 516.99C931.142 521.583 922.26 536.564 925.141 552.64C925.141 552.64 908.536 534.869 876.531 536.304C876.531 536.304 883.593 556.698 902.477 563.875C902.477 563.875 873.681 559.002 862.478 574.217C862.478 574.217 871.765 580.822 884.888 579.387C884.888 579.387 864.727 583.982 859.606 595.177C860.887 595.751 874.97 597.187 876.89 596.901C878.811 596.614 874.97 597.189 874.97 597.189C874.97 597.189 867.883 601.543 862.982 607.951C862.677 607.307 862.486 606.949 862.486 606.949C859.832 608.338 857.679 609.935 855.911 611.567C853.713 608.854 850.504 605.196 846.875 602.002C845.442 595.12 843.404 588.677 841.363 585.419C831.28 594.03 829.841 604.366 829.841 604.366C827.921 587.143 805.356 569.057 805.356 569.057L806.316 591.017C791.433 568.196 757.826 563.459 757.826 563.459C759.746 569.057 771.268 590.156 771.268 590.156C759.746 582.406 743.421 586.711 743.421 586.711C749.182 597.477 758.305 601.351 758.305 601.351C747.743 599.197 738.62 606.088 738.62 606.088L749.663 608.672L736.221 624.172C733.82 619.435 729.019 617.283 729.019 617.283L731.42 630.2C726.138 621.589 704.055 615.561 704.055 615.561L715.098 633.647C715.098 633.647 725.659 641.397 715.577 635.369C705.494 629.341 689.651 633.215 689.651 633.215C694.451 639.675 701.654 642.688 701.654 642.688C670.448 645.271 662.285 655.605 662.285 655.605C673.807 658.62 683.89 656.466 683.89 656.466C669.415 659.063 662.719 665.705 659.863 669.815H1374.96C1369.23 666.734 1359.08 663.038 1342.11 661.633C1342.11 661.633 1349.31 658.618 1354.11 652.159ZM1010.83 582.164C1010.77 582.271 1010.7 582.376 1010.64 582.483C1009.93 582.568 1008.71 582.715 1007.15 582.904C1006.31 581.371 1005.2 579.442 1003.89 577.384C1007.16 580.138 1009.79 581.629 1010.83 582.164Z" fill="#4B9F66"/>
<path d="M14.7725 685.365C-2.19768 686.771 -12.342 690.466 -18.0762 693.547H697.023C694.167 689.437 687.471 682.795 672.997 680.199C672.997 680.199 683.079 682.352 694.601 679.337C694.601 679.337 686.439 669.004 655.233 666.42C655.233 666.42 662.435 663.405 667.236 656.948C667.236 656.948 651.392 653.071 641.31 659.101C631.227 665.129 641.791 657.379 641.791 657.379L652.834 639.295C652.834 639.295 630.748 645.323 625.468 653.934L627.87 641.017C627.87 641.017 623.069 643.171 620.668 647.906L607.225 632.406L618.268 629.822C618.268 629.822 609.146 622.933 598.584 625.085C598.584 625.085 607.706 621.209 613.467 610.446C613.467 610.446 597.145 606.14 585.621 613.89C585.621 613.89 597.143 592.791 599.063 587.193C599.063 587.193 565.456 591.93 550.572 614.751L551.532 592.791C551.532 592.791 528.968 610.877 527.048 628.1C527.048 628.1 525.606 617.766 515.526 609.153C513.482 612.411 511.447 618.854 510.012 625.736C506.383 628.93 503.173 632.588 500.975 635.301C499.207 633.669 497.055 632.072 494.4 630.683C494.4 630.683 494.209 631.041 493.905 631.685C489.003 625.277 481.918 620.923 481.918 620.923C481.918 620.923 478.078 620.348 479.998 620.636C481.918 620.923 496.002 619.487 497.283 618.911C492.161 607.716 472 603.121 472 603.121C485.124 604.556 494.411 597.951 494.411 597.951C483.207 582.736 454.411 587.609 454.411 587.609C473.295 580.433 480.358 560.038 480.358 560.038C448.35 558.602 431.748 576.374 431.748 576.374C434.628 560.298 425.746 545.317 420.625 540.724C407.501 549.623 410.222 576.787 410.222 576.787L405.1 561.358L402.699 571.262C402.699 571.262 403.18 552.315 398.858 547.58C388.775 552.317 384.456 570.833 384.456 570.833C381.094 563.082 374.373 562.651 374.373 562.651L376.775 575.568C368.612 566.525 352.769 569.109 352.769 569.109C354.689 577.29 368.612 586.333 368.612 586.333C367.068 586.597 365.514 587.338 363.986 588.401C364.576 587.466 365.16 586.496 365.732 585.472C365.732 585.472 344.606 584.611 331.645 594.084C331.645 594.084 335.007 585.472 333.087 578.152C331.645 578.152 324.445 583.75 322.044 591.069C322.044 591.069 311.482 569.109 301.399 567.386C301.399 567.386 315.323 558.343 317.243 550.161C317.243 550.161 301.399 547.578 293.237 556.621L295.639 543.704C295.639 543.704 288.918 544.133 285.556 551.886C285.556 551.886 281.234 533.37 271.154 528.633C266.832 533.37 267.313 552.315 267.313 552.315L264.912 542.411L259.79 557.84C259.79 557.84 262.51 530.676 249.389 521.777C244.267 526.37 235.385 541.351 238.266 557.427C238.266 557.427 221.662 539.656 189.656 541.091C189.656 541.091 196.718 561.486 215.601 568.662C215.601 568.662 186.804 563.789 175.601 579.004C175.601 579.004 184.888 585.609 198.011 584.174C198.011 584.174 177.85 588.769 172.729 599.964C174.01 600.538 188.093 601.974 190.014 601.687C191.934 601.399 188.093 601.974 188.093 601.974C188.093 601.974 174.972 610.012 172.089 620.346C172.089 620.346 160.247 603.409 149.364 600.252C149.364 600.252 145.845 616.616 151.606 629.245C151.606 629.245 143.821 623.634 129.83 622.74C124.012 616.171 118.479 611.735 118.479 611.735L119.439 633.695C104.556 610.873 70.9486 606.136 70.9486 606.136C72.8689 611.735 84.3908 632.834 84.3908 632.834C72.8689 625.083 56.5443 629.389 56.5443 629.389C62.3052 640.154 71.4277 644.029 71.4277 644.029C60.866 641.875 51.7435 648.766 51.7435 648.766L62.7863 651.349L49.3442 666.85C46.9428 662.113 42.142 659.961 42.142 659.961L44.5414 672.878C39.2595 664.266 17.176 658.238 17.176 658.238L28.2188 676.324C28.2188 676.324 38.7805 684.075 28.6999 678.047C18.6173 672.019 2.77372 675.893 2.77372 675.893C7.57037 682.351 14.7725 685.365 14.7725 685.365ZM352.989 601.117C351.679 603.175 350.567 605.103 349.726 606.636C348.171 606.446 346.946 606.298 346.241 606.215C346.179 606.107 346.113 606.002 346.05 605.896C347.086 605.363 349.716 603.87 352.989 601.117Z" fill="#B6E08C"/>
<path d="M-12.5313 567.807C-12.5313 567.807 -9.27047 535.255 -24.9968 524.591C-31.134 530.095 -41.7779 548.048 -38.3259 567.313C-38.3259 567.313 -58.2238 546.016 -96.5785 547.737C-96.5785 547.737 -88.116 572.177 -65.4856 580.777C-65.4856 580.777 -99.9935 574.937 -113.419 593.169C-113.419 593.169 -102.29 601.085 -86.5637 599.365C-86.5637 599.365 -110.726 604.871 -116.863 618.288C-115.329 618.976 -98.4515 620.696 -96.1488 620.353C-93.8481 620.01 -98.4495 620.698 -98.4495 620.698C-98.4495 620.698 -114.176 630.331 -117.628 642.716C-117.628 642.716 -131.82 622.419 -144.862 618.635C-144.862 618.635 -149.081 638.244 -142.176 653.379C-142.176 653.379 -154.066 644.779 -175.163 645.467C-172.862 649.939 -161.355 661.98 -156.369 664.388C-156.369 664.388 -185.519 661.292 -196.644 675.742C-196.644 675.742 -182.451 681.246 -169.795 681.589C-169.795 681.589 -200.481 687.438 -209.685 699.822C-209.685 699.822 -197.411 703.263 -183.218 698.79C-183.218 698.79 -204.697 708.766 -208.534 718.054C-208.534 718.054 -196.26 719.774 -183.603 717.021C-183.603 717.021 -208.151 725.69 -213.522 737.044L-199.138 734.532H513.714C513.714 734.532 508.537 719.068 482.646 714.425C482.646 714.425 494.727 717.014 508.537 713.402C508.537 713.402 498.757 701.021 461.358 697.925C461.358 697.925 469.989 694.314 475.742 686.575C475.742 686.575 456.755 681.932 444.674 689.157C432.593 696.381 445.249 687.093 445.249 687.093L458.482 665.421C458.482 665.421 432.017 672.646 425.687 682.965L428.563 667.484C428.563 667.484 422.81 670.064 419.934 675.74L403.823 657.163L417.056 654.067C417.056 654.067 406.124 645.812 393.467 648.391C393.467 648.391 404.399 643.748 411.303 630.848C411.303 630.848 391.742 625.688 377.934 634.976C377.934 634.976 391.742 609.691 394.043 602.983C394.043 602.983 353.768 608.659 335.932 636.007L337.083 609.69C337.083 609.69 310.043 631.362 307.74 652.004C307.74 652.004 306.015 639.619 293.932 629.299C288.755 637.554 283.576 662.839 285.303 674.193C285.303 674.193 282.427 662.325 268.618 655.1C268.618 655.1 262.29 666.968 262.866 678.836C262.866 678.836 255.386 660.776 230.071 655.614C230.646 662.323 239.275 676.771 239.275 676.771C239.275 676.771 232.947 670.578 224.891 671.095C224.891 675.223 231.796 682.446 234.096 684.512C234.096 684.512 199 673.674 173.109 689.671C173.109 689.671 177.712 683.995 179.437 673.674C171.958 676.254 160.45 678.834 154.122 687.608C154.122 687.608 163.327 670.064 155.849 655.098C150.096 659.227 140.889 669.031 138.013 676.771L131.685 665.419C131.685 665.419 126.506 672.644 125.356 683.479C125.356 683.479 117.301 664.903 106.369 658.194C106.369 658.194 120.177 660.257 125.356 658.71C122.48 658.194 114.425 644.263 100.617 642.714C100.617 642.714 117.877 638.071 124.205 630.329C120.753 629.297 90.2605 625.684 90.2605 625.684C90.2605 625.684 104.069 619.492 114.425 600.916C114.425 600.916 89.1091 599.883 73.576 611.237C73.576 611.237 77.6038 600.916 75.3031 592.144C73.5761 592.144 64.947 598.852 62.0707 607.624C62.0707 607.624 49.4139 581.307 37.3308 579.243C37.3308 579.243 54.0153 568.406 56.318 558.603C56.318 558.603 37.3308 555.507 27.5504 566.344L30.4268 550.864C30.4268 550.864 22.3714 551.38 18.3437 560.669C18.3437 560.669 13.1646 538.48 1.08355 532.804C-4.09346 538.48 -3.51984 561.185 -3.51984 561.185L-6.39618 549.317L-12.5313 567.807Z" fill="#12575C"/>
<path d="M414.973 724.762C394.635 726.446 382.478 730.875 375.607 734.567H1232.56C1229.14 729.642 1221.11 721.681 1203.77 718.57C1203.77 718.57 1215.85 721.15 1229.66 717.538C1229.66 717.538 1219.88 705.153 1182.48 702.057C1182.48 702.057 1191.11 698.445 1196.86 690.706C1196.86 690.706 1177.88 686.062 1165.8 693.285C1153.71 700.51 1166.37 691.222 1166.37 691.222L1179.6 669.549C1179.6 669.549 1153.14 676.774 1146.81 687.093L1149.68 671.613C1149.68 671.613 1143.93 674.193 1141.05 679.868L1124.94 661.292L1138.18 658.196C1138.18 658.196 1127.25 649.94 1114.59 652.52C1114.59 652.52 1125.52 647.877 1132.42 634.976C1132.42 634.976 1112.86 629.817 1099.05 639.105C1099.05 639.105 1112.86 613.82 1115.16 607.112C1115.16 607.112 1074.89 612.787 1057.05 640.138L1058.2 613.82C1058.2 613.82 1031.16 635.493 1028.86 656.134C1028.86 656.134 1027.13 643.75 1015.05 633.429C1012.6 637.333 1010.16 645.054 1008.44 653.3C1004.1 657.128 1000.25 661.513 997.615 664.764C995.495 662.808 992.917 660.896 989.736 659.23C989.736 659.23 989.508 659.66 989.144 660.431C983.27 652.751 974.779 647.534 974.779 647.534C974.779 647.534 970.177 646.846 972.478 647.189C974.779 647.534 991.658 645.812 993.192 645.124C987.055 631.707 962.893 626.201 962.893 626.201C978.619 627.921 989.748 620.005 989.748 620.005C976.325 601.771 941.815 607.613 941.815 607.613C964.445 599.013 972.908 574.572 972.908 574.572C934.551 572.852 914.655 594.148 914.655 594.148C918.107 574.884 907.463 556.931 901.326 551.426C885.6 562.09 888.86 594.642 888.86 594.642L882.723 576.153L879.847 588.021C879.847 588.021 880.423 565.316 875.243 559.64C863.16 565.316 857.983 587.504 857.983 587.504C853.956 578.216 845.9 577.7 845.9 577.7L848.777 593.18C838.996 582.343 820.009 585.439 820.009 585.439C822.31 595.244 838.996 606.081 838.996 606.081C837.146 606.396 835.283 607.287 833.453 608.557C834.16 607.438 834.862 606.274 835.544 605.048C835.544 605.048 810.229 604.016 794.696 615.369C794.696 615.369 798.723 605.048 796.423 596.276C794.696 596.276 786.066 602.985 783.19 611.757C783.19 611.757 770.533 585.439 758.45 583.376C758.45 583.376 775.135 572.538 777.438 562.736C777.438 562.736 758.45 559.64 748.67 570.477L751.546 554.996C751.546 554.996 743.491 555.513 739.463 564.801C739.463 564.801 734.284 542.612 722.203 536.936C717.026 542.612 717.6 565.317 717.6 565.317L714.723 553.449L708.586 571.939C708.586 571.939 711.847 539.387 696.121 528.723C689.983 534.228 679.34 552.181 682.792 571.445C682.792 571.445 662.894 550.149 624.539 551.869C624.539 551.869 633.001 576.309 655.632 584.91C655.632 584.91 621.124 579.07 607.698 597.302C607.698 597.302 618.827 605.218 634.554 603.497C634.554 603.497 610.392 609.004 604.254 622.42C605.788 623.108 622.666 624.829 624.969 624.486C627.269 624.141 622.668 624.831 622.668 624.831C622.668 624.831 606.942 634.464 603.49 646.848C603.49 646.848 589.299 626.551 576.258 622.767C576.258 622.767 572.039 642.376 578.943 657.512C578.943 657.512 569.615 650.787 552.848 649.715C545.874 641.845 539.246 636.527 539.246 636.527L540.397 662.845C522.561 635.496 482.288 629.819 482.288 629.819C484.589 636.527 498.397 661.812 498.397 661.812C484.589 652.524 465.026 657.683 465.026 657.683C471.93 670.584 482.862 675.227 482.862 675.227C470.205 672.647 459.274 680.903 459.274 680.903L472.506 683.999L456.397 702.576C453.521 696.9 447.766 694.32 447.766 694.32L450.642 709.8C444.314 699.479 417.847 692.256 417.847 692.256L431.08 713.929C431.08 713.929 443.736 723.217 431.655 715.992C419.572 708.768 400.587 713.413 400.587 713.413C406.344 721.15 414.973 724.762 414.973 724.762ZM820.285 623.802C818.714 626.269 817.384 628.579 816.374 630.416C814.511 630.189 813.043 630.012 812.196 629.911C812.122 629.782 812.044 629.655 811.968 629.527C813.21 628.889 816.362 627.102 820.285 623.802Z" fill="#12575C"/>
<path d="M851.548 687.904C851.548 687.904 815.064 702.847 782.386 671.102C751.541 641.135 780.101 626.95 794.943 633.087C858.77 659.478 851.548 687.904 851.548 687.904Z" fill="#37190F"/>
<path d="M843.582 690.733C830.594 693.306 805.319 694.231 781.943 671.52C767.773 657.757 766.904 648.216 768.671 642.639C770.433 637.084 775.678 632.938 782.705 631.547C787.104 630.674 791.537 631.028 795.192 632.538C828.325 646.236 842.051 660.522 847.727 670.098C853.952 680.592 852.233 687.748 852.16 688.048C852.11 688.23 851.979 688.383 851.797 688.456C851.67 688.507 848.657 689.726 843.582 690.733ZM782.954 632.716C776.386 634.018 771.491 637.856 769.867 642.984C768.197 648.251 769.095 657.33 782.832 670.68C805.79 692.985 830.589 692.08 843.326 689.557C847.37 688.757 850.115 687.801 850.996 687.468C851.235 686.043 851.917 679.517 846.562 670.565C840.955 661.183 827.408 647.16 794.696 633.634C791.327 632.241 787.041 631.907 782.954 632.716Z" fill="#190100"/>
<path d="M784.973 669.666C766.431 651.655 769.356 639.345 777.863 633.726C767.529 638.469 762.066 651.362 782.386 671.101C815.064 702.845 851.548 687.903 851.548 687.903C851.548 687.903 851.596 687.7 851.654 687.318C842.92 689.98 812.584 696.493 784.973 669.666Z" fill="#190100"/>
<path d="M844.75 689.982C844.708 689.992 844.668 689.996 844.624 689.996C805.755 690.058 776.88 663.616 776.592 663.351C776.345 663.119 776.341 662.74 776.582 662.502C776.819 662.266 777.216 662.26 777.465 662.491C777.749 662.756 806.273 688.858 844.62 688.798C844.969 688.797 845.247 689.064 845.25 689.396C845.25 689.685 845.035 689.925 844.75 689.982Z" fill="#190100"/>
<path d="M847.44 689.448C847.386 689.459 847.331 689.463 847.276 689.461C801.679 686.718 769.959 651.206 769.643 650.846C769.424 650.591 769.456 650.216 769.722 650.003C769.987 649.789 770.383 649.82 770.606 650.075C770.918 650.43 802.299 685.552 847.351 688.264C847.697 688.287 847.963 688.571 847.937 688.9C847.919 689.177 847.71 689.396 847.44 689.448Z" fill="#190100"/>
<path d="M851.189 688.259C851.133 688.269 851.078 688.276 851.02 688.27C827.169 686.835 806.389 674.604 793.158 664.595C778.839 653.767 770.021 643.128 769.935 643.021C769.722 642.759 769.767 642.385 770.036 642.18C770.306 641.978 770.704 642.019 770.916 642.281C771.265 642.7 806.056 684.363 851.098 687.074C851.442 687.095 851.705 687.38 851.685 687.709C851.667 687.986 851.456 688.205 851.189 688.259Z" fill="#190100"/>
<path d="M851.672 688.49C851.545 688.516 851.408 688.504 851.283 688.449C824.362 676.508 804.932 663.181 793.373 654.108C781.129 644.492 774.314 637.008 774.185 636.472C774.143 636.293 774.188 636.098 774.314 635.955C774.529 635.701 774.924 635.663 775.189 635.874C775.263 635.926 775.314 635.991 775.349 636.063C776.058 636.923 800.273 664.507 851.811 687.362C852.124 687.502 852.26 687.858 852.117 688.158C852.03 688.336 851.863 688.455 851.672 688.49Z" fill="#190100"/>
<path d="M851.898 686.67C851.72 686.702 851.527 686.667 851.376 686.55C834.547 673.5 781.345 633.389 780.811 632.988C780.54 632.782 780.494 632.408 780.71 632.147C780.922 631.886 781.314 631.843 781.585 632.047C782.119 632.452 835.326 672.564 852.165 685.618C852.432 685.826 852.476 686.204 852.258 686.46C852.161 686.574 852.035 686.645 851.898 686.67Z" fill="#190100"/>
<path d="M851.596 681.991C851.356 682.037 851.099 681.946 850.951 681.737C840.232 666.503 796.836 634.651 796.402 634.331C796.127 634.131 796.076 633.755 796.285 633.493C796.491 633.229 796.887 633.178 797.161 633.381C798.954 634.692 841.156 665.671 851.987 681.071C852.181 681.345 852.106 681.716 851.817 681.901C851.749 681.945 851.672 681.975 851.596 681.991Z" fill="#190100"/>
<path d="M778.105 664.349C777.798 664.411 777.482 664.239 777.386 663.944C773.954 653.636 774.262 645.478 778.297 639.696C783.292 632.531 792.119 631.734 792.493 631.703C792.837 631.678 793.137 631.921 793.17 632.251C793.199 632.58 792.948 632.867 792.601 632.9C792.515 632.907 783.988 633.689 779.33 640.373C775.523 645.837 775.273 653.646 778.576 663.581C778.682 663.896 778.5 664.233 778.172 664.333C778.154 664.339 778.13 664.346 778.105 664.349Z" fill="#190100"/>
<path d="M791.448 677.396C791.16 677.453 790.862 677.309 790.746 677.04C785.816 665.789 785.062 656.055 788.499 648.113C792.534 638.794 800.826 635.463 801.18 635.321C801.499 635.2 801.862 635.345 801.997 635.649C802.126 635.955 801.973 636.306 801.651 636.431C801.572 636.462 793.468 639.737 789.646 648.59C786.353 656.225 787.108 665.641 791.897 676.577C792.03 676.881 791.88 677.234 791.564 677.359C791.526 677.375 791.485 677.388 791.448 677.396Z" fill="#190100"/>
<path d="M804.738 685.885C804.452 685.941 804.154 685.799 804.034 685.532C798.056 671.907 796.956 660.561 800.777 651.812C804.484 643.321 811.459 640.565 811.754 640.452C812.071 640.329 812.435 640.477 812.562 640.782C812.695 641.092 812.535 641.44 812.22 641.563C812.148 641.59 805.409 644.275 801.917 652.307C798.248 660.745 799.347 671.767 805.186 685.066C805.323 685.372 805.169 685.722 804.851 685.851C804.816 685.866 804.777 685.875 804.738 685.885Z" fill="#190100"/>
<path d="M815.907 689.061C815.605 689.12 815.294 688.959 815.19 688.672C809.962 674.277 809.416 662.935 813.567 654.973C816.944 648.499 822.189 646.828 822.413 646.76C822.737 646.665 823.094 646.832 823.198 647.148C823.304 647.463 823.124 647.798 822.796 647.901C822.748 647.917 817.793 649.515 814.667 655.548C810.753 663.105 811.34 674.425 816.372 688.28C816.488 688.595 816.315 688.932 815.986 689.042C815.96 689.048 815.933 689.057 815.907 689.061Z" fill="#190100"/>
<path d="M826.701 690.88C826.405 690.938 826.1 690.784 825.99 690.503C820.909 677.535 820.23 667.435 823.958 660.477C827.023 654.771 831.934 653.453 832.142 653.4C832.488 653.311 832.82 653.502 832.914 653.821C833 654.143 832.801 654.469 832.472 654.557C832.427 654.568 827.852 655.818 825.058 661.059C821.562 667.612 822.288 677.648 827.158 690.083C827.281 690.394 827.117 690.74 826.791 690.854C826.764 690.866 826.732 690.874 826.701 690.88Z" fill="#190100"/>
<path d="M838.776 690.719C838.5 690.772 838.209 690.638 838.083 690.38C832.744 679.168 831.499 670.81 834.393 665.532C836.499 661.695 840.03 661.053 840.179 661.027C840.518 660.97 840.844 661.186 840.905 661.513C840.964 661.832 840.746 662.139 840.413 662.204C840.403 662.205 840.396 662.205 840.375 662.211C840.05 662.276 837.224 662.92 835.485 666.12C833.64 669.515 832.793 676.389 839.221 689.881C839.363 690.185 839.227 690.541 838.911 690.678C838.868 690.695 838.823 690.71 838.776 690.719Z" fill="#190100"/>
<path d="M845.801 689.655C845.579 689.699 845.339 689.624 845.183 689.444C843.444 687.366 840.577 679.616 842.399 674.634C843.232 672.357 844.885 670.938 847.317 670.419C847.635 670.352 847.989 670.55 848.066 670.872C848.142 671.194 847.929 671.514 847.591 671.588C845.607 672.013 844.257 673.171 843.579 675.029C841.927 679.544 844.593 686.83 846.159 688.695C846.374 688.955 846.333 689.332 846.065 689.538C845.987 689.595 845.894 689.637 845.801 689.655Z" fill="#190100"/>
<path d="M851.889 639.622H846.093H840.297C835.058 645.119 824.888 657.506 824.96 672.185C825.667 672.211 826.353 672.558 826.787 673.366C827.727 675.114 828.314 677.173 829.504 678.779C830.363 679.937 831.54 680.811 832.515 681.864C833.621 683.062 834.447 684.762 835.534 686.125C836.362 686.807 837.186 687.498 837.99 688.214C838.668 688.824 838.843 689.557 838.687 690.23C838.909 690.587 839.122 690.948 839.316 691.315C839.714 691.63 840.112 691.939 840.516 692.247C840.902 692.543 841.121 692.93 841.205 693.35C843.903 693.862 846.093 693.782 846.093 693.782C846.093 693.782 848.286 693.864 850.986 693.35C851.072 692.93 851.288 692.543 851.673 692.247C852.078 691.939 852.476 691.628 852.874 691.315C853.068 690.948 853.281 690.587 853.503 690.23C853.35 689.557 853.523 688.824 854.202 688.214C854.998 687.496 855.826 686.807 856.656 686.125C857.739 684.762 858.564 683.062 859.677 681.864C860.65 680.811 861.828 679.938 862.683 678.779C863.872 677.173 864.461 675.114 865.402 673.366C865.837 672.558 866.523 672.211 867.228 672.185C867.301 657.506 857.132 645.119 851.889 639.622Z" fill="#AC7654"/>
<path d="M830.463 672.948C830.463 672.948 832.607 667.097 826.332 667.567C821.901 667.901 820.35 681.648 833.546 689.085C833.546 689.085 828.575 689.191 824.899 687.978C821.22 686.759 816.157 688.271 817.526 692.505C818.318 694.954 820.511 694.721 822.31 695.149C823.752 695.492 839.908 695.957 840.868 694.15C843.805 688.623 830.463 672.948 830.463 672.948Z" fill="#AC7654"/>
<path d="M841.967 644.494C841.495 644.758 840.936 645.087 840.419 645.409C839.885 645.733 839.361 646.07 838.844 646.414C837.806 647.105 836.785 647.828 835.784 648.575C833.784 650.07 831.871 651.666 830.043 653.344C826.396 656.701 823.129 660.393 820.35 664.353C819.153 666.065 816.729 666.519 814.94 665.37C813.151 664.219 812.675 661.9 813.879 660.187C813.946 660.091 814.021 659.994 814.097 659.906L814.114 659.885C817.644 655.767 821.624 652.07 825.921 648.809C828.072 647.177 830.302 645.656 832.606 644.249C833.756 643.543 834.93 642.87 836.126 642.228C836.724 641.906 837.326 641.597 837.942 641.292C838.563 640.983 839.153 640.705 839.857 640.397C841.057 639.879 842.469 640.387 843.012 641.536C843.524 642.617 843.086 643.871 842.04 644.451L841.967 644.494Z" fill="#AC7654"/>
<path d="M861.731 672.948C861.731 672.948 859.585 667.097 865.862 667.567C870.289 667.901 871.843 681.648 858.644 689.085C858.644 689.085 863.617 689.191 867.295 687.978C870.971 686.759 876.036 688.271 874.667 692.505C873.875 694.954 871.679 694.721 869.884 695.149C868.437 695.492 852.287 695.957 851.325 694.15C848.388 688.623 861.731 672.948 861.731 672.948Z" fill="#AC7654"/>
<path d="M846.094 646.654C841.438 646.654 832.068 651.388 833.674 673.188C834.404 683.072 846.094 682.994 846.094 682.994C846.094 682.994 857.79 683.072 858.52 673.188C860.12 651.388 850.756 646.654 846.094 646.654Z" fill="#D7AE8A"/>
<path d="M852.335 640.398C853.034 640.706 853.623 640.984 854.251 641.294C854.864 641.599 855.466 641.909 856.066 642.23C857.262 642.871 858.433 643.545 859.585 644.251C861.89 645.656 864.12 647.177 866.269 648.811C870.565 652.071 874.544 655.768 878.079 659.886L878.09 659.902C879.456 661.496 879.214 663.85 877.552 665.157C875.883 666.467 873.429 666.236 872.06 664.641C871.98 664.551 871.905 664.451 871.836 664.356C869.061 660.396 865.793 656.703 862.147 653.347C860.322 651.669 858.406 650.073 856.406 648.578C855.405 647.831 854.385 647.108 853.346 646.417C852.825 646.072 852.302 645.738 851.774 645.411C851.257 645.09 850.695 644.76 850.218 644.496L850.157 644.461C849.012 643.831 848.624 642.435 849.282 641.343C849.897 640.316 851.231 639.925 852.335 640.398Z" fill="#AC7654"/>
<path d="M785.88 581.261C790.114 587.743 800.132 589.057 808.255 584.193C816.379 579.331 819.534 570.136 815.301 563.653C811.069 557.171 799.03 550.411 788.033 559.182C782.132 563.894 781.646 574.779 785.88 581.261Z" fill="#AC7654"/>
<path d="M794.028 582.329C796.72 586.45 803.089 587.287 808.255 584.193C813.421 581.102 815.429 575.251 812.734 571.13C810.044 567.008 803.274 561.728 795.397 568.289C791.708 571.356 791.333 578.207 794.028 582.329Z" fill="#D7AE8A"/>
<path d="M906.071 581.261C901.842 587.743 891.825 589.057 883.7 584.193C875.574 579.331 872.422 570.136 876.65 563.653C880.884 557.171 892.925 550.411 903.918 559.182C909.819 563.894 910.308 574.779 906.071 581.261Z" fill="#AC7654"/>
<path d="M897.926 582.329C895.234 586.45 888.865 587.287 883.7 584.193C878.534 581.102 876.526 575.251 879.216 571.13C881.909 567.008 888.675 561.728 896.559 568.289C900.246 571.356 900.619 578.207 897.926 582.329Z" fill="#D7AE8A"/>
<path d="M901.105 606.105C901.105 623.081 890.457 646.529 845.977 646.529C801.495 646.529 790.847 623.346 790.847 606.105C790.847 580.262 815.53 562.529 845.977 562.529C876.42 562.529 901.105 580.262 901.105 606.105Z" fill="#AC7654"/>
<path d="M858.735 624.995C855.185 615.493 833.567 614.205 829.202 624.995C826.702 631.171 832.474 635.783 836.846 635.535C842.639 635.207 843.794 632.037 843.968 630.102C844.141 632.035 845.289 635.523 851.091 635.535C856.275 635.543 861.062 631.233 858.735 624.995Z" fill="#D7AE8A"/>
<path d="M848.519 634.947H848.498C846.792 634.947 845.681 633.844 844.832 632.873C844.784 632.817 844.739 632.736 844.688 632.638C844.669 632.525 844.655 632.409 844.623 632.295C844.59 632.175 844.518 632.086 844.435 632.021C844.237 631.451 844.059 630.784 843.97 630.569V631.901C843.97 631.901 843.966 631.901 843.966 631.905V630.569C843.816 630.928 843.425 632.504 843.103 632.874C842.255 633.846 841.14 634.948 839.436 634.948H839.415C839.091 634.948 838.8 635.221 838.521 635.167V635.934C838.521 636.911 839.488 640.383 843.965 640.383C848.436 640.383 849.409 636.911 849.409 635.934V635.167C849.135 635.22 848.841 634.947 848.519 634.947Z" fill="#E6E7E8"/>
<path d="M843.951 630.568C844.017 632.202 843.997 633.839 844.027 635.474C843.997 637.109 844.017 638.746 843.951 640.383C843.884 638.747 843.904 637.111 843.873 635.474C843.904 633.839 843.884 632.202 843.951 630.568Z" fill="#BCBEC0"/>
<path d="M852.842 630.062C853.52 630.062 853.52 631.069 852.842 631.069C852.165 631.069 852.165 630.062 852.842 630.062Z" fill="#37190F"/>
<path d="M850.27 630.568C850.944 630.568 850.944 631.575 850.27 631.575C849.585 631.575 849.585 630.568 850.27 630.568Z" fill="#37190F"/>
<path d="M849.087 632.292C849.766 632.292 849.766 633.302 849.087 633.302C848.408 633.301 848.408 632.292 849.087 632.292Z" fill="#37190F"/>
<path d="M852.006 632.539C852.682 632.539 852.682 633.548 852.006 633.548C851.327 633.548 851.327 632.539 852.006 632.539Z" fill="#37190F"/>
<path d="M854.366 631.534C855.045 631.534 855.045 632.541 854.366 632.541C853.691 632.539 853.691 631.534 854.366 631.534Z" fill="#37190F"/>
<path d="M843.841 626.409C843.915 627.4 844.061 628.38 844.117 629.379C844.16 630.372 844.117 631.418 843.713 632.387C843.3 633.37 842.513 634.175 841.585 634.71C840.649 635.241 839.598 635.546 838.536 635.663C836.412 635.891 834.225 635.477 832.385 634.456C831.471 633.94 830.641 633.272 830.015 632.455C829.397 631.631 828.979 630.675 828.85 629.69C829.342 631.637 830.817 633.197 832.609 634.07C834.404 634.95 836.472 635.313 838.464 635.09C839.461 634.975 840.437 634.71 841.286 634.23C842.142 633.764 842.851 633.056 843.254 632.209C843.675 631.346 843.783 630.363 843.804 629.383C843.841 628.4 843.771 627.403 843.841 626.409Z" fill="#37190F"/>
<path d="M844.12 626.409C844.189 627.403 844.12 628.4 844.16 629.382C844.179 630.362 844.281 631.345 844.706 632.207C845.104 633.055 845.822 633.762 846.673 634.228C847.525 634.71 848.502 634.974 849.496 635.088C851.483 635.311 853.558 634.949 855.351 634.069C857.145 633.197 858.621 631.636 859.106 629.688C858.979 630.674 858.56 631.63 857.948 632.453C857.314 633.271 856.49 633.939 855.573 634.454C853.733 635.475 851.544 635.889 849.423 635.662C848.362 635.545 847.309 635.239 846.374 634.708C845.446 634.173 844.661 633.37 844.244 632.385C843.842 631.417 843.801 630.37 843.839 629.377C843.9 628.38 844.044 627.4 844.12 626.409Z" fill="#37190F"/>
<path d="M835.093 630.062C834.413 630.062 834.413 631.069 835.093 631.069C835.774 631.069 835.774 630.062 835.093 630.062Z" fill="#37190F"/>
<path d="M837.671 630.568C836.993 630.568 836.993 631.575 837.671 631.575C838.35 631.575 838.35 630.568 837.671 630.568Z" fill="#37190F"/>
<path d="M838.847 632.292C838.172 632.292 838.172 633.302 838.847 633.302C839.526 633.301 839.526 632.292 838.847 632.292Z" fill="#37190F"/>
<path d="M835.931 632.539C835.254 632.539 835.254 633.548 835.931 633.548C836.611 633.548 836.611 632.539 835.931 632.539Z" fill="#37190F"/>
<path d="M833.567 631.534C832.889 631.534 832.889 632.541 833.567 632.541C834.246 632.539 834.246 631.534 833.567 631.534Z" fill="#37190F"/>
<path d="M852.791 621.188C852.791 624.288 848.784 629.168 843.84 629.168C838.896 629.168 834.89 624.288 834.89 621.188C834.89 618.091 838.896 617.38 843.84 617.38C848.784 617.38 852.791 618.091 852.791 621.188Z" fill="#37190F"/>
<path d="M837.152 620.335C835.438 622.04 837.37 626.725 839.845 624.962C840.496 624.501 840.894 623.977 841.315 623.309C842.025 622.168 842.963 621.66 844.293 621.384C845.216 621.194 847.21 621.04 847.152 619.724C847.071 617.864 839.42 618.076 837.152 620.335Z" fill="#5D372D"/>
<path opacity="0.48" d="M822.933 625.354C822.933 629.447 819.466 632.765 815.19 632.765C810.916 632.765 807.449 629.447 807.449 625.354C807.449 621.259 810.916 617.939 815.19 617.939C819.466 617.939 822.933 621.257 822.933 625.354Z" fill="#AC6651"/>
<path opacity="0.48" d="M884.504 625.354C884.504 629.447 881.037 632.765 876.76 632.765C872.484 632.765 869.018 629.447 869.018 625.354C869.018 621.259 872.484 617.939 876.76 617.939C881.037 617.939 884.504 621.257 884.504 625.354Z" fill="#AC6651"/>
<path d="M827.519 610.896C827.519 612.495 826.508 613.79 825.262 613.79C824.013 613.79 823 612.495 823 610.896C823 609.297 824.013 608 825.262 608C826.509 608 827.519 609.297 827.519 610.896Z" fill="#1E1F24"/>
<path d="M825.223 609.736C824.395 609.736 823.994 610.514 823.994 611.314C823.994 612.183 824.545 612.889 825.223 612.889C825.904 612.889 826.453 612.185 826.453 611.314C826.453 610.444 825.905 609.736 825.223 609.736ZM824.593 611.96C824.469 611.96 824.365 611.828 824.365 611.666C824.365 611.504 824.469 611.373 824.593 611.373C824.721 611.373 824.826 611.504 824.826 611.666C824.826 611.828 824.722 611.96 824.593 611.96ZM824.813 611.246C824.562 611.246 824.361 610.986 824.361 610.668C824.361 610.35 824.562 610.092 824.813 610.092C825.061 610.092 825.263 610.35 825.263 610.668C825.262 610.986 825.06 611.246 824.813 611.246Z" fill="#1E1F24"/>
<path d="M860.684 610.896C860.684 612.495 861.697 613.791 862.943 613.791C864.192 613.791 865.204 612.495 865.204 610.896C865.204 609.297 864.192 608 862.943 608C861.697 608 860.684 609.297 860.684 610.896Z" fill="#1E1F24"/>
<path d="M861.754 611.314C861.754 612.184 862.303 612.889 862.983 612.889C863.662 612.889 864.214 612.185 864.214 611.314C864.214 610.516 863.81 609.737 862.983 609.737C862.302 609.737 861.754 610.444 861.754 611.314ZM863.381 611.666C863.381 611.504 863.485 611.374 863.614 611.374C863.739 611.374 863.843 611.504 863.843 611.666C863.843 611.828 863.739 611.961 863.614 611.961C863.485 611.961 863.381 611.828 863.381 611.666ZM862.944 610.668C862.944 610.35 863.145 610.092 863.394 610.092C863.643 610.092 863.845 610.35 863.845 610.668C863.845 610.986 863.642 611.247 863.394 611.247C863.145 611.247 862.944 610.986 862.944 610.668Z" fill="#1E1F24"/>
<path d="M243.973 624.201C241.987 624.026 228.595 620.95 216.071 639.164C205.841 654.04 202.208 659.61 207.255 663.085C212.305 666.564 219.449 671.052 223.55 663.273C227.65 655.499 234.156 634.813 245.04 628.413C248.391 626.437 245.941 624.386 243.973 624.201Z" fill="#89777F"/>
<path d="M221.614 661.031C219.872 660.315 217.676 661.501 216.696 663.678C216.681 663.726 218.199 659.994 215.139 658.841C212.085 657.683 210.323 661.115 210.373 661.007C211.352 658.827 210.732 656.479 208.99 655.767C207.863 655.298 206.553 655.655 205.5 656.547C204.479 659.562 205.006 661.534 207.252 663.084C212.235 666.522 219.266 670.929 223.391 663.543C223.231 662.399 222.614 661.442 221.614 661.031Z" fill="#A79099"/>
<path d="M289.004 624.201C290.986 624.026 304.378 620.95 316.904 639.164C327.136 654.04 330.773 659.61 325.724 663.085C320.669 666.564 313.524 671.052 309.428 663.273C305.32 655.499 298.819 634.813 287.932 628.413C284.582 626.437 287.032 624.386 289.004 624.201Z" fill="#89777F"/>
<path d="M311.357 661.031C313.099 660.315 315.301 661.501 316.275 663.678C316.302 663.726 314.78 659.994 317.832 658.841C320.894 657.683 322.654 661.115 322.604 661.007C321.627 658.827 322.245 656.479 323.985 655.767C325.114 655.298 326.426 655.655 327.474 656.547C328.492 659.562 327.977 661.534 325.727 663.084C320.736 666.522 313.707 670.929 309.582 663.543C309.74 662.399 310.363 661.442 311.357 661.031Z" fill="#A79099"/>
<path d="M247.423 717.664H260.806C263.412 717.664 265.215 715.628 264.908 710.99C264.175 709.9 263.079 709.203 261.853 709.24C259.729 709.305 258.079 711.515 258.172 714.175C258.172 714.233 257.867 709.753 254.188 709.967C250.514 710.185 250.423 714.465 250.416 714.332C250.331 711.673 248.534 709.566 246.412 709.633C245.166 709.674 244.103 710.471 243.443 711.652V714.602C243.439 716.975 245.148 717.664 247.423 717.664Z" fill="#A79099"/>
<path d="M243.438 679.771V711.648C244.098 710.467 245.163 709.672 246.408 709.63C248.461 709.568 250.192 711.532 250.388 714.064L250.437 714.087C250.533 713.199 251.093 710.143 254.184 709.965C257.863 709.751 258.168 714.231 258.168 714.173C258.075 711.513 259.727 709.305 261.849 709.238C263.074 709.201 264.17 709.898 264.904 710.988V679.769H243.438V679.771Z" fill="#89777F"/>
<path d="M272.014 717.664H285.394C288.007 717.664 289.809 715.628 289.502 710.99C288.767 709.9 287.671 709.203 286.45 709.24C284.32 709.305 282.674 711.515 282.761 714.175C282.769 714.233 282.458 709.753 278.784 709.967C275.099 710.185 275.014 714.465 275.006 714.332C274.923 711.673 273.125 709.566 271.005 709.633C269.758 709.674 268.691 710.471 268.037 711.652V714.602C268.033 716.975 269.739 717.664 272.014 717.664Z" fill="#A79099"/>
<path d="M268.033 679.771V711.648C268.688 710.467 269.755 709.672 271.001 709.63C273.052 709.568 274.775 711.532 274.978 714.064L275.03 714.087C275.136 713.199 275.684 710.143 278.781 709.965C282.454 709.751 282.765 714.231 282.757 714.173C282.67 711.513 284.318 709.305 286.446 709.238C287.668 709.201 288.763 709.898 289.499 710.988V679.769H268.033V679.771Z" fill="#89777F"/>
<path d="M305.982 658.19C305.982 679.065 288.298 695.996 266.482 695.996C244.673 695.996 226.994 679.067 226.994 658.19C226.994 637.304 239.503 602.03 266.482 602.03C293.469 602.03 305.982 637.304 305.982 658.19Z" fill="#A79099"/>
<path d="M309.578 581.612C302.719 599.815 283.091 602.844 266.49 602.844C249.883 602.844 232.443 600.126 223.393 582.826C210.308 557.818 218.327 530.681 266.482 530.681C314.645 530.679 318.78 557.224 309.578 581.612Z" fill="#A79099"/>
<path d="M303.589 578.973C303.892 578.282 304.058 577.522 304.058 576.727C304.058 573.491 301.326 570.873 297.951 570.873C294.735 570.873 292.132 573.25 291.877 576.268C284.993 575.255 276.656 574.801 266.634 574.952C256.52 575.106 248.082 575.82 241.104 577.063C241.113 576.947 241.14 576.841 241.14 576.727C241.14 573.491 238.404 570.873 235.032 570.873C231.653 570.873 228.913 573.491 228.913 576.727C228.913 577.894 229.284 578.984 229.899 579.899C213.736 585.614 210.356 596.008 214.172 609.815C219.992 630.84 250.023 632.67 266.636 632.67C283.239 632.67 314.153 632.791 319.096 609.815C322.305 594.868 319.171 584.331 303.589 578.973Z" fill="#C2A4AD"/>
<path d="M300.571 576.727C300.571 578.108 299.393 579.233 297.951 579.233C296.498 579.233 295.329 578.108 295.329 576.727C295.329 575.338 296.498 574.217 297.951 574.217C299.393 574.217 300.571 575.338 300.571 576.727Z" fill="#635359"/>
<path d="M269.22 668.214C269.22 669.576 267.992 670.678 266.482 670.678C264.973 670.678 263.753 669.576 263.753 668.214C263.753 666.85 264.973 665.748 266.482 665.748C267.994 665.746 269.22 666.85 269.22 668.214Z" fill="#89777F"/>
<path d="M291.069 535.093C296.46 537.576 300.905 540.909 304.525 544.851C304.525 544.845 304.53 544.845 304.542 544.841C317.197 542.896 316.532 526.586 302.36 524.273C288.178 521.963 291.071 535.072 291.071 535.072C291.071 535.072 291.069 535.082 291.069 535.093Z" fill="#9E8891"/>
<path d="M303.211 543.463C309.696 541.252 308.78 532.103 300.34 530.723C293.832 529.664 292.977 533.702 293.006 536.039C296.923 538.08 300.313 540.586 303.211 543.463Z" fill="#89777F"/>
<path d="M241.902 535.093C236.515 537.576 232.074 540.909 228.446 544.851C228.446 544.845 228.443 544.845 228.435 544.841C215.78 542.896 216.437 526.586 230.623 524.273C244.793 521.963 241.904 535.072 241.904 535.072C241.904 535.072 241.902 535.082 241.902 535.093Z" fill="#9E8891"/>
<path d="M229.763 543.463C223.28 541.252 224.198 532.103 232.634 530.723C239.138 529.664 239.993 533.702 239.966 536.039C236.053 538.08 232.663 540.586 229.763 543.463Z" fill="#89777F"/>
<path d="M233.129 606.983V615.584C233.129 617.172 234.47 618.465 236.139 618.465L242.172 619.63C243.834 619.63 245.184 618.34 245.184 616.75V611.882C239.923 610.601 236.021 608.852 233.129 606.983Z" fill="#FFFAFC"/>
<path d="M287.789 611.494V616.752C287.789 618.341 289.134 619.632 290.801 619.632L296.834 618.467C298.499 618.467 299.844 617.174 299.844 615.586V606.682C299.844 606.564 299.823 606.454 299.809 606.338C296.911 608.26 293.006 610.095 287.789 611.494Z" fill="#FFFAFC"/>
<path d="M224.813 596.01C224.813 596.01 226.241 614.018 265.627 614.018C305.009 614.018 308.165 596.01 308.165 596.01" stroke="#9E8891" stroke-width="0.5431" stroke-miterlimit="10" stroke-linecap="round"/>
<path d="M237.646 576.727C237.646 578.108 236.471 579.233 235.032 579.233C233.581 579.233 232.406 578.108 232.406 576.727C232.406 575.338 233.581 574.217 235.032 574.217C236.471 574.217 237.646 575.338 237.646 576.727Z" fill="#635359"/>
<path d="M253.13 568.691C253.13 570.407 252.045 571.797 250.708 571.797C249.367 571.797 248.28 570.407 248.28 568.691C248.28 566.974 249.367 565.583 250.708 565.583C252.046 565.583 253.13 566.974 253.13 568.691Z" fill="#1E1F24"/>
<path d="M250.666 567.446C249.777 567.446 249.347 568.281 249.347 569.139C249.347 570.073 249.938 570.83 250.666 570.83C251.397 570.83 251.987 570.074 251.987 569.139C251.987 568.206 251.398 567.446 250.666 567.446ZM249.991 569.833C249.857 569.833 249.745 569.691 249.745 569.517C249.745 569.343 249.857 569.203 249.991 569.203C250.128 569.203 250.241 569.343 250.241 569.517C250.241 569.691 250.128 569.833 249.991 569.833ZM250.226 569.067C249.956 569.067 249.741 568.788 249.741 568.446C249.741 568.105 249.956 567.828 250.226 567.828C250.492 567.828 250.709 568.105 250.709 568.446C250.708 568.788 250.491 569.067 250.226 569.067Z" fill="#1E1F24"/>
<path d="M279.563 568.691C279.563 570.407 280.65 571.798 281.988 571.798C283.327 571.798 284.414 570.407 284.414 568.691C284.414 566.974 283.327 565.583 281.988 565.583C280.65 565.583 279.563 566.974 279.563 568.691Z" fill="#1E1F24"/>
<path d="M280.71 569.139C280.71 570.073 281.299 570.83 282.029 570.83C282.759 570.83 283.35 570.074 283.35 569.139C283.35 568.283 282.917 567.446 282.029 567.446C281.298 567.446 280.71 568.206 280.71 569.139ZM282.456 569.517C282.456 569.343 282.568 569.203 282.706 569.203C282.841 569.203 282.952 569.343 282.952 569.517C282.952 569.691 282.841 569.833 282.706 569.833C282.568 569.833 282.456 569.691 282.456 569.517ZM281.987 568.446C281.987 568.105 282.203 567.828 282.471 567.828C282.738 567.828 282.955 568.105 282.955 568.446C282.955 568.788 282.737 569.067 282.471 569.067C282.203 569.067 281.987 568.788 281.987 568.446Z" fill="#1E1F24"/>
<path d="M913.567 638.711C913.567 638.711 911.045 613.516 923.216 605.264C927.965 609.524 936.204 623.418 933.531 638.329C933.531 638.329 948.93 621.847 978.617 623.179C978.617 623.179 972.067 642.094 954.554 648.751C954.554 648.751 981.261 644.232 991.652 658.342C991.652 658.342 983.04 664.47 970.868 663.138C970.868 663.138 989.567 667.4 994.317 677.783C993.128 678.316 980.067 679.648 978.286 679.382C976.506 679.117 980.067 679.649 980.067 679.649C980.067 679.649 992.238 687.105 994.909 696.69C994.909 696.69 1005.89 680.981 1015.98 678.052C1015.98 678.052 1019.25 693.229 1013.91 704.944C1013.91 704.944 1023.11 698.287 1039.44 698.82C1037.66 702.281 1028.75 711.6 1024.89 713.463C1024.89 713.463 1047.45 711.067 1056.06 722.249C1056.06 722.249 1045.08 726.509 1035.28 726.777C1035.28 726.777 1059.03 731.302 1066.15 740.887C1066.15 740.887 1056.65 743.55 1045.67 740.088C1045.67 740.088 1062.29 747.809 1065.26 754.999C1065.26 754.999 1055.76 756.33 1045.97 754.2C1045.97 754.2 1064.96 760.664 1069.12 769.45L1057.99 767.256H506.278C506.278 767.256 510.285 755.534 530.323 751.94C530.323 751.94 520.972 754.066 510.285 751.27C510.285 751.27 517.855 741.75 546.8 739.354C546.8 739.354 540.12 736.59 535.668 730.601C535.668 730.601 550.363 727.024 559.713 732.615C569.064 738.206 559.269 731.025 559.269 731.025L549.028 714.256C549.028 714.256 569.512 719.849 574.41 727.837L572.183 715.856C572.183 715.856 576.636 717.853 578.863 722.246L591.33 707.868L581.09 705.473C581.09 705.473 589.55 699.083 599.347 701.08C599.347 701.08 590.886 697.486 585.543 687.501C585.543 687.501 600.683 683.507 611.37 690.697C611.37 690.697 600.683 671.128 598.903 665.936C598.903 665.936 630.074 670.328 643.878 691.495L642.987 671.126C642.987 671.126 663.915 687.899 665.698 703.874C665.698 703.874 667.034 694.289 676.385 686.303C680.392 692.692 684.399 712.262 683.065 721.047C683.065 721.047 685.292 711.862 695.979 706.269C695.979 706.269 700.876 715.454 700.432 724.641C700.432 724.641 706.222 710.664 725.813 706.67C725.367 711.862 718.689 723.044 718.689 723.044C718.689 723.044 723.587 718.252 729.821 718.652C729.821 721.847 724.477 727.439 722.697 729.035C722.697 729.035 749.858 720.649 769.896 733.03C769.896 733.03 766.333 728.637 764.999 720.649C770.786 722.646 779.693 724.643 784.59 731.433C784.59 731.433 777.466 717.853 783.254 706.271C787.707 709.467 794.831 717.055 797.058 723.044L801.955 714.258C801.955 714.258 805.962 719.849 806.853 728.235C806.853 728.235 813.086 713.857 821.547 708.667C821.547 708.667 810.86 710.263 806.853 709.067C809.079 708.667 815.313 697.885 826 696.686C826 696.686 812.642 693.092 807.743 687.101C810.414 686.303 834.014 683.507 834.014 683.507C834.014 683.507 823.327 678.715 815.313 664.337C815.313 664.337 834.907 663.538 846.928 672.325C846.928 672.325 843.811 664.337 845.592 657.549C846.928 657.549 853.606 662.742 855.833 669.53C855.833 669.53 865.63 649.161 874.98 647.564C874.98 647.564 862.067 639.177 860.286 631.589C860.286 631.589 874.98 629.194 882.551 637.58L880.324 625.6C880.324 625.6 886.558 626 889.675 633.188C889.675 633.188 893.682 616.015 903.032 611.622C907.039 616.015 906.595 633.588 906.595 633.588L908.822 624.403L913.567 638.711Z" fill="#13334C"/>
<path d="M593.83 751.399C593.83 751.399 579.136 747.806 569.785 753.397C560.435 758.988 570.232 751.8 570.232 751.8L580.473 735.027C580.473 735.027 559.989 740.618 555.091 748.606L557.318 736.625C557.318 736.625 552.865 738.622 550.638 743.015L538.17 728.637L548.411 726.242C548.411 726.242 539.951 719.852 530.154 721.849C530.154 721.849 538.614 718.255 543.958 708.27C543.958 708.27 528.818 704.276 518.131 711.466C518.131 711.466 528.818 691.897 530.598 686.705C530.598 686.705 499.427 691.097 485.623 712.264L486.513 691.895C486.513 691.895 481.382 696.011 475.985 702.102C463.009 702.932 455.789 708.136 455.789 708.136C461.132 696.421 457.867 681.244 457.867 681.244C447.774 684.173 436.791 699.882 436.791 699.882C434.12 690.297 421.949 682.841 421.949 682.841C421.949 682.841 418.388 682.308 420.168 682.574C421.949 682.84 435.013 681.508 436.199 680.975C431.45 670.592 412.75 666.33 412.75 666.33C424.922 667.662 433.534 661.534 433.534 661.534C423.143 647.424 396.436 651.943 396.436 651.943C413.951 645.286 420.499 626.371 420.499 626.371C390.813 625.039 375.413 641.523 375.413 641.523C378.084 626.612 369.848 612.718 365.098 608.458C352.927 616.712 355.45 641.905 355.45 641.905L350.7 627.593L348.474 636.778C348.474 636.778 348.92 619.205 344.91 614.812C335.56 619.205 331.553 636.378 331.553 636.378C328.436 629.19 322.202 628.79 322.202 628.79L324.429 640.771C316.858 632.384 302.164 634.779 302.164 634.779C303.945 642.367 316.858 650.754 316.858 650.754C307.508 652.351 297.711 672.72 297.711 672.72C295.484 665.93 288.804 660.739 287.47 660.739C285.689 667.529 288.806 675.515 288.806 675.515C276.783 666.728 257.191 667.527 257.191 667.527C257.72 668.475 258.26 669.377 258.809 670.243C257.393 669.258 255.951 668.571 254.518 668.325C254.518 668.325 267.432 659.939 269.213 652.351C269.213 652.351 254.518 649.955 246.948 658.342L249.175 646.362C249.175 646.362 242.941 646.762 239.824 653.95C239.824 653.95 235.817 636.776 226.466 632.384C222.459 636.776 222.903 654.35 222.903 654.35L220.677 645.165L215.927 659.476C215.927 659.476 218.45 634.281 206.279 626.028C201.529 630.287 193.291 644.182 195.961 659.092C195.961 659.092 180.562 642.611 150.875 643.942C150.875 643.942 157.424 662.858 174.939 669.515C174.939 669.515 148.231 664.995 137.84 679.105C137.84 679.105 146.455 685.231 158.625 683.902C158.625 683.902 139.925 688.163 135.176 698.547C136.362 699.08 149.426 700.411 151.206 700.145C152.987 699.88 149.426 700.413 149.426 700.413C149.426 700.413 142.853 704.451 138.307 710.394C138.025 709.797 137.849 709.465 137.849 709.465C135.386 710.754 133.391 712.235 131.751 713.749C129.713 711.233 126.736 707.84 123.37 704.877C122.04 698.495 120.153 692.519 118.257 689.498C108.906 697.486 107.57 707.07 107.57 707.07C105.789 691.095 84.8614 674.322 84.8614 674.322L85.7517 694.691C71.9477 673.524 40.7767 669.131 40.7767 669.131C42.5572 674.322 53.2443 693.892 53.2443 693.892C42.5572 686.705 27.4168 690.697 27.4168 690.697C32.7603 700.68 41.2208 704.276 41.2208 704.276C31.4239 702.279 22.9635 708.668 22.9635 708.668L33.2044 711.064L20.7368 725.441C18.5102 721.049 14.0569 719.052 14.0569 719.052L16.2836 731.032C11.3862 723.044 -9.09776 717.453 -9.09776 717.453L1.14317 734.226C1.14317 734.226 10.94 741.414 1.58932 735.823C-7.76136 730.232 -22.4556 733.826 -22.4556 733.826C-18.0023 739.817 -11.3244 742.613 -11.3244 742.613C-40.2688 745.008 -47.839 754.593 -47.839 754.593C-37.1519 757.389 -27.8012 755.392 -27.8012 755.392C-41.2248 757.8 -47.436 763.961 -50.0862 767.772H613.155C607.836 764.914 598.428 761.488 582.687 760.184C582.699 760.186 589.377 757.391 593.83 751.399ZM275.444 686.48C275.385 686.577 275.325 686.677 275.268 686.776C274.612 686.856 273.477 686.99 272.036 687.167C271.254 685.746 270.224 683.957 269.009 682.048C272.046 684.602 274.484 685.985 275.444 686.48Z" fill="#13334C"/>
<path d="M1058.47 587.586C1058.47 587.586 1041.72 560.756 1034.54 538.221C1027.36 515.683 1021.38 511.39 1017.79 508.171C1014.2 504.951 1023.77 500.658 1023.77 500.658C1023.77 500.658 1016.59 502.805 1010.61 498.512C1004.63 494.219 995.053 485.633 989.07 481.34C983.087 477.048 979.497 473.828 969.924 467.389C960.352 460.95 943.599 448.071 937.616 445.925C931.633 443.778 902.915 428.753 902.915 428.753L888.556 426.607C888.556 426.607 913.685 424.46 935.221 427.68C956.76 430.9 987.869 449.144 1001.03 453.437C1014.19 457.73 1034.54 481.341 1042.91 486.707C1051.29 492.073 1075.22 517.83 1075.22 517.83L1096.76 551.099L1058.47 587.586Z" fill="#13334C"/>
<path d="M-19.1165 693.177C-19.1165 693.177 20.5458 697.623 35.4189 657.605C50.292 617.584 28.8088 602.762 68.4711 577.566C108.133 552.368 111.439 544.957 109.786 518.278C108.133 491.599 127.966 491.599 151.102 466.4C174.238 441.202 149.449 430.828 172.585 411.558C195.721 392.288 227.12 401.182 232.079 387.842C237.038 374.503 197.376 349.305 139.535 355.233C81.6933 361.162 68.4732 390.806 53.598 417.487C38.7249 444.166 -2.5904 447.131 -2.5904 482.703C-2.5904 518.276 -32.3366 534.581 -45.5588 547.92C-58.7809 561.26 -45.5587 565.707 -68.6949 605.726C-91.8311 645.746 -78.611 700.588 -19.1165 693.177Z" fill="#4B9F66"/>
<path d="M234.104 384.842C205.777 374.929 175.05 378.036 147.526 388.547C117.854 399.878 94.3355 420.066 75.8006 443.345C55.549 468.779 41.5826 497.789 27.9843 526.399C12.0832 559.851 -3.75421 593.327 -19.6224 626.792C-28.8806 646.316 -38.1388 665.84 -47.399 685.364C-48.0178 686.668 -45.8817 687.802 -45.2587 686.487C-29.2959 652.825 -13.3331 619.161 2.62966 585.499C17.5233 554.094 31.6789 522.292 48.0056 491.457C62.9609 463.21 81.2264 435.646 107.245 414.435C131.67 394.521 164.174 381.21 197.434 380.9C209.772 380.785 221.974 382.971 233.442 386.983C234.937 387.509 235.577 385.359 234.104 384.842Z" fill="#9ED188"/>
<path d="M-31.3744 744.385C-31.3744 744.385 -33.0275 696.77 3.33084 659.714L26.467 687.784L16.5509 652.165C16.5509 652.165 24.814 623.98 61.1723 601.746L89.2675 610.629L76.0474 589.873C76.0474 589.873 127.663 548.368 168.979 533.546L180.928 542.434C180.928 542.434 174.76 526.871 180.928 526.871C185.04 526.871 235.081 517.236 235.081 517.236C235.081 517.236 205.142 560.22 178.699 591.346C152.257 622.473 142.247 635.813 142.247 635.813L112.451 626.919L132.258 643.224C132.258 643.224 91.9301 713.707 78.2104 723.672L54.5684 711.405L69.8671 730.015C69.8671 730.015 54.5643 761.8 6.63689 773.659C-41.2885 785.516 -41.2905 785.516 -41.2905 785.516L-31.3744 744.385Z" fill="#FED06F"/>
<path d="M234.627 517.422C217.011 524.671 201.073 534.348 186.126 545.211C185.757 544.562 185.599 543.758 185.531 542.762C185.431 541.295 185.48 539.823 185.566 538.357C185.651 536.924 183.171 536.932 183.087 538.357C182.963 540.461 182.326 544.623 183.868 546.858C174.754 553.598 165.999 560.764 157.457 568.075C155.76 569.526 154.093 571.003 152.411 572.467C151.926 570.922 151.846 568.971 151.759 568.158C151.638 567.009 152.366 562.969 150.898 562.471C152.397 562.978 153.038 560.83 151.558 560.326C151.455 560.291 151.352 560.256 151.248 560.221C150.847 560.085 150.328 560.245 150.041 560.507C148.373 562.027 149.14 565.023 149.202 566.937C149.274 569.205 149.555 571.879 150.489 574.138C139.362 583.885 128.514 593.887 117.899 604.086C116.75 601.223 116.456 596.471 116.289 595.35C115.691 591.324 115.646 587.251 115.788 583.198C115.837 581.763 113.36 581.767 113.308 583.198C113.14 588.027 113.294 592.875 114.153 597.655C114.571 599.978 114.69 603.478 115.954 605.969C104.546 616.982 93.3711 628.193 82.3592 639.521C80.3896 637.02 80.2004 632.958 79.6371 630.089C78.7365 625.499 78.387 620.813 77.9676 616.172C77.8381 614.754 75.3585 614.743 75.488 616.172C75.928 621.027 76.4297 625.862 77.2459 630.679C77.8278 634.114 78.3685 638.405 80.3896 641.568C69.2172 653.096 58.2074 664.752 47.253 676.449C43.8236 680.111 40.3161 683.749 36.8229 687.406C35.5379 671.32 37.5446 655.361 42.9046 639.919C43.3816 638.545 40.9884 637.964 40.5134 639.329C34.8245 655.722 32.8117 672.72 34.5305 689.814C27.793 696.91 21.1891 704.122 15.4056 711.802C11.4724 717.022 7.99369 722.492 4.59101 728.003C1.8298 715.687 0.916941 703.233 1.87504 690.67C1.984 689.239 -0.49553 689.248 -0.604498 690.67C-1.63867 704.245 -0.497589 717.714 2.74883 730.992C-1.42896 737.808 -5.58824 744.636 -10.4198 751.11C-20.4984 764.616 -30.875 778.702 -44.1629 789.851C-45.3328 790.832 -43.5749 792.401 -42.4091 791.424C-22.7682 774.944 -8.92102 753.733 4.45531 732.816C4.46559 732.814 4.47382 732.818 4.48616 732.814C20.599 729.379 37.0635 727.998 53.6019 728.879C55.1994 728.964 55.1912 726.74 53.6019 726.655C37.6268 725.803 21.7052 727.085 6.11451 730.22C8.75441 726.087 11.3861 721.973 14.0486 717.92C20.303 708.398 28.2617 699.759 36.3583 691.3C36.6112 691.223 36.7859 691.044 36.9011 690.821C53.3758 691.96 69.7559 690.917 85.8935 687.71C87.454 687.4 86.7919 685.256 85.2355 685.565C69.9369 688.606 54.4449 689.626 38.8481 688.709C41.7594 685.68 44.6707 682.661 47.5059 679.63C58.9023 667.443 70.3707 655.307 81.9891 643.29C84.6578 644.909 91.3768 644.365 93.77 644.52C100.945 644.986 108.154 644.866 115.327 644.453C116.914 644.361 116.925 642.137 115.327 642.23C105.724 642.785 96.1796 642.619 86.6069 641.732C85.6591 641.643 84.8716 641.392 84.1911 641.036C95.0776 629.818 106.147 618.739 117.439 607.848C119.694 609.53 126.345 609.218 128.858 609.39C135.089 609.814 141.354 609.558 147.563 608.991C149.138 608.848 149.152 606.624 147.563 606.768C138.293 607.612 129.109 607.478 119.879 606.29C119.663 606.262 119.464 606.172 119.275 606.052C129.855 595.89 140.692 585.945 151.757 576.203C153.39 577.455 157.477 577.588 159.278 577.798C163.174 578.252 167.184 577.651 170.893 576.596C172.41 576.165 171.762 574.018 170.233 574.452C164.801 575.995 159.476 576.019 154.021 574.54C153.929 574.514 153.859 574.442 153.774 574.4C154.473 573.79 155.146 573.157 155.847 572.549C165.485 564.166 175.399 555.951 185.79 548.296C189.421 550.002 194.417 550.234 198.338 550.293C199.938 550.317 199.936 548.093 198.338 548.069C195.075 548.02 191.911 547.629 188.755 546.887C188.48 546.823 188.239 546.745 188.009 546.664C202.771 535.978 218.524 526.48 235.885 519.338C237.328 518.744 236.068 516.828 234.627 517.422Z" fill="#F2D188"/>
<path d="M75.6651 719.895C75.6651 719.895 69.9391 700.83 72.1575 698.654C74.3739 696.478 74.6946 698.75 77.5504 697.585C80.4062 696.419 82.4643 694.874 85.2399 695.789C88.0155 696.703 88.6898 698.337 91.194 697.81C93.6962 697.284 94.7817 699.312 95.0901 701.376C95.3985 703.439 91.5806 719.825 90.5649 721.728C87.3884 727.684 78.8519 728.271 75.6651 719.895Z" fill="white"/>
<path d="M64.0445 732.285C64.0445 732.285 45.8139 721.217 45.9044 718.271C45.9949 715.324 47.8925 716.854 49.2043 714.299C50.516 711.741 50.9457 709.366 53.7131 708.431C56.4805 707.496 58.1808 708.335 59.6899 706.469C61.199 704.603 63.4996 705.503 65.239 706.882C66.9763 708.263 76.033 722.899 76.6519 724.933C78.5927 731.304 72.5625 736.753 64.0445 732.285Z" fill="white"/>
<path d="M75.6651 761.389C75.6651 761.389 69.9391 780.454 72.1575 782.63C74.3739 784.806 74.6946 782.534 77.5504 783.699C80.4062 784.865 82.4643 786.41 85.2399 785.495C88.0155 784.581 88.6898 782.949 91.194 783.474C93.6962 784.002 94.7817 781.972 95.0901 779.908C95.3985 777.845 91.5806 761.459 90.5649 759.556C87.3884 753.6 78.8519 753.013 75.6651 761.389Z" fill="white"/>
<path d="M63.1502 748.39C63.1502 748.39 44.0479 758.204 43.8917 761.149C43.7375 764.092 45.7564 762.694 46.8523 765.331C47.9461 767.968 48.1764 770.367 50.8594 771.485C53.5425 772.604 55.3066 771.881 56.6574 773.843C58.0061 775.805 60.3767 775.064 62.225 773.803C64.0733 772.543 74.3246 758.555 75.112 756.567C77.5751 750.345 72.0157 744.507 63.1502 748.39Z" fill="white"/>
<path d="M64.472 746.873C64.472 746.873 42.8039 750.367 40.5752 748.202C38.3465 746.036 40.8959 745.943 39.8453 743.292C38.7926 740.64 37.2506 738.671 38.5048 736.266C39.7589 733.863 41.6278 733.399 41.2557 731.118C40.8836 728.837 43.2295 728.04 45.5486 727.939C47.8678 727.839 65.7447 732.645 67.7719 733.712C74.1229 737.059 74.0489 744.736 64.472 746.873Z" fill="white"/>
<path d="M104.416 731.588C104.416 731.588 122.213 719.963 122.007 717.022C121.804 714.081 119.966 715.669 118.557 713.153C117.149 710.638 116.629 708.278 113.825 707.428C111.022 706.578 109.355 707.47 107.776 705.652C106.195 703.834 103.931 704.804 102.247 706.237C100.563 707.669 92.0741 722.578 91.5334 724.631C89.8393 731.055 96.0751 736.316 104.416 731.588Z" fill="white"/>
<path d="M105.171 748.296C105.171 748.296 123.253 759.56 123.122 762.504C122.992 765.449 121.115 763.899 119.768 766.441C118.422 768.984 117.961 771.356 115.181 772.261C112.402 773.166 110.712 772.309 109.178 774.159C107.644 776.008 105.356 775.084 103.635 773.685C101.916 772.285 93.0547 757.553 92.4626 755.512C90.6102 749.123 96.7124 743.738 105.171 748.296Z" fill="white"/>
<path d="M102.928 746.799C102.928 746.799 124.271 751.643 126.662 749.622C129.053 747.601 126.518 747.349 127.772 744.769C129.029 742.189 130.721 740.321 129.658 737.845C128.595 735.368 126.765 734.789 127.314 732.536C127.863 730.284 125.585 729.342 123.278 729.095C120.973 728.85 102.763 732.523 100.658 733.461C94.0664 736.403 93.5421 744.066 102.928 746.799Z" fill="white"/>
<path d="M98.9346 732.217C97.6208 730.378 95.863 728.899 93.8419 727.773C91.9401 726.135 89.588 724.918 86.944 724.328C73.9069 721.409 62.0541 732.584 64.1533 743.935C66.1373 754.667 77.986 761.745 89.5819 758.276C95.5258 756.499 99.8105 752.953 101.887 747.649C103.774 742.827 101.895 736.362 98.9346 732.217Z" fill="#FFA975"/>
<path d="M938.803 653.559C938.803 653.559 935.637 643.011 936.862 641.807C938.089 640.603 938.266 641.861 939.845 641.215C941.426 640.57 942.563 639.716 944.099 640.222C945.635 640.729 946.009 641.63 947.393 641.339C948.777 641.048 949.377 642.171 949.548 643.312C949.718 644.453 947.607 653.519 947.045 654.571C945.29 657.869 940.567 658.193 938.803 653.559Z" fill="white"/>
<path d="M932.374 660.415C932.374 660.415 922.287 654.291 922.338 652.663C922.39 651.033 923.438 651.879 924.164 650.465C924.89 649.051 925.126 647.736 926.658 647.219C928.19 646.703 929.129 647.166 929.966 646.133C930.801 645.101 932.073 645.599 933.036 646.362C933.998 647.125 939.006 655.224 939.35 656.349C940.423 659.871 937.088 662.886 932.374 660.415Z" fill="white"/>
<path d="M938.803 676.515C938.803 676.515 935.637 687.063 936.862 688.267C938.089 689.471 938.266 688.213 939.845 688.859C941.426 689.504 942.563 690.358 944.099 689.853C945.635 689.346 946.009 688.444 947.393 688.735C948.777 689.027 949.377 687.904 949.548 686.762C949.718 685.621 947.607 676.556 947.045 675.503C945.29 672.206 940.567 671.881 938.803 676.515Z" fill="white"/>
<path d="M931.88 669.323C931.88 669.323 921.313 674.752 921.226 676.382C921.14 678.011 922.258 677.238 922.865 678.697C923.471 680.155 923.599 681.483 925.081 682.101C926.566 682.72 927.542 682.32 928.289 683.404C929.035 684.49 930.347 684.079 931.368 683.382C932.39 682.685 938.063 674.946 938.499 673.847C939.862 670.406 936.786 667.175 931.88 669.323Z" fill="white"/>
<path d="M932.612 668.484C932.612 668.484 920.626 670.417 919.392 669.22C918.158 668.022 919.569 667.97 918.987 666.504C918.405 665.036 917.552 663.946 918.245 662.617C918.938 661.287 919.974 661.031 919.766 659.77C919.561 658.508 920.858 658.066 922.141 658.011C923.424 657.955 933.315 660.614 934.436 661.204C937.952 663.056 937.91 667.302 932.612 668.484Z" fill="white"/>
<path d="M954.71 660.028C954.71 660.028 964.556 653.598 964.443 651.97C964.33 650.341 963.314 651.221 962.533 649.829C961.754 648.436 961.466 647.131 959.916 646.661C958.365 646.191 957.442 646.683 956.568 645.678C955.695 644.671 954.441 645.208 953.509 646.001C952.578 646.794 947.882 655.04 947.582 656.176C946.644 659.735 950.094 662.645 954.71 660.028Z" fill="white"/>
<path d="M955.127 669.274C955.127 669.274 965.132 675.505 965.06 677.135C964.988 678.765 963.95 677.906 963.205 679.312C962.461 680.719 962.206 682.031 960.668 682.532C959.131 683.034 958.195 682.56 957.348 683.581C956.499 684.605 955.232 684.094 954.282 683.32C953.331 682.545 948.429 674.394 948.102 673.266C947.072 669.729 950.448 666.751 955.127 669.274Z" fill="white"/>
<path d="M953.885 668.444C953.885 668.444 965.693 671.123 967.015 670.006C968.339 668.888 966.935 668.748 967.63 667.321C968.325 665.894 969.26 664.861 968.672 663.491C968.084 662.121 967.073 661.8 967.375 660.555C967.679 659.309 966.419 658.789 965.142 658.652C963.867 658.516 953.793 660.548 952.627 661.068C948.984 662.692 948.694 666.932 953.885 668.444Z" fill="white"/>
<path d="M951.678 660.376C950.952 659.359 949.977 658.54 948.859 657.918C947.806 657.013 946.505 656.34 945.043 656.012C937.83 654.398 931.274 660.579 932.433 666.858C933.529 672.796 940.086 676.711 946.501 674.793C949.788 673.81 952.159 671.848 953.308 668.912C954.354 666.248 953.316 662.67 951.678 660.376Z" fill="#FFA975"/>
<path d="M241.008 662.184C241.008 662.184 238.693 654.477 239.59 653.598C240.486 652.718 240.616 653.637 241.769 653.165C242.925 652.694 243.755 652.069 244.878 652.44C246 652.811 246.272 653.469 247.283 653.257C248.295 653.045 248.733 653.863 248.858 654.699C248.984 655.532 247.44 662.156 247.031 662.925C245.746 665.333 242.296 665.569 241.008 662.184Z" fill="white"/>
<path d="M236.311 667.192C236.311 667.192 228.942 662.718 228.979 661.527C229.016 660.336 229.783 660.955 230.313 659.921C230.844 658.888 231.016 657.928 232.135 657.55C233.253 657.172 233.94 657.511 234.551 656.757C235.161 656.002 236.091 656.366 236.794 656.924C237.497 657.483 241.157 663.399 241.407 664.221C242.191 666.795 239.754 668.999 236.311 667.192Z" fill="white"/>
<path d="M241.008 678.955C241.008 678.955 238.693 686.661 239.59 687.54C240.486 688.42 240.616 687.502 241.769 687.972C242.925 688.442 243.755 689.067 244.878 688.698C246 688.328 246.272 687.669 247.283 687.882C248.295 688.094 248.733 687.275 248.858 686.44C248.984 685.606 247.44 678.982 247.031 678.213C245.746 675.807 242.296 675.569 241.008 678.955Z" fill="white"/>
<path d="M235.951 673.701C235.951 673.701 228.231 677.668 228.167 678.857C228.103 680.046 228.921 679.482 229.363 680.548C229.805 681.614 229.898 682.584 230.984 683.035C232.067 683.487 232.781 683.196 233.327 683.989C233.872 684.782 234.83 684.481 235.577 683.972C236.323 683.463 240.468 677.81 240.785 677.006C241.782 674.492 239.534 672.132 235.951 673.701Z" fill="white"/>
<path d="M236.485 673.087C236.485 673.087 227.729 674.5 226.826 673.624C225.926 672.748 226.956 672.711 226.53 671.64C226.105 670.568 225.482 669.772 225.987 668.8C226.493 667.828 227.25 667.642 227.1 666.72C226.95 665.798 227.897 665.475 228.835 665.435C229.772 665.394 236.997 667.336 237.818 667.769C240.385 669.121 240.355 672.224 236.485 673.087Z" fill="white"/>
<path d="M252.629 666.91C252.629 666.91 259.821 662.211 259.739 661.022C259.656 659.832 258.914 660.474 258.345 659.458C257.775 658.442 257.565 657.487 256.433 657.144C255.3 656.801 254.625 657.16 253.988 656.427C253.349 655.693 252.434 656.084 251.753 656.663C251.073 657.242 247.641 663.268 247.423 664.096C246.736 666.696 249.257 668.82 252.629 666.91Z" fill="white"/>
<path d="M252.933 673.664C252.933 673.664 260.242 678.217 260.189 679.407C260.135 680.596 259.377 679.971 258.834 680.998C258.289 682.025 258.104 682.984 256.979 683.351C255.855 683.718 255.172 683.371 254.553 684.118C253.932 684.865 253.007 684.492 252.312 683.926C251.617 683.36 248.036 677.406 247.797 676.581C247.049 673.998 249.516 671.822 252.933 673.664Z" fill="white"/>
<path d="M252.026 673.058C252.026 673.058 260.653 675.016 261.62 674.199C262.586 673.382 261.562 673.281 262.068 672.237C262.576 671.195 263.258 670.439 262.829 669.44C262.399 668.438 261.659 668.204 261.881 667.293C262.103 666.382 261.182 666.002 260.25 665.903C259.319 665.803 251.959 667.288 251.107 667.668C248.445 668.857 248.233 671.955 252.026 673.058Z" fill="white"/>
<path d="M250.413 667.164C249.882 666.421 249.171 665.824 248.355 665.368C247.586 664.706 246.636 664.216 245.567 663.976C240.297 662.796 235.507 667.312 236.356 671.9C237.158 676.237 241.946 679.097 246.634 677.695C249.035 676.978 250.768 675.543 251.607 673.401C252.37 671.453 251.609 668.84 250.413 667.164Z" fill="#FFA975"/>
<path d="M426.546 593.349C426.546 593.349 424.572 586.781 425.337 586.03C426.1 585.281 426.211 586.063 427.196 585.661C428.181 585.259 428.888 584.726 429.846 585.042C430.802 585.357 431.034 585.919 431.898 585.739C432.759 585.558 433.134 586.257 433.241 586.967C433.347 587.679 432.032 593.323 431.682 593.98C430.586 596.034 427.644 596.235 426.546 593.349Z" fill="white"/>
<path d="M422.541 597.618C422.541 597.618 416.26 593.804 416.291 592.788C416.321 591.772 416.975 592.301 417.428 591.42C417.88 590.539 418.028 589.72 418.982 589.399C419.936 589.076 420.522 589.366 421.042 588.722C421.562 588.079 422.356 588.388 422.954 588.864C423.552 589.34 426.673 594.383 426.887 595.084C427.555 597.28 425.477 599.157 422.541 597.618Z" fill="white"/>
<path d="M426.546 607.645C426.546 607.645 424.572 614.216 425.337 614.964C426.1 615.715 426.211 614.931 427.196 615.333C428.181 615.735 428.888 616.268 429.846 615.953C430.802 615.637 431.034 615.075 431.898 615.256C432.759 615.436 433.134 614.737 433.241 614.027C433.347 613.316 432.032 607.671 431.682 607.015C430.586 604.962 427.644 604.76 426.546 607.645Z" fill="white"/>
<path d="M422.235 603.168C422.235 603.168 415.653 606.55 415.6 607.564C415.546 608.578 416.243 608.097 416.62 609.004C416.998 609.913 417.076 610.74 418.001 611.125C418.926 611.51 419.533 611.261 420 611.938C420.464 612.615 421.281 612.359 421.918 611.925C422.555 611.49 426.087 606.672 426.359 605.988C427.204 603.841 425.29 601.829 422.235 603.168Z" fill="white"/>
<path d="M422.689 602.644C422.689 602.644 415.224 603.849 414.455 603.102C413.686 602.355 414.566 602.324 414.204 601.409C413.842 600.496 413.31 599.818 413.741 598.988C414.173 598.16 414.817 597.999 414.689 597.214C414.562 596.428 415.37 596.154 416.167 596.119C416.967 596.084 423.127 597.739 423.824 598.108C426.016 599.263 425.989 601.909 422.689 602.644Z" fill="white"/>
<path d="M436.452 597.378C436.452 597.378 442.583 593.373 442.513 592.359C442.443 591.344 441.81 591.892 441.325 591.025C440.839 590.159 440.66 589.346 439.694 589.052C438.728 588.759 438.154 589.067 437.609 588.44C437.065 587.813 436.285 588.147 435.703 588.641C435.124 589.135 432.198 594.271 432.013 594.979C431.429 597.195 433.578 599.006 436.452 597.378Z" fill="white"/>
<path d="M436.713 603.135C436.713 603.135 442.943 607.017 442.897 608.031C442.852 609.045 442.205 608.51 441.742 609.388C441.279 610.266 441.119 611.081 440.161 611.392C439.203 611.704 438.621 611.409 438.093 612.045C437.564 612.683 436.775 612.364 436.183 611.883C435.59 611.402 432.537 606.325 432.334 605.621C431.696 603.419 433.798 601.564 436.713 603.135Z" fill="white"/>
<path d="M435.94 602.619C435.94 602.619 443.294 604.287 444.117 603.592C444.939 602.897 444.067 602.809 444.499 601.92C444.931 601.031 445.515 600.387 445.149 599.534C444.783 598.68 444.152 598.481 444.341 597.704C444.53 596.928 443.744 596.604 442.951 596.519C442.157 596.434 435.882 597.701 435.157 598.023C432.887 599.038 432.706 601.678 435.94 602.619Z" fill="white"/>
<path d="M434.564 597.596C434.112 596.961 433.506 596.452 432.809 596.065C432.153 595.501 431.343 595.082 430.432 594.878C425.94 593.873 421.856 597.721 422.58 601.632C423.263 605.329 427.346 607.769 431.341 606.574C433.388 605.962 434.865 604.739 435.58 602.912C436.232 601.25 435.584 599.023 434.564 597.596Z" fill="#FFA975"/>
<path d="M747.282 539.873C747.282 539.873 745.309 533.305 746.073 532.554C746.836 531.805 746.947 532.587 747.932 532.185C748.917 531.783 749.624 531.25 750.582 531.566C751.538 531.881 751.77 532.443 752.634 532.263C753.495 532.082 753.87 532.781 753.977 533.491C754.084 534.203 752.768 539.847 752.418 540.503C751.322 542.558 748.38 542.759 747.282 539.873Z" fill="white"/>
<path d="M743.277 544.142C743.277 544.142 736.996 540.328 737.027 539.312C737.058 538.296 737.712 538.825 738.164 537.944C738.616 537.063 738.764 536.244 739.718 535.923C740.672 535.6 741.258 535.89 741.778 535.246C742.298 534.603 743.092 534.912 743.69 535.388C744.289 535.864 747.41 540.907 747.624 541.608C748.292 543.804 746.213 545.681 743.277 544.142Z" fill="white"/>
<path d="M747.282 554.169C747.282 554.169 745.309 560.74 746.073 561.488C746.836 562.239 746.947 561.455 747.932 561.857C748.917 562.259 749.624 562.792 750.582 562.477C751.538 562.161 751.77 561.599 752.634 561.78C753.495 561.96 753.87 561.261 753.977 560.551C754.084 559.84 752.768 554.195 752.418 553.539C751.322 551.486 748.38 551.283 747.282 554.169Z" fill="white"/>
<path d="M742.971 549.692C742.971 549.692 736.389 553.074 736.336 554.088C736.282 555.102 736.979 554.621 737.356 555.528C737.734 556.437 737.812 557.264 738.737 557.649C739.663 558.034 740.269 557.785 740.736 558.462C741.2 559.139 742.017 558.883 742.654 558.449C743.291 558.014 746.824 553.196 747.095 552.512C747.94 550.365 746.026 548.353 742.971 549.692Z" fill="white"/>
<path d="M743.427 549.168C743.427 549.168 735.962 550.373 735.193 549.626C734.424 548.879 735.304 548.848 734.942 547.933C734.58 547.02 734.048 546.342 734.48 545.512C734.911 544.682 735.555 544.523 735.427 543.738C735.3 542.952 736.108 542.678 736.908 542.643C737.707 542.608 743.867 544.263 744.564 544.632C746.752 545.787 746.725 548.433 743.427 549.168Z" fill="white"/>
<path d="M757.19 543.902C757.19 543.902 763.321 539.897 763.251 538.883C763.181 537.868 762.548 538.416 762.063 537.549C761.578 536.683 761.399 535.87 760.432 535.576C759.466 535.283 758.892 535.591 758.348 534.964C757.803 534.337 757.023 534.671 756.442 535.165C755.86 535.659 752.936 540.795 752.749 541.503C752.165 543.719 754.314 545.53 757.19 543.902Z" fill="white"/>
<path d="M757.449 549.659C757.449 549.659 763.679 553.541 763.636 554.555C763.59 555.569 762.943 555.034 762.48 555.912C762.018 556.79 761.857 557.605 760.899 557.916C759.941 558.228 759.359 557.933 758.831 558.569C758.302 559.207 757.513 558.888 756.921 558.407C756.329 557.926 753.275 552.849 753.072 552.145C752.433 549.943 754.534 548.088 757.449 549.659Z" fill="white"/>
<path d="M756.676 549.143C756.676 549.143 764.03 550.811 764.853 550.116C765.677 549.419 764.803 549.333 765.235 548.444C765.667 547.555 766.251 546.911 765.885 546.058C765.519 545.204 764.888 545.005 765.077 544.228C765.266 543.452 764.481 543.127 763.687 543.043C762.893 542.958 756.618 544.225 755.893 544.547C753.623 545.562 753.442 548.202 756.676 549.143Z" fill="white"/>
<path d="M755.3 544.12C754.848 543.485 754.242 542.976 753.545 542.589C752.889 542.025 752.079 541.606 751.168 541.402C746.676 540.397 742.592 544.245 743.314 548.156C743.997 551.853 748.08 554.293 752.077 553.098C754.124 552.486 755.601 551.263 756.316 549.436C756.968 547.774 756.32 545.547 755.3 544.12Z" fill="#FFA975"/>
<path d="M773.513 636.368C773.513 636.368 771.198 628.661 772.094 627.782C772.99 626.902 773.12 627.821 774.273 627.348C775.429 626.878 776.259 626.253 777.382 626.624C778.505 626.994 778.776 627.653 779.788 627.441C780.799 627.229 781.237 628.047 781.362 628.883C781.488 629.716 779.944 636.34 779.535 637.109C778.25 639.517 774.8 639.753 773.513 636.368Z" fill="white"/>
<path d="M768.815 641.376C768.815 641.376 761.446 636.902 761.483 635.711C761.52 634.52 762.287 635.139 762.817 634.105C763.348 633.072 763.521 632.112 764.641 631.734C765.76 631.356 766.446 631.695 767.057 630.941C767.667 630.186 768.597 630.55 769.3 631.108C770.003 631.667 773.663 637.583 773.914 638.405C774.695 640.979 772.259 643.183 768.815 641.376Z" fill="white"/>
<path d="M773.513 653.139C773.513 653.139 771.198 660.845 772.094 661.724C772.99 662.604 773.12 661.686 774.273 662.156C775.429 662.626 776.259 663.251 777.382 662.882C778.505 662.512 778.776 661.853 779.788 662.066C780.799 662.278 781.237 661.459 781.362 660.623C781.488 659.79 779.944 653.166 779.535 652.397C778.25 649.991 774.8 649.753 773.513 653.139Z" fill="white"/>
<path d="M768.455 647.885C768.455 647.885 760.735 651.852 760.671 653.041C760.607 654.23 761.426 653.666 761.868 654.732C762.31 655.798 762.402 656.768 763.488 657.219C764.571 657.671 765.285 657.38 765.832 658.173C766.376 658.966 767.334 658.665 768.081 658.156C768.827 657.647 772.972 651.994 773.289 651.19C774.286 648.676 772.039 646.316 768.455 647.885Z" fill="white"/>
<path d="M768.989 647.271C768.989 647.271 760.233 648.684 759.33 647.808C758.43 646.932 759.46 646.895 759.034 645.824C758.609 644.752 757.986 643.956 758.493 642.984C758.999 642.012 759.756 641.826 759.606 640.904C759.456 639.982 760.403 639.659 761.341 639.619C762.279 639.578 769.503 641.52 770.324 641.953C772.89 643.305 772.859 646.408 768.989 647.271Z" fill="white"/>
<path d="M785.133 641.094C785.133 641.094 792.325 636.395 792.243 635.206C792.16 634.016 791.418 634.658 790.849 633.642C790.279 632.626 790.07 631.671 788.937 631.328C787.804 630.985 787.129 631.344 786.492 630.611C785.853 629.877 784.938 630.268 784.257 630.847C783.577 631.426 780.145 637.452 779.927 638.28C779.241 640.88 781.761 643.004 785.133 641.094Z" fill="white"/>
<path d="M785.437 647.848C785.437 647.848 792.746 652.401 792.693 653.59C792.64 654.78 791.881 654.155 791.338 655.182C790.793 656.209 790.608 657.168 789.484 657.535C788.359 657.902 787.676 657.555 787.058 658.302C786.437 659.049 785.513 658.676 784.819 658.11C784.124 657.544 780.542 651.59 780.304 650.765C779.553 648.182 782.02 646.006 785.437 647.848Z" fill="white"/>
<path d="M784.531 647.242C784.531 647.242 793.156 649.2 794.124 648.383C795.09 647.566 794.066 647.465 794.572 646.421C795.08 645.379 795.763 644.623 795.335 643.624C794.905 642.622 794.165 642.388 794.387 641.477C794.609 640.566 793.688 640.186 792.757 640.087C791.825 639.987 784.465 641.472 783.614 641.852C780.949 643.041 780.737 646.139 784.531 647.242Z" fill="white"/>
<path d="M782.917 641.348C782.386 640.605 781.675 640.008 780.859 639.552C780.09 638.89 779.14 638.4 778.071 638.16C772.801 636.98 768.011 641.496 768.86 646.084C769.662 650.421 774.45 653.281 779.138 651.879C781.539 651.162 783.272 649.727 784.111 647.585C784.874 645.637 784.113 643.024 782.917 641.348Z" fill="#FFA975"/>
<path d="M729.88 705.134C729.88 705.134 721.142 696.375 717.544 692.226C713.946 688.077 719.6 687.155 727.31 689.46C735.02 691.765 733.992 701.446 736.048 698.68C738.104 695.914 736.048 687.616 740.674 689.921C745.3 692.226 738.104 701.446 741.702 699.602C745.3 697.758 749.926 692.687 751.468 696.375C753.01 700.063 750.954 699.141 743.758 704.673C736.562 710.205 736.048 709.744 729.88 705.134Z" fill="#E12500"/>
<path d="M184.121 729.525C184.121 729.525 173.198 724.721 168.487 722.276C163.779 719.831 168.286 717.269 175.815 716.842C183.346 716.414 186.224 725.066 186.917 722.042C187.612 719.019 182.616 712.521 187.493 713.058C192.37 713.594 189.763 723.779 192.142 721.066C194.52 718.354 196.529 712.543 199.29 715.235C202.052 717.928 199.924 717.776 195.881 724.787C191.843 731.798 191.223 731.562 184.121 729.525Z" fill="#FFCC4A"/>
<path d="M275.557 536.498C275.557 536.498 264.634 531.695 259.924 529.249C255.215 526.804 259.722 524.243 267.251 523.815C274.782 523.387 277.661 532.039 278.354 529.015C279.049 525.993 274.052 519.495 278.929 520.031C283.806 520.568 281.199 530.752 283.578 528.04C285.957 525.327 287.965 519.517 290.727 522.209C293.488 524.901 291.36 524.75 287.318 531.761C283.28 538.772 282.659 538.536 275.557 536.498Z" fill="url(#paint1_linear_15_355)"/>
<path d="M628.217 569.097C628.217 569.097 617.294 564.293 612.583 561.848C607.875 559.403 612.382 556.841 619.911 556.414C627.442 555.986 630.32 564.638 631.013 561.614C631.708 558.591 626.712 552.093 631.589 552.63C636.466 553.166 633.859 563.351 636.238 560.638C638.616 557.926 640.625 552.115 643.386 554.807C646.147 557.5 644.02 557.348 639.977 564.359C635.939 571.37 635.319 571.134 628.217 569.097Z" fill="url(#paint2_linear_15_355)"/>
<path d="M906.583 626.661C906.583 626.661 912.934 616.38 915.416 611.619C917.897 606.858 912.155 607.085 905.208 610.867C898.26 614.649 901.659 623.884 898.97 621.597C896.281 619.309 896.231 610.81 892.292 613.978C888.353 617.146 897.65 624.702 893.686 623.622C889.722 622.539 883.955 618.518 883.365 622.42C882.775 626.323 884.551 625.014 892.937 628.975C901.324 632.936 901.71 632.384 906.583 626.661Z" fill="#FFCC4A"/>
<path d="M992.877 725.849C992.877 725.849 1002.88 719.454 1007.12 716.327C1011.36 713.198 1006.4 711.311 998.825 711.994C991.247 712.678 989.964 721.719 988.72 718.809C987.476 715.901 991.261 708.693 986.502 709.947C981.742 711.201 986.206 720.959 983.339 718.608C980.473 716.257 977.408 710.767 975.15 713.854C972.893 716.941 974.986 716.478 980.295 722.866C985.605 729.252 986.181 728.925 992.877 725.849Z" fill="#FFCC4A"/>
<path d="M543.532 632.06C543.532 632.06 536.312 624.822 533.339 621.394C530.366 617.966 535.037 617.205 541.408 619.108C547.78 621.013 546.931 629.012 548.629 626.727C550.327 624.442 548.629 617.585 552.451 619.489C556.273 621.394 550.327 629.012 553.3 627.489C556.273 625.966 560.095 621.774 561.37 624.822C562.645 627.87 560.945 627.109 554.999 631.68C549.055 636.249 548.629 635.87 543.532 632.06Z" fill="#FFCC4A"/>
<path d="M336.411 720.823C336.411 720.823 328.532 714.16 325.247 710.968C321.961 707.778 326.544 706.665 333.072 708.077C339.6 709.491 339.509 717.526 340.986 715.119C342.462 712.713 340.122 706.01 344.111 707.618C348.099 709.226 342.894 717.268 345.712 715.525C348.531 713.781 351.944 709.316 353.5 712.256C355.057 715.195 353.293 714.564 347.799 719.572C342.308 724.579 341.849 724.232 336.411 720.823Z" fill="#E12500"/>
<path d="M273.448 450.662C269.47 450.662 269.47 456.194 273.448 456.194C277.426 456.194 277.426 450.662 273.448 450.662Z" fill="#4B9F66"/>
<path d="M308.4 475.248C304.422 475.248 304.422 480.78 308.4 480.78C312.379 480.78 312.379 475.248 308.4 475.248Z" fill="#B6E08C"/>
<path d="M355.688 464.492C355.688 468.06 361.856 468.06 361.856 464.492C361.856 460.804 355.688 460.804 355.688 464.492Z" fill="#4B9F66"/>
<path d="M407.088 493.688C403.11 493.688 403.11 499.22 407.088 499.22C411.067 499.22 411.067 493.688 407.088 493.688Z" fill="#4B9F66"/>
<path d="M466.712 471.868C466.712 475.556 472.88 475.556 472.88 471.868C472.88 468.3 466.712 468.3 466.712 471.868Z" fill="#B6E08C"/>
<path d="M205.6 481.088C201.622 481.088 201.622 486.62 205.6 486.62C209.712 486.62 209.712 481.088 205.6 481.088Z" fill="#B6E08C"/>
<path d="M180.928 438.368C176.816 438.368 176.816 443.9 180.928 443.9C185.04 443.9 185.04 438.368 180.928 438.368Z" fill="#4B9F66"/>
<path d="M139.934 513.553C138.745 512.488 136.761 512.488 135.573 513.553C135.345 513.758 135.116 513.963 134.888 514.167C133.7 515.233 133.7 517.013 134.888 518.079C136.076 519.144 138.06 519.144 139.249 518.079C139.477 517.874 139.705 517.669 139.934 517.465C141.12 516.399 141.12 514.619 139.934 513.553Z" fill="#4B9F66"/>
<path d="M585.96 466.336C581.848 466.336 581.848 471.868 585.96 471.868C589.938 471.868 589.938 466.336 585.96 466.336Z" fill="#4B9F66"/>
<path d="M635.304 514.28C631.192 514.28 631.192 519.812 635.304 519.812C639.282 519.812 639.282 514.28 635.304 514.28Z" fill="#B6E08C"/>
<path d="M699.04 459.268C695.062 459.268 695.062 464.8 699.04 464.8C703.019 464.8 703.019 459.268 699.04 459.268Z" fill="#B6E08C"/>
<path d="M789.504 470.332C785.392 470.332 785.392 475.864 789.504 475.864C793.616 475.864 793.616 470.332 789.504 470.332Z" fill="#4B9F66"/>
<path d="M834.736 429.764C830.758 429.764 830.758 435.296 834.736 435.296C838.715 435.296 838.715 429.764 834.736 429.764Z" fill="#4B9F66"/>
<path d="M882.024 446.052C882.024 449.74 888.192 449.74 888.192 446.052C888.192 442.484 882.024 442.484 882.024 446.052Z" fill="#B6E08C"/>
<path d="M960.152 407.02C956.04 407.02 956.04 412.552 960.152 412.552C964.264 412.552 964.264 407.02 960.152 407.02Z" fill="#4B9F66"/>
<path d="M1111.36 621.333C1099.09 605.534 1070.51 574.2 1054.39 563.015C1038.26 551.829 1026.79 541.888 1026.79 541.888C1026.79 541.888 1021.64 555.731 1014.71 553.509C1007.79 551.287 1009.38 534.162 1009.38 534.162C1009.38 534.162 989.097 518.183 956.943 512.406C924.789 506.629 915.587 509.201 881.153 508.215C846.721 507.23 790.913 521.147 790.913 521.147C790.913 521.147 808.027 531.001 811.094 532.067C814.162 533.133 829.693 542.81 829.693 542.81L850.27 556.658C850.27 556.658 873.817 560.747 876.983 561.102C880.149 561.458 893.211 554.274 897.364 564.835C901.517 575.395 899.241 574.42 889.841 572.642C880.441 570.865 862.632 571.748 862.632 571.748C862.632 571.748 882.22 581.16 895.179 591.989C908.138 602.819 913.278 612.05 919.906 616.4C926.535 620.75 954.932 618.893 964.33 620.671C973.728 622.449 992.722 636.12 989.652 640.075C986.584 644.033 976.985 645.167 961.353 641.967C945.721 638.768 925.536 639.384 925.536 639.384C925.536 639.384 925.04 642.934 956.392 683.231C987.545 724.947 1052.35 721.414 1052.35 721.414L1097.76 730.124C1097.76 730.124 1097.76 730.124 1100.93 724.711C1104.1 719.299 1120.04 685.759 1122.32 675.2C1124.6 664.643 1123.62 637.132 1111.36 621.333ZM905.282 548.421C901.968 549.131 892.124 547.663 880.645 546.373C869.168 545.084 865.112 542.463 862.986 540.422C860.86 538.381 864.522 535.187 873.872 534.435C873.872 534.435 876.099 532.882 885.004 535.325C893.908 537.768 894.7 537.857 901.476 541.143C908.253 544.429 908.596 547.713 905.282 548.421ZM933.817 580.11C927.337 580.464 921.103 579.043 923.776 577.178C926.448 575.316 930.653 573.987 930.653 573.987C930.653 573.987 942.28 571.327 945.246 575.987C948.213 580.647 940.298 579.756 933.817 580.11ZM1000.71 553.018C997.296 555.88 996.112 547.094 989.658 541.501C983.204 535.908 981.278 528.121 981.278 528.121C983.06 523.996 993.223 533.249 997.228 539.107C1001.23 544.966 1004.13 550.156 1000.71 553.018Z" fill="#13334C"/>
</g>
<defs>
<linearGradient id="paint0_linear_15_355" x1="-12.8727" y1="381.387" x2="-3.47085" y2="471.573" gradientUnits="userSpaceOnUse">
<stop stop-color="#2F8988"/>
<stop offset="1" stop-color="#18485B"/>
</linearGradient>
<linearGradient id="paint1_linear_15_355" x1="276.392" y1="533.584" x2="282.485" y2="576.203" gradientUnits="userSpaceOnUse">
<stop offset="7e-08" stop-color="#FFFFB7"/>
<stop offset="1" stop-color="#CE7424"/>
</linearGradient>
<linearGradient id="paint2_linear_15_355" x1="629.051" y1="566.183" x2="635.145" y2="608.801" gradientUnits="userSpaceOnUse">
<stop offset="7e-08" stop-color="#FFFFB7"/>
<stop offset="1" stop-color="#CE7424"/>
</linearGradient>
</defs>
</svg>
