<svg version="1.1" id="Ñëîé_1" xmlns="http://www.w3.org/2000/svg" xmlns:xlink="http://www.w3.org/1999/xlink" x="0px" y="0px" viewBox="0 1237 1024 768" style="enable-background:new 0 0 2005 2005;" xml:space="preserve" preserveAspectRatio="xMidYMid" width="NaN" height="NaN">
<defs id="defs3268"></defs><g id="g1737" transform="matrix(0.5138843655586243 0 0 0.4370936155319214 -3.001980401531 1203.6510009765625)" transform-center-x="-0.00014221650371837313" transform-center-y="-0.0009241762656984065">
	<defs id="defs6539">
		<rect id="SVGID_1_" width="2005" height="2005"></rect>
	</defs>
	<clipPath id="SVGID_00000176751785385730390280000016022333314934671525_">
		<use xlink:href="#SVGID_1_" style="overflow:visible;" id="use5588"></use>
	</clipPath>
	<g style="clip-path:url(#SVGID_00000176751785385730390280000016022333314934671525_);" id="g5407" transform="matrix(1 0 0 1 -1320.963406058873 -983.5900693616)">
		<path style="fill:#FFBBB4;" d="M 1220.929 954.074 C 1226.064 958.732 1231.3310000000001 963.2529999999999 1236.297 968.083 C 1241.81 973.4449999999999 1247.633 978.624 1251.195 985.63 C 1257.32 997.677 1251.201 1008.999 1237.777 1010.403 C 1229.489 1011.27 1221.708 1008.915 1214.262 1005.6750000000001 C 1198.127 998.6550000000001 1182.404 990.7710000000001 1166.2379999999998 981.6110000000001 C 1166.3769999999997 986.4990000000001 1169.6549999999997 988.4270000000001 1171.9249999999997 990.6840000000001 C 1182.6179999999997 1001.3180000000001 1192.7899999999997 1012.3990000000001 1201.6119999999996 1024.643 C 1204.6019999999996 1028.7930000000001 1207.5599999999997 1033.104 1209.6529999999996 1037.738 C 1214.7539999999997 1049.031 1209.4049999999995 1057.8 1196.9509999999996 1058.209 C 1185.8159999999996 1058.574 1175.0379999999996 1055.746 1164.7599999999995 1051.694 C 1149.3559999999995 1045.62 1135.1659999999995 1037.104 1120.9679999999996 1028.666 C 1116.9469999999997 1026.2759999999998 1112.9419999999996 1023.8599999999999 1108.5889999999997 1021.9309999999999 C 1119.3759999999997 1033.952 1130.8619999999996 1045.175 1140.4739999999997 1058.069 C 1143.9959999999996 1062.793 1147.3819999999996 1067.6309999999999 1149.5629999999996 1073.104 C 1153.7009999999996 1083.4850000000001 1149.1199999999997 1091.299 1137.9879999999996 1093.131 C 1131.3289999999995 1094.226 1124.8089999999995 1092.979 1118.3459999999995 1091.517 C 1104.2369999999996 1088.325 1091.4169999999995 1081.925 1078.7269999999996 1075.285 C 1012.8489999999996 1040.816 951.2859999999996 999.6930000000001 891.8149999999996 955.181 C 840.4829999999996 916.7620000000001 794.3949999999996 872.548 748.2709999999996 828.317 C 729.7159999999997 810.524 711.1129999999996 792.765 693.0529999999997 774.477 C 670.0999999999997 751.2339999999999 647.2869999999997 727.826 625.1299999999997 703.828 C 601.6479999999997 678.394 599.3049999999996 654.682 615.3719999999996 624.198 C 622.2099999999996 611.2239999999999 628.7299999999996 598.067 634.9239999999996 584.773 C 644.3029999999997 564.643 660.5399999999996 557.7280000000001 681.6509999999996 559.3290000000001 C 693.4609999999996 560.225 704.8259999999996 563.1060000000001 716.0529999999997 566.6200000000001 C 761.8109999999997 580.9420000000001 805.0019999999996 601.1170000000001 846.3109999999997 625.2140000000002 C 885.9419999999997 648.3330000000002 925.8089999999997 670.9840000000002 966.4159999999997 692.3500000000001 C 1005.1289999999997 712.7180000000002 1041.3899999999996 737.1320000000002 1077.8439999999996 761.1700000000001 C 1112.7769999999996 784.205 1147.8719999999996 807.0580000000001 1181.2559999999996 832.3220000000001 C 1215.7159999999997 858.3990000000001 1245.6359999999995 889.1060000000001 1271.3529999999996 923.8640000000001 C 1274.8519999999996 928.5930000000002 1278.1039999999996 933.5300000000002 1280.1699999999996 939.0570000000001 C 1284.0209999999997 949.3610000000001 1279.7539999999997 956.6510000000002 1268.6809999999996 957.7490000000001 C 1255.3959999999995 959.0660000000001 1242.3219999999997 956.8740000000001 1229.4149999999995 953.7530000000002 C 1227.0349999999994 953.1770000000001 1224.6919999999996 952.4460000000001 1222.3319999999994 951.7870000000001 C 1221.863 952.549 1221.396 953.311 1220.929 954.074 Z" id="path6162"></path>
		<path style="fill:#E9281F;" d="M 1131.716 713.759 C 1139.952 713.415 1146.6209999999999 711.575 1153.2459999999999 709.852 C 1168.8729999999998 705.7869999999999 1184.417 701.401 1200.0269999999998 697.271 C 1215.3439999999998 693.2189999999999 1230.9239999999998 690.7669999999999 1246.7899999999997 690.6519999999999 C 1275.5219999999997 690.443 1300.0119999999997 700.424 1318.8899999999996 722.3299999999999 C 1335.6169999999997 741.7399999999999 1337.9639999999997 765.7819999999999 1325.0089999999996 787.7779999999999 C 1307.8629999999996 816.8899999999999 1283.0289999999995 837.526 1251.7319999999995 850.026 C 1221.2699999999995 862.193 1189.5149999999994 869.9499999999999 1157.1799999999996 875.048 C 1109.6879999999996 882.537 1062.1009999999997 889.415 1014.5709999999996 896.67 C 1004.0539999999995 898.275 993.6119999999996 900.37 983.1359999999996 902.242 C 979.0869999999996 902.966 975.0929999999996 903.444 971.7599999999996 900.179 C 968.4599999999997 896.946 970.8199999999996 893.5799999999999 971.0439999999996 890.04 C 971.5269999999996 882.405 970.9679999999996 874.6809999999999 970.4979999999996 867.014 C 967.8059999999996 823.058 964.5629999999996 779.13 962.4009999999996 735.149 C 960.6339999999996 699.196 962.1669999999996 663.192 965.6839999999996 627.406 C 968.4509999999997 599.25 974.3949999999996 571.578 987.1689999999996 545.906 C 995.0599999999996 530.048 1006.6739999999996 517.588 1022.0099999999996 508.679 C 1063.4219999999996 484.62199999999996 1111.2049999999997 497.45099999999996 1137.3849999999998 539.683 C 1144.6159999999998 551.349 1149.3969999999997 564 1151.8469999999998 577.507 C 1157.3509999999997 607.8489999999999 1156.9559999999997 638.117 1150.4329999999998 668.266 C 1147.9369999999997 679.804 1143.7909999999997 690.75 1138.1089999999997 701.1179999999999 C 1136.055 704.868 1134.239 708.749 1131.716 713.759 Z" id="path7266"></path>
		<path style="fill:#FFA19F;" d="M 634.203 676.508 C 629.853 672.562 625.438 668.686 621.1659999999999 664.658 C 607.8939999999999 652.146 604.1089999999999 636.875 608.2769999999999 619.395 C 611.4319999999999 606.165 615.6729999999999 593.256 620.824 580.691 C 627.64 564.066 634.8 547.581 641.952 531.096 C 649.942 512.68 659.249 508.233 678.646 513.166 C 697.9849999999999 518.0840000000001 716.2539999999999 525.892 733.698 535.268 C 787.352 564.109 842.379 590.238 896.425 618.299 C 930.3549999999999 635.9159999999999 962.016 657.284 994.709 676.941 C 1020.5169999999999 692.457 1046.916 706.842 1073.9389999999999 720.1170000000001 C 1084.4859999999999 725.2980000000001 1094.7969999999998 730.8960000000001 1103.5489999999998 738.9760000000001 C 1108.8069999999998 743.8300000000002 1112.6319999999998 749.5650000000002 1114.9079999999997 756.2740000000001 C 1120.3519999999996 772.3230000000001 1115.5689999999997 786.0720000000001 1101.5449999999996 795.6400000000001 C 1090.1189999999997 803.4350000000001 1077.5969999999995 806.3480000000001 1063.8939999999996 804.7660000000001 C 1042.8109999999995 802.3330000000001 1023.4569999999995 794.2470000000001 1004.2049999999996 786.1400000000001 C 983.1719999999996 777.2830000000001 964.1059999999995 764.6990000000001 944.8369999999995 752.6220000000001 C 938.3869999999995 748.5790000000001 931.6939999999995 746.32 924.2139999999995 745.8810000000001 C 905.0509999999995 744.7570000000001 886.0729999999995 746.9700000000001 867.1189999999995 749.2 C 849.6179999999995 751.259 832.1709999999995 753.782 814.6959999999995 756.0690000000001 C 791.5699999999995 759.095 769.4809999999994 755.3820000000001 747.8309999999994 746.8530000000001 C 705.665 730.244 668.407 705.847 634.203 676.508 Z" id="path3828"></path>
		<path style="fill:#24586D;" d="M -278.58 -86.586 C -240.57799999999997 -128.47899999999998 -202.577 -170.373 -164.575 -212.26600000000002 C -162.84699999999998 -214.17000000000002 -161.13799999999998 -216.091 -159.386 -217.972 C -152.832 -225.006 -152.749 -225.124 -144.965 -220.173 C -128.862 -209.93 -112.911 -199.447 -96.792 -189.231 C -30.72800000000001 -147.35999999999999 32.78299999999999 -101.72 97.471 -57.817999999999984 C 132.7 -33.909 168.616 -11.01 203.365 13.605 C 270.184 60.937 336.523 108.878 398.938 162.05499999999998 C 447.58299999999997 203.50099999999998 496.371 244.765 543.171 288.306 C 572.2230000000001 315.336 599.4570000000001 344.18399999999997 626.8090000000001 372.899 C 650.6120000000001 397.889 674.3280000000001 422.967 697.724 448.337 C 713.4000000000001 465.336 728.399 482.957 743.8130000000001 500.2 C 748.4560000000001 505.393 753.1670000000001 510.606 758.4080000000001 515.163 C 763.9960000000001 520.021 765.0510000000002 525.3 762.2560000000001 531.847 C 760.0960000000001 536.9069999999999 758.3420000000001 542.149 756.0200000000001 547.129 C 734.4290000000001 593.446 710.5240000000001 638.392 679.2260000000001 679.1030000000001 C 670.5050000000001 690.446 661.7800000000001 701.815 653.3440000000002 713.3660000000001 C 645.3040000000002 724.3740000000001 635.9650000000001 727.0960000000001 622.8170000000001 723.7100000000002 C 577.9840000000002 712.1640000000001 533.4410000000001 699.9560000000001 491.2430000000001 680.4130000000001 C 391.5990000000001 634.2640000000001 294.2820000000001 583.6940000000002 200.4210000000001 526.6540000000001 C 141.1130000000001 490.6120000000001 83.5570000000001 451.8580000000001 27.54700000000011 410.8780000000001 C -19.86799999999989 376.1860000000001 -66.18799999999989 340.05000000000007 -112.0019999999999 303.2620000000001 C -149.7939999999999 272.91500000000013 -187.79599999999988 242.8300000000001 -225.7299999999999 212.6600000000001 C -285.5629999999999 165.07400000000013 -343.1319999999999 114.92300000000012 -397.5579999999999 61.20300000000012 C -398.8649999999999 59.91300000000012 -400.08499999999987 58.527000000000115 -401.45999999999987 57.316000000000116 C -404.69299999999987 54.47000000000011 -404.20799999999986 51.74800000000012 -401.45499999999987 48.896000000000114 C -399.41499999999985 46.78400000000011 -397.51799999999986 44.53400000000011 -395.54399999999987 42.35800000000012 C -356.558 -0.623 -317.569 -43.604 -278.58 -86.586 Z" id="path678"></path>
		<path style="fill:#78AEAE;" d="M 618.17 509.352 C 620.889 521.8109999999999 625.115 532.737 628.694 543.857 C 629.8149999999999 547.341 631.1239999999999 550.819 630.54 554.574 C 630.058 557.669 628.5649999999999 560.082 625.338 560.981 C 622.454 561.784 620.265 560.351 618.622 558.3149999999999 C 617.275 556.6469999999999 616.086 554.685 615.4219999999999 552.6579999999999 C 611.2069999999999 539.7919999999999 607.1539999999999 526.8719999999998 603.0619999999999 513.9649999999999 C 602.8419999999999 513.2699999999999 602.728 512.5389999999999 602.5969999999999 511.8189999999999 C 600.1999999999998 498.5909999999999 605.7019999999999 492.02699999999993 618.9169999999999 492.6459999999999 C 622.92 492.8329999999999 626.9419999999999 493.4389999999999 630.8709999999999 494.2539999999999 C 640.9029999999999 496.3359999999999 650.8909999999998 498.6339999999999 660.8899999999999 500.8739999999999 C 662.3079999999999 501.1919999999999 663.7909999999998 501.4609999999999 665.0709999999999 502.0999999999999 C 668.2669999999999 503.69499999999994 670.2409999999999 506.1539999999999 669.6869999999999 509.99099999999993 C 669.1289999999999 513.8539999999999 666.531 515.819 662.9669999999999 516.0769999999999 C 660.0979999999998 516.2849999999999 657.1109999999999 515.9319999999999 654.2769999999998 515.3469999999999 C 646.7509999999999 513.7929999999999 639.2989999999999 511.88799999999986 631.7789999999998 510.30199999999985 C 627.554 509.411 623.353 507.657 618.17 509.352 Z" id="path9216"></path>
		<path style="fill:#78AEAE;" d="M 74.773 -9.386 C 80.221 -14.985999999999999 85.83699999999999 -16.216 91.809 -14.309 C 104.19 -10.354999999999999 114.78999999999999 -3.1389999999999993 124.634 5.122999999999999 C 127.975 7.927 129.118 11.982 125.981 15.853 C 122.82199999999999 19.752 118.886 19.085 115.15899999999999 16.727 C 108.97999999999999 12.817 103.05499999999999 8.492 96.77399999999999 4.76 C 87.415 -0.8 86.009 -0.123 83.901 10.219 C 82.13499999999999 18.884 81.84299999999999 27.634999999999998 82.658 36.442 C 82.96000000000001 39.713 83.176 43.015 83.086 46.293 C 82.979 50.163 81.78999999999999 53.903999999999996 77.43299999999999 54.564 C 73.61699999999999 55.141 71.547 52.19 70.205 48.988 C 69.36 46.975 68.425 44.918 68.077 42.791 C 65.496 26.993999999999996 66.377 11.446999999999996 71.843 -3.713000000000001 C 72.717 -6.138 73.699 -8.504 74.773 -9.386 Z" id="path3648"></path>
		<path style="fill:#78AEAE;" d="M 242.939 260.312 C 246.326 256.113 251.567 253.889 257.831 254.50900000000001 C 272.788 255.98800000000003 285.711 263.071 298.615 269.957 C 302.023 271.776 303.592 275.461 301.55400000000003 279.453 C 299.576 283.328 296.079 284.24699999999996 292.22200000000004 282.98299999999995 C 288.41100000000006 281.73299999999995 284.778 279.94499999999994 281.059 278.4119999999999 C 275.314 276.0429999999999 269.687 273.2929999999999 263.78200000000004 271.4239999999999 C 255.10300000000004 268.67799999999994 252.83000000000004 270.22399999999993 250.81000000000003 279.2389999999999 C 249.26000000000002 286.15899999999993 249.65200000000004 293.0559999999999 251.39900000000003 299.9189999999999 C 252.20900000000003 303.10099999999994 253.16700000000003 306.3059999999999 252.64800000000002 309.6619999999999 C 251.82100000000003 315.0179999999999 247.56600000000003 317.0449999999999 243.06100000000004 314.0639999999999 C 241.59700000000004 313.0959999999999 240.38700000000003 311.5859999999999 239.38100000000003 310.1059999999999 C 231.424 298.39 233.053 271.725 242.939 260.312 Z" id="path2247"></path>
		<path style="fill:#78AEAE;" d="M 468.072 483.453 C 469.097 492.36499999999995 472.373 499.25699999999995 475.325 506.263 C 477.597 511.65599999999995 480.611 516.8349999999999 481.06 522.829 C 481.335 526.5039999999999 481.55 530.592 477.262 532.212 C 472.977 533.831 470.066 531.019 468.344 527.6419999999999 C 461.503 514.228 454.631 500.72599999999994 452.46299999999997 485.60499999999996 C 450.426 471.402 458.15999999999997 464.407 471.924 467.77799999999996 C 481.609 470.15 490.45599999999996 474.7 499.142 479.51199999999994 C 499.461 479.68899999999996 499.74399999999997 479.93199999999996 500.03499999999997 480.15599999999995 C 504.72799999999995 483.76199999999994 506.20199999999994 487.84299999999996 503.799 491.37199999999996 C 501.006 495.47299999999996 497.046 495.335 493.013 493.616 C 489.981 492.324 487.106 490.669 484.137 489.227 C 479.527 486.992 475.008 484.507 468.072 483.453 Z" id="path2254"></path>
		<path style="fill:#78AEAE;" d="M -28.909 -80.977 C -30.832 -69.88300000000001 -29.099999999999998 -59.782000000000004 -28.305999999999997 -49.681000000000004 C -27.961999999999996 -45.30800000000001 -27.182 -40.93900000000001 -28.456999999999997 -36.601000000000006 C -29.324999999999996 -33.650000000000006 -30.731999999999996 -31.117000000000004 -34.224 -30.813000000000006 C -37.696 -30.511000000000006 -40.181 -32.678000000000004 -40.89 -35.479000000000006 C -45.411 -53.342000000000006 -47.625 -71.476 -43.136 -89.617 C -41.569 -95.94800000000001 -36.105000000000004 -98.519 -29.088 -97.11800000000001 C -16.373 -94.58000000000001 -5.0390000000000015 -88.56900000000002 5.707999999999998 -81.50900000000001 C 9.094999999999999 -79.28400000000002 10.515999999999998 -75.79200000000002 8.600999999999999 -71.94100000000002 C 6.388999999999999 -67.49200000000002 2.3729999999999993 -67.01900000000002 -1.7240000000000002 -68.80400000000002 C -10.405 -72.586 -18.308 -78.094 -28.909 -80.977 Z" id="path7551"></path>
		<path style="fill:#78AEAE;" d="M 231.463 96.46 C 229.59099999999998 104.86399999999999 231.71599999999998 111.90199999999999 233.6 118.939 C 234.649 122.856 235.799 126.779 234.753 130.819 C 233.29999999999998 136.433 227.861 137.85299999999998 223.849 133.718 C 222.85399999999998 132.69199999999998 222.096 131.35299999999998 221.499 130.036 C 216.411 118.806 213.892 107.041 215.588 94.761 C 217.287 82.46 224.853 77.59899999999999 236.721 81.222 C 249.415 85.097 260.58 92.324 272.115 98.657 C 276.123 100.857 277.446 104.959 275.342 109.101 C 273.12899999999996 113.456 268.952 113.823 264.909 111.971 C 259.593 109.536 254.524 106.565 249.295 103.932 C 243.816 101.172 238.678 97.571 231.463 96.46 Z" id="path4772"></path>
		<path style="fill:#78AEAE;" d="M 473.846 296.532 C 475.51 304.404 479.107 310.344 481.462 316.721 C 482.724 320.139 484.26599999999996 323.528 484.936 327.071 C 485.736 331.302 484.575 335.39300000000003 480.065 336.93800000000005 C 475.752 338.41600000000005 472.967 335.29 471.388 331.975 C 467.62 324.064 464.17999999999995 315.982 460.94899999999996 307.834 C 459.07099999999997 303.098 457.28399999999993 298.196 456.4549999999999 293.203 C 454.54299999999995 281.68399999999997 461.5249999999999 275.42999999999995 472.7629999999999 278.818 C 483.9919999999999 282.203 494.28099999999995 287.90799999999996 504.4369999999999 293.709 C 508.5839999999999 296.07800000000003 511.10399999999987 299.634 508.9449999999999 304.674 C 507.19099999999986 308.769 502.55599999999987 309.594 496.52999999999986 306.79499999999996 C 489.356 303.462 482.654 299.051 473.846 296.532 Z" id="path69"></path>
		<path style="fill:#78AEAE;" d="M -141.288 -148.623 C -143.68800000000002 -137.28 -142.566 -126.64299999999999 -142.711 -116.064 C -142.76100000000002 -112.40899999999999 -142.73000000000002 -108.69099999999999 -143.401 -105.12599999999999 C -144.025 -101.809 -145.952 -98.508 -149.667 -98.35799999999999 C -153.95 -98.18599999999999 -155.943 -101.59299999999999 -157.04500000000002 -105.335 C -157.45700000000002 -106.734 -157.746 -108.20599999999999 -157.82500000000002 -109.66 C -158.54600000000002 -122.865 -159.03500000000003 -136.1 -157.306 -149.24099999999999 C -155.316 -164.35899999999998 -147.39800000000002 -168.809 -133.352 -162.67499999999998 C -126.315 -159.60199999999998 -119.638 -155.69099999999997 -112.86 -152.04399999999998 C -108.516 -149.707 -106.124 -146.248 -108.11 -141.18499999999997 C -109.8 -136.87699999999998 -114.21 -136.03099999999998 -120.406 -138.60199999999998 C -127.132 -141.391 -132.847 -146.301 -141.288 -148.623 Z" id="path5437"></path>
		<path style="fill:#78AEAE;" d="M 362.399 377.854 C 364.124 386.378 365.577 393.123 366.824 399.906 C 367.487 403.51 367.922 407.192 366.074 410.659 C 363.511 415.467 358.982 416.164 355.404 412.14 C 354.222 410.811 353.127 409.122 352.73 407.426 C 350.14300000000003 396.36 347.233 385.329 345.45500000000004 374.12399999999997 C 343.64300000000003 362.70399999999995 350.31500000000005 356.852 361.13200000000006 360.35099999999994 C 374.07700000000006 364.53899999999993 385.93800000000005 371.29499999999996 397.4390000000001 378.49099999999993 C 402.4750000000001 381.64199999999994 403.44000000000005 385.9799999999999 401.2030000000001 389.6769999999999 C 399.0110000000001 393.2999999999999 394.6960000000001 394.2639999999999 389.52600000000007 391.5039999999999 C 381.13 387.023 372.965 382.109 362.399 377.854 Z" id="path258"></path>
		<path style="fill:#78AEAE;" d="M 537.664 608.338 C 538.928 618.264 542.398 625.959 545.005 633.8879999999999 C 546.145 637.353 547.777 640.6969999999999 547.173 644.516 C 546.748 647.197 545.679 649.562 543.024 650.535 C 540.035 651.63 536.571 651.3149999999999 535.144 648.48 C 527.89 634.073 521.305 619.2660000000001 522.035 602.696 C 522.3399999999999 595.765 527.8209999999999 591.6600000000001 535.0409999999999 592.061 C 547.0769999999999 592.73 557.324 598.758 567.597 604.321 C 570.347 605.8100000000001 571.1659999999999 608.966 570.031 612.072 C 568.7729999999999 615.515 566.164 617.245 562.448 617.287 C 559.381 617.322 556.784 615.8340000000001 554.14 614.6550000000001 C 549.145 612.428 544.331 609.768 537.664 608.338 Z" id="path6182"></path>
		<path style="fill:#78AEAE;" d="M 101.626 367.013 C 106.638 361.082 112.934 359.34099999999995 120.372 361.11499999999995 C 131.191 363.69599999999997 140.276 370.131 150.23 374.626 C 153.51 376.10699999999997 154.463 379.599 153.06099999999998 383.12899999999996 C 151.718 386.51099999999997 149.058 388.27299999999997 145.38199999999998 388.20599999999996 C 141.992 388.145 139.06599999999997 386.56899999999996 136.12599999999998 385.09299999999996 C 131.23299999999998 382.63599999999997 126.45699999999998 379.893 121.40899999999998 377.81199999999995 C 114.69199999999998 375.04299999999995 112.52199999999998 376.30199999999996 110.21099999999998 383.38599999999997 C 108.71199999999999 387.98199999999997 108.53199999999998 392.707 108.91199999999998 397.47999999999996 C 109.14299999999997 400.39199999999994 109.64999999999998 403.31399999999996 109.53599999999997 406.212 C 109.40599999999998 409.509 108.95099999999998 413.063 104.84299999999998 413.918 C 100.99699999999997 414.719 98.68699999999997 412.113 96.81599999999997 409.353 C 93.12299999999998 403.906 93.05999999999997 397.616 93.29599999999998 391.39 C 93.635 382.465 95.583 374.011 101.626 367.013 Z" id="path4475"></path>
		<path style="fill:#78AEAE;" d="M 372.583 193.243 C 371.77900000000005 201.24599999999998 375.093 207.477 377.898 213.789 C 379.386 217.13799999999998 381.432 220.29 381.57300000000004 224.059 C 381.68800000000005 227.139 380.809 229.87 377.646 231.272 C 374.896 232.49099999999999 372.618 231.378 370.54400000000004 229.73 C 369.40900000000005 228.828 368.29400000000004 227.773 367.52400000000006 226.56199999999998 C 360.90600000000006 216.16699999999997 356.38200000000006 204.98799999999997 356.51300000000003 192.493 C 356.61100000000005 183.096 361.49800000000005 177.876 370.61100000000005 177.513 C 383.74300000000005 176.991 395.595 182.83700000000002 407.96400000000006 186.026 C 410.9100000000001 186.785 412.02900000000005 190.06300000000002 411.49000000000007 193.341 C 410.94900000000007 196.631 408.79100000000005 198.495 405.78800000000007 199.388 C 401.29300000000006 200.72400000000002 397.07400000000007 199.00900000000001 392.86500000000007 197.83 C 386.262 195.981 379.864 193.161 372.583 193.243 Z" id="path6758"></path>
		<path style="fill:#78AEAE;" d="M 558.703 394.345 C 559.389 401.79 562.0799999999999 407.82800000000003 563.7719999999999 414.1 C 564.727 417.64000000000004 565.833 421.182 564.9039999999999 424.908 C 564.2619999999998 427.48 563.1829999999999 429.73400000000004 560.3319999999999 430.587 C 556.9999999999999 431.584 554.6299999999999 430.07 552.7079999999999 427.626 C 551.8159999999998 426.49199999999996 550.9729999999998 425.19199999999995 550.5589999999999 423.83 C 547.4629999999999 413.664 543.6359999999999 403.659 542.0989999999998 393.108 C 540.2349999999998 380.309 547.4939999999998 373.628 559.6289999999998 377.406 C 569.7389999999998 380.55400000000003 579.4889999999998 384.889 589.3189999999998 388.891 C 592.6419999999998 390.244 594.5479999999999 392.92 593.9279999999999 396.75300000000004 C 593.2249999999999 401.09800000000007 590.2079999999999 402.86500000000007 586.1759999999999 403.136 C 582.0139999999999 403.416 578.3539999999999 401.584 574.578 400.15500000000003 C 569.575 398.262 564.998 395.016 558.703 394.345 Z" id="path2420"></path>
		<path style="fill:#78AEAE;" d="M -17.432 94.753 C -21.169999999999998 99.129 -19.115 103.978 -19.235 108.568 C -19.355 113.223 -18.419 118.6 -24.396 120.518 C -28.505000000000003 121.836 -32.59 117.763 -34.178 110.793 C -35.918 103.152 -35.831999999999994 95.53 -32.631 88.174 C -28.545 78.784 -20.105 75.08500000000001 -11.117999999999999 79.653 C 1.729000000000001 86.18400000000001 11.932000000000002 96.381 22.680000000000003 105.739 C 25.621000000000002 108.30000000000001 26.756000000000004 111.97200000000001 24.073000000000004 115.593 C 21.131000000000004 119.561 17.056000000000004 119.82300000000001 13.415000000000004 117.18 C 6.911000000000005 112.45700000000001 0.7810000000000041 107.21600000000001 -5.465999999999996 102.144 C -9.129 99.17 -12.504 95.746 -17.432 94.753 Z" id="path9031"></path>
		<path style="fill:#78AEAE;" d="M 361.26 538.843 C 361.967 548.212 365.197 555.584 367.858 563.1289999999999 C 370.65500000000003 571.0619999999999 369.746 575.9959999999999 365.468 577.7599999999999 C 361.34700000000004 579.4589999999998 356.79 576.2989999999999 353.59000000000003 568.8329999999999 C 349.25300000000004 558.7109999999999 345.80100000000004 548.2459999999999 344.833 537.2149999999998 C 343.66700000000003 523.9189999999998 351.451 517.6159999999998 363.833 522.2019999999998 C 371.682 525.1089999999998 379.20000000000005 529.0459999999998 386.567 533.0689999999997 C 391.241 535.6209999999998 392.568 540.6779999999998 390.166 544.2079999999997 C 387.414 548.2519999999997 383.579 548.1669999999997 379.449 546.5189999999998 C 373.78 544.256 368.826 540.304 361.26 538.843 Z" id="path1365"></path>
		<path style="fill:#78AEAE;" d="M -24.178 273.031 C -16.541 264.396 -9.044 262.491 -0.6600000000000001 265.288 C 11.297 269.277 21.339 276.728 31.252 284.235 C 34.848 286.959 36.092 290.867 33.262 294.84000000000003 C 30.362000000000002 298.91100000000006 26.123 298.39300000000003 22.433 296.30300000000005 C 17.355 293.4270000000001 12.664 289.87700000000007 7.724 286.74500000000006 C 4.95 284.98600000000005 2.1029999999999998 283.28800000000007 -0.8729999999999993 281.91300000000007 C -9.16 278.0830000000001 -13.254 280.6770000000001 -13.581 289.90600000000006 C -13.658 292.08500000000004 -13.166 294.27900000000005 -13.136 296.46900000000005 C -13.08 300.559 -12.988 305.107 -18.07 306.20200000000006 C -23.555 307.38400000000007 -26.07 303.18600000000004 -27.53 298.9560000000001 C -31.008 288.877 -29.249 279.533 -24.178 273.031 Z" id="path4396"></path>
		<path style="fill:#78AEAE;" d="M 102.931 175.448 C 109.24799999999999 167.597 116.298 165.401 124.487 167.981 C 135.075 171.317 144.304 177.326 153.33599999999998 183.583 C 157.07199999999997 186.171 158.64299999999997 189.906 156.03599999999997 194.05 C 153.43699999999998 198.18200000000002 149.31899999999996 198.348 145.38199999999998 196.26600000000002 C 138.59399999999997 192.67600000000002 132.14099999999996 188.43800000000002 125.27999999999997 185.007 C 117.91299999999997 181.323 114.75399999999998 182.822 112.28499999999997 190.67000000000002 C 111.41899999999997 193.423 111.22599999999997 196.40300000000002 110.87199999999997 199.29700000000003 C 110.56199999999997 201.83200000000002 110.71299999999997 204.44600000000003 110.19699999999997 206.92900000000003 C 109.51199999999997 210.22900000000004 108.26999999999997 213.50000000000003 104.18799999999997 213.77900000000002 C 99.70499999999997 214.08500000000004 97.52499999999998 211.03900000000002 96.59099999999998 207.28900000000002 C 93.569 195.146 96.011 184.049 102.931 175.448 Z" id="path5145"></path>
		<path style="fill:#78AEAE;" d="M 249.592 476.324 C 250.10600000000002 484.891 252.65400000000002 490.922 255.092 497.031 C 258.00600000000003 504.332 257.414 509.03000000000003 253.75300000000001 511.036 C 249.85100000000003 513.173 244.359 510.136 241.02100000000002 503.275 C 236.48700000000002 493.952 233.57700000000003 484.054 233.35000000000002 473.63 C 233.08 461.209 240.47700000000003 455.76099999999997 251.955 460.461 C 260.747 464.06100000000004 268.99600000000004 468.987 277.47900000000004 473.338 C 281.82300000000004 475.56600000000003 283.064 479.214 281.21000000000004 483.476 C 279.482 487.449 275.72900000000004 488.19 271.874 487.267 C 269.42100000000005 486.679 267.079 485.486 264.80100000000004 484.339 C 260.259 482.05 255.795 479.606 249.592 476.324 Z" id="path1132"></path>
		<path style="fill:#78AEAE;" d="M -106.012 10.818 C -98.214 17.557 -96.803 21.573999999999998 -99.989 25.569 C -103.116 29.488999999999997 -107.629 28.924999999999997 -114.51100000000001 24.019 C -118.67900000000002 21.048 -122.989 18.272999999999996 -127.304 15.515999999999998 C -130.627 13.391999999999998 -132.912 14.793999999999999 -134.12800000000001 18.101999999999997 C -136.048 23.324999999999996 -136.55700000000002 28.800999999999995 -136.491 34.333999999999996 C -136.43800000000002 38.748 -136.358 43.221 -138.27700000000002 47.291 C -140.513 52.032999999999994 -145.681 52.342 -148.77 48.114999999999995 C -156.637 37.352999999999994 -150.46300000000002 6.521999999999991 -139.086 -0.2640000000000029 C -134.585 -2.949000000000003 -129.93300000000002 -2.541000000000003 -125.35000000000001 -0.701000000000003 C -117.81 2.326 -111.135 6.83 -106.012 10.818 Z" id="path1294"></path>
		<path style="fill:#78AEAE;" d="M -124.871 199.816 C -125.79599999999999 204.779 -123.823 208.836 -122.735 213.032 C -121.814 216.586 -120.744 220.133 -121.496 223.851 C -122.50999999999999 228.865 -126.26599999999999 230.454 -130.398 227.37199999999999 C -132.402 225.878 -134.359 223.88799999999998 -135.45499999999998 221.684 C -140.47199999999998 211.588 -142.72099999999998 200.828 -140.422 189.69 C -138.2 178.924 -130.021 175.646 -120.554 181.442 C -113.658 185.66400000000002 -107.497 190.955 -101.955 196.81900000000002 C -97.592 201.435 -97.313 206.71300000000002 -100.908 209.43200000000002 C -105.271 212.73100000000002 -109.123 210.85000000000002 -112.711 207.67900000000003 C -115.992 204.77900000000002 -118.895 201.39200000000002 -122.969 199.49200000000002 C -123.229 199.37 -123.652 199.594 -124.871 199.816 Z" id="path1536"></path>
		<path style="fill:#78AEAE;" d="M -237.538 112.931 C -239.413 118.126 -237.442 121.482 -236.84900000000002 124.999 C -236.366 127.86399999999999 -235.876 130.754 -235.77200000000002 133.647 C -235.67200000000003 136.439 -237.24200000000002 138.643 -239.77 139.664 C -242.407 140.73 -244.78 139.462 -246.768 137.71099999999998 C -253.96 131.37599999999998 -257.024 108.53599999999999 -251.806 100.49799999999999 C -248.196 94.93799999999999 -243.178 93.10499999999999 -236.58800000000002 95.87199999999999 C -227.776 99.57099999999998 -220.157 105.35799999999999 -212.71000000000004 111.23999999999998 C -209.24600000000004 113.97699999999998 -207.95600000000005 117.89699999999998 -210.80500000000004 121.89699999999998 C -213.63800000000003 125.87399999999998 -217.49300000000002 125.98799999999997 -221.40800000000004 123.51499999999997 C -226.593 120.239 -231.672 116.793 -237.538 112.931 Z" id="path6767"></path>
		<path style="fill:#78AEAE;" d="M -226.215 -52.172 C -227.736 -45.306 -226.56300000000002 -39.918 -226.047 -34.542 C -225.66 -30.522000000000002 -225.165 -26.486000000000004 -226.382 -22.560000000000002 C -227.287 -19.639000000000003 -228.95000000000002 -17.230000000000004 -232.448 -17.113000000000003 C -235.437 -17.014000000000003 -237.089 -18.961000000000002 -238.30800000000002 -21.333000000000002 C -238.97400000000002 -22.628 -239.58900000000003 -23.998 -239.92800000000003 -25.406000000000002 C -242.51900000000003 -36.18 -243.604 -47.123000000000005 -241.89500000000004 -58.09 C -240.22100000000003 -68.825 -233.68500000000003 -72.491 -223.70400000000004 -68.267 C -218.01300000000003 -65.85799999999999 -212.65300000000005 -62.568 -207.39600000000004 -59.272999999999996 C -203.61000000000004 -56.9 -202.05300000000005 -53.211999999999996 -204.12100000000004 -48.842 C -206.01100000000002 -44.851 -210.11700000000005 -44 -215.44000000000003 -46.483 C -218.742 -48.024 -221.899 -49.878 -226.215 -52.172 Z" id="path7670"></path>
		<path style="fill:#78AEAE;" d="M -312.156 50.713 C -313.63100000000003 55.768 -311.75100000000003 60.516000000000005 -312.331 65.231 C -312.737 68.52799999999999 -313.08000000000004 72.167 -317.069 73.059 C -321.416 74.032 -324.08000000000004 71.206 -325.571 67.678 C -329.783 57.717 -329.651 47.605999999999995 -324.846 37.94 C -321.883 31.980999999999998 -316.151 29.970999999999997 -309.909 32.592 C -305.229 34.557 -300.861 37.385999999999996 -296.617 40.223 C -293.624 42.224 -292.427 45.387 -294.053 48.891999999999996 C -295.812 52.684999999999995 -298.987 53.93299999999999 -303.104 53.467 C -306.064 53.133 -308.017 50.174 -312.156 50.713 Z" id="path3372"></path>
		<path style="fill:#78AEAE;" d="M 712.11 550.298 C 706.8580000000001 545.505 707.668 539.975 712.686 537.695 C 715.1 536.5980000000001 717.691 536.5780000000001 720.1790000000001 537.221 C 728.3070000000001 539.322 736.0690000000001 542.474 743.6120000000001 546.097 C 747.172 547.8059999999999 749.1630000000001 550.773 747.9280000000001 555.0409999999999 C 746.8420000000001 558.794 743.8210000000001 560.703 740.4760000000001 560.097 C 730.054 558.208 720.744 553.017 712.11 550.298 Z" id="path8741"></path>
		<path style="fill:#78AEAE;" d="M 686.868 662.464 C 684.3100000000001 665.0070000000001 681.2230000000001 665.849 677.8140000000001 664.8380000000001 C 669.7600000000001 662.4490000000001 661.6880000000001 660.09 653.7460000000001 657.3650000000001 C 650.1270000000001 656.1230000000002 647.2550000000001 653.6050000000001 648.1320000000001 649.1330000000002 C 648.984 644.7920000000001 652.464 643.0680000000001 656.277 643.2460000000002 C 666.652 643.7290000000002 676.2710000000001 647.3920000000002 685.436 651.9260000000002 C 689.301 653.837 689.551 659.281 686.868 662.464 Z" id="path9252"></path>
		<path style="fill:#78AEAE;" d="M 702.57 618.409 C 705.58 620.986 706.9580000000001 623.352 706 626.611 C 705.074 629.762 702.815 631.59 699.763 631.934 C 697.682 632.169 695.365 631.8 693.375 631.0849999999999 C 686.877 628.752 680.385 626.4789999999999 673.672 624.775 C 669.657 623.756 665.977 621.528 666.58 616.5409999999999 C 667.1800000000001 611.5769999999999 671.3000000000001 610.0609999999999 675.403 610.175 C 685.429 610.455 694.304 614.849 702.57 618.409 Z" id="path6048"></path>
		<path style="fill:#78AEAE;" d="M 728.362 579.651 C 731.6809999999999 582.707 733.059 585.524 731.4259999999999 589.03 C 729.853 592.4069999999999 726.7309999999999 594.374 723.4319999999999 593.184 C 714.574 589.9889999999999 705.9029999999999 586.242 697.2949999999998 582.4069999999999 C 694.9289999999999 581.352 693.5989999999998 578.9069999999999 694.0029999999998 576.0379999999999 C 694.4699999999998 572.7119999999999 696.7009999999998 571.002 699.7499999999998 570.2819999999999 C 701.1419999999998 569.954 702.6699999999997 569.703 704.0549999999997 569.925 C 713.197 571.389 721.201 575.665 728.362 579.651 Z" id="path9576"></path>
		<path style="fill:#78AEAE;" d="M 660.569 679.2 C 664.502 682.148 666.6279999999999 685.748 664.1529999999999 690.548 C 662.2819999999999 694.176 657.43 695.106 652.555 692.121 C 646.906 688.662 641.026 685.886 634.8879999999999 683.501 C 630.8309999999999 681.925 627.6729999999999 679.259 629.1249999999999 674.404 C 630.5279999999999 669.7139999999999 634.7099999999999 668.78 638.8889999999999 669.347 C 647.048 670.454 654.002 674.489 660.569 679.2 Z" id="path545"></path>
		<path style="fill:#78AEAE;" d="M 756.883 516.662 C 764.0830000000001 522.544 765.7040000000001 526.585 762.8140000000001 530.532 C 759.864 534.563 755.1750000000001 534.2470000000001 748.311 529.544 C 743.811 526.461 739.217 523.502 734.849 520.242 C 729.868 516.524 728.666 512.703 731.2610000000001 509.24299999999994 C 734.4810000000001 504.94999999999993 738.7310000000001 505.1719999999999 742.9760000000001 507.3519999999999 C 748.169 510.019 753.023 513.253 756.883 516.662 Z" id="path3115"></path>
		<path style="fill:#78AEAE;" d="M 644.526 706.322 C 645.6819999999999 707.699 647.06 708.957 647.9639999999999 710.494 C 649.803 713.621 649.631 716.905 647.1809999999999 719.571 C 645.0319999999999 721.9100000000001 641.67 722.674 639.161 721.067 C 633.637 717.527 627.8359999999999 714.759 621.765 712.356 C 619.354 711.402 617.819 709.188 618.071 706.245 C 618.3580000000001 702.888 620.408 700.993 623.424 700.126 C 631.733 697.737 638.195 701.7 644.526 706.322 Z" id="path9898"></path>
		<path style="fill:#FFBBB4;" d="M 1064.113 770.024 C 1058.431 764.77 1054.477 760.087 1053.152 753.684 C 1050.819 742.41 1057.2050000000002 734.091 1068.683 733.6089999999999 C 1073.875 733.391 1078.8799999999999 734.531 1083.555 736.6769999999999 C 1087.487 738.4819999999999 1090.876 741.2829999999999 1095.432 741.9559999999999 C 1098.443 742.401 1100.284 744.9509999999999 1101.455 747.7979999999999 C 1104.5529999999999 755.3259999999999 1102.068 767.9169999999999 1096.4009999999998 773.2469999999998 C 1090.156 779.1189999999998 1080.9119999999998 780.0369999999998 1071.9679999999998 775.3299999999998 C 1068.767 773.645 1065.931 771.271 1064.113 770.024 Z" id="path9596"></path>
	<animateTransform attributeName="transform" attributeType="auto" type="translate" values="0 0;1221.18 972.53" calcMode="spline" keyTimes="0;1" keySplines="0 0 1 1" dur="3s" begin="0s" repeatCount="1" additive="sum" accumulate="none" fill="freeze" id="animateTransform4082"></animateTransform></g>
	<g style="clip-path:url(#SVGID_00000176751785385730390280000016022333314934671525_);" id="g6797" transform="matrix(1 0 0 1 696.7298583984375 717.8870849609375)">
		<path style="fill:#FFBBB4;" d="M 1180.524 1369.035 C 1171.8039999999999 1359.717 1162.983 1350.49 1154.3909999999998 1341.056 C 1144.1399999999999 1329.8 1133.4299999999998 1318.924 1124.8329999999999 1306.255 C 1122.9999999999998 1303.554 1121.2569999999998 1300.8110000000001 1120.0079999999998 1297.797 C 1116.7899999999997 1290.034 1120.8649999999998 1283.786 1129.274 1283.583 C 1133.446 1283.482 1137.2649999999999 1284.8700000000001 1140.9569999999999 1286.6490000000001 C 1146.6599999999999 1289.3970000000002 1151.7779999999998 1293.0620000000001 1156.8539999999998 1296.8000000000002 C 1167.6819999999998 1304.7740000000001 1177.2589999999998 1314.1620000000003 1187.0209999999997 1323.3450000000003 C 1189.2059999999997 1325.4000000000003 1191.5149999999996 1327.3250000000003 1194.6829999999998 1328.6380000000001 C 1193.0599999999997 1326.323 1191.5419999999997 1323.9260000000002 1189.7969999999998 1321.707 C 1179.2479999999998 1308.294 1168.6509999999998 1294.919 1158.0639999999999 1281.537 C 1154.127 1276.56 1150.9339999999997 1271.162 1148.6729999999998 1265.219 C 1147.3489999999997 1261.739 1146.6379999999997 1258.164 1147.3279999999997 1254.472 C 1148.2659999999998 1249.453 1151.7829999999997 1247.225 1156.7219999999998 1248.499 C 1160.3339999999998 1249.431 1163.3159999999998 1251.596 1166.2469999999998 1253.8 C 1176.2029999999997 1261.2849999999999 1184.697 1270.311 1193.0829999999999 1279.433 C 1200.37 1287.36 1207.7319999999997 1295.204 1215.677 1302.485 C 1216.993 1303.6909999999998 1218.175 1305.0469999999998 1221.109 1306.1879999999999 C 1215.36 1298.011 1210.375 1290.6999999999998 1205.156 1283.561 C 1199.868 1276.328 1195.081 1268.787 1190.51 1261.096 C 1188.734 1258.109 1187.394 1254.93 1186.237 1251.67 C 1185.202 1248.7540000000001 1184.8100000000002 1245.7440000000001 1185.251 1242.669 C 1186.658 1232.865 1194.11 1229.178 1202.558 1234.343 C 1209.902 1238.833 1215.971 1244.9170000000001 1221.532 1251.3890000000001 C 1236.107 1268.3490000000002 1249.552 1286.208 1262.7069999999999 1304.2800000000002 C 1269.3 1313.3380000000002 1276.215 1322.0780000000002 1284.973 1329.1940000000002 C 1288.341 1331.9310000000003 1292.029 1333.9920000000002 1296.311 1334.8450000000003 C 1300.1319999999998 1335.6060000000002 1300.716 1335.2030000000002 1300.879 1331.4650000000001 C 1300.9759999999999 1329.238 1300.8329999999999 1326.996 1300.7079999999999 1324.766 C 1299.764 1307.804 1295.773 1291.457 1290.7019999999998 1275.3290000000002 C 1288.3879999999997 1267.9700000000003 1285.8839999999998 1260.6620000000003 1285.3249999999998 1252.8740000000003 C 1284.9209999999998 1247.2570000000003 1285.6949999999997 1241.9310000000003 1288.716 1237.0650000000003 C 1293.9589999999998 1228.6210000000003 1302.798 1227.2670000000003 1310.427 1233.8500000000004 C 1314.654 1237.4970000000003 1317.384 1242.2900000000004 1320.02 1247.1180000000004 C 1326.872 1259.6700000000003 1331.756 1272.9910000000004 1335.536 1286.7500000000005 C 1340.7540000000001 1305.7400000000005 1345.019 1324.9730000000004 1351.0610000000001 1343.7590000000005 C 1362.411 1379.0520000000004 1379.3300000000002 1411.6000000000004 1399.0970000000002 1442.7460000000005 C 1413.5870000000002 1465.5770000000005 1429.7270000000003 1487.2760000000005 1445.8560000000002 1508.9690000000005 C 1448.3980000000001 1512.3880000000006 1450.6700000000003 1516.0140000000006 1452.9480000000003 1519.6190000000006 C 1456.0010000000004 1524.4500000000005 1455.5370000000003 1529.2660000000005 1452.5480000000002 1533.9550000000006 C 1450.4460000000001 1537.2530000000006 1447.6400000000003 1539.9240000000007 1444.5690000000002 1542.2680000000007 C 1430.9660000000001 1552.6460000000006 1416.3070000000002 1561.4320000000007 1401.6070000000002 1570.1010000000008 C 1391.6100000000001 1575.9960000000008 1382.7060000000001 1573.2460000000008 1374.8370000000002 1562.6190000000008 C 1373.3910000000003 1560.6660000000008 1372.1950000000002 1558.520000000001 1370.957 1556.4200000000008 C 1359.825 1537.5280000000007 1346.277 1520.7120000000007 1329.1070000000002 1506.8920000000007 C 1321.4620000000002 1500.7380000000007 1313.0680000000002 1495.8620000000008 1304.6030000000003 1491.0050000000008 C 1262.1350000000002 1466.635000000001 1219.7840000000003 1442.0500000000009 1180.4260000000004 1412.7660000000008 C 1159.4780000000003 1397.1790000000008 1140.7440000000004 1379.2080000000008 1124.7120000000004 1358.5240000000008 C 1123.2280000000005 1356.6100000000008 1121.7690000000005 1354.5650000000007 1120.8400000000004 1352.3530000000007 C 1117.9550000000004 1345.4880000000007 1121.9270000000004 1339.9420000000007 1129.3560000000004 1340.4530000000007 C 1135.5740000000005 1340.8800000000006 1141.2050000000004 1343.2940000000006 1146.4310000000005 1346.5350000000008 C 1155.2360000000006 1351.9950000000008 1163.8040000000005 1357.8140000000008 1172.0950000000005 1364.0410000000008 C 1174.666 1365.972 1176.98 1368.318 1180.524 1369.035 Z" id="path9531"></path>
		<path style="fill:#FFA19F;" d="M 1262.803 1334.404 C 1263.9140000000002 1336.694 1263.082 1338.65 1261.38 1340.359 C 1258.2330000000002 1343.519 1255.0720000000001 1346.666 1251.874 1349.774 C 1238.696 1362.581 1229.467 1377.984 1222.365 1394.763 C 1221.344 1397.176 1220.78 1399.7839999999999 1220.022 1402.307 C 1219.36 1404.509 1217.96 1405.906 1215.6029999999998 1405.642 C 1212.936 1405.343 1211.829 1403.4460000000001 1211.8349999999998 1400.928 C 1211.841 1398.0330000000001 1212.8479999999997 1395.345 1213.899 1392.7030000000002 C 1222.8419999999999 1370.2340000000002 1236.645 1351.1720000000003 1254.453 1334.919 C 1255.673 1333.805 1256.888 1332.788 1258.585 1332.519 C 1260.367 1332.237 1261.785 1332.729 1262.803 1334.404 Z" id="path2367"></path>
		<path style="fill:#FFA19F;" d="M 1321.255 1473.283 C 1319.5700000000002 1474.3129999999999 1319.0710000000001 1474.6709999999998 1318.528 1474.9409999999998 C 1315.279 1476.5569999999998 1312.827 1476.2239999999997 1311.6290000000001 1473.8859999999997 C 1310.2150000000001 1471.1259999999997 1311.5780000000002 1469.2659999999998 1313.844 1467.7819999999997 C 1323.193 1461.6579999999997 1330.178 1453.3949999999998 1335.9170000000001 1443.8929999999998 C 1339.6850000000002 1437.6549999999997 1343.756 1431.5889999999997 1347.92 1425.6049999999998 C 1350.6090000000002 1421.7399999999998 1353.1460000000002 1420.9389999999999 1355.363 1422.6149999999998 C 1357.492 1424.2239999999997 1357.429 1427.0109999999997 1354.941 1430.7999999999997 C 1349.381 1439.2669999999998 1343.805 1447.7249999999997 1338.115 1456.1049999999998 C 1333.282 1463.226 1326.91 1468.853 1321.255 1473.283 Z" id="path6325"></path>
		<path style="fill:#FFA19F;" d="M 1289.394 1398.418 C 1287.378 1399.8159999999998 1284.547 1398.9299999999998 1283.263 1396.492 C 1282.3719999999998 1394.8 1282.5149999999999 1392.951 1282.481 1391.134 C 1282.138 1372.885 1286.674 1355.79 1294.756 1339.55 C 1295.472 1338.1109999999999 1296.314 1336.668 1297.3860000000002 1335.49 C 1298.7760000000003 1333.962 1300.6660000000002 1333.884 1302.3930000000003 1334.915 C 1303.9080000000004 1335.82 1304.6060000000002 1337.3609999999999 1304.1690000000003 1339.1009999999999 C 1303.8290000000004 1340.4569999999999 1303.2130000000004 1341.763 1302.5840000000003 1343.024 C 1294.8490000000004 1358.5379999999998 1290.5090000000002 1374.8339999999998 1291.1360000000002 1392.2879999999998 C 1291.217 1394.516 1291.481 1396.804 1289.394 1398.418 Z" id="path8889"></path>
		<path style="fill:#FFA19F;" d="M 1219.877 1347.844 C 1220.982 1349.803 1221.705 1351.511 1220.3509999999999 1353.233 C 1219.0149999999999 1354.931 1217.0449999999998 1355.1 1215.4029999999998 1354.137 C 1209.7869999999998 1350.846 1205.2179999999998 1346.206 1200.4669999999999 1341.841 C 1199.2789999999998 1340.75 1199.2969999999998 1338.808 1200.3829999999998 1337.328 C 1201.581 1335.696 1203.2289999999998 1335.112 1205.1989999999998 1335.782 C 1205.7659999999998 1335.975 1206.3359999999998 1336.243 1206.8129999999999 1336.599 C 1211.518 1340.112 1216.027 1343.854 1219.877 1347.844 Z" id="path5673"></path>
		<path style="fill:#FFA19F;" d="M 1239.495 1326.019 C 1240.9109999999998 1328.626 1242.0459999999998 1330.813 1239.9969999999998 1332.71 C 1237.743 1334.798 1235.3539999999998 1333.7250000000001 1233.5259999999998 1331.9170000000001 C 1230.656 1329.0780000000002 1227.9409999999998 1326.0690000000002 1225.31 1323.0040000000001 C 1223.697 1321.1250000000002 1223.35 1318.8580000000002 1225.225 1316.9660000000001 C 1227.1589999999999 1315.016 1229.4499999999998 1315.5610000000001 1231.187 1317.247 C 1234.23 1320.2 1237.035 1323.397 1239.495 1326.019 Z" id="path9975"></path>
		<path style="fill:#BCD9D7;" d="M 1444.224 1474.95 C 1447.7189999999998 1480.669 1984.9279999999999 2041.406 1988.341 2047.174 C 1991.889 2053.17 1961.2779999999998 2098.665 1956.079 2103.291 C 1948.502 2110.032 1940.5829999999999 2116.393 1932.733 2122.8230000000003 C 1917.504 2135.2970000000005 1901.566 2146.907 1887.283 2160.5290000000005 C 1882.1209999999999 2165.452 1877.52 2170.8250000000003 1873.1779999999999 2176.4590000000003 C 1869.146 2181.6920000000005 1865.9019999999998 2181.934 1861.176 2177.2090000000003 C 1854.416 2170.452 1848.2959999999998 2163.1200000000003 1842.666 2155.4040000000005 C 1836.9199999999998 2147.5280000000002 1328.103 1542.3230000000003 1322.478 1534.3600000000006 C 1318.191 1528.2910000000006 1318.367 1523.8120000000006 1323.92 1518.7620000000006 C 1332.6270000000002 1510.8440000000007 1341.691 1503.3200000000006 1350.54 1495.5560000000007 C 1365.797 1482.1680000000008 1380.982 1468.6980000000008 1396.252 1455.3250000000007 C 1399.609 1452.3850000000007 1403.114 1449.5960000000007 1406.696 1446.9320000000007 C 1414.272 1441.2980000000007 1418.0149999999999 1441.5960000000007 1424.5439999999999 1448.5790000000006 C 1427.446 1451.6830000000007 1430.051 1455.0980000000006 1432.5279999999998 1458.5600000000006 C 1436.4279999999999 1464.0110000000006 1440.1049999999998 1469.6210000000005 1443.8769999999997 1475.1640000000007 C 1443.992 1475.093 1444.108 1475.022 1444.224 1474.95 Z" id="path1270"></path>
	
		<path style="fill:#FFBBB4;" d="M 1533.823 1038.194 C 1525.919 1028.174 1518.121 1018.069 1510.083 1008.1579999999999 C 1500.4940000000001 996.334 1491.3480000000002 984.1129999999999 1480.113 973.7109999999999 C 1477.717 971.4929999999999 1475.267 969.358 1472.4750000000001 967.6709999999999 C 1465.2830000000001 963.324 1458.4940000000001 966.415 1457.0310000000002 974.699 C 1456.305 978.809 1457.1040000000003 982.7919999999999 1458.3090000000002 986.7099999999999 C 1460.1700000000003 992.761 1463.025 998.3709999999999 1465.9590000000003 1003.9499999999999 C 1472.2170000000003 1015.853 1480.0620000000004 1026.73 1487.6760000000004 1037.76 C 1489.3800000000003 1040.229 1490.9370000000004 1042.8 1491.7590000000005 1046.1299999999999 C 1489.7140000000004 1044.1779999999999 1487.5710000000004 1042.318 1485.6400000000006 1040.2589999999998 C 1473.9620000000004 1027.8169999999998 1462.3300000000006 1015.3319999999998 1450.6870000000006 1002.8559999999998 C 1446.3580000000006 998.2159999999998 1441.5000000000007 994.2489999999998 1435.9630000000006 991.1219999999997 C 1432.7210000000007 989.2909999999997 1429.2930000000006 988.0509999999997 1425.5400000000006 988.1789999999997 C 1420.4370000000006 988.3529999999997 1417.7060000000006 991.4959999999998 1418.2240000000006 996.5699999999997 C 1418.6030000000005 1000.2809999999997 1420.2960000000005 1003.5539999999997 1422.0350000000005 1006.7829999999997 C 1427.9410000000005 1017.7499999999997 1435.5900000000006 1027.5019999999997 1443.3500000000006 1037.1619999999996 C 1450.0940000000005 1045.5569999999996 1456.7440000000006 1054.0119999999995 1462.7500000000007 1062.9589999999996 C 1463.7450000000006 1064.4409999999996 1464.9080000000006 1065.8129999999996 1465.5960000000007 1068.8849999999995 C 1458.3750000000007 1061.9739999999995 1451.8950000000007 1055.9489999999996 1445.6200000000008 1049.7169999999996 C 1439.2630000000008 1043.4039999999995 1432.5260000000007 1037.5389999999995 1425.6080000000009 1031.8649999999996 C 1422.922000000001 1029.6609999999996 1419.980000000001 1027.8589999999995 1416.9300000000007 1026.2259999999997 C 1414.2030000000007 1024.7649999999996 1411.2850000000008 1023.9249999999996 1408.1790000000008 1023.8999999999996 C 1398.2750000000008 1023.8199999999996 1393.5110000000009 1030.6339999999996 1397.3490000000008 1039.7619999999997 C 1400.6860000000008 1047.6969999999997 1405.7900000000009 1054.6099999999997 1411.354000000001 1061.0799999999997 C 1425.9340000000009 1078.0359999999996 1441.573000000001 1094.0089999999998 1457.466000000001 1109.7269999999996 C 1465.432000000001 1117.6049999999996 1473.035000000001 1125.7529999999997 1478.755000000001 1135.4809999999995 C 1480.955000000001 1139.2219999999995 1482.440000000001 1143.1769999999995 1482.640000000001 1147.5379999999996 C 1482.819000000001 1151.4299999999996 1482.333000000001 1151.9469999999997 1478.613000000001 1151.5469999999996 C 1476.397000000001 1151.3089999999995 1474.202000000001 1150.8299999999995 1472.016000000001 1150.3729999999996 C 1455.388000000001 1146.8939999999996 1439.825000000001 1140.4949999999997 1424.641000000001 1133.0609999999997 C 1417.7130000000009 1129.6689999999996 1410.863000000001 1126.0969999999998 1403.247000000001 1124.3739999999998 C 1397.754000000001 1123.1319999999998 1392.372000000001 1123.0969999999998 1387.109000000001 1125.3539999999998 C 1377.974000000001 1129.2699999999998 1375.309000000001 1137.8059999999998 1380.6720000000012 1146.3359999999998 C 1383.6430000000012 1151.062 1387.9720000000011 1154.4809999999998 1392.3500000000013 1157.8109999999997 C 1403.7320000000013 1166.4699999999998 1416.1680000000013 1173.2969999999998 1429.2040000000013 1179.0999999999997 C 1447.1960000000013 1187.1089999999997 1465.5710000000013 1194.2129999999997 1483.2370000000012 1203.0049999999997 C 1516.4260000000013 1219.5229999999997 1546.0660000000012 1241.1359999999997 1573.8930000000012 1265.3539999999996 C 1594.291000000001 1283.1069999999995 1613.3210000000013 1302.3209999999997 1632.348000000001 1321.5229999999997 C 1635.3460000000011 1324.5489999999998 1638.590000000001 1327.3399999999997 1641.813000000001 1330.1329999999996 C 1646.131000000001 1333.8759999999995 1650.962000000001 1334.1399999999996 1656.047000000001 1331.8899999999996 C 1659.624000000001 1330.3069999999996 1662.6850000000009 1327.9339999999997 1665.4630000000009 1325.2489999999996 C 1677.766000000001 1313.3579999999995 1688.652000000001 1300.1839999999995 1699.4290000000008 1286.9509999999996 C 1706.7580000000007 1277.9519999999995 1705.3750000000007 1268.7359999999996 1696.0490000000007 1259.3609999999996 C 1694.3350000000007 1257.6379999999997 1692.3930000000007 1256.1329999999996 1690.5020000000006 1254.5949999999996 C 1673.4950000000006 1240.7529999999995 1658.9030000000007 1224.8349999999996 1647.8170000000007 1205.7849999999996 C 1642.8800000000008 1197.3029999999997 1639.3200000000006 1188.2719999999997 1635.7880000000007 1179.1739999999995 C 1618.0680000000007 1133.5289999999995 1600.1190000000006 1087.9689999999996 1577.0730000000008 1044.6609999999996 C 1564.8070000000007 1021.6109999999996 1549.8510000000008 1000.3909999999996 1531.8080000000007 981.4369999999996 C 1530.1380000000006 979.6829999999995 1528.3350000000007 977.9329999999995 1526.2880000000007 976.6819999999996 C 1519.9340000000007 972.7999999999996 1513.8550000000007 975.8939999999996 1513.2440000000006 983.3149999999996 C 1512.7330000000006 989.5259999999996 1514.2750000000005 995.4559999999996 1516.6950000000006 1001.1099999999996 C 1520.7710000000006 1010.6349999999995 1525.2390000000007 1019.9789999999996 1530.1510000000005 1029.1099999999997 C 1531.675 1031.943 1533.646 1034.583 1533.823 1038.194 Z" id="path8609"></path>
		<path style="fill:#FFA19F;" d="M 1487.236 1114.343 C 1489.333 1115.785 1491.392 1115.256 1493.3370000000002 1113.8300000000002 C 1496.9340000000002 1111.1930000000002 1500.5190000000002 1108.5410000000002 1504.0720000000001 1105.8450000000003 C 1518.7120000000002 1094.7390000000003 1535.325 1087.9260000000002 1552.9810000000002 1083.4230000000002 C 1555.5200000000002 1082.7750000000003 1558.1830000000002 1082.6100000000001 1560.7910000000002 1082.2390000000003 C 1563.0670000000002 1081.9150000000002 1564.659 1080.7410000000002 1564.7510000000002 1078.3700000000003 C 1564.8560000000002 1075.6890000000003 1563.1470000000002 1074.3100000000004 1560.6570000000002 1073.9370000000004 C 1557.794 1073.5090000000002 1554.9850000000001 1074.1000000000004 1552.2160000000001 1074.7440000000004 C 1528.659 1080.2130000000004 1507.7420000000002 1090.9980000000003 1489.0000000000002 1106.1660000000004 C 1487.7160000000001 1107.2050000000004 1486.5280000000002 1108.2530000000004 1486.0070000000003 1109.8910000000003 C 1485.458 1111.61 1485.732 1113.085 1487.236 1114.343 Z" id="path6013"></path>
		<path style="fill:#FFA19F;" d="M 1615.768 1192.978 C 1617.039 1191.4660000000001 1617.468 1191.027 1617.816 1190.5310000000002 C 1619.902 1187.5620000000001 1619.94 1185.0870000000002 1617.808 1183.5520000000001 C 1615.292 1181.7400000000002 1613.248 1182.8090000000002 1611.441 1184.826 C 1603.983 1193.15 1594.766 1198.815 1584.509 1203.063 C 1577.776 1205.852 1571.1680000000001 1208.967 1564.627 1212.1850000000002 C 1560.402 1214.2640000000001 1559.23 1216.651 1560.5539999999999 1219.0950000000003 C 1561.8259999999998 1221.4420000000002 1564.591 1221.7970000000003 1568.7099999999998 1219.9060000000002 C 1577.9159999999997 1215.68 1587.1149999999998 1211.4360000000001 1596.254 1207.0690000000002 C 1604.02 1203.359 1610.54 1197.904 1615.768 1192.978 Z" id="path9609"></path>
		<path style="fill:#FFA19F;" d="M 1546.533 1150.241 C 1548.2179999999998 1148.4569999999999 1547.7669999999998 1145.526 1545.549 1143.8899999999999 C 1544.01 1142.7549999999999 1542.161 1142.619 1540.369 1142.3129999999999 C 1522.378 1139.235 1504.7959999999998 1141.1529999999998 1487.5269999999998 1146.7069999999999 C 1485.9969999999998 1147.1989999999998 1484.4439999999997 1147.8139999999999 1483.1179999999997 1148.6979999999999 C 1481.3989999999997 1149.8429999999998 1481.0369999999998 1151.6989999999998 1481.7979999999998 1153.562 C 1482.4649999999997 1155.196 1483.8839999999998 1156.117 1485.6699999999998 1155.946 C 1487.061 1155.8129999999999 1488.445 1155.3999999999999 1489.7859999999998 1154.9679999999998 C 1506.2849999999999 1149.649 1523.0479999999998 1147.8039999999999 1540.2099999999998 1151.0439999999999 C 1542.402 1151.458 1544.624 1152.062 1546.533 1150.241 Z" id="path6303"></path>
		<path style="fill:#FFA19F;" d="M 1506.966 1073.92 C 1508.7369999999999 1075.306 1510.317 1076.278 1512.223 1075.198 C 1514.103 1074.132 1514.565 1072.209 1513.86 1070.441 C 1511.4489999999998 1064.395 1507.5469999999998 1059.181 1503.945 1053.829 C 1503.0439999999999 1052.49 1501.1209999999999 1052.2169999999999 1499.495 1053.069 C 1497.7009999999998 1054.008 1496.877 1055.55 1497.243 1057.599 C 1497.348 1058.1879999999999 1497.528 1058.792 1497.808 1059.317 C 1500.576 1064.496 1503.599 1069.515 1506.966 1073.92 Z" id="path7195"></path>
		<path style="fill:#FFA19F;" d="M 1482.443 1090.041 C 1484.808 1091.8319999999999 1486.8 1093.282 1488.983 1091.542 C 1491.385 1089.626 1490.683 1087.1039999999998 1489.1699999999998 1085.0249999999999 C 1486.7939999999999 1081.761 1484.2269999999999 1078.626 1481.591 1075.5649999999998 C 1479.975 1073.6889999999999 1477.7859999999998 1073.0049999999999 1475.6339999999998 1074.5749999999998 C 1473.4159999999997 1076.1939999999997 1473.6109999999999 1078.5409999999997 1475.0169999999998 1080.5109999999997 C 1477.481 1083.962 1480.22 1087.215 1482.443 1090.041 Z" id="path4765"></path>
		<path style="fill:#BCD9D7;" d="M 1598.959 1314.804 C 1604.0890000000002 1319.1180000000002 2077.842 1934.404 2083.033 1938.6440000000002 C 2088.429 1943.0520000000001 2138.0029999999997 1919.6160000000002 2143.3559999999998 1915.1700000000003 C 2151.158 1908.6910000000003 2158.636 1901.8160000000003 2166.171 1895.0200000000002 C 2180.7889999999998 1881.8360000000002 2194.66 1867.8210000000001 2210.2709999999997 1855.7440000000001 C 2215.9129999999996 1851.3790000000001 2221.9159999999997 1847.6370000000002 2228.138 1844.19 C 2233.917 1840.989 2234.643 1837.818 2230.681 1832.4360000000001 C 2225.015 1824.7390000000003 2218.685 1817.5870000000002 2211.901 1810.863 C 2204.977 1804 1682.9969999999998 1210.1100000000001 1675.9689999999998 1203.353 C 1670.6119999999999 1198.2040000000002 1666.157 1197.7050000000002 1660.3319999999999 1202.4370000000001 C 1651.197 1209.8570000000002 1642.398 1217.689 1633.3939999999998 1225.2720000000002 C 1617.8679999999997 1238.3470000000002 1602.2709999999997 1251.3380000000002 1586.7569999999998 1264.428 C 1583.3459999999998 1267.306 1580.0629999999999 1270.352 1576.8909999999998 1273.4940000000001 C 1570.1829999999998 1280.1380000000001 1569.916 1283.8840000000002 1575.841 1291.3870000000002 C 1578.475 1294.7220000000002 1581.4599999999998 1297.8100000000002 1584.511 1300.7780000000002 C 1589.315 1305.4520000000002 1594.31 1309.9300000000003 1599.223 1314.4910000000002 C 1599.135 1314.596 1599.047 1314.7 1598.959 1314.804 Z" id="path5862"></path>
	<animateTransform attributeName="transform" attributeType="auto" type="translate" values="0 0;-651.6 -779.9" calcMode="spline" keyTimes="0;1" keySplines="0 0 1 1" dur="3s" begin="0s" repeatCount="1" additive="sum" accumulate="none" fill="freeze" id="animateTransform8902"></animateTransform></g>
</g>
</svg>