<svg width="1000" height="664" viewBox="0 0 1000 664" fill="none" xmlns="http://www.w3.org/2000/svg">
<g clip-path="url(#clip0_16_45)">
<rect width="1000" height="664" fill="#E7F1FB"/>
<g opacity="0.8" filter="url(#filter0_d_16_45)">
<mask id="mask0_16_45" style="mask-type:luminance" maskUnits="userSpaceOnUse" x="0" y="-22" width="1000" height="767">
<path d="M1000 -21.1633H0V744.512H1000V-21.1633Z" fill="white"/>
</mask>
<g mask="url(#mask0_16_45)">
<path d="M-22.2661 393.001C-22.2661 393.001 67.7339 386.876 67.7339 452.724C67.7339 452.724 147.734 449.661 147.734 501.727C147.734 501.727 155.734 472.631 233.734 472.631C311.734 472.631 295.734 544.605 295.734 544.605C295.734 544.605 395.734 538.48 395.734 610.453C395.734 610.453 465.734 605.859 465.734 674.77H-74.2659L-22.2661 393.001Z" fill="white"/>
<path d="M439.734 639.364C439.734 639.364 431.734 588.829 503.734 585.767C503.734 585.767 495.734 533.701 575.734 533.701C575.734 533.701 577.734 464.79 663.734 464.79C749.736 464.79 759.736 503.074 759.736 503.074C759.736 503.074 829.736 489.292 853.736 539.826C853.736 539.826 853.736 472.447 927.736 472.447C927.736 472.447 917.736 397.411 1005.74 397.411V671.523L439.734 639.364Z" fill="white"/>
<path d="M676.09 762.189C781.16 737.307 905.896 707.061 905.896 707.061C800.903 707.061 764.903 631.263 671.906 615.185C578.91 599.107 581.91 647.342 455.917 654.233C329.924 661.124 335.924 580.731 179.931 527.903C81.2959 494.498 4.26562 515.275 -39.0583 535.07V762.189H676.09Z" fill="#D2E5F9"/>
<path d="M1055.81 557.935C1052.24 557.231 1003.65 488.482 884.854 490.191C764.868 491.917 734.882 588.9 572.892 599.214C410.899 609.527 383.91 568.243 272.915 593.284C161.922 618.328 110.933 665.434 110.933 665.434H1079.74L1055.81 557.935Z" fill="#B6E08C"/>
<path d="M-0.232275 752.408C-0.232275 752.408 -68.3443 730.306 -38.5343 655.792C-38.5343 655.792 44.7297 703.715 -0.232275 752.408Z" fill="url(#paint0_linear_16_45)"/>
<path d="M1055.65 751.73C988.124 642.461 696.926 812.704 359.3 761.487C156.437 730.71 36.6967 718.689 -20.5276 727.187V1076.77L1055.65 1080.99C1055.65 1080.99 1058.67 756.607 1055.65 751.73Z" fill="#76C46F"/>
</g>
</g>
<path d="M645.833 198.508C645.833 198.508 654.327 165.236 681.023 163.956C707.72 162.676 717.427 179.953 717.427 179.953C717.427 179.953 721.675 147.961 756.865 144.761C792.056 141.561 800.549 177.393 800.549 177.393C800.549 177.393 821.177 160.116 834.526 172.913C847.874 185.711 847.874 190.831 847.874 190.831L876.389 197.868L645.833 198.508Z" fill="white"/>
<path d="M59.0278 119.658C59.0278 119.658 67.5214 86.3857 94.218 85.1057C120.915 83.8258 130.622 101.103 130.622 101.103C130.622 101.103 134.87 69.1106 170.06 65.9106C205.25 62.7107 213.744 98.5433 213.744 98.5433C213.744 98.5433 234.372 81.2658 247.72 94.0633C261.068 106.861 261.068 111.981 261.068 111.981L289.583 119.018L59.0278 119.658Z" fill="white"/>
</g>
<defs>
<filter id="filter0_d_16_45" x="-4" y="392.851" width="1008" height="359.661" filterUnits="userSpaceOnUse" color-interpolation-filters="sRGB">
<feFlood flood-opacity="0" result="BackgroundImageFix"/>
<feColorMatrix in="SourceAlpha" type="matrix" values="0 0 0 0 0 0 0 0 0 0 0 0 0 0 0 0 0 0 127 0" result="hardAlpha"/>
<feOffset dy="4"/>
<feGaussianBlur stdDeviation="2"/>
<feComposite in2="hardAlpha" operator="out"/>
<feColorMatrix type="matrix" values="0 0 0 0 0 0 0 0 0 0 0 0 0 0 0 0 0 0 0.25 0"/>
<feBlend mode="normal" in2="BackgroundImageFix" result="effect1_dropShadow_16_45"/>
<feBlend mode="normal" in="SourceGraphic" in2="effect1_dropShadow_16_45" result="shape"/>
</filter>
<linearGradient id="paint0_linear_16_45" x1="-20.7887" y1="679.26" x2="-14.1037" y2="754.376" gradientUnits="userSpaceOnUse">
<stop stop-color="#2F8988"/>
<stop offset="1" stop-color="#18485B"/>
</linearGradient>
<clipPath id="clip0_16_45">
<rect width="1000" height="664" fill="white"/>
</clipPath>
</defs>
</svg>
