<svg width="1000" height="664" viewBox="0 0 1000 664" fill="none" xmlns="http://www.w3.org/2000/svg">
<g clip-path="url(#clip0_15_3098)">
<rect width="1000" height="664" fill="#E7F1FB"/>
<g opacity="0.8" filter="url(#filter0_d_15_3098)">
<mask id="mask0_15_3098" style="mask-type:luminance" maskUnits="userSpaceOnUse" x="0" y="-22" width="1000" height="767">
<path d="M1000 -21.1633H0V744.512H1000V-21.1633Z" fill="white"/>
</mask>
<g mask="url(#mask0_15_3098)">
<path d="M-22.2661 243.001C-22.2661 243.001 67.7339 236.876 67.7339 302.724C67.7339 302.724 147.734 299.661 147.734 351.727C147.734 351.727 155.734 322.631 233.734 322.631C311.734 322.631 295.734 394.605 295.734 394.605C295.734 394.605 395.734 388.479 395.734 460.453C395.734 460.453 465.734 455.859 465.734 524.77H-74.2659L-22.2661 243.001Z" fill="white"/>
<path d="M439.734 529.364C439.734 529.364 431.734 478.829 503.734 475.766C503.734 475.766 495.734 423.701 575.734 423.701C575.734 423.701 577.734 354.79 663.734 354.79C749.736 354.79 759.736 393.074 759.736 393.074C759.736 393.074 829.736 379.291 853.736 429.826C853.736 429.826 853.736 362.447 927.736 362.447C927.736 362.447 917.736 287.41 1005.74 287.41V561.523L439.734 529.364Z" fill="white"/>
<path d="M676.09 612.189C781.16 587.307 905.896 557.061 905.896 557.061C800.903 557.061 764.903 481.262 671.906 465.185C578.91 449.107 581.91 497.342 455.917 504.233C329.924 511.124 335.924 430.731 179.931 377.902C81.2959 344.497 4.26562 365.275 -39.0583 385.07V612.189H676.09Z" fill="#D2E5F9"/>
<path d="M1055.81 522.935C1052.24 522.231 1003.65 453.482 884.854 455.191C764.868 456.917 734.882 553.9 572.892 564.214C410.899 574.527 383.91 533.243 272.915 558.283C161.922 583.328 110.933 630.434 110.933 630.434H1079.74L1055.81 522.935Z" fill="#B6E08C"/>
<path d="M32.5896 597.217C32.5896 597.217 -49.9084 549.466 3.94957 419.017C3.94957 419.017 108.196 535.994 32.5896 597.217Z" fill="#62AB72"/>
<path d="M78.2099 595.592C78.2099 595.592 19.8181 561.792 57.9381 469.464C57.9381 469.464 131.724 552.258 78.2099 595.592Z" fill="#B3DE8A"/>
<path d="M-0.232519 602.408C-0.232519 602.408 -68.3445 580.306 -38.5345 505.791C-38.5345 505.791 44.7295 553.715 -0.232519 602.408Z" fill="url(#paint0_linear_15_3098)"/>
<path d="M1069.9 709.423C1057.97 696.301 1030.17 670.282 1014.48 660.994C998.799 651.706 987.639 643.449 987.639 643.449C987.639 643.449 982.625 654.946 975.889 653.096C969.153 651.252 970.694 637.031 970.694 637.031C970.694 637.031 950.972 623.764 919.694 618.966C888.417 614.168 879.465 616.303 845.965 615.485C812.472 614.666 758.188 626.224 758.188 626.224C758.188 626.224 774.833 634.408 777.819 635.294C780.799 636.179 795.91 644.212 795.91 644.212L815.924 655.714C815.924 655.714 838.833 659.11 841.91 659.402C844.993 659.699 857.694 653.735 861.736 662.501C865.778 671.274 863.562 670.467 854.417 668.987C845.278 667.513 827.951 668.247 827.951 668.247C827.951 668.247 847.007 676.061 859.611 685.057C872.215 694.048 877.215 701.716 883.667 705.325C890.111 708.941 917.736 707.399 926.882 708.874C936.021 710.348 954.5 721.704 951.514 724.989C948.528 728.273 939.187 729.215 923.986 726.558C908.778 723.901 889.139 724.411 889.139 724.411C889.139 724.411 888.66 727.36 919.16 760.823C949.458 795.469 1012.51 792.537 1012.51 792.537L1056.68 799.768C1056.68 799.768 1056.68 799.768 1059.76 795.273C1062.84 790.777 1078.35 762.925 1080.57 754.158C1082.78 745.392 1081.83 722.545 1069.9 709.423ZM869.437 648.875C866.215 649.464 856.639 648.242 845.472 647.171C834.312 646.101 830.361 643.926 828.299 642.233C826.229 640.535 829.792 637.883 838.889 637.256C838.889 637.256 841.049 635.966 849.715 637.995C858.375 640.024 859.146 640.103 865.736 642.827C872.326 645.557 872.667 648.287 869.437 648.875ZM897.194 675.192C890.896 675.483 884.826 674.3 887.431 672.753C890.028 671.206 894.118 670.102 894.118 670.102C894.118 670.102 905.431 667.894 908.312 671.767C911.201 675.635 903.5 674.895 897.194 675.192ZM962.271 652.692C958.944 655.069 957.799 647.771 951.521 643.124C945.236 638.483 943.368 632.015 943.368 632.015C945.097 628.59 954.986 636.275 958.882 641.14C962.778 646.005 965.59 650.316 962.271 652.692Z" fill="#13334C"/>
<path d="M1055.65 601.73C988.124 492.461 696.926 662.704 359.3 611.486C156.437 580.71 36.6965 568.689 -20.5278 577.187V926.771L1055.65 930.987C1055.65 930.987 1058.67 606.607 1055.65 601.73Z" fill="#76C46F"/>
<path d="M-26.8619 788.188C-26.8619 788.188 11.7201 791.876 26.1881 758.642C40.6561 725.409 19.7581 713.1 58.3401 692.176C96.9222 671.251 100.138 665.097 98.5299 642.939C96.9222 620.787 116.214 620.787 138.72 599.857C161.226 578.933 137.112 570.318 159.618 554.315C182.124 538.313 212.668 545.7 217.492 534.621C222.316 523.543 183.734 502.617 127.468 507.54C71.2021 512.463 58.3421 537.082 43.8721 559.236C29.4041 581.394 -10.7859 583.854 -10.7859 613.4C-10.7859 642.939 -39.7219 656.481 -52.5839 667.557C-65.4459 678.633 -52.5839 682.327 -75.0896 715.561C-97.5958 748.794 -84.7361 794.342 -26.8619 788.188Z" fill="#4B9F66"/>
<path d="M219.463 532.129C191.906 523.896 162.016 526.477 135.242 535.205C106.379 544.618 83.5001 561.383 65.4703 580.71C45.7703 601.836 32.1843 625.927 18.9563 649.682C3.48828 677.467 -11.9177 705.264 -27.3537 733.055C-36.3597 749.271 -45.3657 765.486 -54.3737 781.697C-54.9757 782.779 -52.8977 783.72 -52.2917 782.633C-36.7637 754.674 -21.2357 726.721 -5.70772 698.762C8.78027 672.686 22.5503 646.274 38.4323 620.67C52.9803 597.212 70.748 574.32 96.0584 556.703C119.818 540.167 151.436 529.112 183.79 528.855C195.792 528.76 207.663 530.575 218.818 533.907C220.272 534.343 220.894 532.558 219.463 532.129Z" fill="#9ED188"/>
<path d="M257.734 586.792C253.864 586.792 253.864 591.382 257.734 591.382C261.604 591.382 261.604 586.792 257.734 586.792Z" fill="#4B9F66"/>
<path d="M291.734 607.206C287.864 607.206 287.864 611.802 291.734 611.802C295.604 611.802 295.604 607.206 291.734 607.206Z" fill="#B6E08C"/>
<path d="M337.733 598.277C337.733 601.236 343.733 601.236 343.733 598.277C343.733 595.211 337.733 595.211 337.733 598.277Z" fill="#4B9F66"/>
<path d="M387.733 622.519C383.863 622.519 383.863 627.116 387.733 627.116C391.604 627.116 391.604 622.519 387.733 622.519Z" fill="#4B9F66"/>
<path d="M445.733 604.398C445.733 607.464 451.733 607.464 451.733 604.398C451.733 601.438 445.733 601.438 445.733 604.398Z" fill="#B6E08C"/>
<path d="M191.734 612.054C187.864 612.054 187.864 616.651 191.734 616.651C195.734 616.651 195.734 612.054 191.734 612.054Z" fill="#B6E08C"/>
<path d="M167.734 576.579C163.734 576.579 163.734 581.175 167.734 581.175C171.734 581.175 171.734 576.579 167.734 576.579Z" fill="#4B9F66"/>
<path d="M127.856 639.016C126.699 638.13 124.769 638.13 123.613 639.016C123.392 639.189 123.169 639.357 122.947 639.526C121.792 640.411 121.792 641.891 122.947 642.777C124.103 643.662 126.033 643.662 127.19 642.777C127.412 642.603 127.633 642.435 127.856 642.267C129.01 641.381 129.01 639.901 127.856 639.016Z" fill="#4B9F66"/>
<path d="M561.733 599.807C557.733 599.807 557.733 604.398 561.733 604.398C565.604 604.398 565.604 599.807 561.733 599.807Z" fill="#4B9F66"/>
<path d="M609.733 639.621C605.733 639.621 605.733 644.217 609.733 644.217C613.604 644.217 613.604 639.621 609.733 639.621Z" fill="#B6E08C"/>
<path d="M671.733 593.938C667.863 593.938 667.863 598.529 671.733 598.529C675.603 598.529 675.603 593.938 671.733 593.938Z" fill="#B6E08C"/>
<path d="M1021.38 736.653C1021.38 736.653 1005.08 714.373 998.097 695.657C991.111 676.941 985.292 673.376 981.799 670.702C978.306 668.029 987.618 664.464 987.618 664.464C987.618 664.464 980.632 666.246 974.813 662.681C968.993 659.116 959.681 651.986 953.861 648.421C948.042 644.857 944.549 642.183 935.236 636.835C925.931 631.488 909.632 620.793 903.813 619.011C897.993 617.228 870.056 604.751 870.056 604.751L856.09 602.969C856.09 602.969 880.528 601.186 901.479 603.86C922.431 606.534 952.694 621.685 965.5 625.249C978.306 628.814 998.09 648.422 1006.24 652.878C1014.39 657.334 1037.67 678.723 1037.67 678.723L1058.62 706.352L1021.38 736.653Z" fill="#13334C"/>
<path d="M759.736 603.125C755.736 603.125 755.736 607.716 759.736 607.716C763.736 607.716 763.736 603.125 759.736 603.125Z" fill="#4B9F66"/>
<path d="M803.736 569.432C799.861 569.432 799.861 574.028 803.736 574.028C807.604 574.028 807.604 569.432 803.736 569.432Z" fill="#4B9F66"/>
<path d="M849.736 582.963C849.736 586.024 855.736 586.024 855.736 582.963C855.736 579.998 849.736 579.998 849.736 582.963Z" fill="#B6E08C"/>
<path d="M925.736 550.548C921.736 550.548 921.736 555.139 925.736 555.139C929.736 555.139 929.736 550.548 925.736 550.548Z" fill="#4B9F66"/>
</g>
</g>
<path d="M645.833 198.508C645.833 198.508 654.327 165.236 681.023 163.956C707.72 162.676 717.427 179.953 717.427 179.953C717.427 179.953 721.675 147.961 756.865 144.761C792.056 141.561 800.549 177.393 800.549 177.393C800.549 177.393 821.177 160.116 834.526 172.913C847.874 185.711 847.874 190.831 847.874 190.831L876.389 197.868L645.833 198.508Z" fill="white"/>
<path d="M59.0278 119.658C59.0278 119.658 67.5214 86.3857 94.218 85.1057C120.915 83.8257 130.622 101.103 130.622 101.103C130.622 101.103 134.87 69.1105 170.06 65.9106C205.25 62.7106 213.744 98.5432 213.744 98.5432C213.744 98.5432 234.372 81.2658 247.72 94.0633C261.068 106.861 261.068 111.981 261.068 111.981L289.583 119.018L59.0278 119.658Z" fill="white"/>
</g>
<defs>
<filter id="filter0_d_15_3098" x="-4" y="242.851" width="1008" height="509.661" filterUnits="userSpaceOnUse" color-interpolation-filters="sRGB">
<feFlood flood-opacity="0" result="BackgroundImageFix"/>
<feColorMatrix in="SourceAlpha" type="matrix" values="0 0 0 0 0 0 0 0 0 0 0 0 0 0 0 0 0 0 127 0" result="hardAlpha"/>
<feOffset dy="4"/>
<feGaussianBlur stdDeviation="2"/>
<feComposite in2="hardAlpha" operator="out"/>
<feColorMatrix type="matrix" values="0 0 0 0 0 0 0 0 0 0 0 0 0 0 0 0 0 0 0.25 0"/>
<feBlend mode="normal" in2="BackgroundImageFix" result="effect1_dropShadow_15_3098"/>
<feBlend mode="normal" in="SourceGraphic" in2="effect1_dropShadow_15_3098" result="shape"/>
</filter>
<linearGradient id="paint0_linear_15_3098" x1="-20.7889" y1="529.26" x2="-14.1039" y2="604.376" gradientUnits="userSpaceOnUse">
<stop stop-color="#2F8988"/>
<stop offset="1" stop-color="#18485B"/>
</linearGradient>
<clipPath id="clip0_15_3098">
<rect width="1000" height="664" fill="white"/>
</clipPath>
</defs>
</svg>
