<?xml version="1.0" encoding="utf-8"?>
<!-- Generator: Adobe Illustrator 27.5.0, SVG Export Plug-In . SVG Version: 6.00 Build 0)  -->
<svg version="1.1" xmlns="http://www.w3.org/2000/svg" xmlns:xlink="http://www.w3.org/1999/xlink" x="0px" y="0px"
	 viewBox="0 0 500 500" style="enable-background:new 0 0 500 500;" xml:space="preserve">
<g id="Background_Complete">
	<g>
		<path style="fill:#F5F5F5;" d="M338.565,416.28l-193.148,31.474c2.095,7.156,9.527,12.353,16.967,11.866
			c4.509-0.295,9.115-2.41,13.378-0.913c3.961,1.391,6.226,5.413,8.641,8.847c5.6,7.961,13.759,14.091,22.964,17.255
			c15.044,5.17,31.519,2.357,47.166-0.508c13.508-2.474,27.017-4.947,40.525-7.421c10.743-1.967,21.639-3.983,31.46-8.762
			c9.821-4.778,18.602-12.751,21.859-23.176C351.634,434.518,348.071,421.658,338.565,416.28z"/>
	</g>
	<g>
		<path style="fill:#F5F5F5;" d="M344.928,46.337c-1.034-5.644-7.503-9.74-12.979-9.859s-9.125,2.52-12.264,7.256l0.004,0.153
			c-0.453-6.035-3.747-11.787-8.687-14.906c-5.489-3.465-12.781-3.542-18.375-0.193c-5.594,3.348-9.269,9.989-9.26,16.734
			c-4.906-1.197-10.187,2.926-11.173,8.128c-0.986,5.202,1.885,10.704,6.261,13.311c4.375,2.607,9.912,2.554,14.624,0.633
			c2.309,5.239,7.709,8.784,13.217,8.678c5.509-0.106,10.824-3.858,13.01-9.184c3.66,1.863,7.945,3.028,11.804,1.622
			c3.859-1.406,6.776-6.164,5.191-10.099C341.776,58.343,345.962,51.981,344.928,46.337z"/>
	</g>
	<g>
		<path style="fill:#F5F5F5;" d="M476.611,175.617c-1.003-5.471-7.272-9.441-12.581-9.556c-5.308-0.115-8.845,2.442-11.887,7.033
			l0.004,0.148c-0.439-5.85-3.632-11.426-8.421-14.449c-5.321-3.359-12.389-3.433-17.811-0.187
			c-5.423,3.246-8.985,9.682-8.976,16.221c-4.756-1.16-9.875,2.836-10.83,7.879c-0.955,5.043,1.827,10.376,6.069,12.902
			c4.241,2.527,9.608,2.476,14.176,0.614c2.238,5.078,7.472,8.515,12.812,8.412c5.339-0.103,10.492-3.74,12.611-8.902
			c3.548,1.806,7.701,2.935,11.442,1.572c3.741-1.363,6.568-5.975,5.032-9.79C473.556,187.255,477.614,181.089,476.611,175.617z"/>
	</g>
	<g>
		<path style="fill:#F5F5F5;" d="M463.138,295.556c-0.742-4.051-5.384-6.99-9.315-7.075c-3.93-0.085-6.549,1.808-8.801,5.208
			l0.003,0.109c-0.325-4.331-2.689-8.46-6.235-10.698c-3.939-2.487-9.172-2.542-13.187-0.139c-4.015,2.403-6.652,7.169-6.646,12.01
			c-3.521-0.859-7.311,2.1-8.019,5.833s1.353,7.682,4.493,9.553c3.14,1.871,7.114,1.833,10.495,0.454
			c1.657,3.76,5.532,6.304,9.486,6.228c3.953-0.076,7.768-2.769,9.337-6.591c2.627,1.337,5.702,2.173,8.472,1.164
			c2.77-1.009,4.863-4.424,3.726-7.248C460.876,304.172,463.88,299.606,463.138,295.556z"/>
	</g>
	<g>
		<path style="fill:#F5F5F5;" d="M83.033,324.009c-0.742-4.051-5.384-6.99-9.315-7.075c-3.93-0.086-6.549,1.808-8.801,5.207
			l0.003,0.109c-0.325-4.331-2.689-8.46-6.235-10.698c-3.939-2.487-9.172-2.542-13.187-0.139c-4.015,2.403-6.652,7.169-6.646,12.01
			c-3.521-0.859-7.311,2.1-8.019,5.833c-0.707,3.734,1.353,7.682,4.493,9.553c3.14,1.871,7.114,1.833,10.495,0.454
			c1.657,3.76,5.532,6.304,9.486,6.228c3.953-0.076,7.768-2.769,9.337-6.591c2.627,1.337,5.702,2.173,8.472,1.164
			c2.77-1.009,4.863-4.424,3.726-7.248C80.771,332.625,83.775,328.06,83.033,324.009z"/>
	</g>
	<g>
		<path style="fill:#F5F5F5;" d="M176.342,42.212c-1.02-5.568-7.4-9.607-12.802-9.724c-5.402-0.118-9.001,2.485-12.097,7.157
			l0.004,0.15c-0.447-5.953-3.696-11.627-8.569-14.703c-5.414-3.418-12.607-3.493-18.125-0.191
			c-5.518,3.303-9.143,9.853-9.134,16.507c-4.84-1.181-10.049,2.886-11.021,8.017c-0.972,5.132,1.86,10.558,6.176,13.13
			c4.316,2.572,9.777,2.52,14.425,0.625c2.278,5.167,7.604,8.665,13.038,8.56c5.433-0.105,10.676-3.806,12.833-9.059
			c3.61,1.838,7.837,2.987,11.643,1.6c3.807-1.387,6.684-6.08,5.121-9.962C173.232,54.055,177.362,47.779,176.342,42.212z"/>
	</g>
	<g>
		<path style="fill:#E0E0E0;" d="M453.448,38.719l1.416,2.869c0.156,0.316,0.457,0.535,0.806,0.585l3.166,0.46
			c0.878,0.128,1.228,1.206,0.593,1.826l-2.291,2.233c-0.252,0.246-0.367,0.6-0.308,0.947l0.541,3.153
			c0.15,0.874-0.768,1.541-1.553,1.128l-2.831-1.489c-0.312-0.164-0.684-0.164-0.996,0l-2.831,1.489
			c-0.785,0.413-1.703-0.254-1.553-1.128l0.541-3.153c0.06-0.347-0.056-0.701-0.308-0.947l-2.291-2.233
			c-0.635-0.619-0.285-1.698,0.593-1.826l3.166-0.46c0.349-0.051,0.65-0.27,0.806-0.585l1.416-2.869
			C451.921,37.924,453.055,37.924,453.448,38.719z"/>
	</g>
	<g>
		<path style="fill:#E0E0E0;" d="M43.179,205.76l1.465,2.968c0.161,0.327,0.473,0.553,0.834,0.606l3.275,0.476
			c0.908,0.132,1.271,1.248,0.614,1.889l-2.37,2.31c-0.261,0.254-0.38,0.621-0.319,0.98l0.56,3.262
			c0.155,0.905-0.794,1.594-1.607,1.167l-2.93-1.54c-0.323-0.17-0.708-0.17-1.031,0l-2.93,1.54
			c-0.812,0.427-1.762-0.263-1.607-1.167l0.56-3.262c0.062-0.359-0.057-0.726-0.319-0.98l-2.37-2.31
			c-0.657-0.641-0.295-1.757,0.614-1.889l3.275-0.476c0.361-0.052,0.673-0.279,0.834-0.606l1.465-2.968
			C41.599,204.937,42.773,204.937,43.179,205.76z"/>
	</g>
	<g>
		<path style="fill:#E0E0E0;" d="M47.202,57.1l2.175,4.408c0.24,0.485,0.703,0.822,1.238,0.9l4.864,0.707
			c1.349,0.196,1.887,1.854,0.911,2.805l-3.52,3.431c-0.388,0.378-0.564,0.922-0.473,1.456l0.831,4.845
			c0.23,1.343-1.18,2.368-2.386,1.734l-4.351-2.287c-0.479-0.252-1.051-0.252-1.531,0l-4.351,2.287
			c-1.206,0.634-2.617-0.39-2.386-1.734l0.831-4.845c0.091-0.534-0.085-1.078-0.473-1.456l-3.52-3.431
			c-0.976-0.951-0.438-2.609,0.911-2.805l4.864-0.707c0.536-0.078,0.999-0.414,1.238-0.9l2.176-4.408
			C44.856,55.877,46.599,55.877,47.202,57.1z"/>
	</g>
	<g>
		<path style="fill:#E0E0E0;" d="M75.212,382.182l1.347,2.73c0.148,0.301,0.435,0.509,0.767,0.557l3.012,0.438
			c0.835,0.121,1.169,1.148,0.564,1.737l-2.18,2.125c-0.24,0.234-0.35,0.571-0.293,0.901l0.515,3
			c0.143,0.832-0.731,1.466-1.478,1.074l-2.694-1.417c-0.297-0.156-0.651-0.156-0.948,0l-2.695,1.417
			c-0.747,0.393-1.62-0.242-1.478-1.074l0.515-3c0.057-0.33-0.053-0.667-0.293-0.901l-2.18-2.125
			c-0.604-0.589-0.271-1.616,0.564-1.737l3.012-0.438c0.332-0.048,0.618-0.257,0.767-0.557l1.347-2.73
			C73.759,381.425,74.838,381.425,75.212,382.182z"/>
	</g>
	<g>
		<path style="fill:#E0E0E0;" d="M384.095,229.111l1.347,2.73c0.148,0.301,0.435,0.509,0.767,0.557l3.012,0.438
			c0.835,0.121,1.169,1.148,0.564,1.737l-2.18,2.125c-0.24,0.234-0.35,0.571-0.293,0.902l0.515,3
			c0.143,0.832-0.731,1.466-1.478,1.074l-2.694-1.416c-0.297-0.156-0.651-0.156-0.948,0l-2.694,1.416
			c-0.747,0.393-1.62-0.242-1.478-1.074l0.514-3c0.057-0.33-0.053-0.667-0.293-0.902l-2.18-2.125
			c-0.604-0.589-0.271-1.616,0.564-1.737l3.013-0.438c0.332-0.048,0.618-0.257,0.767-0.557l1.347-2.73
			C382.642,228.354,383.721,228.354,384.095,229.111z"/>
	</g>
	<g>
		<path style="fill:#E0E0E0;" d="M446.488,350.773l1.347,2.73c0.148,0.301,0.435,0.509,0.767,0.557l3.012,0.438
			c0.835,0.121,1.169,1.148,0.564,1.737l-2.18,2.125c-0.24,0.234-0.35,0.571-0.293,0.901l0.515,3
			c0.143,0.832-0.731,1.466-1.478,1.074l-2.694-1.417c-0.297-0.156-0.651-0.156-0.948,0l-2.694,1.417
			c-0.747,0.393-1.62-0.242-1.478-1.074l0.515-3c0.057-0.33-0.053-0.667-0.293-0.901l-2.18-2.125
			c-0.604-0.589-0.271-1.616,0.565-1.737l3.012-0.438c0.332-0.048,0.618-0.257,0.767-0.557l1.347-2.73
			C445.035,350.016,446.115,350.016,446.488,350.773z"/>
	</g>
	<g>
		<g>
			<g>
				<path style="fill:#E0E0E0;" d="M122.935,233.555c-0.446-1.066-1.28-1.943-2.259-2.556c-0.959-0.601-2.09-0.966-3.219-0.889
					c-1.2,0.082-2.355,0.677-3.118,1.607c-0.453,0.553-0.764,1.219-0.908,1.919c-0.471-0.447-1.037-0.794-1.654-0.998
					c-1.141-0.378-2.437-0.263-3.494,0.31c-0.995,0.539-1.755,1.452-2.244,2.473c-0.499,1.042-0.734,2.229-0.541,3.368
					c0.242,1.426,0.948,2.86,2.009,3.844c1.121,1.038,2.637,1.7,4.114,2.093c2.483,0.661,5.728,1.448,5.728,1.448
					s1.842-2.441,3.587-4.327c1.037-1.122,1.965-2.492,2.356-3.968C123.664,236.479,123.493,234.89,122.935,233.555z"/>
			</g>
		</g>
	</g>
</g>
<g id="Background_Simple" style="display:none;">
	<g style="display:inline;">
		<circle style="fill:#F5F5F5;" cx="118.995" cy="46.417" r="29.459"/>
	</g>
	<g style="display:inline;">
		
			<ellipse transform="matrix(0.7071 -0.7071 0.7071 0.7071 -111.7277 404.2361)" style="fill:#F5F5F5;" cx="432.092" cy="336.985" rx="41.84" ry="41.84"/>
	</g>
	<g style="display:inline;">
		<circle style="fill:#F5F5F5;" cx="55.097" cy="369.733" r="26.444"/>
	</g>
</g>
<g id="Floor">
	<g>
		<g>
			<path d="M469.051,414.763c0,0.144-99.807,0.26-222.897,0.26c-123.133,0-222.918-0.117-222.918-0.26
				c0-0.144,99.786-0.26,222.918-0.26C369.244,414.503,469.051,414.62,469.051,414.763z"/>
		</g>
	</g>
</g>
<g id="Stars">
	<g>
		<path style="fill:#FF725E;" d="M453.422,141.016l1.378,2.793c0.152,0.307,0.445,0.521,0.785,0.57l3.082,0.448
			c0.855,0.124,1.196,1.174,0.578,1.777l-2.23,2.174c-0.246,0.239-0.358,0.584-0.3,0.922l0.526,3.07
			c0.146,0.851-0.747,1.5-1.512,1.098l-2.757-1.449c-0.304-0.16-0.666-0.16-0.97,0l-2.757,1.449
			c-0.764,0.402-1.658-0.247-1.512-1.098l0.527-3.07c0.058-0.338-0.054-0.683-0.3-0.922l-2.23-2.174
			c-0.618-0.603-0.277-1.653,0.578-1.777l3.082-0.448c0.339-0.049,0.633-0.262,0.785-0.57l1.378-2.793
			C451.936,140.241,453.04,140.241,453.422,141.016z"/>
	</g>
	<g>
		<path style="fill:#FF725E;" d="M175.071,58.43l0.98,1.985c0.108,0.219,0.316,0.37,0.558,0.405l2.19,0.318
			c0.607,0.088,0.85,0.835,0.41,1.263l-1.585,1.545c-0.174,0.17-0.254,0.415-0.213,0.655l0.374,2.181
			c0.104,0.605-0.531,1.066-1.074,0.781l-1.959-1.03c-0.216-0.113-0.473-0.113-0.689,0l-1.959,1.03
			c-0.543,0.286-1.178-0.176-1.074-0.781l0.374-2.181c0.041-0.24-0.038-0.485-0.213-0.655l-1.585-1.545
			c-0.439-0.428-0.197-1.175,0.41-1.263l2.19-0.318c0.241-0.035,0.45-0.187,0.558-0.405l0.98-1.985
			C174.015,57.879,174.8,57.879,175.071,58.43z"/>
	</g>
	<g>
		<path style="fill:#FF725E;" d="M293.192,45.497l0.98,1.985c0.108,0.219,0.316,0.37,0.557,0.405l2.19,0.318
			c0.607,0.088,0.85,0.835,0.41,1.263l-1.585,1.545c-0.174,0.17-0.254,0.415-0.213,0.655l0.374,2.181
			c0.104,0.605-0.531,1.066-1.074,0.781l-1.959-1.03c-0.216-0.113-0.473-0.113-0.689,0l-1.959,1.03
			c-0.543,0.286-1.178-0.176-1.074-0.781l0.374-2.181c0.041-0.24-0.039-0.485-0.213-0.655l-1.585-1.545
			c-0.44-0.428-0.197-1.175,0.41-1.263l2.19-0.318c0.241-0.035,0.45-0.187,0.557-0.405l0.979-1.985
			C292.135,44.947,292.92,44.947,293.192,45.497z"/>
	</g>
	<g>
		<path style="fill:#FF725E;" d="M403.322,386.922l1.236,2.505c0.136,0.276,0.399,0.467,0.704,0.511l2.764,0.402
			c0.767,0.111,1.073,1.053,0.518,1.594l-2,1.95c-0.22,0.215-0.321,0.524-0.269,0.827l0.472,2.753
			c0.131,0.763-0.67,1.345-1.356,0.985l-2.472-1.3c-0.272-0.143-0.597-0.143-0.87,0l-2.472,1.3c-0.686,0.36-1.487-0.222-1.356-0.985
			l0.472-2.753c0.052-0.303-0.049-0.612-0.269-0.827l-2-1.95c-0.555-0.541-0.249-1.483,0.518-1.594l2.764-0.402
			c0.304-0.044,0.567-0.235,0.703-0.511l1.236-2.505C401.989,386.228,402.979,386.228,403.322,386.922z"/>
	</g>
</g>
<g id="Moon">
	<g>
		<g>
			<g>
				<path style="fill:#FF725E;" d="M211.875,31.858c-0.036,0.004-0.072,0.008-0.109,0.012c11.281,2.971,20.071,12.68,21.293,24.97
					c1.571,15.804-9.967,29.89-25.771,31.461c-10.195,1.014-19.674-3.429-25.54-10.952c4.852,15.635,20.166,26.236,37.091,24.553
					c19.342-1.923,33.463-19.162,31.54-38.504C248.456,44.056,231.217,29.935,211.875,31.858z"/>
			</g>
		</g>
		<g style="opacity:0.6;">
			<g>
				<path style="fill:#FFFFFF;" d="M211.875,31.858c-0.036,0.004-0.072,0.008-0.109,0.012c11.281,2.971,20.071,12.68,21.293,24.97
					c1.571,15.804-9.967,29.89-25.771,31.461c-10.195,1.014-19.674-3.429-25.54-10.952c4.852,15.635,20.166,26.236,37.091,24.553
					c19.342-1.923,33.463-19.162,31.54-38.504C248.456,44.056,231.217,29.935,211.875,31.858z"/>
			</g>
		</g>
	</g>
</g>
<g id="Clouds">
	<g>
		<g>
			<g>
				<path d="M257.77,137.555c0.144,0,0.26,9.583,0.26,21.4c0,11.822-0.116,21.402-0.26,21.402c-0.144,0-0.26-9.58-0.26-21.402
					C257.509,147.137,257.626,137.555,257.77,137.555z"/>
			</g>
		</g>
		<g>
			<path style="fill:#FF725E;" d="M258.686,177.33l1.203,2.437c0.133,0.268,0.388,0.454,0.685,0.497l2.689,0.391
				c0.746,0.108,1.043,1.025,0.504,1.551l-1.946,1.897c-0.214,0.209-0.312,0.51-0.261,0.805l0.459,2.678
				c0.127,0.743-0.652,1.309-1.319,0.958l-2.405-1.264c-0.265-0.139-0.581-0.139-0.846,0l-2.405,1.264
				c-0.667,0.351-1.446-0.216-1.319-0.958l0.459-2.678c0.051-0.295-0.047-0.596-0.261-0.805l-1.946-1.897
				c-0.54-0.526-0.242-1.442,0.504-1.551l2.689-0.391c0.296-0.043,0.552-0.229,0.684-0.497l1.202-2.437
				C257.389,176.654,258.353,176.654,258.686,177.33z"/>
		</g>
		<g>
			<g>
				<path style="fill:#FFFFFF;" d="M323.342,108.885c-1.817-6.955-10.626-11.556-17.809-11.277
					c-7.183,0.279-11.746,3.852-15.47,10.001l0.018,0.19c-1.088-7.487-5.874-14.401-12.602-17.904
					c-7.474-3.891-17.032-3.418-24.085,1.192c-7.054,4.61-11.323,13.174-10.759,21.582c-6.525-1.109-13.105,4.441-13.97,11.003
					c-0.865,6.562,3.347,13.196,9.292,16.104c5.945,2.908,13.194,2.411,19.208-0.351c3.454,6.35,10.818,10.349,18.025,9.786
					c7.207-0.562,13.862-5.654,16.29-12.463c4.947,2.037,10.655,3.155,15.595,1.101c4.94-2.054,8.371-8.212,5.973-12.994
					C320.196,124.097,325.159,115.84,323.342,108.885z"/>
			</g>
			<g>
				<g>
					<path style="fill:#263238;" d="M323.342,108.885c0,0,0.129,0.469,0.307,1.395c0.105,0.932,0.227,2.349-0.119,4.151
						c-0.349,1.785-1.142,3.967-2.775,6.069c-1.626,2.049-4.228,4.093-7.691,4.496l0.11-0.202c0.975,1.94,1.064,4.432,0.189,6.718
						c-0.874,2.276-2.555,4.408-4.884,5.816c-2.349,1.389-5.254,1.928-8.194,1.779c-2.952-0.161-5.95-0.972-8.882-2.165l0.273-0.122
						c-1.083,3.011-3.034,5.836-5.659,8.061c-2.617,2.222-5.926,3.868-9.563,4.417c-7.261,1.139-15.557-2.617-19.506-9.752
						l0.323,0.107c-2.792,1.275-5.871,2.094-9.06,2.29c-3.181,0.196-6.493-0.254-9.537-1.563c-3.05-1.293-5.733-3.533-7.623-6.352
						c-1.889-2.807-2.993-6.271-2.696-9.755c0.279-3.543,2.173-6.797,4.809-9.002c2.619-2.218,6.152-3.444,9.515-2.855l-0.3,0.271
						c-0.441-7.166,2.487-14.139,7.256-18.863c2.394-2.363,5.255-4.168,8.305-5.269c3.043-1.119,6.243-1.592,9.346-1.494
						c3.109,0.089,6.118,0.785,8.847,1.946c1.35,0.613,2.642,1.312,3.833,2.133c1.18,0.833,2.28,1.745,3.278,2.733
						c3.984,3.983,6.309,9.031,7.024,13.899l-0.374,0.045c-0.006-0.069-0.012-0.129-0.017-0.19l-0.006-0.062l0.032-0.053
						c1.685-2.769,3.688-5.222,6.087-6.942c2.389-1.726,5.102-2.663,7.668-2.948c2.567-0.363,5.012-0.079,7.151,0.456
						c2.147,0.545,4.015,1.371,5.575,2.301c3.138,1.867,4.984,4.137,5.899,5.802c0.441,0.847,0.732,1.519,0.854,1.994
						C323.281,108.643,323.342,108.885,323.342,108.885s-0.096-0.233-0.257-0.692c-0.138-0.467-0.444-1.127-0.896-1.958
						c-0.938-1.634-2.788-3.855-5.91-5.676c-1.552-0.907-3.408-1.709-5.532-2.233c-2.121-0.514-4.519-0.779-7.051-0.407
						c-2.528,0.295-5.175,1.226-7.508,2.927c-2.343,1.694-4.306,4.114-5.965,6.862l0.026-0.115c0.006,0.06,0.012,0.121,0.018,0.19
						l-0.374,0.045c-0.721-4.786-3.026-9.748-6.952-13.651c-0.984-0.969-2.066-1.861-3.225-2.675
						c-1.17-0.802-2.438-1.483-3.763-2.082c-2.678-1.132-5.632-1.809-8.683-1.89c-6.071-0.202-12.613,1.945-17.287,6.648
						c-4.666,4.63-7.528,11.477-7.092,18.476l0.02,0.327l-0.321-0.056c-3.189-0.559-6.571,0.606-9.096,2.745
						c-2.54,2.127-4.358,5.26-4.623,8.648c-0.286,3.347,0.775,6.697,2.608,9.422c1.835,2.738,4.438,4.913,7.395,6.168
						c2.958,1.275,6.189,1.718,9.303,1.529c3.121-0.189,6.143-0.989,8.882-2.236l0.211-0.096l0.112,0.204
						c3.824,6.941,11.934,10.634,18.999,9.532c3.543-0.528,6.782-2.128,9.347-4.295c2.573-2.17,4.488-4.928,5.554-7.864l0.074-0.203
						l0.199,0.082c2.897,1.189,5.852,1.996,8.746,2.164c2.878,0.158,5.721-0.365,7.993-1.698c2.26-1.352,3.91-3.422,4.768-5.626
						c0.859-2.215,0.782-4.608-0.142-6.48l-0.089-0.18l0.199-0.022c3.368-0.37,5.934-2.348,7.552-4.353
						c1.625-2.056,2.431-4.203,2.799-5.963C324.059,110.81,323.225,108.879,323.342,108.885z"/>
				</g>
			</g>
		</g>
	</g>
	<g>
		<g>
			<g>
				<path d="M130.341,150.932c0.144,0,0.26,9.582,0.26,21.4c0,11.822-0.117,21.402-0.26,21.402c-0.144,0-0.26-9.58-0.26-21.402
					C130.08,160.514,130.197,150.932,130.341,150.932z"/>
			</g>
		</g>
		<g>
			<g>
				<path d="M85.482,159.858c0.144,0,0.26,27.083,0.26,60.484c0,33.413-0.117,60.49-0.26,60.49s-0.26-27.077-0.26-60.49
					C85.221,186.941,85.338,159.858,85.482,159.858z"/>
			</g>
		</g>
		<g>
			<g>
				<path style="fill:#F5F5F5;" d="M175.843,109.67c-2.707-10.359-15.826-17.21-26.524-16.795
					c-10.698,0.415-17.494,5.737-23.04,14.896l0.027,0.283c-1.621-11.151-8.749-21.449-18.768-26.665
					c-11.132-5.795-25.367-5.091-35.871,1.775c-10.505,6.866-16.864,19.621-16.023,32.143c-9.718-1.652-19.517,6.615-20.806,16.388
					c-1.288,9.773,4.984,19.653,13.839,23.985c8.854,4.332,19.65,3.591,28.608-0.523c5.144,9.458,16.111,15.413,26.845,14.576
					c10.734-0.837,20.645-8.42,24.261-18.562c7.368,3.034,15.869,4.699,23.227,1.64c7.358-3.059,12.468-12.23,8.895-19.353
					C171.158,132.326,178.549,120.029,175.843,109.67z"/>
			</g>
			<g>
				<g>
					<path style="fill:#263238;" d="M175.843,109.67c0,0,0.18,0.701,0.439,2.08c0.15,1.388,0.325,3.495-0.195,6.173
						c-0.524,2.652-1.709,5.893-4.138,9.013c-1.214,1.554-2.785,3.02-4.687,4.243c-1.903,1.214-4.196,2.136-6.734,2.417l0.11-0.202
						c1.44,2.872,1.569,6.56,0.27,9.947c-1.298,3.372-3.794,6.532-7.246,8.615c-3.48,2.055-7.792,2.853-12.154,2.629
						c-4.382-0.242-8.837-1.448-13.195-3.224l0.273-0.122c-1.609,4.465-4.506,8.656-8.403,11.957
						c-3.885,3.296-8.796,5.736-14.189,6.549c-5.388,0.827-11.157-0.123-16.302-2.632c-5.141-2.497-9.732-6.572-12.625-11.839
						l0.323,0.107c-4.145,1.892-8.717,3.108-13.45,3.398c-4.721,0.29-9.635-0.379-14.147-2.32
						c-4.519-1.917-8.496-5.237-11.298-9.416c-2.8-4.16-4.433-9.292-3.993-14.447c0.413-5.239,3.215-10.055,7.117-13.321
						c3.877-3.285,9.102-5.096,14.069-4.225l-0.3,0.271c-0.655-10.632,3.689-20.986,10.766-27.999
						c3.554-3.508,7.798-6.187,12.324-7.822c4.517-1.662,9.268-2.367,13.875-2.222c4.616,0.131,9.084,1.163,13.136,2.884
						c2.005,0.91,3.923,1.947,5.691,3.164c1.753,1.236,3.386,2.589,4.869,4.057c5.92,5.912,9.377,13.409,10.444,20.64l-0.374,0.045
						c-0.009-0.102-0.018-0.192-0.026-0.283l-0.006-0.062l0.032-0.053c2.504-4.119,5.476-7.765,9.036-10.319
						c3.544-2.564,7.568-3.959,11.382-4.385c3.815-0.542,7.445-0.125,10.626,0.668c3.192,0.807,5.971,2.031,8.293,3.41
						c4.67,2.77,7.42,6.138,8.788,8.611c0.66,1.258,1.096,2.255,1.282,2.961C175.744,109.312,175.843,109.67,175.843,109.67
						s-0.134-0.349-0.37-1.035c-0.201-0.698-0.653-1.684-1.323-2.925c-1.391-2.441-4.146-5.76-8.8-8.484
						c-2.314-1.356-5.08-2.557-8.25-3.343c-3.163-0.771-6.746-1.17-10.525-0.619c-3.775,0.436-7.733,1.825-11.221,4.364
						c-3.503,2.529-6.436,6.141-8.913,10.24l0.026-0.115c0.009,0.09,0.017,0.18,0.027,0.283l-0.374,0.045
						c-1.072-7.148-4.511-14.56-10.372-20.392c-1.468-1.448-3.084-2.781-4.817-3.999c-1.748-1.199-3.641-2.218-5.621-3.113
						c-4.001-1.692-8.414-2.706-12.972-2.829c-4.55-0.137-9.24,0.564-13.694,2.209c-4.464,1.618-8.639,4.259-12.141,7.721
						c-6.974,6.919-11.253,17.146-10.602,27.612l0.02,0.327l-0.32-0.056c-4.793-0.84-9.866,0.91-13.649,4.115
						c-3.806,3.187-6.533,7.882-6.931,12.966c-0.429,5.018,1.162,10.036,3.906,14.114c2.746,4.098,6.643,7.353,11.07,9.232
						c4.427,1.907,9.259,2.569,13.913,2.286c4.665-0.283,9.18-1.48,13.272-3.344l0.211-0.096l0.112,0.204
						c2.832,5.167,7.342,9.181,12.398,11.643c5.06,2.475,10.73,3.413,16.022,2.608c5.3-0.792,10.141-3.185,13.974-6.427
						c3.846-3.246,6.706-7.37,8.298-11.76l0.074-0.203l0.2,0.082c4.323,1.772,8.734,2.974,13.059,3.223
						c4.301,0.233,8.55-0.549,11.954-2.548c3.383-2.027,5.847-5.126,7.129-8.425c1.283-3.316,1.166-6.905-0.223-9.709l-0.089-0.18
						l0.2-0.021c2.493-0.267,4.751-1.162,6.632-2.35c1.88-1.197,3.44-2.637,4.65-4.168c2.421-3.073,3.62-6.279,4.163-8.907
						c0.539-2.654,0.39-4.749,0.265-6.134c-0.103-0.69-0.22-1.208-0.277-1.559C175.866,109.85,175.843,109.67,175.843,109.67z"/>
				</g>
			</g>
		</g>
		<g>
			<path style="fill:#FF725E;" d="M86.959,279.522l2.179,4.416c0.24,0.486,0.704,0.823,1.241,0.901l4.873,0.708
				c1.351,0.196,1.891,1.857,0.913,2.81l-3.526,3.437c-0.388,0.379-0.566,0.924-0.474,1.458l0.832,4.854
				c0.231,1.346-1.182,2.372-2.391,1.737l-4.359-2.292c-0.48-0.252-1.053-0.252-1.533,0l-4.359,2.292
				c-1.209,0.635-2.621-0.391-2.39-1.737l0.832-4.854c0.092-0.534-0.086-1.08-0.474-1.458l-3.526-3.437
				c-0.978-0.953-0.438-2.614,0.913-2.81l4.873-0.708c0.537-0.078,1-0.415,1.241-0.901l2.179-4.416
				C84.608,278.297,86.355,278.297,86.959,279.522z"/>
		</g>
		<g>
			<path style="fill:#FF725E;" d="M131.156,191.716l1.202,2.437c0.132,0.268,0.388,0.454,0.685,0.497l2.689,0.391
				c0.746,0.108,1.043,1.025,0.504,1.551l-1.946,1.897c-0.214,0.209-0.312,0.51-0.262,0.805l0.459,2.678
				c0.127,0.743-0.652,1.309-1.319,0.958l-2.405-1.264c-0.265-0.139-0.581-0.139-0.846,0l-2.405,1.264
				c-0.667,0.351-1.446-0.216-1.319-0.958l0.459-2.678c0.051-0.295-0.047-0.596-0.262-0.805l-1.946-1.897
				c-0.539-0.526-0.242-1.442,0.504-1.551l2.689-0.391c0.296-0.043,0.552-0.229,0.684-0.497l1.203-2.437
				C129.859,191.04,130.822,191.04,131.156,191.716z"/>
		</g>
	</g>
	<g>
		<g>
			<g>
				<path d="M421.983,114.438c0.144,0,0.26,29.927,0.26,66.835c0,36.921-0.117,66.841-0.26,66.841s-0.26-29.92-0.26-66.841
					C421.722,144.365,421.839,114.438,421.983,114.438z"/>
			</g>
		</g>
		<g>
			<path style="fill:#FF725E;" d="M423.46,250.511l2.179,4.416c0.24,0.486,0.704,0.823,1.241,0.901l4.873,0.708
				c1.351,0.196,1.891,1.857,0.913,2.81l-3.526,3.437c-0.388,0.379-0.566,0.924-0.474,1.458l0.832,4.854
				c0.231,1.346-1.182,2.372-2.391,1.737l-4.359-2.292c-0.48-0.252-1.053-0.252-1.533,0l-4.359,2.292
				c-1.209,0.635-2.621-0.391-2.391-1.737l0.833-4.854c0.092-0.535-0.086-1.08-0.474-1.458l-3.526-3.437
				c-0.978-0.953-0.438-2.614,0.913-2.81l4.873-0.708c0.537-0.078,1.001-0.415,1.241-0.901l2.179-4.416
				C421.109,249.286,422.856,249.286,423.46,250.511z"/>
		</g>
		<g>
			<g>
				<path style="fill:#F5F5F5;" d="M335.095,75.009c2.346-8.979,13.718-14.918,22.991-14.558c9.273,0.36,15.164,4.973,19.971,12.912
					l-0.023,0.245c1.405-9.666,7.584-18.592,16.268-23.114c9.649-5.024,21.988-4.413,31.094,1.539
					c9.106,5.952,14.618,17.008,13.889,27.862c8.423-1.432,16.918,5.734,18.035,14.205c1.116,8.471-4.321,17.036-11.996,20.791
					c-7.675,3.755-17.033,3.113-24.798-0.453c-4.459,8.198-13.966,13.36-23.27,12.634c-9.304-0.726-17.896-7.299-21.03-16.089
					c-6.387,2.63-13.755,4.073-20.133,1.422c-6.378-2.651-10.807-10.602-7.71-16.775C339.155,94.648,332.749,83.989,335.095,75.009z
					"/>
			</g>
			<g>
				<g>
					<path style="fill:#263238;" d="M335.095,75.009c0,0-0.018,0.157-0.072,0.461c-0.049,0.304-0.15,0.754-0.238,1.352
						c-0.107,1.201-0.234,3.016,0.234,5.314c0.472,2.276,1.511,5.053,3.61,7.714c1.048,1.326,2.4,2.571,4.028,3.608
						c1.629,1.028,3.584,1.802,5.741,2.032l0.2,0.021l-0.089,0.18c-1.201,2.426-1.301,5.531-0.19,8.4
						c1.11,2.855,3.244,5.537,6.172,7.29c2.945,1.729,6.624,2.406,10.348,2.203c3.745-0.216,7.565-1.258,11.31-2.794l0.199-0.082
						l0.074,0.203c1.379,3.801,3.856,7.371,7.186,10.181c3.319,2.806,7.511,4.878,12.099,5.563c4.58,0.696,9.489-0.117,13.869-2.259
						c4.377-2.132,8.281-5.607,10.732-10.079l0.112-0.204l0.212,0.096c3.544,1.614,7.453,2.65,11.492,2.895
						c4.03,0.245,8.213-0.329,12.044-1.979c3.831-1.626,7.204-4.443,9.581-7.99c2.375-3.53,3.751-7.872,3.38-12.212
						c-0.344-4.396-2.703-8.459-5.996-11.216c-3.273-2.773-7.66-4.286-11.803-3.56l-0.32,0.056l0.02-0.327
						c0.564-9.061-3.141-17.917-9.179-23.909c-3.032-2.997-6.646-5.284-10.512-6.686c-3.857-1.424-7.918-2.032-11.858-1.914
						c-3.947,0.106-7.769,0.983-11.234,2.448c-1.714,0.775-3.354,1.657-4.868,2.695c-1.5,1.055-2.9,2.209-4.172,3.463
						c-5.077,5.05-8.056,11.468-8.986,17.659l-0.374-0.045c0.009-0.089,0.016-0.167,0.023-0.245l0.026,0.115
						c-2.145-3.551-4.685-6.68-7.718-8.87c-3.02-2.199-6.447-3.403-9.716-3.781c-3.274-0.478-6.376-0.134-9.117,0.533
						c-2.746,0.68-5.143,1.719-7.148,2.893c-4.033,2.358-6.422,5.232-7.629,7.346c-0.582,1.075-0.974,1.929-1.15,2.533
						C335.214,74.707,335.095,75.009,335.095,75.009s0.083-0.311,0.272-0.914c0.159-0.613,0.537-1.478,1.108-2.569
						c1.185-2.145,3.568-5.068,7.617-7.472c2.013-1.197,4.423-2.26,7.191-2.96c2.758-0.688,5.908-1.051,9.217-0.582
						c3.308,0.369,6.8,1.578,9.876,3.803c3.09,2.216,5.669,5.378,7.841,8.95l0.032,0.053l-0.006,0.062
						c-0.007,0.078-0.014,0.156-0.023,0.245l-0.374-0.045c0.924-6.273,3.923-12.777,9.058-17.907
						c1.287-1.273,2.704-2.448,4.224-3.52c1.534-1.056,3.198-1.956,4.938-2.746c3.516-1.494,7.392-2.39,11.397-2.504
						c3.997-0.126,8.12,0.485,12.039,1.927c3.928,1.419,7.611,3.743,10.695,6.787c6.142,6.085,9.911,15.069,9.343,24.296l-0.3-0.271
						c4.317-0.757,8.856,0.817,12.223,3.67c3.388,2.836,5.823,7.019,6.181,11.57c0.382,4.478-1.037,8.934-3.467,12.545
						c-2.432,3.628-5.885,6.51-9.809,8.174c-3.917,1.685-8.181,2.265-12.278,2.013c-4.107-0.252-8.074-1.307-11.67-2.949
						l0.323-0.107c-2.511,4.572-6.497,8.108-10.959,10.275c-4.466,2.178-9.472,3.001-14.149,2.283
						c-4.682-0.707-8.943-2.824-12.314-5.685c-3.382-2.865-5.895-6.502-7.291-10.378l0.273,0.121
						c-3.78,1.54-7.644,2.586-11.447,2.795c-3.786,0.194-7.527-0.499-10.549-2.284c-2.997-1.809-5.162-4.552-6.288-7.48
						c-1.127-2.941-1.014-6.144,0.237-8.638l0.11,0.202c-2.204-0.245-4.194-1.046-5.844-2.1c-1.65-1.063-3.013-2.335-4.065-3.683
						c-2.107-2.707-3.133-5.52-3.586-7.82c-0.449-2.323-0.296-4.15-0.164-5.353C334.935,75.616,335.095,75.009,335.095,75.009z"/>
				</g>
			</g>
		</g>
		<g>
			<g>
				<path d="M377.94,113.037c0.144,0,0.26,13.383,0.26,29.888c0,16.51-0.117,29.891-0.26,29.891s-0.26-13.38-0.26-29.891
					C377.68,126.42,377.797,113.037,377.94,113.037z"/>
			</g>
		</g>
		<g>
			<path style="fill:#FF725E;" d="M378.857,169.787l1.202,2.437c0.132,0.268,0.388,0.454,0.685,0.497l2.689,0.391
				c0.746,0.108,1.043,1.025,0.504,1.551l-1.946,1.897c-0.214,0.209-0.312,0.51-0.261,0.805l0.459,2.678
				c0.127,0.743-0.652,1.309-1.319,0.958l-2.405-1.264c-0.265-0.139-0.581-0.139-0.846,0L375.214,181
				c-0.667,0.351-1.446-0.216-1.319-0.958l0.459-2.678c0.051-0.295-0.047-0.596-0.261-0.805l-1.946-1.897
				c-0.539-0.526-0.242-1.442,0.504-1.551l2.689-0.391c0.296-0.043,0.552-0.229,0.684-0.497l1.203-2.437
				C377.56,169.111,378.523,169.111,378.857,169.787z"/>
		</g>
	</g>
</g>
<g id="Character">
	<g>
		<g>
			<path style="fill:#FF725E;" d="M347.445,389.729c-2.765-9.7-7.439-31.589-8.06-36.573c-2.094-16.819-2.647-39.318-9.833-49.916
				c-7.978-11.765-22.961-13.058-27.109-13.586c-4.148-0.528-45.362,1.123-45.362,1.123s-20.74,23.499-25.994,37.228
				s-6.779,76.304-6.779,76.304l2.354,19.01l97.926,27.378c0,0,18.184-7.478,22.885-25.431
				C352.175,407.312,349.831,398.096,347.445,389.729z"/>
		</g>
		<g>
			<g>
				<g>
					<path style="fill:#FF725E;" d="M223.988,387.167c-16.219-9.417-48.297-0.078-57.477,8.478
						c-3.545-4.156-7.207-8.407-12.018-10.995c-4.811-2.587-11.103-3.172-15.549,0.002c-4.025,2.874-5.648,8.033-6.545,12.897
						c-1.539,8.355-1.679,16.966-0.413,25.367c1.183,7.848,4.551,16.56,12.067,19.111c4.273,1.45,9.002,0.525,13.226-1.064
						c4.224-1.588,8.205-3.822,12.537-5.087c12.768-3.73,49.447,11.966,65.857,5.003L223.988,387.167z"/>
				</g>
				<g>
					<g>
						<path d="M150.809,439.449c-0.043-0.059,0.871-0.326,1.823-1.595c0.949-1.256,1.73-3.456,2.137-6.25
							c0.842-5.608,0.504-13.495-0.282-22.117c-0.198-2.159-0.415-4.265-0.636-6.298c-0.243-2.03-0.397-4.004-0.755-5.828
							c-0.706-3.652-2.162-6.805-4.07-8.859c-1.922-2.064-4.152-2.954-5.69-3.176c-1.562-0.237-2.438,0.037-2.443-0.033
							c-0.004-0.018,0.21-0.069,0.625-0.15c0.417-0.048,1.044-0.122,1.845-0.018c1.587,0.165,3.912,1.027,5.93,3.123
							c2.009,2.094,3.527,5.304,4.274,9.019c0.379,1.866,0.541,3.835,0.791,5.866c0.229,2.035,0.45,4.143,0.648,6.307
							c0.787,8.639,1.071,16.562,0.127,22.223c-0.458,2.819-1.31,5.056-2.34,6.316c-0.501,0.641-1.035,0.995-1.39,1.22
							C151.021,439.384,150.815,439.464,150.809,439.449z"/>
					</g>
				</g>
			</g>
			<g style="opacity:0.3;">
				<g>
					<path d="M185.597,415.604c1.761-6.642,2.537-13.698,0.939-20.381c-0.426-1.782-1.051-3.582-2.293-4.929
						c-1.242-1.347-3.227-2.143-4.958-1.543c-0.394,0.136-0.774,0.349-1.026,0.68c-0.55,0.727-0.329,1.754-0.083,2.632
						c2.312,8.246,4.624,16.492,6.937,24.738c0.346-0.701,0.693-1.403,1.039-2.104"/>
				</g>
			</g>
		</g>
		<g>
			<g>
				<g>
					<g>
						<path style="fill:#FFBF9D;" d="M336.115,167.475c0.268-3.145,1.071-6.244,2.363-9.124c0.503-1.121,1.618-2.406,2.708-1.838
							c0.713,0.371,0.855,1.32,0.849,2.124c-0.019,2.441-0.607,4.875-1.703,7.056c2.387-1.554,5.379-2.151,8.179-1.631
							c0.895,0.166,1.905,0.574,2.133,1.456c0.298,1.157-0.928,2.088-1.981,2.653c-3.136,1.685-6.272,3.37-9.409,5.054"/>
					</g>
					<g style="opacity:0.2;">
						<g>
							<path d="M350.644,165.517c-0.227-0.882-1.237-1.29-2.133-1.456c-2.801-0.52-5.792,0.077-8.179,1.631
								c1.096-2.181,1.684-4.615,1.703-7.056c0.007-0.804-0.135-1.753-0.849-2.124c-1.09-0.568-2.205,0.717-2.708,1.838
								c-1.292,2.88-2.094,5.979-2.363,9.124l3.139,5.75c3.136-1.685,6.272-3.369,9.408-5.054
								C349.715,167.605,350.942,166.675,350.644,165.517z"/>
						</g>
					</g>
				</g>
				<g>
					<path style="fill:#FFBF9D;" d="M345.129,173.065c-15.855-18.73-43.376-26.001-55.351-24.544
						c-0.705,0.086-44.488-3.114-55.15,57.477c0,0-6.459,25.361-6.788,28.302c-0.029,0.263-0.117,0.669-0.24,1.208
						c-4.528,19.752,4.457,45.848,27.686,54.145l19.055,4.629c13.632,2.754,36.336,0.02,47.605-8.478
						c13.675-10.312,30.487-45.749,33.081-57.901C357.374,216.91,360.985,191.796,345.129,173.065z"/>
				</g>
				<g>
					<path style="fill:#FFBF9D;" d="M342.122,245.001c0.617-0.083,24.709-2.584,17.786,19.264
						c-6.923,21.847-26.805,8.61-26.645,7.971C333.424,271.599,342.122,245.001,342.122,245.001z"/>
				</g>
				<g>
					<path style="fill:#FF9A6C;" d="M343.084,265.411c0.089-0.03,0.224,0.292,0.638,0.668c0.404,0.366,1.17,0.773,2.131,0.723
						c1.942-0.087,4.284-2.385,5.304-5.329c0.517-1.486,0.655-3.014,0.499-4.363c-0.121-1.364-0.634-2.453-1.46-2.887
						c-0.808-0.478-1.594-0.15-1.943,0.25c-0.367,0.391-0.366,0.753-0.462,0.753c-0.06,0.027-0.266-0.388,0.082-1.026
						c0.172-0.305,0.488-0.633,0.975-0.827c0.497-0.196,1.13-0.176,1.72,0.084c1.242,0.49,2.015,2.021,2.188,3.504
						c0.241,1.51,0.121,3.238-0.46,4.907c-1.157,3.286-3.84,5.854-6.44,5.788c-1.254-0.065-2.111-0.721-2.487-1.268
						C342.988,265.819,343.018,265.422,343.084,265.411z"/>
				</g>
				<g>
					<g>
						<g>
							<g>
								<g>
									<path style="fill:#263238;" d="M244.373,219.304c0.331,0.834,4.881-0.352,9.858,1.665c4.999,1.942,7.624,5.974,8.41,5.581
										c0.374-0.163,0.227-1.487-0.898-3.287c-1.103-1.784-3.324-3.98-6.432-5.215c-3.109-1.23-6.179-1.138-8.149-0.572
										C245.156,218.037,244.198,218.921,244.373,219.304z"/>
								</g>
							</g>
						</g>
					</g>
				</g>
				<g>
					<g>
						<g>
							<g>
								<g>
									<path style="fill:#263238;" d="M295.334,226.105c0.461,0.771,4.769-1.123,9.998,0.072c5.244,1.12,8.48,4.683,9.193,4.169
										c0.342-0.221-0.007-1.503-1.412-3.101c-1.372-1.586-3.915-3.4-7.18-4.123c-3.267-0.718-6.281-0.138-8.137,0.735
										C295.911,224.731,295.103,225.755,295.334,226.105z"/>
								</g>
							</g>
						</g>
					</g>
				</g>
				<g>
					<path style="fill:#263238;" d="M305.39,207.384c0.438,1.419,4.539,1.392,9.093,2.621c4.588,1.1,8.175,3.086,9.239,2.051
						c0.481-0.509,0.119-1.814-1.238-3.308c-1.337-1.487-3.731-3.058-6.707-3.82c-2.977-0.756-5.831-0.522-7.716,0.144
						C306.154,205.734,305.212,206.706,305.39,207.384z"/>
				</g>
				<g>
					<path style="fill:#263238;" d="M252.892,194.156c0.438,1.419,4.539,1.392,9.093,2.621c4.588,1.101,8.175,3.087,9.239,2.05
						c0.481-0.509,0.119-1.814-1.238-3.308c-1.337-1.487-3.731-3.058-6.708-3.82c-2.977-0.755-5.831-0.522-7.716,0.144
						C253.656,192.506,252.714,193.478,252.892,194.156z"/>
				</g>
				<g>
					<g>
						<path style="fill:#263238;" d="M274.176,244.849c-0.011,0.257-1.056,0.542-2.672-0.045c-0.791-0.301-1.706-0.859-2.452-1.801
							c-0.736-0.94-1.244-2.236-1.182-3.665c0.035-1.431,0.791-2.791,1.763-3.535c0.963-0.778,2.116-1.077,3.047-0.98
							c0.961,0.124,1.432,0.438,1.801,0.557c0.351,0.144,0.587,0.201,0.632,0.344c0.045,0.129-0.172,0.364-0.672,0.466
							c-0.483,0.116-1.195,0.013-1.751,0.106c-1.147,0.147-2.712,1.346-2.738,3.134c-0.042,0.889,0.239,1.776,0.663,2.457
							c0.429,0.687,1.014,1.221,1.565,1.608C273.294,244.269,274.213,244.546,274.176,244.849z"/>
					</g>
				</g>
				<g>
					<g>
						<path style="fill:#FF9A6C;" d="M289.376,249.417c0.724,0.307,1.31,0.873,1.643,1.732c0.335,0.855,0.39,1.995,0.044,3.282
							c-0.342,1.284-1.109,2.693-2.339,3.959c-1.221,1.264-2.926,2.365-4.956,2.978c-2.035,0.6-4.065,0.614-5.779,0.226
							c-1.722-0.385-3.137-1.143-4.127-2.03c-0.994-0.887-1.573-1.87-1.761-2.769c-0.193-0.901-0.012-1.696,0.425-2.349
							c0.907-1.308,2.497-1.928,3.924-2.554c1.46-0.591,2.814-1.131,4.043-1.496c1.227-0.368,2.656-0.659,4.201-0.965
							C286.231,249.173,287.9,248.82,289.376,249.417z"/>
					</g>
				</g>
				<g style="opacity:0.6;">
					<g>
						<path style="fill:#FF725E;" d="M296.896,243.797c-1.491-0.005-2.788,1.306-3.028,2.777c-0.24,1.471,0.431,2.99,1.494,4.035
							c1.216,1.196,2.886,1.843,4.526,2.245c1.768,0.434,3.602,0.576,5.415,0.406c1.593-0.149,3.227-0.622,3.893-2.554
							c0.339-0.982,0.27-2.075-0.124-3.036c-1.006-2.454-3.279-3.035-5.61-3.55C301.439,243.674,298.746,243.193,296.896,243.797"/>
					</g>
				</g>
				<g style="opacity:0.6;">
					<g>
						<path style="fill:#FF725E;" d="M250.115,236.341c1.368,0.591,3.077-0.104,3.876-1.363c0.799-1.258,0.779-2.919,0.213-4.298
							c-0.648-1.578-1.929-2.829-3.279-3.844c-1.455-1.094-3.086-1.946-4.819-2.502c-1.523-0.489-3.211-0.697-4.584,0.818
							c-0.697,0.77-1.064,1.802-1.08,2.84c-0.039,2.652,1.821,4.08,3.763,5.47C245.89,234.668,248.177,236.169,250.115,236.341"/>
					</g>
				</g>
				<g>
					<g>
						<path style="fill:#263238;" d="M320.942,177.411c0.051,0.006,0.054,0.383-0.02,1.101c-0.107,0.71-0.312,1.767-0.837,3.045
							c-0.525,1.273-1.373,2.766-2.69,4.241c-1.33,1.448-3.142,2.9-5.504,3.796c-2.345,0.909-5.196,1.209-8.102,0.614
							c-2.887-0.59-5.885-2.057-8.137-4.59c-1.113-1.259-2.053-2.762-2.584-4.484c-0.541-1.701-0.629-3.674-0.011-5.49
							c0.595-1.797,1.836-3.503,3.679-4.423c1.86-0.944,4.145-0.826,5.974,0.215c0.919,0.521,1.704,1.321,2.178,2.295
							c0.468,0.968,0.607,2.046,0.505,3.056c-0.186,2.041-1.375,3.837-2.849,4.998c-2.999,2.325-6.731,2.922-10.03,2.534
							c-3.325-0.406-6.311-1.826-8.525-3.801c-1.111-0.984-2.034-2.101-2.755-3.278c-0.706-1.189-1.184-2.429-1.514-3.638
							c-0.326-1.214-0.439-2.405-0.488-3.526c0.01-1.122,0.07-2.182,0.274-3.148c0.361-1.941,1.033-3.523,1.726-4.712
							c0.322-0.61,0.715-1.088,1.014-1.521c0.349-0.399,0.629-0.747,0.889-0.997c0.531-0.491,0.824-0.725,0.861-0.686
							c0.129,0.114-1.061,1.102-2.228,3.492c-0.584,1.182-1.139,2.719-1.4,4.567c-0.154,0.92-0.169,1.921-0.142,2.971
							c0.084,1.048,0.224,2.154,0.559,3.268c0.339,1.108,0.808,2.234,1.476,3.3c0.683,1.055,1.544,2.053,2.576,2.931
							c2.053,1.763,4.816,3.02,7.842,3.35c1.509,0.165,3.082,0.093,4.617-0.276c1.526-0.371,3.052-1.015,4.284-2.018
							c1.232-0.99,2.123-2.393,2.266-3.962c0.178-1.558-0.517-3.084-1.918-3.845c-1.362-0.783-3.148-0.875-4.499-0.176
							c-1.399,0.685-2.424,2.04-2.921,3.519c-0.513,1.484-0.463,3.089-0.012,4.569c0.44,1.482,1.255,2.83,2.238,3.969
							c1.982,2.29,4.689,3.68,7.326,4.273c2.654,0.599,5.275,0.387,7.45-0.383c2.195-0.758,3.937-2.049,5.25-3.359
							c1.301-1.335,2.185-2.709,2.771-3.892C320.683,178.914,320.793,177.383,320.942,177.411z"/>
					</g>
				</g>
			</g>
			<g>
				<path style="fill:#FFBF9D;" d="M255.286,289.654l-1.698,5.213c5.022,7.21,53.16-2.236,53.16-2.236
					C309.062,289.722,255.286,289.654,255.286,289.654z"/>
			</g>
			<g>
				<path style="fill:#FF9A6C;" d="M255.286,289.654c0,0,13.234,3.77,25.808,1.686c0,0-7.934,4.546-18.704,2.867
					c-3.932-0.613-7.555-2.751-7.555-2.751L255.286,289.654"/>
			</g>
			<g>
				<polygon style="fill:#FFFFFF;" points="331.518,239.398 332.992,240.204 331.518,241.01 330.712,242.484 329.906,241.01 
					328.432,240.204 329.906,239.398 330.712,237.925 				"/>
			</g>
			<g>
				<polygon style="fill:#FFFFFF;" points="325.518,245.936 328.432,247.529 325.518,249.123 323.925,252.037 322.331,249.123 
					319.417,247.529 322.331,245.936 323.925,243.022 				"/>
			</g>
			<g>
				<g>
					<path style="fill:#263238;" d="M277.103,261.481c0.027-0.079,0.606,0.093,1.665,0.236c1.051,0.137,2.62,0.213,4.442-0.252
						c0.905-0.239,1.861-0.627,2.772-1.218c0.892-0.612,1.802-1.412,2.586-2.351c0.772-0.951,1.439-2.072,1.769-3.341
						c0.318-1.253,0.366-2.688-0.077-3.949c-0.223-0.623-0.584-1.164-1.07-1.48c-0.483-0.323-1.084-0.415-1.706-0.345
						c-1.244,0.143-2.51,0.746-3.706,1.184c-2.378,0.897-4.532,1.71-6.373,2.404c-3.641,1.34-5.923,2.104-5.979,1.972
						c-0.056-0.132,2.126-1.137,5.706-2.656c1.822-0.756,3.955-1.641,6.309-2.619c1.198-0.457,2.387-1.088,3.932-1.3
						c0.757-0.097,1.653,0.007,2.382,0.492c0.734,0.475,1.209,1.23,1.483,1.993c0.535,1.548,0.455,3.136,0.083,4.57
						c-0.391,1.44-1.158,2.677-2.02,3.694c-0.886,1.012-1.845,1.814-2.856,2.461c-1.028,0.62-2.085,0.997-3.067,1.206
						c-1.977,0.403-3.619,0.2-4.686-0.066C277.617,261.841,277.081,261.536,277.103,261.481z"/>
				</g>
			</g>
			<g>
				<g>
					<g>
						<g>
							<path style="fill:#263238;" d="M297.121,233.76c-0.907,2.475,0.441,5.284,3.009,6.279c2.563,0.993,5.378-0.202,6.286-2.677
								c0.907-2.475-0.44-5.287-3.004-6.281C300.845,230.086,298.028,231.285,297.121,233.76z"/>
						</g>
					</g>
				</g>
			</g>
			<g>
				<path style="fill:#FFFFFF;" d="M304.642,233.758c-0.275,0.105-0.431,0.506-0.4,0.799c0.04,0.392,0.476,0.689,0.858,0.592
					c0.382-0.097,0.624-0.554,0.499-0.927C305.473,233.849,305.014,233.63,304.642,233.758"/>
			</g>
		</g>
		<g>
			<g>
				<path style="fill:#F5F5F5;" d="M207.925,216.102c-10.338-20.328-11.753-45.001-3.806-66.377c1.511-4.064,3.955-8.515,8.22-9.296
					c4.764-0.872,8.892,3.345,11.356,7.515c5.501,9.309,7.723,20.321,7.507,31.132c-0.216,10.811-2.771,21.464-6.294,31.687
					c-1.265,3.671-2.879,7.575-6.224,9.547"/>
			</g>
			<g style="opacity:0.3;">
				<g>
					<path d="M219.313,155.289c-0.588-1.666-1.487-3.54-3.215-3.905c-2.301-0.486-4.05,1.994-4.99,4.15
						c-8.187,18.764-7.57,41.156,1.637,59.441l3.085,0.887C224.942,197.203,226.226,174.869,219.313,155.289z"/>
				</g>
			</g>
			<g>
				<path style="fill:#EBEBEB;" d="M198.441,216.53c-2.411-3.509-4.863-7.051-8.055-9.867s-7.251-4.877-11.509-4.849
					c-6.159,0.041-11.446,4.313-15.609,8.852c-15.128,16.49-22.502,39.191-22.807,61.567c-0.124,9.083,0.939,18.478,5.438,26.369
					c1.023,1.795,2.32,3.581,4.228,4.372c2.229,0.924,4.805,0.284,6.987-0.745c5.499-2.594,9.641-7.498,12.432-12.9
					c2.791-5.401,4.371-11.332,5.93-17.208c4.432-16.704,8.864-33.407,13.296-50.111"/>
			</g>
			<g style="opacity:0.3;">
				<g>
					<path d="M181.95,222.887l-8.205-3.681c-4.719,3.163-9.225,8.261-11.818,13.315c-2.594,5.054-4.287,10.516-5.878,15.969
						c-2.711,9.29-5.175,18.693-6.285,28.306c-0.232,2.005-0.403,4.049-0.021,6.031c0.381,1.982,1.382,3.922,3.066,5.035
						c2.531,1.673,6.056,1.08,8.544-0.656c2.488-1.737,4.15-4.399,5.65-7.037C176.876,262.791,182.682,242.861,181.95,222.887z"/>
				</g>
			</g>
			<g>
				<path style="fill:#EBEBEB;" d="M199.347,216.421c-1.458,0.297-21.705,5.886-30.885,22.169
					c-7.234,12.831-4.674,28.018-0.124,34.614c4.55,6.596,20.73,23.906,33.451,23.182c0,0,26.273-0.794,34.941-10.184
					c8.668-9.39,20.549-32.865,10.943-52.823C238.068,213.422,218.192,212.578,199.347,216.421z"/>
			</g>
			<g>
				<path style="fill:#EBEBEB;" d="M182.481,408.788c-1.875-11.07-2.723-22.315-2.529-33.542l-16.921-11.9
					c-3.245,1.327-5.659,4.224-7.074,7.431c-1.416,3.207-1.941,6.729-2.307,10.216c-1.488,14.189-0.552,28.551,1.632,42.649
					c0.596,3.85,1.465,8.012,4.438,10.53c3.461,2.932,8.693,2.619,12.914,0.956c3.786-1.492,7.285-4.04,9.211-7.626
					C184.858,421.894,183.545,415.066,182.481,408.788z"/>
			</g>
			<g>
				<path style="fill:#EBEBEB;" d="M228.297,376.086c-0.765-1.655-2.243-3.064-4.043-3.352l-22.03,18.407
					c-4.792,4.147-8.235,9.679-10.671,15.53c-2.436,5.851-3.921,12.047-5.291,18.235c-1.2,5.417-2.293,11.234-0.217,16.379
					c2.012,4.989,7.05,8.585,12.416,8.962c5.367,0.377,10.815-2.436,13.697-6.978c2.788-4.394,3.152-9.832,3.847-14.989
					c1.017-7.544,2.907-14.971,5.622-22.083c3.094-8.107,7.317-16.085,7.537-24.759C229.208,379.614,229.062,377.74,228.297,376.086
					z"/>
			</g>
			<g>
				<path style="fill:#EBEBEB;" d="M239.717,331.931c-0.611-13.39-6.2-30.558-9.931-43.231l-30.284,0.228
					c-11.285,12.279-8.257,3.961-16.261,18.943c0,0-1.094,0.517-3.879,3.53c-8.933,9.665-17.603,30.884-17.111,43.232
					c0.431,10.824,4.41,21.249,11.732,28.325c7.467,7.217,17.677,11.285,27.794,10.109c12.311-1.431,23.441-10.508,29.907-22.165
					C238.149,359.246,240.329,345.321,239.717,331.931z"/>
			</g>
			<g>
				<path style="fill:#FF725E;" d="M165.684,335.308c-3.16-0.07-6.819-1.439-9.549-3.03c-0.644-0.375-1.448-0.795-2.083-0.404
					c-0.356,0.219-0.533,0.634-0.686,1.023c-0.904,2.291-1.746,4.607-2.525,6.943c-0.325,0.975-0.633,2.073-0.178,2.995
					c0.418,0.847,1.358,1.284,2.239,1.625c3.973,1.538,5.581,2.432,9.836,2.637L165.684,335.308z"/>
			</g>
			<g>
				<g>
					<path d="M173.415,319.546c0.015,0.01-0.055,0.158-0.202,0.431c-0.182,0.323-0.401,0.712-0.665,1.181
						c-0.301,0.505-0.646,1.136-1.044,1.87c-0.409,0.728-0.859,1.564-1.329,2.504c-1.922,3.726-4.317,9.048-5.915,15.247
						c-1.639,6.195-1.923,12.043-1.628,16.217c0.168,2.086,0.37,3.777,0.61,4.925c0.09,0.529,0.166,0.97,0.228,1.335
						c0.047,0.307,0.063,0.47,0.045,0.475c-0.017,0.004-0.068-0.151-0.147-0.451c-0.089-0.361-0.196-0.796-0.325-1.319
						c-0.302-1.142-0.563-2.836-0.779-4.936c-0.393-4.2-0.163-10.125,1.491-16.375c1.612-6.255,4.08-11.591,6.094-15.289
						c0.493-0.932,0.967-1.76,1.402-2.476c0.424-0.722,0.796-1.34,1.124-1.83c0.297-0.449,0.545-0.822,0.75-1.131
						C173.301,319.666,173.4,319.536,173.415,319.546z"/>
				</g>
			</g>
			<g>
				<path style="fill:#F5F5F5;" d="M158.084,339.357c-0.819-0.278-1.728-0.282-2.549-0.01c-0.529,0.175-1.098,0.62-0.978,1.164
					c0.067,0.304,0.347,0.527,0.646,0.613c0.299,0.087,0.619,0.062,0.929,0.03c1.785-0.186,3.547-0.601,5.228-1.231
					c0.086-0.032,0.178-0.071,0.22-0.152c0.069-0.134-0.039-0.289-0.14-0.401c-0.999-1.107-2.087-2.269-3.535-2.624
					c-0.494-0.121-1.112-0.092-1.386,0.336c-0.292,0.455-0.001,1.074,0.405,1.43c0.406,0.357,0.925,0.584,1.273,0.998"/>
			</g>
			<g>
				<g>
					<path style="fill:#EBEBEB;" d="M194.434,285.925c-2.83-2.322-6.6-3.154-10.251-3.409c-11.786-0.822-23.236,3.585-34.903,5.448
						c-4.488,0.717-9.274,1.15-12.925,3.857c-3.236,2.399-5.139,6.549-4.667,10.55c0.472,4,3.384,7.655,7.232,8.844
						c3.988,1.232,8.266-0.112,12.221-1.446c13.31-4.49,26.619-8.98,39.929-13.47l6.304-0.585
						C198.857,292.366,197.264,288.246,194.434,285.925z"/>
				</g>
				<g>
					<g>
						<path style="fill:#263238;" d="M194.434,285.925c0,0,0.865,0.528,1.956,2.057c0.529,0.767,1.087,1.804,1.426,3.133
							c0.313,1.319,0.396,2.99-0.322,4.65l-0.031,0.07l-0.078,0.008c-1.853,0.181-3.974,0.388-6.301,0.615l0.037-0.008
							c-6.658,2.266-15.188,5.169-24.977,8.502c-4.904,1.66-10.122,3.427-15.576,5.274c-2.727,0.896-5.618,1.798-8.691,1.723
							c-1.526-0.047-3.072-0.374-4.48-1.066c-1.398-0.701-2.639-1.719-3.625-2.956c-1.719-2.151-2.616-4.934-2.378-7.62
							c0.204-2.686,1.367-5.206,3.098-7.136c1.753-1.939,4.101-3.152,6.457-3.857c2.368-0.721,4.759-1.048,7.063-1.399
							c4.612-0.67,8.927-1.695,12.974-2.619c4.045-0.937,7.831-1.772,11.331-2.301c6.991-1.098,12.835-0.881,16.671,0.166
							c1.92,0.517,3.307,1.237,4.182,1.801C194.045,285.533,194.434,285.925,194.434,285.925c-0.006,0.007-0.119-0.07-0.335-0.225
							c-0.213-0.159-0.541-0.38-0.984-0.647c-0.886-0.53-2.27-1.212-4.178-1.694c-3.81-0.976-9.614-1.137-16.562,0.002
							c-3.48,0.55-7.25,1.403-11.29,2.358c-4.041,0.942-8.368,1.987-13,2.673c-2.306,0.357-4.675,0.689-6.989,1.399
							c-2.305,0.695-4.554,1.87-6.226,3.723c-1.655,1.85-2.768,4.272-2.96,6.833c-0.225,2.558,0.627,5.198,2.268,7.256
							c0.94,1.18,2.123,2.149,3.448,2.815c1.331,0.655,2.8,0.969,4.266,1.015c2.952,0.078,5.799-0.796,8.515-1.687
							c5.458-1.834,10.68-3.588,15.587-5.236c9.808-3.279,18.353-6.136,25.023-8.366l0.019-0.006l0.018-0.002
							c2.329-0.205,4.452-0.392,6.307-0.555l-0.108,0.078c0.707-1.583,0.651-3.202,0.365-4.496c-0.312-1.304-0.84-2.333-1.344-3.103
							c-0.508-0.771-1-1.284-1.326-1.629c-0.161-0.153-0.288-0.274-0.39-0.372C194.472,285.974,194.43,285.929,194.434,285.925z"/>
					</g>
				</g>
			</g>
			<g>
				<g>
					<path d="M143.431,310.037c-0.082-0.055,0.613-0.917,1.184-2.554c0.576-1.609,0.919-4.088,0.105-6.591
						c-0.824-2.501-2.568-4.297-3.984-5.253c-1.428-0.982-2.499-1.266-2.465-1.359c0.009-0.03,0.282,0.01,0.757,0.157
						c0.475,0.146,1.146,0.426,1.91,0.893c1.518,0.91,3.405,2.754,4.277,5.399c0.861,2.648,0.431,5.251-0.255,6.882
						c-0.339,0.828-0.714,1.451-1.011,1.85C143.652,309.863,143.456,310.056,143.431,310.037z"/>
				</g>
			</g>
			<g>
				<path style="fill:#263238;" d="M194.076,239.249c0.459,1.294-0.218,2.715-1.512,3.175c-1.294,0.459-2.715-0.218-3.175-1.512
					c-0.459-1.294,0.218-2.716,1.512-3.175C192.196,237.278,193.617,237.955,194.076,239.249z"/>
			</g>
			<g>
				<path style="fill:#263238;" d="M206.621,234.818c0.459,1.294-0.218,2.716-1.512,3.175c-1.294,0.459-2.715-0.218-3.175-1.512
					s0.218-2.715,1.512-3.175C204.74,232.847,206.162,233.524,206.621,234.818z"/>
			</g>
			<g>
				<g>
					<path d="M212.423,273.089c-0.033,0.014-0.196-0.282-0.463-0.829c-0.268-0.547-0.634-1.349-1.07-2.347
						c-0.872-1.995-2.007-4.782-3.148-7.903c-1.14-3.122-2.069-5.985-2.689-8.073c-0.31-1.044-0.547-1.892-0.695-2.484
						c-0.149-0.591-0.215-0.922-0.18-0.933c0.071-0.022,0.517,1.249,1.226,3.304c0.708,2.055,1.69,4.892,2.827,8.007
						c1.138,3.113,2.216,5.914,3,7.942C212.014,271.801,212.492,273.059,212.423,273.089z"/>
				</g>
			</g>
			<g>
				<g>
					<path d="M225.743,215.676c-0.001,0.009-0.099,0.003-0.288-0.018c-0.218-0.027-0.493-0.061-0.837-0.104
						c-0.733-0.11-1.817-0.234-3.215-0.38c-2.794-0.275-6.871-0.501-11.878-0.115c-4.996,0.398-10.929,1.493-17.132,3.851
						c-6.202,2.295-12.586,6.167-17.817,11.749c-2.595,2.798-4.779,5.858-6.42,9.06c-1.63,3.208-2.723,6.534-3.316,9.785
						c-1.195,6.521-0.548,12.609,0.856,17.398c0.746,2.39,1.651,4.474,2.621,6.212c0.496,0.86,1.004,1.637,1.477,2.344
						c0.526,0.669,0.975,1.309,1.433,1.838c0.472,0.511,0.893,0.968,1.263,1.37c0.376,0.387,0.735,0.672,1.003,0.926
						c0.254,0.234,0.459,0.422,0.62,0.57c0.138,0.131,0.206,0.202,0.2,0.209c-0.005,0.007-0.085-0.049-0.234-0.167
						c-0.171-0.139-0.386-0.314-0.655-0.533c-0.28-0.243-0.653-0.517-1.043-0.895c-0.383-0.395-0.82-0.844-1.308-1.347
						c-0.474-0.523-0.939-1.158-1.482-1.826c-0.49-0.705-1.015-1.482-1.528-2.345c-1.004-1.742-1.944-3.839-2.72-6.249
						c-1.464-4.829-2.16-10.981-0.976-17.591c0.587-3.296,1.687-6.676,3.334-9.931c1.657-3.249,3.867-6.352,6.494-9.183
						c5.291-5.649,11.763-9.553,18.027-11.842c6.261-2.352,12.245-3.417,17.274-3.77c5.04-0.341,9.132-0.057,11.928,0.281
						c1.399,0.177,2.481,0.335,3.21,0.478c0.34,0.064,0.614,0.115,0.829,0.155C225.65,215.643,225.744,215.667,225.743,215.676z"/>
				</g>
			</g>
			<g>
				<path style="fill:#FF725E;" d="M196.571,246.269c-0.452,0.332-0.942,0.805-0.828,1.354c0.092,0.441,0.536,0.702,0.94,0.9
					c1.82,0.895,3.716,1.634,5.662,2.206c0.648,0.191,1.352,0.362,1.987,0.131c0.478-0.174,0.849-0.554,1.186-0.935
					c1.576-1.787,2.788-3.891,3.553-6.147c0.272-0.803-0.418-1.615-1.254-1.475C204.045,242.936,199.321,244.251,196.571,246.269z"
					/>
			</g>
			<g>
				<g>
					<path d="M212.076,389.606c0.008,0.016-0.225,0.134-0.675,0.344c-0.45,0.211-1.115,0.522-2.001,0.849
						c-1.759,0.679-4.378,1.531-7.728,2.047c-3.337,0.518-7.438,0.642-11.845-0.263c-2.194-0.472-4.451-1.216-6.642-2.308
						c-2.197-1.073-4.319-2.47-6.345-4.078c-4.048-3.228-7.23-7.145-9.233-11.169c-2.001-3.989-3.502-7.753-4.33-11.038
						c-0.847-3.28-1.105-6.025-1.142-7.912c-0.017-0.945-0.005-1.678,0.034-2.174c0.028-0.496,0.051-0.756,0.069-0.755
						c0.059,0.002-0.006,1.044,0.099,2.921c0.099,1.874,0.411,4.588,1.296,7.826c0.866,3.243,2.387,6.957,4.403,10.918
						c1.992,3.943,5.136,7.793,9.13,10.977c3.98,3.204,8.429,5.419,12.762,6.324c4.33,0.916,8.381,0.834,11.692,0.367
						c3.323-0.464,5.939-1.255,7.711-1.872C211.107,389.996,212.053,389.553,212.076,389.606z"/>
				</g>
			</g>
			<g>
				<g>
					<path d="M188.777,363.034c0.087,0.023-0.33,1.644-0.761,4.304c-0.434,2.657-0.809,6.37-0.689,10.476
						c0.13,4.107,0.728,7.791,1.323,10.417c0.591,2.628,1.106,4.221,1.021,4.249c-0.034,0.011-0.192-0.376-0.449-1.09
						c-0.264-0.711-0.587-1.761-0.93-3.073c-0.691-2.622-1.355-6.338-1.486-10.487c-0.121-4.148,0.317-7.897,0.848-10.556
						c0.263-1.331,0.521-2.398,0.742-3.124C188.608,363.421,188.742,363.025,188.777,363.034z"/>
				</g>
			</g>
			<g>
				<g>
					<path d="M170.906,217.418c0.063-0.129,2.779,1.061,6.066,2.658c3.288,1.598,5.902,2.997,5.839,3.127
						c-0.063,0.129-2.778-1.061-6.066-2.659C173.458,218.947,170.843,217.547,170.906,217.418z"/>
				</g>
			</g>
			<g>
				<g>
					<path d="M231.102,286.813c0.022,0.028-0.189,0.226-0.592,0.561c-0.399,0.34-1.012,0.788-1.799,1.298
						c-1.57,1.023-3.903,2.217-6.656,3.039c-2.757,0.814-5.364,1.086-7.238,1.084c-0.938,0.002-1.696-0.038-2.216-0.106
						c-0.52-0.061-0.805-0.112-0.802-0.147c0.007-0.087,1.159-0.018,3.007-0.114c1.847-0.093,4.394-0.417,7.1-1.216
						c2.703-0.807,5.014-1.924,6.613-2.854C230.121,287.43,231.049,286.744,231.102,286.813z"/>
				</g>
			</g>
		</g>
		<g>
			<g>
				<path style="fill:#FF725E;" d="M229.22,409.469c-7.531-28.623,4.018-43.069,9.497-59.44"/>
			</g>
			<g>
				<g>
					<path style="fill:#263238;" d="M238.717,350.029c0.017,0.006-0.039,0.214-0.161,0.607c-0.145,0.444-0.331,1.01-0.56,1.71
						c-0.502,1.479-1.313,3.592-2.375,6.173c-2.085,5.166-5.355,12.199-7.23,20.487c-0.935,4.142-1.276,8.182-1.387,11.85
						c-0.014,3.674,0.23,6.984,0.62,9.738c0.206,1.367,0.394,2.611,0.561,3.715c0.227,1.065,0.425,1.993,0.592,2.776
						c0.145,0.721,0.262,1.304,0.354,1.761c0.075,0.404,0.107,0.619,0.089,0.624c-0.017,0.005-0.083-0.201-0.191-0.598
						c-0.117-0.452-0.266-1.029-0.45-1.741c-0.192-0.78-0.419-1.705-0.68-2.766c-0.19-1.105-0.404-2.35-0.64-3.719
						c-0.439-2.761-0.723-6.091-0.735-9.796c0.085-3.699,0.415-7.78,1.358-11.957c1.892-8.363,5.232-15.397,7.399-20.517
						c1.104-2.561,1.965-4.646,2.524-6.1c0.266-0.685,0.482-1.24,0.651-1.674C238.611,350.221,238.7,350.023,238.717,350.029z"/>
				</g>
			</g>
		</g>
		<g>
			<g>
				<g>
					<path style="fill:#FFBF9D;" d="M222.794,302.784c-0.807-0.566-1.626-1.346-5.312-3.254c0.107-1.235,0.142-2.482,0.17-3.718
						c0.034-1.507,0.015-3.167-0.974-4.303c-0.777-0.892-2.073-1.265-3.225-1.001c-1.152,0.264-2.133,1.125-2.621,2.202
						c-0.452,0.996-0.246,2.053-0.598,3.089c-0.208,0.61-0.697,0.878-0.831,1.038c-3.154-0.982-5.981-2.451-5.981-2.451
						c-2.692-1.323-7.204-2.819-10.155-3.359c-1.696-0.311-4.027-0.516-5.058,1.459c-0.618,1.183-0.436,2.613,0.252,3.757
						c1.05,1.745,2.182,2.066,3.892,2.971c-0.743-0.013-2.375,0.223-3.136,0.581c-1.107,0.521-1.791,1.007-2.216,2.32
						c-0.361,1.115,0.172,2.815,1.052,3.59c0.88,0.775,1.894,1.304,2.986,1.731c-2.43,0.318-4.234,2.545-3.827,4.962
						c0.406,2.417,3.858,3.973,6.258,3.479c-0.65,0.327-1.263,0.947-2.04,1.911c-0.668,0.829-0.97,2.357-0.642,3.37
						c0.418,1.292,0.924,2.219,2.126,2.82c1.215,0.607,2.668,0.596,3.976,0.231c0.9-0.251,3.199,0.264,4.133,0.262
						c0.869-0.002,5.105,3.188,5.65,3.864c3.578,4.437,5.72,6.697,13.074,8.35l10.503-27.945
						C222.995,304.244,225.556,304.72,222.794,302.784z"/>
				</g>
				<g>
					<g>
						<path style="fill:#FF9A6C;" d="M199.571,308.037c-0.041,0.151-2.133-0.368-4.765-0.483c-2.632-0.133-4.764,0.187-4.79,0.032
							c-0.034-0.127,2.11-0.688,4.814-0.553C197.535,307.153,199.617,307.914,199.571,308.037z"/>
					</g>
				</g>
				<g>
					<g>
						<path style="fill:#FF9A6C;" d="M199.534,314.455c0.009,0.17-1.604,0.255-3.477,0.773c-1.891,0.493-3.181,1.434-3.276,1.318
							c-0.037-0.042,0.221-0.377,0.775-0.751c0.546-0.381,1.383-0.798,2.361-1.069C197.885,314.186,199.539,314.339,199.534,314.455
							z"/>
					</g>
				</g>
				<g>
					<g>
						<path style="fill:#FF9A6C;" d="M191.724,299.258c-0.023-0.112,2.296-0.406,5,0.456c2.683,0.885,4.478,2.316,4.412,2.4
							c-0.088,0.155-1.993-1.057-4.571-1.904C193.978,299.38,191.719,299.432,191.724,299.258z"/>
					</g>
				</g>
				<g>
					<g>
						<path style="fill:#FF9A6C;" d="M200.078,318.385c-0.115,0.07-0.813-1.115-0.856-2.767c-0.057-1.651,0.569-2.876,0.688-2.814
							c0.145,0.051-0.223,1.269-0.167,2.798C199.779,317.132,200.22,318.325,200.078,318.385z"/>
					</g>
				</g>
				<g>
					<g>
						<path style="fill:#FF9A6C;" d="M200.437,304.115c-0.138-0.001-0.22-0.974,0.126-2.109c0.34-1.136,0.947-1.902,1.063-1.826
							c0.128,0.076-0.247,0.911-0.564,1.976C200.736,303.218,200.586,304.122,200.437,304.115z"/>
					</g>
				</g>
				<g>
					<g>
						<path style="fill:#FF9A6C;" d="M199.57,310.277c-0.136,0.031-0.413-0.715-0.388-1.678c0.02-0.964,0.329-1.696,0.464-1.659
							c0.143,0.036,0.073,0.774,0.056,1.671C199.678,309.507,199.714,310.247,199.57,310.277z"/>
					</g>
				</g>
			</g>
			<g>
				<g>
					<path style="fill:#FF725E;" d="M318.641,340.733c-11.573,10.991-43.229,18.184-60.783,15.553
						c-17.555-2.631-47.347-22.075-47.347-22.075l11.325-32.265c0,0,35.548,12.937,36.457,12.788c0,0,46.215-21.799,58.261-14.822"
						/>
				</g>
				<g>
					<g>
						<path style="fill:#263238;" d="M316.555,299.912c0,0-0.36-0.141-1.034-0.443c-0.689-0.267-1.756-0.548-3.176-0.731
							c-1.427-0.112-3.198-0.177-5.27,0.027c-2.07,0.192-4.435,0.554-7.054,1.108c-10.471,2.271-24.972,7.42-41.631,15.063
							l-0.045,0.021l-0.014-0.002c-0.209-0.033-0.423-0.072-0.632-0.118l-0.536-0.161l-1.067-0.332
							c-0.707-0.234-1.418-0.47-2.134-0.707c-1.426-0.489-2.87-0.985-4.331-1.487c-2.914-1.027-5.897-2.079-8.944-3.153
							c-6.079-2.186-12.409-4.463-18.936-6.81l0.328-0.155c-2.723,7.762-5.545,15.809-8.437,24.054
							c-0.988,2.813-1.967,5.603-2.883,8.212l-0.103-0.303c6.86,4.396,13.761,8.345,20.54,11.875
							c6.802,3.474,13.508,6.567,20.176,8.634c3.334,1.04,6.674,1.659,9.958,1.941c3.291,0.177,6.496,0.223,9.582-0.003
							c6.176-0.374,11.873-1.3,16.994-2.42c5.121-1.129,9.681-2.452,13.574-3.899c0.489-0.174,0.969-0.346,1.441-0.514
							c0.463-0.19,0.917-0.378,1.363-0.561c0.89-0.371,1.753-0.71,2.566-1.066c0.801-0.383,1.567-0.749,2.298-1.098
							c0.365-0.175,0.721-0.346,1.068-0.512c0.335-0.188,0.662-0.371,0.979-0.55c1.273-0.71,2.411-1.326,3.319-1.985
							c0.924-0.632,1.742-1.119,2.308-1.638c0.583-0.476,1.031-0.842,1.349-1.101c0.306-0.246,0.471-0.363,0.471-0.363
							s-0.142,0.142-0.437,0.401c-0.311,0.269-0.749,0.648-1.32,1.142c-0.558,0.534-1.369,1.035-2.288,1.683
							c-0.904,0.675-2.038,1.307-3.308,2.032c-0.317,0.182-0.643,0.369-0.978,0.562c-0.346,0.17-0.702,0.344-1.066,0.523
							c-0.73,0.357-1.496,0.731-2.297,1.122c-0.813,0.364-1.676,0.711-2.566,1.089c-0.446,0.187-0.901,0.378-1.364,0.573
							c-0.472,0.172-0.953,0.347-1.442,0.525c-3.896,1.478-8.462,2.828-13.593,3.983c-5.132,1.146-10.843,2.096-17.046,2.491
							c-3.099,0.237-6.324,0.2-9.64,0.03c-3.312-0.275-6.704-0.896-10.062-1.937c-6.719-2.068-13.447-5.161-20.271-8.636
							c-6.801-3.532-13.709-7.478-20.593-11.887l-0.171-0.11l0.068-0.194c0.916-2.609,1.895-5.399,2.882-8.212
							c2.895-8.244,5.722-16.29,8.447-24.051l0.085-0.243l0.242,0.088c13.021,4.734,25.334,9.169,36.358,12.957l-0.084-0.132
							c16.71-7.616,31.246-12.709,41.769-14.914c2.632-0.537,5.01-0.881,7.091-1.053c2.083-0.184,3.867-0.098,5.302,0.037
							c1.43,0.206,2.501,0.511,3.187,0.802C316.219,299.729,316.555,299.912,316.555,299.912z"/>
					</g>
				</g>
			</g>
			<g style="opacity:0.3;">
				<g>
					<path d="M272.331,331.204c-1.097-3.683-3.355-6.902-5.741-9.914c-2.385-3.013-4.951-5.918-6.82-9.276l0.975,32.852
						c3.322,1.931,7.916,0.469,10.189-2.629C273.207,339.139,273.428,334.886,272.331,331.204z"/>
				</g>
			</g>
			<g style="opacity:0.3;">
				<g>
					<path d="M238.054,351.921c12.109,7.372,25.617,9.46,39.726,8.081c14.109-1.378,27.72-7.448,38.174-17.024
						c-9.384,4.275-18.81,8.566-28.723,11.406c-9.913,2.84-26.285,3.255-34.788,0.729l-13.727-5.085L238.054,351.921z"/>
				</g>
			</g>
		</g>
		<g>
			<g>
				<path d="M177.274,421.612c0,0.094-1.234,0.046-3.173,0.377c-1.931,0.317-4.58,1.07-7.148,2.607
					c-2.566,1.527-4.561,3.468-5.422,5.213c-0.905,1.745-0.663,3.04-0.773,3.029c-0.023,0.004-0.119-0.299-0.114-0.867
					c-0.001-0.565,0.135-1.395,0.555-2.323c0.822-1.881,2.857-3.937,5.487-5.5c2.639-1.58,5.382-2.296,7.362-2.524
					c0.993-0.127,1.805-0.126,2.362-0.115C176.969,421.541,177.275,421.576,177.274,421.612z"/>
			</g>
		</g>
		<g>
			<g>
				<path style="fill:#EBEBEB;" d="M270.751,329.334c-0.959-2.782-2.626-5.257-4.318-7.663c-6.552-9.32-13.777-18.187-21.86-26.216
					c-2.695-2.677-5.604-5.333-9.207-6.539c-3.603-1.206-8.082-0.583-10.4,2.426l1.601,11.135
					c6.523,9.26,19.737,28.852,26.26,38.112c1.165,1.654,2.436,3.393,4.318,4.133c2.198,0.864,4.694,0.151,6.832-0.852
					c2.75-1.289,5.384-3.179,6.672-5.929C271.896,335.277,271.71,332.115,270.751,329.334z"/>
			</g>
			<g>
				<g>
					<path d="M266.137,325.875c0.004,0.103-1.25,0.001-3.135,0.551c-1.86,0.524-4.373,1.872-6.067,4.331
						c-1.683,2.468-2.033,5.298-1.85,7.222c0.168,1.957,0.714,3.089,0.617,3.122c-0.028,0.013-0.188-0.255-0.4-0.775
						c-0.214-0.519-0.449-1.306-0.583-2.309c-0.284-1.976,0.014-4.955,1.787-7.555c1.785-2.591,4.455-3.943,6.401-4.392
						c0.983-0.237,1.802-0.301,2.364-0.289C265.832,325.791,266.139,325.844,266.137,325.875z"/>
				</g>
			</g>
		</g>
		<g>
			<g>
				<g>
					<path style="fill:#FF725E;" d="M350.568,411.823c-0.152,10.105-8.021,32.643-31.701,41.413
						c-9.477,3.51-50.013,8.067-59.978,9.754c-8.741,1.48-17.834,0.288-26.45,2.375c-6.176,1.496-11.956,4.647-18.28,5.274
						c-10.146,1.007-20.163-4.961-25.839-13.432c-5.676-8.471-7.498-19.039-7.143-29.229c0.216-6.202,1.639-13.129,6.817-16.55
						c4.33-2.861,10.215-2.353,14.869-0.056c4.654,2.296,8.348,6.114,11.942,9.858c6.445-9.577,22.486-16.866,34.955-21.791
						c10.737-4.241,37.265-10.755,45.518-2.683"/>
				</g>
				<g>
					<g>
						<path style="fill:#263238;" d="M295.278,396.756c0,0-0.113-0.082-0.323-0.256c-0.212-0.172-0.509-0.452-0.968-0.733
							c-0.881-0.604-2.317-1.342-4.329-1.862c-4.015-1.105-10.225-1.216-17.898-0.059c-3.839,0.584-8.056,1.462-12.572,2.698
							c-2.258,0.617-4.589,1.33-6.972,2.167c-2.379,0.842-4.797,1.863-7.298,2.896c-4.981,2.114-10.233,4.512-15.478,7.567
							c-2.622,1.523-5.239,3.219-7.723,5.204c-2.477,1.982-4.856,4.247-6.726,6.978l-0.156,0.228l-0.191-0.198
							c-2.304-2.389-4.659-4.846-7.392-6.954c-2.713-2.109-5.871-3.849-9.397-4.46c-3.467-0.645-7.37-0.182-10.294,2.08
							c-1.475,1.086-2.641,2.573-3.516,4.218c-0.889,1.645-1.469,3.463-1.871,5.325c-0.808,3.735-0.856,7.662-0.72,11.592
							c0.163,3.935,0.709,7.905,1.729,11.802c1.054,3.882,2.582,7.7,4.78,11.169c2.15,3.494,5.053,6.548,8.415,9.009
							c2.511,1.803,5.281,3.215,8.183,4.149c2.9,0.944,5.96,1.299,8.952,1.101c6.046-0.421,11.494-3.229,17.16-4.841
							c5.709-1.673,11.582-1.766,17.214-1.948c2.825-0.092,5.618-0.199,8.354-0.519c2.724-0.338,5.435-0.83,8.111-1.178
							c10.709-1.467,20.892-2.767,30.395-4.184c4.752-0.699,9.332-1.436,13.715-2.242c2.191-0.402,4.332-0.832,6.405-1.332
							c2.086-0.468,4.059-1.103,5.918-1.948c3.796-1.488,7.112-3.557,10.105-5.663c1.434-1.143,2.882-2.189,4.104-3.416
							c0.622-0.599,1.277-1.147,1.844-1.761c0.564-0.618,1.12-1.225,1.665-1.823c0.565-0.581,1.048-1.213,1.526-1.831
							c0.481-0.615,0.953-1.219,1.417-1.812c0.819-1.261,1.691-2.421,2.375-3.628c0.686-1.205,1.387-2.334,1.913-3.487
							c0.28-0.568,0.553-1.121,0.819-1.661c0.248-0.548,0.461-1.094,0.684-1.619c1.754-4.214,2.55-7.693,2.937-10.058
							c0.086-0.593,0.162-1.116,0.228-1.57c0.033-0.451,0.061-0.832,0.084-1.144c0.045-0.614,0.082-0.929,0.082-0.929
							s-0.001,0.316-0.029,0.932c-0.016,0.313-0.035,0.695-0.059,1.149c-0.059,0.456-0.126,0.982-0.203,1.577
							c-0.355,2.378-1.121,5.877-2.853,10.12c-0.22,0.528-0.431,1.078-0.677,1.63c-0.264,0.544-0.534,1.101-0.812,1.673
							c-0.521,1.161-1.219,2.3-1.902,3.514c-0.68,1.217-1.551,2.387-2.368,3.659c-0.463,0.598-0.935,1.208-1.416,1.828
							c-0.478,0.623-0.962,1.261-1.527,1.848c-0.547,0.603-1.103,1.217-1.668,1.841c-0.569,0.621-1.225,1.175-1.849,1.78
							c-1.225,1.24-2.679,2.299-4.119,3.454c-3.005,2.131-6.34,4.226-10.159,5.736c-1.861,0.853-3.881,1.51-5.969,1.983
							c-2.083,0.508-4.228,0.944-6.423,1.352c-4.389,0.818-8.971,1.566-13.725,2.274c-9.505,1.436-19.691,2.752-30.392,4.232
							c-2.681,0.352-5.355,0.843-8.122,1.189c-2.761,0.325-5.567,0.435-8.394,0.53c-5.639,0.186-11.462,0.287-17.089,1.941
							c-2.811,0.809-5.57,1.897-8.409,2.861c-2.835,0.956-5.783,1.809-8.855,2.006c-3.061,0.204-6.189-0.16-9.146-1.122
							c-2.96-0.952-5.778-2.389-8.331-4.223c-3.417-2.501-6.367-5.607-8.551-9.155c-2.229-3.52-3.775-7.388-4.839-11.312
							c-1.031-3.939-1.578-7.947-1.74-11.913c-0.135-3.958-0.087-7.913,0.739-11.719c0.411-1.895,1.005-3.756,1.923-5.453
							c0.903-1.696,2.118-3.244,3.658-4.376c1.514-1.169,3.322-1.885,5.158-2.219c1.845-0.313,3.719-0.271,5.516,0.06
							c3.622,0.632,6.855,2.424,9.596,4.563c2.767,2.142,5.131,4.618,7.431,7.012l-0.347,0.03c1.913-2.784,4.327-5.069,6.83-7.065
							c2.51-1.998,5.147-3.697,7.784-5.221c5.275-3.057,10.546-5.447,15.542-7.551c2.509-1.028,4.929-2.041,7.326-2.881
							c2.396-0.833,4.736-1.54,7.003-2.15c4.533-1.222,8.764-2.084,12.617-2.651c7.7-1.122,13.939-0.97,17.972,0.185
							c2.02,0.545,3.459,1.31,4.333,1.937c0.456,0.292,0.746,0.583,0.951,0.764C295.181,396.657,295.278,396.756,295.278,396.756z"
							/>
					</g>
				</g>
			</g>
			<g>
				<g>
					<path style="fill:#263238;" d="M210.987,469.23c-0.055-0.025,0.42-0.805,0.826-2.366c0.395-1.56,0.567-3.919,0.121-6.773
						c-0.432-2.851-1.333-6.196-2.343-9.888c-1.045-3.685-2.328-7.699-3.881-11.838c-1.543-4.144-3.21-8.016-4.843-11.481
						c-1.6-3.474-3.281-6.515-5.315-8.561c-2.012-2.061-4.208-3.064-5.76-3.432c-1.569-0.372-2.483-0.248-2.481-0.309
						c-0.001-0.016,0.222-0.046,0.652-0.067c0.429-0.006,1.069,0.013,1.873,0.178c1.599,0.314,3.879,1.29,5.977,3.371
						c2.117,2.062,3.86,5.146,5.487,8.615c1.662,3.466,3.349,7.346,4.898,11.505c1.558,4.154,2.832,8.187,3.855,11.892
						c0.988,3.712,1.853,7.067,2.245,9.966c0.405,2.896,0.173,5.307-0.29,6.877c-0.239,0.784-0.488,1.37-0.687,1.75
						C211.117,469.045,211.002,469.238,210.987,469.23z"/>
				</g>
			</g>
			<g>
				<g>
					<path style="fill:#263238;" d="M221.69,438.123c-0.147,0.039-1.038-3.022-2.395-6.702c-1.348-3.685-2.65-6.594-2.513-6.66
						c0.063-0.03,0.47,0.661,1.037,1.824c0.567,1.163,1.284,2.802,1.966,4.657c0.68,1.854,1.196,3.567,1.516,4.821
						C221.62,437.315,221.757,438.105,221.69,438.123z"/>
				</g>
			</g>
			<g>
				<g>
					<path style="fill:#FF725E;" d="M287.625,392.761c5.146-3.24,11.813-3.937,17.518-1.832"/>
				</g>
				<g>
					<g>
						<path style="fill:#263238;" d="M305.143,390.929c-0.03,0.084-0.996-0.251-2.602-0.558c-1.602-0.311-3.864-0.525-6.339-0.271
							c-2.476,0.264-4.645,0.941-6.147,1.577c-1.507,0.633-2.383,1.16-2.43,1.084c-0.031-0.044,0.781-0.687,2.279-1.42
							c1.491-0.735,3.704-1.489,6.244-1.759c2.54-0.261,4.861,0.019,6.472,0.429C304.236,390.418,305.164,390.879,305.143,390.929z"
							/>
					</g>
				</g>
			</g>
			<g style="opacity:0.3;">
				<g>
					<path d="M210.732,416.816c9.884-9.163,21.205-16.877,33.681-21.978c12.476-5.102,26.131-7.539,39.55-6.267
						c3.04,0.288,6.614,1.191,7.64,4.067c-28.134-0.397-60.595,9.966-76.797,28.592c-0.982-1.14-2.861-2.844-3.844-3.984"/>
				</g>
			</g>
		</g>
		<g>
			<g>
				<path style="fill:#FFBF9D;" d="M182.839,306.234c-1.145-0.868-2.862-0.835-4.021,0.014c-1.159,0.848-1.713,2.415-1.426,3.823
					c0.287,1.408,1.364,2.606,2.704,3.125c1.012,0.392,2.226,0.393,3.122-0.219c1.086-0.742,1.47-2.217,1.273-3.518
					C184.296,308.159,183.497,307.373,182.839,306.234"/>
			</g>
			<g>
				<path style="fill:#FFBF9D;" d="M186.277,302.796c-1.145-0.868-2.862-0.835-4.021,0.014c-1.159,0.848-1.713,2.415-1.426,3.823
					c0.287,1.408,1.364,2.606,2.704,3.125c1.012,0.392,2.226,0.394,3.122-0.219c1.086-0.742,1.47-2.217,1.273-3.518
					C187.734,304.721,186.935,303.935,186.277,302.796"/>
			</g>
			<g>
				<path style="fill:#FFBF9D;" d="M179.261,312.045c-0.98-0.743-2.451-0.715-3.444,0.012c-0.993,0.727-1.467,2.068-1.221,3.274
					c0.246,1.205,1.168,2.232,2.316,2.676c0.867,0.336,1.906,0.337,2.674-0.187c0.93-0.635,1.259-1.899,1.091-3.012
					C180.509,313.694,179.825,313.021,179.261,312.045"/>
			</g>
		</g>
		<g>
			<g>
				<path style="fill:none;stroke:#FFFFFF;stroke-miterlimit:10;" d="M216.136,137.849"/>
			</g>
		</g>
	</g>
</g>
<g id="Hearts">
	<g>
		<g>
			<g>
				<g>
					<path style="fill:#FF725E;" d="M186.099,151.792c-0.446-1.066-1.279-1.943-2.259-2.556c-0.959-0.601-2.09-0.966-3.219-0.889
						c-1.199,0.082-2.355,0.677-3.117,1.607c-0.453,0.553-0.764,1.219-0.908,1.919c-0.471-0.447-1.037-0.794-1.654-0.998
						c-1.141-0.378-2.437-0.263-3.493,0.31c-0.995,0.539-1.755,1.452-2.244,2.473c-0.499,1.042-0.734,2.229-0.541,3.368
						c0.242,1.427,0.948,2.86,2.009,3.844c1.121,1.038,2.637,1.7,4.114,2.093c2.483,0.661,5.728,1.448,5.728,1.448
						s1.842-2.441,3.587-4.327c1.037-1.122,1.965-2.492,2.356-3.969C186.829,154.715,186.658,153.127,186.099,151.792z"/>
				</g>
			</g>
		</g>
		<g style="opacity:0.7;">
			<g>
				<g>
					<path style="fill:#FFFFFF;" d="M186.099,151.792c-0.446-1.066-1.279-1.943-2.259-2.556c-0.959-0.601-2.09-0.966-3.219-0.889
						c-1.199,0.082-2.355,0.677-3.117,1.607c-0.453,0.553-0.764,1.219-0.908,1.919c-0.471-0.447-1.037-0.794-1.654-0.998
						c-1.141-0.378-2.437-0.263-3.493,0.31c-0.995,0.539-1.755,1.452-2.244,2.473c-0.499,1.042-0.734,2.229-0.541,3.368
						c0.242,1.427,0.948,2.86,2.009,3.844c1.121,1.038,2.637,1.7,4.114,2.093c2.483,0.661,5.728,1.448,5.728,1.448
						s1.842-2.441,3.587-4.327c1.037-1.122,1.965-2.492,2.356-3.969C186.829,154.715,186.658,153.127,186.099,151.792z"/>
				</g>
			</g>
		</g>
	</g>
	<g>
		<g>
			<g>
				<g>
					<path style="fill:#FF725E;" d="M118.559,342.514c-0.446-1.066-1.279-1.943-2.259-2.556c-0.959-0.601-2.09-0.966-3.219-0.889
						c-1.199,0.082-2.355,0.677-3.118,1.607c-0.453,0.553-0.764,1.219-0.908,1.919c-0.471-0.447-1.037-0.794-1.654-0.998
						c-1.141-0.378-2.437-0.263-3.494,0.31c-0.995,0.539-1.755,1.452-2.244,2.473c-0.499,1.042-0.734,2.229-0.541,3.368
						c0.242,1.426,0.948,2.86,2.009,3.844c1.121,1.038,2.637,1.7,4.114,2.093c2.483,0.66,5.728,1.448,5.728,1.448
						s1.842-2.441,3.587-4.328c1.037-1.122,1.965-2.492,2.356-3.969C119.288,345.438,119.117,343.849,118.559,342.514z"/>
				</g>
			</g>
		</g>
		<g style="opacity:0.7;">
			<g>
				<g>
					<path style="fill:#FFFFFF;" d="M118.559,342.514c-0.446-1.066-1.279-1.943-2.259-2.556c-0.959-0.601-2.09-0.966-3.219-0.889
						c-1.199,0.082-2.355,0.677-3.118,1.607c-0.453,0.553-0.764,1.219-0.908,1.919c-0.471-0.447-1.037-0.794-1.654-0.998
						c-1.141-0.378-2.437-0.263-3.494,0.31c-0.995,0.539-1.755,1.452-2.244,2.473c-0.499,1.042-0.734,2.229-0.541,3.368
						c0.242,1.426,0.948,2.86,2.009,3.844c1.121,1.038,2.637,1.7,4.114,2.093c2.483,0.66,5.728,1.448,5.728,1.448
						s1.842-2.441,3.587-4.328c1.037-1.122,1.965-2.492,2.356-3.969C119.288,345.438,119.117,343.849,118.559,342.514z"/>
				</g>
			</g>
		</g>
	</g>
	<g>
		<g>
			<g>
				<g>
					<path style="fill:#FF725E;" d="M388.251,342.073c0.595-2.068,0.407-4.315-0.301-6.348c-0.693-1.991-1.91-3.84-3.64-5.045
						c-1.838-1.28-4.212-1.762-6.403-1.3c-1.303,0.275-2.531,0.881-3.557,1.73c-0.163-1.199-0.582-2.363-1.24-3.378
						c-1.218-1.879-3.234-3.223-5.437-3.623c-2.075-0.377-4.244,0.064-6.144,0.977c-1.94,0.931-3.666,2.382-4.713,4.263
						c-1.311,2.355-1.958,5.261-1.563,7.927c0.418,2.816,1.85,5.545,3.537,7.838c2.837,3.855,6.634,8.783,6.634,8.783
						s5.523-1.399,10.257-2.105c2.815-0.42,5.76-1.329,8.051-3.019C385.902,347.171,387.505,344.663,388.251,342.073z"/>
				</g>
			</g>
		</g>
		<g style="opacity:0.7;">
			<g>
				<g>
					<path style="fill:#FFFFFF;" d="M388.251,342.073c0.595-2.068,0.407-4.315-0.301-6.348c-0.693-1.991-1.91-3.84-3.64-5.045
						c-1.838-1.28-4.212-1.762-6.403-1.3c-1.303,0.275-2.531,0.881-3.557,1.73c-0.163-1.199-0.582-2.363-1.24-3.378
						c-1.218-1.879-3.234-3.223-5.437-3.623c-2.075-0.377-4.244,0.064-6.144,0.977c-1.94,0.931-3.666,2.382-4.713,4.263
						c-1.311,2.355-1.958,5.261-1.563,7.927c0.418,2.816,1.85,5.545,3.537,7.838c2.837,3.855,6.634,8.783,6.634,8.783
						s5.523-1.399,10.257-2.105c2.815-0.42,5.76-1.329,8.051-3.019C385.902,347.171,387.505,344.663,388.251,342.073z"/>
				</g>
			</g>
		</g>
	</g>
</g>
</svg>
