<?xml version="1.0" encoding="utf-8"?>
<!-- Generator: Adobe Illustrator 27.5.0, SVG Export Plug-In . SVG Version: 6.00 Build 0)  -->
<svg version="1.1" xmlns="http://www.w3.org/2000/svg" xmlns:xlink="http://www.w3.org/1999/xlink" x="0px" y="0px"
	 viewBox="0 0 2000 2000" style="enable-background:new 0 0 2000 2000;" xml:space="preserve">

<g id="object">
	<path style="opacity:0.3;" d="M1040.456,702.375c-349.883-6.274-349.827-526.238,0.011-532.461
		C1390.34,176.188,1390.285,696.151,1040.456,702.375z M1040.456,238.407c-259.867,4.66-259.827,390.852,0.008,395.474
		C1300.325,629.221,1300.283,243.03,1040.456,238.407z"/>
	<path style="opacity:0.3;" d="M441.802,1881.135c-349.883-6.274-349.829-526.238,0.011-532.461
		C791.685,1354.948,791.628,1874.912,441.802,1881.135z M441.802,1417.167c-259.869,4.66-259.827,390.852,0.008,395.474
		C701.669,1807.981,701.629,1421.789,441.802,1417.167z"/>
	<path style="opacity:0.3;" d="M441.801,1284.745c-349.883-6.274-349.829-526.239,0.011-532.461
		C791.685,758.558,791.629,1278.522,441.801,1284.745z M441.801,820.777c-259.869,4.66-259.827,390.852,0.008,395.474
		C701.669,1211.591,701.629,825.399,441.801,820.777z"/>
	<path style="opacity:0.3;" d="M1627.034,1278.519c-20.101,0-40.086-2.303-59.475-6.852h-10.078
		c-163.512-52.875-244.424-239.241-151.658-389.838c95.481-161.1,341.162-163.386,439.745-4.228l0.334,0.167
		c2.534,4.289,7.368,12.474,9.896,16.759C1950.05,1064.276,1821.399,1280.999,1627.034,1278.519z M1588.901,1206.228
		c156.827,32.208,282.511-134.503,207.896-276.433l-9.492-4.746l-0.001-11.402c-72.113-116.071-254.237-113.768-323.243,4.236
		c-69.443,104.807-4.686,267.908,121.783,285.289L1588.901,1206.228z"/>
	<path style="opacity:0.3;" d="M1627.029,702.374c-349.884-6.274-349.829-526.239,0.011-532.461
		C1976.911,176.186,1976.856,696.15,1627.029,702.374z M1627.029,238.406c-259.869,4.66-259.828,390.852,0.008,395.474
		C1886.897,629.22,1886.856,243.027,1627.029,238.406z"/>
	<path style="opacity:0.3;" d="M441.801,702.375c-82.401,0.393-162.403-39.264-211.97-105.143l0,0
		C74.558,392.852,274.02,106.855,519.429,181.423C809.158,274.34,746.202,698.144,441.801,702.375z M441.801,238.412
		c-222.237,2.708-273.316,310.413-63.969,384.899c40.89,14.081,87.053,14.079,127.95-0.003
		C715.153,548.775,663.994,241.088,441.801,238.412z"/>
	<path style="opacity:0.3;" d="M1040.782,1881.197c-273.238,0.235-368.008-368.603-128.332-499.776l0.001-0.001
		C1315.337,1194.32,1483.436,1851.191,1040.782,1881.197z M945.382,1441.477c-178.119,97.563-107.501,371.422,95.404,371.225
		c328.806-22.527,203.604-510.212-95.405-371.224L945.382,1441.477z"/>
	<path style="opacity:0.3;" d="M1627.022,1881.135c-278.524,1.132-367.55-383.576-117.634-505.122
		C1911.098,1208.313,2061.62,1854.087,1627.022,1881.135z M1627.022,1417.159c-106.234-2.253-199.844,91.595-197.733,197.749
		c-0.002,109.03,88.702,197.734,197.733,197.734C1886.897,1807.967,1886.873,1421.797,1627.022,1417.159z"/>
	<path style="opacity:0.3;" d="M915.506,1284.732c-122.819,3.435-107.571-153.463-72.349-243.749
		c49.823-108.209,110.702-184.087,232.91-225.895c99.958-34.912,189.611-5.732,185.88,98.649
		C1274.127,1093.269,1097.023,1283.858,915.506,1284.732z M896.066,1213.754c67.04,12.611,161.167-35.372,213.329-90.366
		c61.954-59.581,101.592-174.894,77.256-245.972c-18.308-11.074-49.872-10.116-89.292,2.775h0.001
		C964.212,920.791,856.684,1086.879,896.066,1213.754z M895.24,1213.362L895.24,1213.362L895.24,1213.362z"/>
	<g>
		<path style="fill:#FFFFFF;" d="M1003.096,665.015c-349.883-6.274-349.827-526.238,0.011-532.461
			C1352.979,138.828,1352.925,658.791,1003.096,665.015z M1003.096,201.047c-259.867,4.66-259.827,390.852,0.008,395.474
			C1262.965,591.861,1262.923,205.669,1003.096,201.047z"/>
		<path style="fill:#FFFFFF;" d="M404.442,1843.775c-349.883-6.274-349.829-526.238,0.011-532.461
			C754.325,1317.588,754.268,1837.552,404.442,1843.775z M404.442,1379.807c-259.869,4.66-259.827,390.852,0.008,395.474
			C664.309,1770.621,664.269,1384.429,404.442,1379.807z"/>
		<path style="fill:#FFFFFF;" d="M404.441,1247.385c-349.883-6.274-349.829-526.239,0.011-532.461
			C754.325,721.197,754.268,1241.162,404.441,1247.385z M404.441,783.417c-259.869,4.66-259.827,390.852,0.008,395.474
			C664.309,1174.231,664.269,788.039,404.441,783.417z"/>
		<path style="fill:#FFFFFF;" d="M1589.674,1241.158c-20.1,0-40.086-2.303-59.475-6.852h-10.078
			c-163.512-52.875-244.424-239.241-151.658-389.838c95.481-161.1,341.162-163.386,439.745-4.228l0.334,0.167
			c2.534,4.289,7.368,12.474,9.896,16.759C1912.69,1026.915,1784.039,1243.639,1589.674,1241.158z M1551.541,1168.868
			c156.826,32.208,282.511-134.503,207.896-276.433l-9.492-4.746l-0.001-11.402c-72.113-116.071-254.237-113.768-323.243,4.236
			c-69.443,104.807-4.686,267.908,121.783,285.289L1551.541,1168.868z"/>
		<path style="fill:#FFFFFF;" d="M1589.669,665.013c-349.884-6.274-349.829-526.239,0.011-532.461
			C1939.551,138.826,1939.496,658.79,1589.669,665.013z M1589.669,201.045c-259.869,4.66-259.828,390.852,0.008,395.474
			C1849.536,591.86,1849.495,205.667,1589.669,201.045z"/>
		<path style="fill:#FFFFFF;" d="M404.441,665.015c-82.401,0.393-162.403-39.264-211.97-105.143l0,0
			C37.197,355.491,236.66,69.495,482.069,144.062C771.798,236.98,708.842,660.783,404.441,665.015z M404.441,201.051
			c-222.237,2.708-273.316,310.414-63.969,384.899c40.89,14.081,87.053,14.08,127.95-0.003
			C677.793,511.415,626.634,203.728,404.441,201.051z"/>
		<path style="fill:#FFFFFF;" d="M1003.422,1843.837c-273.238,0.235-368.008-368.603-128.332-499.777l0.001-0.001
			C1277.977,1156.96,1446.075,1813.83,1003.422,1843.837z M908.022,1404.117c-178.119,97.563-107.501,371.422,95.404,371.225
			c328.806-22.527,203.604-510.212-95.405-371.224L908.022,1404.117z"/>
		<path style="fill:#FFFFFF;" d="M1589.662,1843.775c-278.524,1.132-367.55-383.576-117.634-505.122
			C1873.737,1170.953,2024.26,1816.726,1589.662,1843.775z M1589.662,1379.798c-106.234-2.253-199.844,91.595-197.733,197.749
			c-0.002,109.03,88.702,197.734,197.733,197.734C1849.537,1770.606,1849.513,1384.436,1589.662,1379.798z"/>
		<path style="fill:#FFFFFF;" d="M878.146,1247.372c-122.82,3.435-107.571-153.463-72.349-243.749
			c49.823-108.208,110.702-184.087,232.91-225.895c99.958-34.912,189.611-5.732,185.88,98.649
			C1236.767,1055.908,1059.662,1246.498,878.146,1247.372z M858.706,1176.393c67.04,12.611,161.167-35.372,213.329-90.366
			c61.954-59.581,101.592-174.894,77.256-245.972c-18.308-11.074-49.872-10.116-89.292,2.775h0.001
			C926.852,883.431,819.324,1049.519,858.706,1176.393z M857.88,1176.002L857.88,1176.002L857.88,1176.002z"/>
	</g>
	<g>
		<g>
			<path style="fill:#2C2323;" d="M1003.096,630.768c-304.875-5.467-304.827-458.545,0.01-463.967
				C1307.972,172.267,1307.925,625.345,1003.096,630.768z M1003.096,191.707c-272.142,4.88-272.1,409.314,0.009,414.154
				C1275.24,600.981,1275.196,196.548,1003.096,191.707z"/>
		</g>
		<g>
			<path style="fill:#49ABAE;" d="M1222.625,398.784c-7.228,289.201-431.515,289.864-439.057-0.007
				C790.926,109.245,1215.296,109.292,1222.625,398.784z"/>
		</g>
		<g>
			<path style="fill:#2C2323;" d="M914.873,525.511c-0.404,23.656-35.591,23.652-35.992-0.001
				C879.284,501.855,914.472,501.859,914.873,525.511z"/>
		</g>
		<g>
			<path style="fill:#2C2323;" d="M924.791,457.883c-0.404,23.656-35.591,23.652-35.992-0.001
				C889.203,434.227,924.39,434.231,924.791,457.883z"/>
		</g>
		<g>
			<path style="fill:#2C2323;" d="M866.721,482.442c-0.404,23.656-35.591,23.652-35.992-0.001
				C831.133,458.786,866.321,458.79,866.721,482.442z"/>
		</g>
		<g style="opacity:0.25;">
			<path style="fill:#FFFFFF;" d="M913.147,233.061c2.845,7.001,0.661,15.053-5.327,19.671
				c-18.525,14.32-37.697,32.733-51.25,52.017c-24.832,35.355-28.618,69.876-43.35,67.771c-14.733-2.105-19.789-24.845,5.043-70.299
				C826.084,285.485,892.719,192.257,913.147,233.061z"/>
		</g>
		<g style="opacity:0.25;">
			<path style="fill:#FFFFFF;" d="M949.186,227.288c-8.108,3.44-16.79-1.58-19.003-9.833c-2.849-7.148,0.757-15.223,7.969-17.906
				c10.418-3.87,36.067-13.48,38.394,2.271C976.969,213.39,973.183,217.599,949.186,227.288z"/>
		</g>
		<g style="opacity:0.3;">
			<path d="M1156.111,241.36c0.81,0.797,1.619,1.594,2.416,2.403c-0.797-0.809-1.619-1.619-2.453-2.416
				C1156.074,241.348,1156.086,241.348,1156.111,241.36z"/>
		</g>
		<g style="opacity:0.3;">
			<path d="M1222.625,398.784c6.088,181.806-226.04,287.74-359.879,168.806c68.021,16.912,141.072,17.31,191.259-15.318
				c100.125-65.081,192.804-219.454,104.521-308.508C1198.141,283.478,1222.625,338.273,1222.625,398.784z"/>
		</g>
	</g>
	<g>
		<g>
			<path style="fill:#2C2323;" d="M404.442,1809.528c-304.875-5.467-304.828-458.546,0.01-463.968
				C709.317,1351.027,709.268,1804.106,404.442,1809.528z M404.442,1370.467c-272.144,4.88-272.099,409.314,0.009,414.154
				C676.583,1779.741,676.541,1375.308,404.442,1370.467z"/>
		</g>
		<g>
			<path style="fill:#49ABAE;" d="M623.97,1577.543c-7.228,289.2-431.515,289.864-439.057-0.006
				C192.271,1288.004,616.641,1288.052,623.97,1577.543z"/>
		</g>
		<g style="opacity:0.25;">
			<path style="fill:#FFFFFF;" d="M314.492,1411.821c2.846,7.001,0.661,15.053-5.327,19.671
				c-18.525,14.32-37.697,32.734-51.25,52.016c-24.832,35.355-28.618,69.876-43.35,67.771c-14.732-2.105-19.789-24.844,5.044-70.299
				C227.43,1464.244,294.064,1371.017,314.492,1411.821z"/>
		</g>
		<g style="opacity:0.25;">
			<path style="fill:#FFFFFF;" d="M350.531,1406.047c-8.108,3.44-16.79-1.58-19.003-9.833c-2.849-7.148,0.757-15.223,7.969-17.906
				c10.418-3.87,36.067-13.48,38.394,2.271C378.315,1392.15,374.529,1396.359,350.531,1406.047z"/>
		</g>
		<g style="opacity:0.3;">
			<path d="M557.457,1420.12c0.81,0.797,1.619,1.594,2.416,2.404c-0.797-0.81-1.619-1.619-2.453-2.416
				C557.419,1420.107,557.432,1420.107,557.457,1420.12z"/>
		</g>
		<g style="opacity:0.3;">
			<path d="M623.97,1577.543c6.088,181.806-226.04,287.74-359.878,168.806c68.02,16.912,141.072,17.31,191.259-15.318
				c100.126-65.081,192.804-219.454,104.521-308.508C599.487,1462.237,623.97,1517.032,623.97,1577.543z"/>
		</g>
	</g>
	<g>
		<g>
			<path style="fill:#49ABAE;" d="M1535.826,1194.022c-103.495-25.476-175.188-126.169-164.808-232.617
				c18.605-14.234,37.46-23.313,55.903-28.618C1411.99,1019.113,1450.732,1137.208,1535.826,1194.022z"/>
		</g>
		<g>
			<path style="fill:#2C2323;" d="M1535.827,1200.249c-98.677-22.403-173.429-117.667-171.92-219.094
				c0.98-7.918-1.818-18.211,3.324-24.696c14.608-10.412,47.955-32.774,63.759-28.387
				c-7.038,100.293,22.813,202.158,108.503,260.912C1544.335,1192.229,1541.656,1200.495,1535.827,1200.249z M1376.991,964.701
				c-8.103,89.132,46.339,178.14,128.504,212.449c-64.276-59.046-94.693-146.61-85.893-235.465
				C1404.752,946.994,1390.464,954.708,1376.991,964.701z"/>
		</g>
		<g>
			<path style="fill:#49ABAE;" d="M1647.62,1192.951c-35.281,9.867-76.241,10.282-111.794,1.071
				c-85.091-56.8-123.84-174.926-108.905-261.235c31.258-9.004,61.308-7.173,86.887-1.208
				C1501.715,999.169,1561.463,1138.256,1647.62,1192.951z"/>
		</g>
		<g>
			<path style="fill:#2C2323;" d="M1589.674,1206.911c-19.378-0.365-39.286-1.782-57.51-7.853
				c-81.986-58.893-134.523-172.839-106.973-272.256c10.99-5.729,93.047-12.749,94.816,5.383
				c-5.222,53.208,16.799,137.867,77.764,207.059C1640.339,1191.111,1702.099,1200.083,1589.674,1206.911z M1538.516,1188.275
				c30.731,7.62,63.819,8.196,94.851,1.701c-80.14-56.815-134.699-184.701-126.2-253.478c-25.955-5.316-51.008-4.913-74.596,1.198
				C1420.912,1035.659,1459.593,1131.464,1538.516,1188.275z"/>
		</g>
		<g>
			<path style="fill:#49ABAE;" d="M1747.135,1134.121c-26.937,27.721-61.134,48.357-99.515,58.83
				c-86.168-54.708-145.898-193.775-133.812-261.372c44.757,10.436,75.866,33.549,75.866,33.549
				c7.946,42.114,35.015,88.502,70.324,120.997h0.012C1684.816,1108.709,1712.449,1125.031,1747.135,1134.121z"/>
		</g>
		<g>
			<path style="fill:#2C2323;" d="M1647.62,1199.178c-89.567-51.218-151.931-196.464-140.005-268.208
				c0.28-3.632,4.061-6.373,7.608-5.455c49.779,13.452,76.533,30.907,80.586,38.529c7.494,41.393,36.311,88.318,68.184,117.295
				c24.028,22.253,53.387,38.799,84.611,46.734c1.886,0.461,3.484,1.787,4.261,3.625
				C1744.987,1159.587,1676.061,1193.069,1647.62,1199.178z M1519.473,939.431c-7.79,68.607,49.816,194.232,129.385,246.706
				c32.139-9.262,61.725-26.074,86.275-48.972c-74.088-22.692-134.705-93.852-151.112-168.397
				C1577.151,964.089,1552.62,948.444,1519.473,939.431z"/>
		</g>
		<g>
			<path style="fill:#FFC063;" d="M1809.203,981.156c0,59.477-23.649,113.426-62.068,152.965
				c-34.687-9.091-62.317-25.411-87.124-47.995c60.297-18.31,116.599-87.867,145.231-146.714
				C1807.845,952.924,1809.203,966.884,1809.203,981.156z"/>
		</g>
		<g>
			<path style="fill:#2C2323;" d="M1747.135,1140.348c-33.807-7.725-65.43-25.9-91.338-49.638c-3.519-3.057-2.119-9.313,2.397-10.54
				c34.682-10.584,71.805-40.283,104.532-83.625c14.185-18.773,26.952-39.474,36.922-59.867c2.355-5.264,10.814-4.206,11.709,1.557
				C1824.742,1009.606,1803.618,1093.338,1747.135,1140.348z M1747.135,1134.121h0.012H1747.135z M1672.12,1088.456
				c21.482,17.984,46.608,31.41,73.058,38.7c42.356-44.782,63.07-106.474,56.69-167.878
				C1773.798,1011.783,1719.002,1071.437,1672.12,1088.456z"/>
		</g>
		<g>
			<path style="fill:#FFC063;" d="M1805.243,939.412c-28.632,58.842-84.942,128.423-145.244,146.714
				c-21.42-19.714-37.896-42.528-49.652-64.534c66.974-24.047,130.973-82.08,168.482-151.907
				C1791.357,890.894,1800.423,914.393,1805.243,939.412z"/>
		</g>
		<g>
			<path style="fill:#2C2323;" d="M1660.011,1092.352c-15.634-7.411-53.437-55.182-55.478-72.997
				c64.322-28.329,131.739-80.164,168.809-152.62c2.084-4.186,8.591-4.356,10.848-0.216c12.646,23.209,25.502,49.186,26.65,75.628
				C1782.089,1003.48,1716.902,1078.784,1660.011,1092.352z M1619.282,1024.879c11.538,20.142,26.028,38.716,42.299,54.199
				c50.671-15.194,110.627-84.372,137.144-140.527c-3.972-19.591-10.652-38.403-19.91-56.09
				C1741.343,946.87,1681.496,1000.348,1619.282,1024.879z"/>
		</g>
		<g>
			<path style="fill:#FFC063;" d="M1778.829,869.685c-37.51,69.826-101.508,127.859-168.482,151.907
				c-11.009-20.623-17.858-40.536-20.673-56.464c47.423-16.889,122.597-90.579,138.557-154.248
				C1748.368,827.282,1765.554,847.195,1778.829,869.685z"/>
		</g>
		<g>
			<path style="fill:#2C2323;" d="M1610.348,1027.82c-12.559-3.358-25.05-52.588-26.808-61.607
				c-0.45-10.532,20.964-10.395,51.47-35.74c41.025-31.504,71.313-72.864,87.306-121.536c8.827-19.873,56.874,48.078,61.876,57.581
				C1755.693,941.198,1677.548,1003.96,1610.348,1027.82z M1596.743,968.796c3.03,13.931,8.8,29.598,16.591,45.037
				c62.222-24.053,122.25-78.599,158.322-143.994c-11.064-18.066-24.666-34.281-40.533-48.333
				C1711.72,881.508,1650.654,944.915,1596.743,968.796z"/>
		</g>
		<g>
			<path style="fill:#F7F7F7;" d="M1638.803,935.414c-27.198,20.872-49.129,29.714-49.129,29.714
				c-47.39-36.636-151.906-60.829-218.657-3.724c3.101-34.857,14.359-67.373,31.856-95.63
				C1492.214,846.659,1603.149,878.017,1638.803,935.414z"/>
		</g>
		<g>
			<path style="fill:#2C2323;" d="M1589.675,971.355c-29.182-19.621-104.07-52.773-161.032-32.58
				c-18.92,5.438-37.036,14.717-53.843,27.576c-4.035,3.322-10.648-0.274-9.986-5.497c4.363-34.769,13.296-74.88,36.752-101.168
				c43.859-9.383,95.302-7.109,141.144,6.239c47.437,13.812,83.441,37.324,101.381,66.206c1.689,2.719,1.041,6.277-1.498,8.225
				C1612.353,962.821,1594.511,970.421,1589.675,971.355z M1471.594,920.334c34.981-3.835,106.966,26.057,118.779,37.679
				c6.271-2.896,21.632-10.584,39.974-24.037c-41.952-57.547-153.492-78.078-223.565-62.652
				c-14.132,23.487-23.647,49.779-27.877,76.873C1407.03,929.818,1438.224,920.328,1471.594,920.334z"/>
		</g>
		<g>
			<path style="fill:#F7F7F7;" d="M1700.535,868.901c-19.041,29.465-41.806,51.221-61.732,66.514
				c-35.654-57.398-146.589-88.755-235.929-69.639c20.834-33.674,50.548-61.296,85.854-79.615
				C1566.835,792.275,1666.138,822.798,1700.535,868.901z"/>
		</g>
		<g>
			<path style="fill:#2C2323;" d="M1638.803,941.641c-2.133,0.006-4.172-1.125-5.289-2.941
				c-16.081-25.887-50.446-48.055-94.283-60.82c-43.924-12.788-93.149-14.982-135.055-6.016
				c-33.936-3.59,70.124-93.858,85.038-91.909c79.262,8.406,193.905,35.786,216.557,92.32
				C1688.051,897.93,1666.684,925.326,1638.803,941.641z M1457.945,853.982c62.518-1.363,149.817,25.091,182.282,72.39
				c20.647-16.649,38.317-35.832,52.634-57.143c-35.056-41.975-129.154-70.611-202.838-76.718
				c-29.312,15.519-54.586,37.638-73.842,64.519C1429.672,854.994,1443.712,853.982,1457.945,853.982z"/>
		</g>
		<g>
			<path style="fill:#F7F7F7;" d="M1728.231,810.88c-7.223,21.993-16.849,41.258-27.696,58.02
				c-34.396-46.102-133.7-76.626-211.807-82.74C1562.025,745.792,1665.842,757.095,1728.231,810.88z"/>
		</g>
		<g>
			<path style="fill:#2C2323;" d="M1700.535,875.128c-38.311-43.28-131.452-77.737-212.296-82.756
				c-6.027-0.27-7.907-9.12-2.379-11.738c77.676-41.222,178.667-30.837,246.305,25.422
				C1741.675,808.661,1707.902,877.458,1700.535,875.128z M1512.144,782.355c71.641,9.336,151.922,36.463,187.675,75.911
				c8.535-14.27,15.615-29.439,21.115-45.243C1663.207,767.164,1580.526,754.984,1512.144,782.355z"/>
		</g>
		<g style="opacity:0.3;">
			<path d="M1809.203,981.156c-1.259,222.608-293.921,301.397-407.749,113.052c62.994,40.823,148.895,71.187,220.052,39.914
				c91.409-42.431,206.737-160.391,157.324-264.436C1798.491,902.768,1809.32,941.95,1809.203,981.156z"/>
		</g>
	</g>
	<g>
		<g>
			<path style="fill:#2C2323;" d="M1589.669,630.767c-304.877-5.467-304.829-458.546,0.01-463.968
				C1894.544,172.266,1894.496,625.344,1589.669,630.767z M1589.669,191.705c-272.144,4.88-272.101,409.314,0.009,414.154
				C1861.811,600.979,1861.768,196.546,1589.669,191.705z"/>
		</g>
		<g>
			<path style="fill:#F7F7F7;" d="M1809.194,398.786c-7.149,288.932-431.314,290.174-439.057-0.006
				C1377.698,108.639,1802.321,110.003,1809.194,398.786z"/>
		</g>
		<g>
			<path style="fill:#2C2323;" d="M1589.665,335.971c-102.155,4.43-176.1-133.283-135.594-107.741
				c65.601,133.849,211.046,119.712,276.873-3.703c4.42-0.088,7.567,4.776,5.694,8.77
				C1712.023,290.124,1651.627,336.818,1589.665,335.971z"/>
		</g>
		<g>
			<path style="fill:#2C2323;" d="M1589.669,350.706c-3.439,0-6.227-2.788-6.227-6.227v-29.467c0-3.439,2.787-6.227,6.227-6.227
				c3.439,0,6.227,2.788,6.227,6.227v29.467C1595.896,347.918,1593.108,350.706,1589.669,350.706z"/>
		</g>
		<g>
			<path style="fill:#2C2323;" d="M1505.146,325.151c-4.963,0.148-8.135-6.106-4.94-10.012c0,0,17.91-23.399,17.91-23.399
				c4.81-6.478,14.898,1.219,9.889,7.57C1524.933,301.894,1510.137,326.479,1505.146,325.151z"/>
		</g>
		<g>
			<path style="fill:#2C2323;" d="M1453.277,274.725c-5.837,0.221-8.586-8.084-3.574-11.33c0,0,24.146-16.889,24.146-16.889
				c6.546-4.72,13.832,5.666,7.138,10.205C1478.876,257.693,1455.388,275.951,1453.277,274.725z"/>
		</g>
		<g>
			<path style="fill:#2C2323;" d="M1674.191,325.151c-4.902,1.416-19.879-23.358-22.862-25.841
				c-4.997-6.336,5.071-14.064,9.891-7.569c0-0.001,17.911,23.398,17.911,23.398C1682.322,319.039,1679.16,325.305,1674.191,325.151
				z"/>
		</g>
		<g>
			<path style="fill:#2C2323;" d="M1726.06,274.725c-2.008,1.287-25.701-17.104-27.711-18.014c-6.68-4.53,0.582-14.936,7.14-10.205
				c0,0,24.146,16.889,24.146,16.889C1734.639,266.637,1731.904,274.952,1726.06,274.725z"/>
		</g>
		<g>
			<path style="fill:#2C2323;" d="M1448.377,573.036c-24.869-4.73,41.525-76.584,52.997-81.332
				c80.98-64.077,197.665-17.532,235.275,72.577c1.398,3.138-0.015,6.818-3.158,8.216c-3.141,1.399-6.823-0.016-8.22-3.158
				C1659.682,435.478,1514.199,449.613,1448.377,573.036z"/>
		</g>
		<g>
			<path style="fill:#2C2323;" d="M1589.669,488.78c-3.439,0-6.227-2.788-6.227-6.227v-29.467c0-3.439,2.787-6.227,6.227-6.227
				c3.439,0,6.227,2.788,6.227,6.227v29.467C1595.896,485.992,1593.108,488.78,1589.669,488.78z"/>
		</g>
		<g>
			<path style="fill:#2C2323;" d="M1523.066,508.268c-4.902,1.416-19.878-23.358-22.861-25.841
				c-4.996-6.337,5.071-14.063,9.891-7.569c0,0,17.91,23.398,17.91,23.398C1531.197,502.157,1528.034,508.422,1523.066,508.268z"/>
		</g>
		<g>
			<path style="fill:#2C2323;" d="M1477.414,552.184c-2.008,1.287-25.701-17.104-27.712-18.014c-6.68-4.53,0.582-14.935,7.14-10.205
				c0,0,24.146,16.889,24.146,16.889C1485.993,544.096,1483.258,552.41,1477.414,552.184z"/>
		</g>
		<g>
			<path style="fill:#2C2323;" d="M1656.27,508.268c-4.964,0.148-8.135-6.107-4.94-10.012c0,0,17.911-23.399,17.911-23.399
				c4.813-6.479,14.898,1.22,9.889,7.57C1676.059,485.012,1661.261,509.596,1656.27,508.268z"/>
		</g>
		<g>
			<path style="fill:#2C2323;" d="M1701.923,552.184c-5.837,0.221-8.586-8.084-3.574-11.33c0,0,24.146-16.889,24.146-16.889
				c6.547-4.72,13.832,5.667,7.138,10.205C1727.522,535.151,1704.034,553.409,1701.923,552.184z"/>
		</g>
		<g style="opacity:0.3;">
			<path d="M1809.194,398.786c5.401,173.411-207.633,282.138-345.084,180.101c175.115,30.722,371.917-155.867,304.585-307.188
				C1794.2,307.565,1809.194,351.426,1809.194,398.786z"/>
		</g>
	</g>
	<g>
		<g>
			<path style="fill:#2C2323;" d="M404.441,630.768C139.16,627.065,84.378,257.77,336.795,176.821
				c43.516-13.341,91.776-13.341,135.296,0.001C724.537,257.801,669.688,627.09,404.441,630.768z M404.441,191.711
				c-232.732,2.84-286.224,325.077-66.991,403.076c42.836,14.75,91.148,14.75,133.988-0.001
				C690.703,516.739,637.131,194.522,404.441,191.711z"/>
		</g>
		<g>
			<path style="fill:#F7F7F7;" d="M623.97,398.786c-0.365,212.65-274.762,299.645-397.887,127.98
				C61.524,275.43,421.096,34.708,590.819,282.721c0,0,0,0.012,0.012,0.012C611.828,316.395,623.97,356.183,623.97,398.786z"/>
		</g>
		<g>
			<path style="fill:#2C2323;" d="M404.443,588.901c-249.85-4.48-249.81-375.784,0.008-380.227
				C654.292,213.153,654.253,584.457,404.443,588.901z M404.443,216.145c-240.03,4.304-239.992,361.014,0.008,365.283
				C644.472,577.124,644.435,220.415,404.443,216.145z"/>
		</g>
		<g>
			<polygon style="fill:#2C2323;" points="404.443,457.405 434.909,457.405 465.375,385 404.443,313.016 343.511,385 
				373.977,457.405 			"/>
		</g>
		<g>
			<path style="fill:#2C2323;" d="M404.443,329.171c-2.063,0-3.736-1.673-3.736-3.736V210.091c0-2.063,1.673-3.736,3.736-3.736
				s3.736,1.673,3.736,3.736v115.343C408.179,327.498,406.506,329.171,404.443,329.171z"/>
		</g>
		<g>
			<path style="fill:#2C2323;" d="M468.464,188.735v34.957l-64.023,18.182l-64.023-18.182v-34.957
				C380.558,176.169,428.325,176.169,468.464,188.735z"/>
		</g>
		<g>
			<path style="fill:#2C2323;" d="M253.755,289.022l-0.162,66.551l-35.106,56.539l-33.537-9.614
				c-0.825-45.009,12.3-87.88,35.243-123.102L253.755,289.022z"/>
		</g>
		<g>
			<path style="fill:#2C2323;" d="M353.881,578.227l-20.461,28.344c-41.657-14.234-77.672-40.635-103.787-74.982l20.424-28.294
				l62.553,22.728L353.881,578.227z"/>
		</g>
		<g>
			<path style="fill:#2C2323;" d="M312.608,529.756c-3.093,0.093-4.975-3.939-2.784-6.227c0,0,67.38-75.336,67.38-75.336
				c3.158-3.636,8.87,1.398,5.57,4.982c0,0-67.379,75.336-67.379,75.336C314.656,529.336,313.634,529.756,312.608,529.756z"/>
		</g>
		<g>
			<path style="fill:#2C2323;" d="M352.108,391.551c-1.489,0.1-98.264-32.18-99.673-32.431c-1.959-0.641-3.029-2.751-2.387-4.712
				c0.643-1.96,2.75-3.031,4.713-2.388l98.509,32.244C357.246,385.435,356.213,391.69,352.108,391.551z"/>
		</g>
		<g>
			<path style="fill:#2C2323;" d="M623.97,398.786c0,1.245-0.013,2.478-0.037,3.711l-33.537,9.614l-35.106-56.539l-0.162-66.551
				l33.574-9.626C611.006,313.754,623.97,354.764,623.97,398.786z"/>
		</g>
		<g>
			<path style="fill:#2C2323;" d="M579.25,531.589c-26.115,34.346-62.13,60.748-103.787,74.982l-20.461-28.344l41.27-52.204
				l62.553-22.728L579.25,531.589z"/>
		</g>
		<g>
			<path style="fill:#2C2323;" d="M496.278,529.756c-1.026,0-2.048-0.42-2.786-1.245l-65.864-73.642
				c-1.376-1.538-1.243-3.9,0.294-5.276c3.305-8.705,68.739,74.151,71.141,73.934C501.238,525.802,499.386,529.866,496.278,529.756z
				"/>
		</g>
		<g>
			<path style="fill:#2C2323;" d="M456.778,391.551c-4.068,0.128-5.173-6.105-1.161-7.288c0,0,98.508-32.244,98.508-32.244
				c1.957-0.645,4.07,0.427,4.713,2.388c0.642,1.961-0.427,4.071-2.388,4.713C554.889,359.426,458.368,391.606,456.778,391.551z"/>
		</g>
		<g style="opacity:0.3;">
			<path d="M623.97,398.786C623.597,611.484,349.185,698.4,226.084,526.77c60.984,25.106,128.619,38.655,184.783,28.17
				c117.871-22.03,239.093-170.773,179.964-272.206C611.828,316.395,623.97,356.183,623.97,398.786z"/>
		</g>
	</g>
	<g>
		<g>
			<path style="fill:#2C2323;" d="M1003.422,1809.59c-238.023,0.238-320.791-321.143-111.861-435.503
				C1242.579,1211.044,1389.082,1783.434,1003.422,1809.59z M1002.747,1370.455c-236.895,2.147-285.099,337.419-57.632,405.838
				C1250.322,1849.628,1314.045,1383.688,1002.747,1370.455z"/>
		</g>
		<g>
			<path style="fill:#FFC063;" d="M1108.645,1769.99c-261.722,130.989-459.839-238.207-211.09-384.986
				C1154.098,1252.173,1359.399,1623.966,1108.645,1769.99z"/>
		</g>
		<g>
			<path style="fill:#FFFFFF;" d="M1156.248,1602.99c-24.609,88.302-205.635,180.402-266.176,74.782
				c-30.162-61.246-24.908-152.638-81.189-202.654c1.947-3.723,4.023-7.393,6.195-11.01
				c80.921,61.625,42.506,217.118,130.713,244.297c32.093,9.531,74.816,1.656,117.24-21.595
				c42.414-23.261,72.03-55.06,81.243-87.245c24.528-88.944-127.559-140.628-135.682-241.566c4.216,0.107,8.421,0.342,12.604,0.695
				C1032.613,1456.941,1182.243,1502.067,1156.248,1602.99z"/>
		</g>
		<g style="opacity:0.3;">
			<path d="M1108.645,1769.993c-92.13,50.523-204.647,28.02-270.936-48.083c85.518,24.807,177.1,19.39,234.56-12.055
				c101.607-55.605,150.873-191.558,118.332-246.503C1255.708,1569.688,1218.161,1710.334,1108.645,1769.993z"/>
		</g>
	</g>
	<g>
		<g>
			<path style="fill:#2C2323;" d="M1589.662,1809.528c-242.719,0.98-320.261-334.26-102.479-440.164
				C1837.212,1223.295,1968.343,1785.958,1589.662,1809.528z M1589.662,1370.458c-111.25-2.358-209.287,95.926-207.073,207.089
				c-0.002,114.18,92.892,207.074,207.073,207.074C1861.811,1779.726,1861.786,1375.315,1589.662,1370.458z"/>
		</g>
		<g>
			<path style="fill:#E03C57;" d="M1809.203,1577.546c-7.295,289.277-431.555,289.783-439.069-0.006
				c-1.012-205.757,262.728-296.641,389.268-139.235c0,0,0,0,0.012,0C1790.604,1476.403,1809.184,1524.651,1809.203,1577.546z"/>
		</g>
		<g>
			<path style="fill:#F7F7F7;" d="M1519.686,1486.823c-60.516,58.386-140.162,21.203-94.782-54.362
				C1514.881,1325.029,1605.122,1397.838,1519.686,1486.823z"/>
		</g>
		<g>
			<path style="fill:#2C2323;" d="M1464.308,1491.47c-7.043,0-13.822-3.217-19.218-9.373c-19.819-24.04,7.974-53.255,34.625-58.362
				c-0.132-13.672,10.897-27.448,26.86-25.941c9.458,0.514,17.199,5.71,20.207,13.563c5.524,18.848-13.099,32.808-31.317,40.149
				C1497.209,1470.462,1483.432,1491.009,1464.308,1491.47z M1480.89,1436.24c-16.94,4.179-38.431,21.358-26.439,37.646
				c4.419,5.038,9.409,6.389,14.828,4.025C1484.768,1470.934,1484.375,1451.661,1480.89,1436.24z M1492.392,1428.368
				c0.3,2.872,0.97,6.974,1.463,10.368C1544.562,1414.68,1488.972,1393.415,1492.392,1428.368z"/>
		</g>
		<g style="opacity:0.35;">
			<path style="fill:#FFFFFF;" d="M1457.166,1441.92L1457.166,1441.92c5.731,5.017,6.635,13.577,2.113,19.707
				c-14.858,20.14-32.389,48.885-38.71,72.668c-8.842,33.263-7.584,50.1-21.47,50.1c-13.898,0-16.426-11.37-8.418-48.83
				C1390.463,1527.812,1429.116,1418.241,1457.166,1441.92z"/>
		</g>
		<g style="opacity:0.35;">
			<path style="fill:#FFFFFF;" d="M1468.236,1427.894L1468.236,1427.894c-14.092-14.465,17.67-39.291,27.215-21.62
				C1500.293,1415.942,1482.076,1442.543,1468.236,1427.894z"/>
		</g>
		<g style="opacity:0.3;">
			<path d="M1759.85,1438.852c-0.137-0.187-0.299-0.374-0.448-0.548c0,0,0,0,0.012,0
				C1759.564,1438.491,1759.713,1438.666,1759.85,1438.852z"/>
		</g>
		<g style="opacity:0.3;">
			<path d="M1809.203,1577.546c6.244,183.975-230.842,289.027-363.502,165.73c73.077,9.539,155.269,1.009,203.862-33.437
				c85.505-60.598,157.087-209.591,111.844-269.043C1791.332,1478.317,1809.203,1525.839,1809.203,1577.546z"/>
		</g>
	</g>
	<g>
		<g>
			<path style="fill:#2C2323;" d="M878.16,1213.125c-50.965,3.02-59.874-31.91-62.303-80.181
				c-2.399-132.222,95.025-280.035,233.493-322.663c36.117-11.81,86.419-20.941,120.993,2.609l-0.001-0.001
				c34.347,40.062,20.806,118.041,0.065,181.046C1132.245,1109.584,994.584,1212.946,878.16,1213.125z M1115.946,823.149
				c-155.74,11.039-274.372,159.752-275.216,308.568c1.168,32.474,8.886,49.295,11.565,51.748
				c86.291,33.653,269.062-92.514,294.7-198.067c20.571-58.834,25.613-116.557,9.089-152.089
				C1145.998,826.536,1132.362,823.149,1115.946,823.149z M1156.322,833.474h0.012H1156.322z M1155.982,833.21L1155.982,833.21
				L1155.982,833.21z"/>
		</g>
		<g>
			<path style="fill:#E03C57;" d="M1170.776,948.544c-18.22,90.543-86.589,171.869-159.716,212.205
				c-55.602,32.821-143.535,51.79-167.023,32.03c-17.271-8.456-24.64-112.071,4.848-171.122
				c48.01-100.846,83.133-135.259,146.841-174.736c48.646-26.096,124.921-52.633,167.602-23.745
				C1180.478,843.577,1182.739,885.984,1170.776,948.544z"/>
		</g>
		<g>
			<path style="fill:#F7F7F7;" d="M1011.061,1160.75c-8.01,4.562-16.02,8.679-24.11,12.379
				c-57.385-20.66-117.685-74.546-146.327-128.93c2.552-8.102,5.633-16.481,9.141-24.608
				C873.476,1080.052,948.271,1146.951,1011.061,1160.75z"/>
		</g>
		<g>
			<path style="fill:#F7F7F7;" d="M1170.776,948.544c-1.706,7.634-3.761,15.467-6.189,23.462
				c-45.492-66.539-110.2-114.459-168.856-125.082c7.933-4.272,16.7-8.593,25.978-12.678
				C1074.524,851.108,1129.182,892.827,1170.776,948.544z"/>
		</g>
		<g>
			<path style="fill:#2C2323;" d="M936.851,1051.675c-1.924,1.623-33.932-23.957-35.877-24.776
				c-2.774-2.031-3.377-5.928-1.346-8.702c2.032-2.775,5.927-3.38,8.703-1.346l32.203,23.574
				C945.411,1043.733,942.631,1051.898,936.851,1051.675z"/>
		</g>
		<g>
			<path style="fill:#2C2323;" d="M958.478,1023.671c-1.924,1.623-33.932-23.956-35.877-24.776
				c-2.774-2.032-3.377-5.928-1.346-8.703c2.032-2.775,5.926-3.377,8.703-1.346l32.203,23.574
				C967.038,1015.73,964.257,1023.895,958.478,1023.671z"/>
		</g>
		<g>
			<path style="fill:#2C2323;" d="M980.263,995.668c-1.924,1.623-33.933-23.957-35.877-24.776c-2.774-2.032-3.377-5.928-1.346-8.703
				c2.032-2.773,5.926-3.377,8.703-1.346l32.204,23.574C988.822,987.726,986.043,995.891,980.263,995.668z"/>
		</g>
		<g>
			<path style="fill:#2C2323;" d="M1005.204,965.431c-1.922,1.623-33.934-23.958-35.877-24.776
				c-2.774-2.032-3.377-5.928-1.346-8.703c2.032-2.774,5.926-3.378,8.703-1.346l32.203,23.574
				C1013.764,957.488,1010.985,965.654,1005.204,965.431z"/>
		</g>
		<g>
			<path style="fill:#2C2323;" d="M1030.305,940.805c-1.921,1.623-33.934-23.957-35.877-24.776
				c-2.774-2.032-3.377-5.928-1.346-8.703c2.032-2.774,5.929-3.378,8.702-1.346l32.204,23.574
				C1038.864,932.862,1036.085,941.028,1030.305,940.805z"/>
		</g>
		<g>
			<path style="fill:#2C2323;" d="M853.297,1203.802c-3.794,0.01-6.839-3.501-6.145-7.276
				c20.822-135.789,172.126-330.326,312.715-380.425c3.871-1.191,8.085,1.85,8.001,5.967
				c-129.806,57.764-284.134,225.847-308.434,376.562C858.909,1201.656,856.275,1203.802,853.297,1203.802z"/>
		</g>
		<g style="opacity:0.3;">
			<path d="M1170.776,948.544c-21.616,138.607-200.701,277.617-321.21,247.623c119.313-21.098,344.615-273.36,318.271-367.637
				C1177.339,844.894,1183.678,890.997,1170.776,948.544z"/>
		</g>
	</g>
	<g>
		<g>
			<path style="fill:#2C2323;" d="M404.441,1213.138c-304.875-5.467-304.828-458.546,0.01-463.968
				C709.318,754.637,709.268,1207.716,404.441,1213.138z M404.441,774.077c-272.143,4.88-272.099,409.314,0.009,414.154
				C676.583,1183.351,676.542,778.917,404.441,774.077z"/>
		</g>
		<g>
			<path style="fill:#E03C57;" d="M623.972,981.153c-7.116,288.836-431.237,290.297-439.057-0.006
				C192.376,691.265,616.923,692.075,623.972,981.153z"/>
		</g>
		<g>
			<path style="fill:#2C2323;" d="M537.009,1162.376c-2.594,0-5.015-1.633-5.895-4.225c-16.233-47.79-41.405-93.886-74.818-137.008
				c-55.458-72.385-143.518-142.655-227.102-168.678c-7.648-2.2-4.059-14.46,3.696-11.892
				c136.786,45.242,263.762,176.192,310.016,313.571C544.321,1158.079,541.184,1162.45,537.009,1162.376z"/>
		</g>
		<g>
			<path style="fill:#2C2323;" d="M195.636,1055.351c-6.818,0.159-8.62-10.238-1.853-12.172
				c107.867-28.53,192.166-170.36,180.455-279.604c-1.004-7.926,11.702-9.405,12.388-1.29
				C398.904,877.683,310.297,1026.728,195.636,1055.351z"/>
		</g>
		<g>
			<path style="fill:#2C2323;" d="M282.337,1169.848c-4.218,0.04-7.429-4.429-5.827-8.42
				c42.1-116.108,165.879-282.979,271.119-348.984c6.653-4.348,13.643,6.16,6.709,10.49
				C445.36,887.393,332.654,1060.762,282.337,1169.848z"/>
		</g>
		<g>
			<path style="fill:#2C2323;" d="M389.395,1206.397c-3.589,0.009-6.492-3.075-6.218-6.668
				c6.666-134.304,102.689-258.764,233.488-277.666c7.893-1.179,9.84,11.239,1.764,12.327
				c-125.152,18.22-216.412,137.61-222.828,266.223C395.366,1203.892,392.632,1206.397,389.395,1206.397z"/>
		</g>
		<g style="opacity:0.3;">
			<path d="M623.972,981.153c5.044,169.485-198.975,279.088-337.599,185.107c229.367-6.376,350.264-249.342,287.835-324.286
				C605.325,879.82,623.965,928.327,623.972,981.153z"/>
		</g>
		<g style="opacity:0.25;">
			<path style="fill:#FFFFFF;" d="M312.93,819.903c2.845,7.001,0.661,15.053-5.327,19.671c-18.525,14.32-37.697,32.733-51.25,52.017
				c-24.832,35.355-28.618,69.876-43.35,67.771c-14.732-2.105-19.789-24.845,5.044-70.299
				C225.868,872.326,292.502,779.099,312.93,819.903z"/>
		</g>
		<g style="opacity:0.25;">
			<path style="fill:#FFFFFF;" d="M348.969,814.13c-8.108,3.44-16.79-1.579-19.003-9.833c-2.849-7.148,0.757-15.223,7.969-17.906
				c10.418-3.87,36.067-13.48,38.394,2.271C376.753,800.232,372.967,804.441,348.969,814.13z"/>
		</g>
	</g>
</g>
</svg>
