<?xml version="1.0" encoding="utf-8"?>
<!-- Generator: Adobe Illustrator 27.5.0, SVG Export Plug-In . SVG Version: 6.00 Build 0)  -->
<svg version="1.1" id="Layer_1" xmlns="http://www.w3.org/2000/svg" xmlns:xlink="http://www.w3.org/1999/xlink" x="0px" y="0px"
	 viewBox="0 0 4000 4000" style="" xml:space="preserve">
<g>
	<g>
		<g>
			<rect style="fill:transparent;" width="4000" height="4000"/>
		</g>
	</g>
	<g>
		<g>
			<g>
				<g>
					<path style="fill:#FFFFFF;" d="M2588.529,2538.372c-36.448,268.612-563.74-58.019-563.74-58.019l-0.263-2.757v2.757
						c0,0-527.292,326.632-563.785,58.019c-36.448-268.613,110.788-568.685,563.785-604.039v2.188l0.263-2.188
						C2477.785,1969.687,2625.021,2269.759,2588.529,2538.372z"/>
				</g>
			</g>
			<g>
				<g>
					<path style="fill:#FFFFFF;" d="M2588.529,2538.372c-36.448,268.612-563.74-58.019-563.74-58.019l-0.263-2.757v2.757
						c0,0-527.292,326.632-563.785,58.019c-21.527-158.656,21.003-328.294,152.792-447.877
						c91.317-82.872,225.558-141.679,410.992-156.162v2.188l0.263-2.188c185.39,14.483,319.542,73.246,410.86,156.118
						C2567.527,2209.99,2610.101,2379.672,2588.529,2538.372z"/>
				</g>
			</g>
			<g style="opacity:0.2;">
				<g>
					<path style="fill:#000072;" d="M2435.649,2090.451c-108.294,66.814-252.642,107.594-411.123,107.594
						s-302.741-40.736-410.992-107.55c91.317-82.872,225.558-141.679,410.992-156.162v2.188l0.263-2.188
						C2210.179,1948.816,2344.332,2007.579,2435.649,2090.451z"/>
				</g>
			</g>
			<g>
				<g>
					<path style="fill:#000072;" d="M1591.871,2661.62c-28.845,0-55.195-4.512-77.478-15.015
						c-40.134-18.926-64.019-54.546-70.994-105.874c-20.705-152.603,16.856-297.31,105.762-407.471
						c98.801-122.422,257.644-196.67,459.961-215.188l0.3-2.495l15.237,1.189l17.371-1.355v2.832
						c201.462,18.796,359.639,92.971,458.135,215.037c88.894,110.166,126.436,254.868,105.708,407.451
						c-6.965,51.323-30.842,86.948-70.972,105.869c-142.49,67.212-451.96-110.918-510.242-145.85
						C1975.489,2530.224,1747.53,2661.615,1591.871,2661.62z M2034.007,2465.473c3.01,1.865,263.333,161.733,421.831,161.753
						c24.185,0,45.972-3.716,64.141-12.285c29.114-13.735,45.864-39.551,51.206-78.921v-0.005
						c19.419-142.939-15.479-278.159-98.262-380.752c-94.673-117.329-249.668-187.644-448.264-203.384
						c-198.586,15.74-353.577,86.05-448.257,203.364c-82.798,102.593-117.712,237.822-98.316,380.776
						c5.347,39.37,22.104,65.186,51.226,78.921c137.258,64.707,482.527-147.319,485.999-149.468l7.056,11.392l4.724-0.225
						L2034.007,2465.473z"/>
				</g>
			</g>
			<g>
				<g>
					<path style="fill:#D37F40;" d="M3165.047,3306.723H1799.042V2256.537h1367.53c26.229,0,47.491,21.262,47.491,47.491v953.68
						C3214.063,3284.779,3192.118,3306.723,3165.047,3306.723z"/>
				</g>
			</g>
			<g>
				<g>
					<path style="fill:#C47037;" d="M1992.961,2256.545v214.925l125.204,276.051H3213.89v-439.79
						c0-28.269-19.728-51.186-44.063-51.186H1992.961z"/>
				</g>
			</g>
			<g>
				<g>
					<path style="fill:#000072;" d="M3165.047,3322.963H1799.041c-8.967,0-16.238-7.271-16.238-16.24V2256.537
						c0-8.97,7.271-16.24,16.238-16.24h1367.529c35.142,0,63.73,28.589,63.73,63.73v953.682
						C3230.301,3293.691,3201.029,3322.963,3165.047,3322.963z M1815.279,3290.483h1349.768c18.074,0,32.778-14.702,32.778-32.773
						v-953.682c0-17.231-14.021-31.25-31.255-31.25H1815.279V3290.483z"/>
				</g>
			</g>
			<g>
				<g>
					<path style="fill:#FFA757;" d="M1922.779,3306.723H852.768c-30.403,0-55.049-24.646-55.049-55.049v-949.224
						c0-25.358,20.556-45.914,45.914-45.914h1180.881v948.451C2024.515,3261.175,1978.966,3306.723,1922.779,3306.723z"/>
				</g>
			</g>
			<g>
				<g>
					<path style="fill:#FFA757;" d="M2024.527,2256.545v940.778c0,60.413-42.363,109.388-94.62,109.388H848.924
						c-28.276,0-51.198-26.5-51.198-59.189v-941.609c0-27.265,19.118-49.367,42.702-49.367H2024.527z"/>
				</g>
			</g>
			<g>
				<g>
					<path style="fill:#D37F40;" d="M2024.527,2256.545v214.925l-125.806,276.051H797.726v-441.608
						c0-27.265,19.118-49.367,42.702-49.367H2024.527z"/>
				</g>
			</g>
			<g>
				<g>
					<path style="fill:#FFFFFF;" d="M2236.823,930.643c137.013-137.713,304.836-236.196,373.061-196.684
						c76.844,44.503,76.736,424.011,3.099,562.349L2236.823,930.643z"/>
				</g>
				<g>
					<path style="fill:#000072;" d="M2613.658,1300.619l-380.562-369.944l1.87-1.88c126.987-127.637,301.997-240.1,376.233-197.104
						c43.21,25.024,58.958,144.644,59.287,248.245c0.41,129.185-21.252,253.85-55.188,317.603L2613.658,1300.619z M2240.555,930.615
						l371.733,361.362c72.571-141.814,70.635-512.69-3.716-555.75C2546.722,700.395,2385.372,785.715,2240.555,930.615z"/>
				</g>
			</g>
			<g>
				<g>
					<path style="fill:#000072;" d="M2609.852,1316.286l-406.06-394.729l12.7-12.766c134.275-134.956,312.954-246.816,394.6-199.531
						c59.705,34.575,66.646,194.275,66.858,261.333c0.332,104.646-14.458,244.922-56.968,324.783L2609.852,1316.286z
						 M2254.53,921.232l345.166,335.535c26.582-65.391,43.015-173.662,42.659-286.062c-0.442-139.185-25.764-217.124-49.104-230.64
						C2539.454,708.903,2389.649,789.633,2254.53,921.232z"/>
				</g>
			</g>
			<g>
				<g>
					<g>
						<path style="fill:#F27E80;" d="M2597.957,1092.43c-4.693,33.512-10.011,55.45-13.295,55.45
							c-7.547,0-44.501-68.98-98.934-131.898c-16.893-19.552-33.747-37.423-48.802-51.852
							c-24.479-23.423-19.435-58.969,2.776-84.582c35.233-40.668,110.43-83.253,140.345-80.242
							c11.106,1.095,20.295,34.998,24.714,85.56c1.134,13.1,1.955,27.295,2.424,42.311
							C2609.023,986.575,2604.018,1049.142,2597.957,1092.43z"/>
					</g>
				</g>
				<g>
					<g>
						<path style="fill:#FF5C64;" d="M2597.957,1092.43c-4.693,33.512-10.011,55.45-13.295,55.45
							c-7.547,0-44.501-68.98-98.934-131.898c-16.893-19.552-33.747-37.423-48.802-51.852
							c-24.479-23.423-19.435-58.969,2.776-84.582c35.233-40.668,110.43-83.253,140.345-80.242
							c11.106,1.095,20.295,34.998,24.714,85.56c0,0-20.451-31.166-41.255-29.915c-17.167,1.056-69.332,33.16-71.326,63.974
							c-3.089,47.824,31.401,42.311,65.891,143.747C2568.433,1093.173,2583.644,1099.743,2597.957,1092.43z"/>
					</g>
				</g>
				<g>
					<g>
						<path style="fill:#000072;" d="M2621.978,926.738c0.461,36.229-1.418,72.211-5.018,107.992
							c-3.999,36.315-7.474,72.084-16.669,107.731c-2.453,9.526-8.51,20.573-20.763,16.068c-4.696-1.859-8.568-6.714-11.267-9.995
							c-37.185-52.267-72.403-105.79-118.328-150.815c-9.391-9.957-19.845-18.854-29.143-28.851
							c-11.154-13.021-16.939-31.138-15.671-48.018c1.687-32.264,23.942-57.182,47.189-76.97
							c14.358-12.217,29.543-23.014,45.507-32.731c22.521-13.152,48.113-26.662,75.462-29.136c0,0.001,4.94,0.048,4.94,0.048
							c12.244-0.762,22.277,9.344,26.661,19.583C2620.807,841.719,2620.408,884.954,2621.978,926.738L2621.978,926.738z
							 M2592.411,927.642c-0.875-17.444-2.261-34.835-4.421-51.965c-3.351-21.453-5.281-43.577-15.227-61.675
							c0.959,1.287,3.426,2.134,5.386,2.392c0.347,0.027-0.155,0.033-0.19,0.049c-0.852-0.037-1.744,0.18-2.59,0.064
							c0,0-4.617,0.706-4.617,0.706c-34.903,8.621-68.293,30.213-96.746,52.47c-24.846,19.229-54.036,54.625-26.698,83.697
							c33.585,33.534,63.86,70.509,91.045,109.351c17.938,24.428,33.008,51.337,51.524,74.971c-3.006-2.297-8.855-1.73-11.617,0.616
							c-0.527,0.302-1.406,1.286-1.798,1.792c-0.192,0.294-0.203,0.302-0.203,0.302c-0.029,0.07,0.01-0.02,0.05-0.11
							c10.405-34.251,12.508-71.811,15.254-107.572C2593.486,997.646,2594.041,962.477,2592.411,927.642L2592.411,927.642z"/>
					</g>
				</g>
			</g>
			<g>
				<g>
					<path style="fill:#FF9522;" d="M1818.659,921.345c-137.013-137.713-304.836-236.195-373.061-196.684
						c-76.844,44.503-76.736,424.011-3.099,562.35L1818.659,921.345z"/>
				</g>
			</g>
			<g style="opacity:0.5;">
				<g>
					<path style="fill:#FFFFFF;" d="M1818.672,921.335l-20.287,19.689c-133.68-128.939-290.851-218.117-356.325-180.191
						c-26.01,15.077-43.222,68.592-51.721,138.122c6.535-86.743,24.857-156.701,55.266-174.297
						C1513.812,685.152,1681.66,783.64,1818.672,921.335z"/>
				</g>
			</g>
			<g>
				<g>
					<path style="fill:#000072;" d="M1437.918,1316.286l-11.13-20.911c-42.51-79.861-57.3-220.137-56.968-324.783
						c0.212-67.058,7.153-226.755,66.856-261.333c81.68-47.285,260.33,64.573,394.6,199.531l12.7,12.766L1437.918,1316.286z
						 M1483.634,733.381c-11.504,0-21.314,2.166-29.116,6.685c-23.34,13.516-48.66,91.455-49.102,230.64
						c-0.356,112.4,16.079,220.671,42.659,286.062l345.164-335.535C1677.715,808.718,1551.451,733.381,1483.634,733.381z"/>
				</g>
			</g>
			<g>
				<g>
					<path style="fill:#FFFFFF;" d="M1428.315,1181.118c-40.703,80.601-73.213,229.128-87.252,331.461
						c-2.818,26.528-33.892,119.538-23.262,212.587c17.12,149.866,144.059,323.428,574.512,384.281l0,0
						c87.679,12.665,176.723,12.666,264.402,0.002l0.012-0.002c430.452-60.853,557.391-234.415,574.511-384.281
						c10.63-93.049-20.445-186.059-23.262-212.587c-14.039-102.333-46.549-250.86-87.251-331.461l-322.174-307.635
						c-75.995-28.687-166.394-45.513-274.037-45.513h0.022c-107.527,0-197.846,16.789-273.789,45.419"/>
				</g>
			</g>
			<g style="opacity:0.2;">
				<g>
					<path style="fill:#000072;" d="M2727.426,1749.682c-13.105,67.795-50.245,138.831-128.458,201.023
						c-87.661,69.694-227.002,128.319-442.241,158.744c-43.854,6.344-88.031,9.493-132.21,9.493
						c-44.224,0-88.401-3.149-132.209-9.493c-407.139-57.561-542.775-215.98-570.699-359.766
						c59.367,125.17,361.187,295.508,702.909,295.508S2668.105,1874.853,2727.426,1749.682z"/>
				</g>
			</g>
			<g>
				<g>
					<path style="fill:#000072;" d="M1922.779,3323.002H852.769c-39.329,0-71.326-31.997-71.326-71.328V2302.45
						c0-34.292,27.898-62.192,62.19-62.192h1197.158v964.731C2040.792,3270.063,1987.852,3323.002,1922.779,3323.002z
						 M843.633,2272.817c-16.34,0-29.636,13.291-29.636,29.634v949.224c0,21.377,17.393,38.77,38.772,38.77h1070.01
						c47.122,0,85.459-38.335,85.459-85.454v-932.173H843.633z"/>
				</g>
			</g>
			<g>
				<g>
					<path style="fill:#FFA757;" d="M1851.213,2636.806H651.763c-12.421,0-20.389-15.265-14.599-27.969l148.544-325.944
						c7.387-16.209,21.932-26.356,37.779-26.356h1201.027L1851.213,2636.806z"/>
				</g>
			</g>
			<g>
				<g>
					<path style="fill:#FFA757;" d="M2024.527,2256.545l-173.306,380.275H651.766c-12.421,0-20.389-15.266-14.599-27.97
						l148.547-325.95c7.387-16.209,21.932-26.356,37.779-26.356H2024.527z"/>
				</g>
			</g>
			<g>
				<g>
					<path style="fill:#D37F40;" d="M1847.804,2256.545c-37.455,185.872-220.963,198.867-314.249,168.282
						c-88.604-29.097-75.434-121.639-62.351-168.282H1847.804z"/>
				</g>
			</g>
			<g>
				<g>
					<path style="fill:#D37F40;" d="M2024.527,2256.545l-173.306,380.275H651.754c-12.418,0-20.386-15.26-14.602-27.963l0,0
						c2.854-6.267,8.476-10.191,14.602-10.191h1185.122l155.933-342.121H2024.527z"/>
				</g>
			</g>
			<g>
				<g>
					<path style="fill:#000072;" d="M1861.683,2653.085H651.763c-10.757,0-20.818-5.659-26.914-15.137
						c-6.802-10.571-7.759-24.312-2.497-35.859l148.545-325.947c10.088-22.134,30.239-35.884,52.59-35.884h1226.335
						L1861.683,2653.085z M652.357,2620.527H1840.74l158.467-347.71H823.487c-9.436,0-18.235,6.445-22.966,16.826l-148.545,325.942
						C650.997,2617.739,651.79,2619.789,652.357,2620.527z"/>
				</g>
			</g>
			<g>
				<g>
					<path style="fill:#FFFFFF;" d="M1997.01,945.356c0,226.065-183.322,409.387-409.431,409.387
						c-74.2,0-143.823-19.727-203.849-54.294c61.537-209.314,210.202-454.128,596.484-471.5
						C1991.146,865.825,1997.01,904.924,1997.01,945.356z"/>
				</g>
			</g>
			<g>
				<g>
					<path style="fill:#FF9522;" d="M1997.01,945.356c0,226.065-183.322,409.387-409.431,409.387
						c-74.2,0-143.823-19.727-203.849-54.294c61.537-209.314,210.202-454.128,596.484-471.5
						C1991.146,865.825,1997.01,904.924,1997.01,945.356z"/>
				</g>
			</g>
			<g>
				<g>
					<path style="fill:#000072;" d="M2628.535,1177.173c52.975,96.844,76.026,206.744,94.461,314.663
						c1.844,11.95,3.784,26.844,6.855,38.795c16.323,67.748,29.196,138.078,18.897,208.288
						c-24.897,178.444-189.391,283.966-348.307,334.186c-78.492,24.491-159.744,45.451-242.49,45.007
						c-9.873-0.378-12.274-14.146-2.45-17.33c52.287-15.711,104.774-26.145,156.617-39.522
						c51.295-13.42,102.577-30.233,150.793-52.08c116.563-50.655,229.411-143.862,247.825-275.943
						c7.587-51.34,2.278-104.067-7.843-155.246c-3.788-20.466-9.089-39.719-12.407-60.88
						c-7.962-59.791-19.155-119.471-32.353-178.38c-8.807-39.253-18.875-78.132-31.334-116.307
						c-4.274-12.811-9.078-25.341-14.071-37.821C2608.799,1175.057,2622.964,1167.304,2628.535,1177.173L2628.535,1177.173z"/>
				</g>
			</g>
			<g>
				<g>
					<path style="fill:#000072;" d="M1648.574,1215.946c-7.545-15.939,51.738-104.21,118.885-74.535
						c22.731,10.046,25.126,26.959,9.371,44.643C1752.023,1213.899,1653.771,1226.924,1648.574,1215.946z"/>
				</g>
			</g>
			<g>
				<g>
					<path style="fill:#000072;" d="M2400.994,1215.946c7.545-15.939-51.738-104.21-118.885-74.535
						c-22.731,10.046-25.126,26.959-9.371,44.643C2297.546,1213.899,2395.798,1226.924,2400.994,1215.946z"/>
				</g>
			</g>
			<g>
				<g>
					<g>
						<path style="fill:#000072;" d="M2493.297,1632.948c50.218-33.324,113.778-47.822,173.216-37.022
							c3.172,0.56,5.29,3.583,4.73,6.754c-0.531,3.061-3.354,5.08-6.35,4.802c-5.143-0.12-10.868-0.382-16.024-0.648
							c-23.049,0.119-46.248,2.694-68.666,8.213c-27.62,6.629-54.947,16.54-80.896,27.902
							C2492.909,1646.15,2487.408,1637.108,2493.297,1632.948L2493.297,1632.948z"/>
					</g>
				</g>
				<g>
					<g>
						<path style="fill:#000072;" d="M2503.774,1689.733c55.288-21.709,122.305-24.217,174.634,6.624
							c2.772,1.642,3.69,5.218,2.05,7.991c-1.571,2.668-4.92,3.581-7.623,2.262c-38.72-17.263-81.958-18.145-123.463-12.766
							c-14.059,1.794-28.385,4.104-42.125,6.994C2500.426,1702.244,2497.344,1692.462,2503.774,1689.733L2503.774,1689.733z"/>
					</g>
				</g>
				<g>
					<g>
						<path style="fill:#000072;" d="M2501.156,1748.942c43.739-4.655,87.946,2.361,129.065,17.474
							c13.733,5.158,26.87,11.995,39.27,19.831c2.725,1.721,3.538,5.327,1.815,8.052c-1.629,2.588-4.955,3.431-7.604,2.079
							c-37.813-17.942-78.962-26.754-120.371-31.611c-13.913-1.66-28.093-3.106-41.941-4.186
							C2494.456,1760.012,2494.228,1749.78,2501.156,1748.942L2501.156,1748.942z"/>
					</g>
				</g>
			</g>
			<g>
				<g>
					<g>
						<path style="fill:#000072;" d="M1550.261,1642.949c-47.068-20.611-97.728-36.422-149.563-36.115c0,0-5.321,0.257-5.321,0.257
							c-5.764-0.32-16.318,3.265-17.139-5.254c-0.085-2.931,2.011-5.419,4.816-5.911c29.717-5.714,60.729-4.489,90.179,2.233
							c29.591,6.634,57.874,17.458,83.038,34.789C1562.11,1637.111,1556.71,1646.164,1550.261,1642.949L1550.261,1642.949z"/>
					</g>
				</g>
				<g>
					<g>
						<path style="fill:#000072;" d="M1542.025,1700.775c-54.278-10.86-113.275-17.314-165.29,5.834
							c-6.643,3.185-11.915-6.404-5.573-10.252c25.945-15.839,56.728-22.554,86.864-22.81c30.112-0.108,59.806,4.579,87.768,16.185
							C1552.36,1692.586,1548.979,1702.537,1542.025,1700.775L1542.025,1700.775z"/>
					</g>
				</g>
				<g>
					<g>
						<path style="fill:#000072;" d="M1547.925,1760.601c-55.289,4.509-111.741,11.726-162.309,35.891
							c-6.52,2.921-11.591-6.373-5.537-10.246c24.673-15.895,52.748-26.155,81.369-32.089c28.67-5.957,57.698-8.572,86.965-5.216
							c3.207,0.382,5.498,3.291,5.117,6.498C1553.188,1758.354,1550.751,1760.494,1547.925,1760.601L1547.925,1760.601z"/>
					</g>
				</g>
			</g>
			<g>
				<g>
					<path style="fill:#FFFFFF;" d="M2024.522,1672.699v31.322c5.24,13.868,33.758,39.839,71.234,24.848
						c22.709-9.083,38.573-29.432,38.573-29.432L2024.522,1672.699z"/>
				</g>
			</g>
			<g>
				<g>
					<g>
						<path style="fill:#000072;" d="M2024.785,1700.526c-19.093,44.847-73.298,32.859-73.298,32.859s8.113,84.865,73.57,84.865
							c65.457,0,73.026-84.865,73.026-84.865S2043.877,1745.374,2024.785,1700.526z"/>
					</g>
				</g>
				<g>
					<g>
						<path style="fill:#F27E80;" d="M1985.479,1804.984c0,0,10.558-39.678,39.305-39.678c28.747,0,41.554,37.77,41.554,37.77
							S2032.042,1842.855,1985.479,1804.984z"/>
					</g>
				</g>
				<g>
					<g>
						<path style="fill:#000072;" d="M2025.057,1833.979c-63.086,0-85.952-64.822-89.229-99.097l-2.058-21.521l21.111,4.668
							c1.638,0.344,41.772,8.418,55.432-23.662l14.47-33.992l14.47,33.989c13.667,32.085,53.806,24.006,55.503,23.65l20.803-4.395
							l-1.812,21.162C2110.687,1769.094,2088.214,1833.979,2025.057,1833.979z M1970.875,1750.612
							c5.845,20.952,20.224,51.912,54.182,51.912c33.643,0,47.891-31.011,53.672-51.909c-17.659-0.664-38.501-6.142-53.945-21.934
							C2009.351,1744.46,1988.526,1749.943,1970.875,1750.612z"/>
					</g>
				</g>
			</g>
			<g>
				<g>
					<path style="fill:#000072;" d="M2037.639,1639.166c0.001,8.063-0.015,28.2,0.067,35.966
						c2.968,35.334-24.982,70.031-61.175,71.463c-28.539,0.977-55.642-17.412-67.003-43.123c-2.712-6.296,4.98-12.132,10.353-8.07
						c18.705,10.49,34.425,24.32,54.996,23.432c19.274-1.106,36.255-18.399,36.332-37.956c0.346-10.667,0.093-30.821,0.176-41.712
						C2011.795,1621.897,2037.204,1621.826,2037.639,1639.166L2037.639,1639.166z"/>
				</g>
			</g>
			<g>
				<g>
					<path style="fill:#000072;" d="M2037.649,1639.166c-0.008,8.064-0.009,28.2,0.067,35.966
						c-1.164,15.573,6.264,31.022,19.96,38.628c25.614,14.729,49.024-5.458,72.09-18.727c5.367-3.49,12.381,2.73,9.739,8.439
						c-7.532,16.966-20.714,29.524-37.672,37.281c-38.793,18.967-85.624-9.933-90.009-51.915
						c-0.919-7.762-0.343-17.912-0.429-25.695c0,0,0-23.977,0-23.977C2011.838,1621.878,2037.199,1621.833,2037.649,1639.166
						L2037.649,1639.166z"/>
				</g>
			</g>
			<g>
				<g>
					<g>
						<path style="fill:#000072;" d="M2086.336,1617.261c0,17.875-27.113,41.234-61.535,49.839
							c-34.455-8.605-61.568-31.964-61.568-49.839c0-15.484,46.195-19.092,61.568-19.092S2086.336,1601.778,2086.336,1617.261z"/>
					</g>
				</g>
				<g style="opacity:0.3;">
					<g>
						<path style="fill:#FFFFFF;" d="M2053.903,1612.746c0,5.4-12.827,12.456-29.111,15.055c-16.3-2.599-29.127-9.655-29.127-15.055
							c0-4.677,21.854-5.767,29.127-5.767S2053.903,1608.069,2053.903,1612.746z"/>
					</g>
				</g>
			</g>
			<g>
				<g>
					<g>
						<ellipse style="fill:#000072;" cx="1753.984" cy="1561.488" rx="109.756" ry="122.065"/>
					</g>
				</g>
				<g>
					<g>
						<g>
							
								<ellipse transform="matrix(0.111 -0.9938 0.9938 0.111 62.156 3139.4255)" style="fill:#FFFFFF;" cx="1785.917" cy="1534.97" rx="50.422" ry="41.071"/>
						</g>
					</g>
				</g>
				<g style="opacity:0.35;">
					<g>
						<g>
							
								<ellipse transform="matrix(0.9775 -0.2107 0.2107 0.9775 -298.4437 395.3909)" style="fill:#FFFFFF;" cx="1706.185" cy="1598.169" rx="26.719" ry="41.717"/>
						</g>
					</g>
				</g>
			</g>
			<g>
				<g>
					<g>
						<ellipse style="fill:#000072;" cx="2295.618" cy="1561.488" rx="109.756" ry="122.065"/>
					</g>
				</g>
				<g>
					<g>
						<g>
							
								<ellipse transform="matrix(0.9938 -0.111 0.111 0.9938 -156.4179 260.8019)" style="fill:#FFFFFF;" cx="2263.685" cy="1534.97" rx="41.071" ry="50.422"/>
						</g>
					</g>
				</g>
				<g style="opacity:0.35;">
					<g>
						<g>
							
								<ellipse transform="matrix(0.2107 -0.9775 0.9775 0.2107 287.3484 3552.2241)" style="fill:#FFFFFF;" cx="2343.417" cy="1598.169" rx="41.717" ry="26.719"/>
						</g>
					</g>
				</g>
			</g>
			<g style="opacity:0.5;">
				<g>
					<path style="fill:#FFFFFF;" d="M1990.852,874.27c-304.045-18.496-503.857,229.264-584.75,438.166
						c-7.581-3.771-15.083-7.78-22.387-11.987c61.563-209.299,210.212-454.122,596.499-471.508
						C1984.62,843.707,1988.153,858.83,1990.852,874.27z"/>
				</g>
			</g>
			<g>
				<g>
					<path style="fill:#000072;" d="M1747.659,865.2c86.238-39.997,182.423-54.294,276.876-54.733v35.004h-0.021v-35.004
						c94.54,0.439,190.824,14.761,277.126,54.828c9.457,4.565,4.22,19.23-6.132,16.389
						c-87.994-25.621-179.491-36.504-270.994-36.213c0.02,0.002-0.039-35.047,0.021-35.004v35.004
						c-45.673-0.165-91.274,2.613-136.559,8.295c-45.383,5.809-90.076,15.169-134.143,27.811
						C1743.702,884.409,1737.927,869.94,1747.659,865.2L1747.659,865.2z"/>
				</g>
			</g>
			<g>
				<g>
					<path style="fill:#000072;" d="M1891.088,2118.11c-217.604-17.278-512.393-102.888-581.96-336.904
						c-26.763-88.627-7.033-181.877,12.803-269.249c8.944-61.082,21.13-121.692,36.527-181.421
						c13.971-53.378,30.236-107.205,62.045-153.363c5.736-7.834,18.604-2.04,15.685,7.701
						c-7.924,25.617-15.434,51.095-22.589,76.873c-24.12,83.554-42.799,169.206-53.996,255.51
						c-3.292,21.214-8.689,40.444-12.566,60.913c-15.734,75.719-19.339,156.406,12.46,228.163
						c53.458,122.263,179.457,191.135,300.336,233.144c24.565,8.417,51.469,16.859,76.584,23.767
						c51.606,14.487,104.133,26.523,157.121,37.536c4.742,0.981,7.791,5.621,6.809,10.364
						C1899.441,2115.515,1895.422,2118.445,1891.088,2118.11L1891.088,2118.11z"/>
				</g>
			</g>
			<g>
				<g>
					<g>
						<path style="fill:#F27E80;" d="M1451.34,1088.461c4.693,33.512,10.011,55.45,13.296,55.45
							c7.547,0,44.501-68.98,98.933-131.898c16.893-19.552,33.747-37.423,48.802-51.852c24.479-23.423,19.435-58.969-2.776-84.582
							c-35.233-40.669-110.43-83.253-140.345-80.242c-11.106,1.095-20.295,34.999-24.714,85.56
							c-1.134,13.1-1.955,27.295-2.424,42.311C1440.274,982.606,1445.279,1045.173,1451.34,1088.461z"/>
					</g>
				</g>
				<g>
					<g>
						<path style="fill:#FF5C64;" d="M1451.34,1088.461c4.693,33.512,10.011,55.45,13.296,55.45
							c7.547,0,44.501-68.98,98.933-131.898c16.893-19.552,33.747-37.423,48.802-51.852c24.479-23.423,19.435-58.969-2.776-84.582
							c-35.233-40.669-110.43-83.253-140.345-80.242c-11.106,1.095-20.295,34.999-24.714,85.56c0,0,20.451-31.166,41.255-29.915
							c17.167,1.056,69.332,33.16,71.326,63.974c3.089,47.824-31.401,42.311-65.891,143.747
							C1480.864,1089.204,1465.652,1095.773,1451.34,1088.461z"/>
					</g>
				</g>
				<g>
					<g>
						<path style="fill:#000072;" d="M1456.885,923.672c-1.63,34.835-1.074,70.005,0.851,105.087
							c2.744,35.755,4.846,73.333,15.252,107.572c0.04,0.091,0.079,0.179,0.051,0.11c0,0-0.011-0.007-0.203-0.302
							c-0.767-1.022-1.811-1.907-2.926-2.529c-0.644-0.602-4.408-1.606-5.847-1.357c-1.542,0.011-3.815,0.848-4.599,1.434
							c18.486-23.64,33.56-50.508,51.481-74.925c27.186-38.845,57.459-75.818,91.047-109.353
							c27.318-29.055-1.832-64.468-26.7-83.695c-28.448-22.264-61.845-43.844-96.744-52.472c-0.001,0.001-4.617-0.704-4.617-0.704
							c-0.853-0.053-1.742,0.072-2.59-0.065c-0.035-0.014-0.537-0.021-0.19-0.049c1.96-0.233,4.42-1.174,5.386-2.391
							c-9.947,18.102-11.875,40.224-15.228,61.676C1459.147,888.837,1457.76,906.229,1456.885,923.672L1456.885,923.672z
							 M1427.319,922.769c1.569-41.803,1.168-84.994,17.097-125.093c4.38-10.174,14.416-20.396,26.662-19.583
							c0-0.001,4.941-0.048,4.941-0.048c27.352,2.471,52.938,15.992,75.462,29.135c15.965,9.717,31.148,20.514,45.508,32.731
							c23.24,19.793,45.512,44.702,47.188,76.972c1.266,16.878-4.511,34.997-15.67,48.016c-9.3,9.999-19.751,18.893-29.144,28.852
							c-45.926,45.024-81.139,98.548-118.327,150.815c-2.701,3.286-6.564,8.106-11.267,9.994
							c-12.162,4.451-18.284-6.375-20.761-16.067c-9.197-35.637-12.673-71.421-16.671-107.732
							C1428.737,994.979,1426.858,958.998,1427.319,922.769L1427.319,922.769z"/>
					</g>
				</g>
			</g>
			<g>
				<g>
					<g>
						<path style="fill:#FFFFFF;" d="M1803.501,2258.493c0,0-24.718,115.254-143.094,133.945
							c-138.504,21.869-205.841-25.571-186.179-133.945C1501.654,2107.33,1792.299,2105.224,1803.501,2258.493z"/>
					</g>
				</g>
				<g style="opacity:0.2;">
					<g>
						<path style="fill:#000072;" d="M1456.533,2291.899c-0.657,84.535,66.245,120.02,189.547,100.549
							c118.4-18.684,143.123-133.935,143.123-133.935c-1.401-19.252-7.22-36.054-16.408-50.406
							c-7.964,25.99-41.13,110.525-141.022,126.277C1542.031,2348.562,1482.174,2333.642,1456.533,2291.899z"/>
					</g>
				</g>
				<g>
					<g>
						<path style="fill:#000072;" d="M1599.439,2415.18c-51.738,0-90.469-12.9-115.564-38.574
							c-27.346-27.979-36.387-68.77-26.868-121.235c16.394-90.352,114.124-132.871,202.175-128.184
							c92.861,4.946,156.362,55.991,161.775,130.034l0.183,2.495l-0.527,2.451c-1.111,5.186-28.718,127.227-157.478,147.559
							C1640.098,2413.364,1618.851,2415.18,1599.439,2415.18z M1645.775,2161.83c-69.485,0-142.219,33.062-154.324,99.79
							c-7.378,40.664-1.506,71.118,17.458,90.518c25.754,26.353,77.195,34.316,148.767,23.008
							c97.043-15.322,123.992-102.085,128.145-118.003c-6.46-65.347-72.93-92.041-128.501-95.005
							C1653.492,2161.933,1649.635,2161.83,1645.775,2161.83z"/>
					</g>
				</g>
				<g>
					<g>
						<path style="fill:#000072;" d="M1645.415,2259.514c-8.051,29.65-19.114,74.147-0.528,100.316
							c12.417,13.385,30.777,9.729,49.214,5.531c23.872-5.23,30.954,29.97,6.86,34.344
							c-73.707,12.853-101.898-33.085-86.383-100.361c3.455-15.858,8.334-30.979,14.379-45.787c1.829-4.478,6.94-6.626,11.418-4.799
							C1644.635,2250.496,1646.785,2255.219,1645.415,2259.514L1645.415,2259.514z"/>
					</g>
				</g>
				<g>
					<g>
						<path style="fill:#000072;" d="M1539.666,2255.938c-13.585,34.389-29.918,85.364,5.832,110.502
							c9.737,6.845,22.449,10.81,35.684,13.199c9.681,1.549,16.238,10.781,14.485,20.432c-1.72,9.531-10.841,15.864-20.372,14.144
							c-8.863-2.31-17.478-5.222-26.041-9.297c-16.298-7.47-31.722-19.793-40.546-36.011c-20.852-39.18-3.572-84.011,14.776-119.639
							C1528.217,2239.104,1543.477,2245.399,1539.666,2255.938L1539.666,2255.938z"/>
					</g>
				</g>
			</g>
			<g>
				<g>
					<path style="fill:#FFA757;" d="M2165.612,2636.806h1183.79c16.866,0,27.687-20.829,19.824-38.163l-142.77-314.78
						c-7.623-16.806-22.631-27.327-38.984-27.327H1993.14L2165.612,2636.806z"/>
				</g>
			</g>
			<g>
				<g>
					<path style="fill:#D37F40;" d="M1993.135,2256.545l172.476,380.275h1183.811c16.863,0,27.683-20.821,19.828-38.154l0,0
						H2179.887L2024.7,2256.545H1993.135z"/>
				</g>
			</g>
			<g>
				<g>
					<path style="fill:#D37F40;" d="M2201.482,2256.545c37.455,185.872,220.963,198.867,314.249,168.282
						c88.604-29.097,75.434-121.639,62.351-168.282H2201.482z"/>
				</g>
			</g>
			<g>
				<g>
					<path style="fill:#000072;" d="M3349.403,2653.046H2155.145l-187.2-412.749h1219.529c22.856,0,43.462,14.126,53.772,36.855
						l142.769,314.78c6.331,13.96,5.161,30.542-3.049,43.281C3373.663,2646.547,3362.156,2653.046,3349.403,2653.046z
						 M2176.077,2620.566h1173.325c1.953,0,3.396-1.602,4.265-2.944c1.714-2.666,2.947-7.476,0.769-12.271l-142.769-314.78
						c-4.978-10.977-14.248-17.793-24.194-17.793H2018.336L2176.077,2620.566z"/>
				</g>
			</g>
			<g>
				<g>
					<g>
						<path style="fill:#FFFFFF;" d="M2243.88,2258.493c0,0,24.718,115.254,143.094,133.945
							c138.504,21.869,205.841-25.571,186.178-133.945C2545.727,2107.33,2255.082,2105.224,2243.88,2258.493z"/>
					</g>
				</g>
				<g style="opacity:0.2;">
					<g>
						<path style="fill:#000072;" d="M2576.54,2291.899c0.657,84.535-66.245,120.02-189.547,100.549
							c-118.4-18.684-143.123-133.935-143.123-133.935c1.4-19.252,7.22-36.054,16.408-50.406
							c7.964,25.99,41.13,110.525,141.022,126.277C2491.043,2348.562,2550.899,2333.642,2576.54,2291.899z"/>
					</g>
				</g>
				<g>
					<g>
						<path style="fill:#000072;" d="M2447.94,2415.18c-19.417,0-40.654-1.816-63.696-5.454
							c-128.757-20.332-156.365-142.373-157.476-147.559l-0.527-2.451l0.183-2.495c5.413-74.043,68.909-125.088,161.768-130.034
							c88.054-4.712,185.789,37.827,202.183,128.184c9.519,52.466,0.479,93.257-26.868,121.235
							C2538.414,2402.28,2499.671,2415.18,2447.94,2415.18z M2261.561,2257.143c4.153,15.918,31.101,102.681,128.142,118.003
							c71.575,11.313,123.013,3.345,148.77-23.008c18.962-19.399,24.836-49.854,17.458-90.518
							c-12.776-70.435-93.105-103.369-165.874-99.482C2334.488,2165.102,2268.021,2191.801,2261.561,2257.143z M2243.88,2258.495
							h0.049H2243.88z"/>
					</g>
				</g>
				<g>
					<g>
						<path style="fill:#000072;" d="M2418.423,2253.558c17.057,43.34,38.144,117.754-17.399,142.684
							c-18.1,7.305-36.535,6.115-54.604,3.464c-9.591-1.364-16.26-10.242-14.897-19.833c1.399-10.429,12.021-17.319,22.117-14.419
							c18.403,4.145,36.494,7.677,48.853-5.623c18.606-26.228,7.515-70.706-0.559-100.43
							C2398.861,2248.865,2414.149,2243.436,2418.423,2253.558L2418.423,2253.558z"/>
					</g>
				</g>
				<g>
					<g>
						<path style="fill:#000072;" d="M2523.896,2249.269c23.224,42.221,41.076,105.082-3.034,141.207
							c-13.66,11.746-30.154,18.524-46.926,23.301c-9.29,2.742-19.042-2.566-21.783-11.855
							c-3.044-10.036,3.696-20.686,14.045-22.283c25.145-4.33,49.193-15.395,55.237-41.68c6.262-26.727-3.624-56.381-13.72-82.021
							C2503.855,2245.433,2519.216,2239.08,2523.896,2249.269L2523.896,2249.269z"/>
					</g>
				</g>
			</g>
			<g>
				<g>
					<g>
						<path style="fill:#FF0068;" d="M1083.984,994.272c23.87-39.053,35.639-85.934,30.603-134.979
							c-12.223-119.042-118.633-205.636-237.675-193.414C757.87,678.102,671.275,784.513,683.498,903.555
							c12.223,119.042,118.633,205.636,237.675,193.414c33.112-3.4,63.7-14.105,90.362-30.324l100.272,22.488L1083.984,994.272z"/>
					</g>
				</g>
				<g style="opacity:0.5;">
					<g>
						<g>
							<path style="fill:#FFFFFF;" d="M881.168,707.335c111.202-11.417,211.356,63.404,234.033,170.344
								c0.027-7.639-0.302-15.345-1.1-23.115c-12.222-119.042-118.633-205.636-237.675-193.414
								C757.384,673.373,670.79,779.783,683.012,898.825c0.801,7.804,2.03,15.458,3.618,22.965
								C687.049,812.427,769.93,718.756,881.168,707.335z"/>
						</g>
					</g>
				</g>
				<g>
					<g>
						<path style="fill:#000072;" d="M898.868,1115.617c-118.479,0.012-220.422-89.907-232.781-210.276
							c-6.389-62.224,11.836-123.21,51.318-171.729c39.482-48.516,95.496-78.755,157.72-85.142
							c62.234-6.409,123.213,11.833,171.729,51.316c48.516,39.482,78.755,95.493,85.141,157.72
							c5.01,48.782-5.039,96.707-29.084,139.111l25.691,87.588c1.746,5.947,0.212,12.373-4.026,16.897
							c-4.236,4.521-10.549,6.467-16.599,5.107l-93.53-20.977c-28.191,16.003-58.933,25.803-91.487,29.146
							C914.879,1115.209,906.824,1115.617,898.868,1115.617z M899.417,682.226c-6.875,0-13.784,0.354-20.718,1.064
							c-52.922,5.435-100.564,31.152-134.143,72.417c-33.582,41.265-49.082,93.137-43.65,146.06
							c11.218,109.253,109.209,188.977,218.479,177.793c29.731-3.054,57.676-12.432,83.054-27.869
							c3.872-2.356,8.506-3.115,12.927-2.124l71.284,15.986l-19.463-66.355c-1.389-4.739-0.713-9.841,1.86-14.055
							c22.891-37.449,32.615-80.349,28.128-124.063c-5.435-52.922-31.152-100.564-72.417-134.143
							C988.9,697.756,945.028,682.226,899.417,682.226z"/>
					</g>
				</g>
				<g style="opacity:0.3;">
					<g>
						<path style="fill:#000072;" d="M1085.2,992.192c-59.349,50.199-141.11,72.182-222.302,51.975
							c-90.043-22.411-156.387-90.977-180.249-174.194c-0.57,11.034-0.314,22.25,0.849,33.583
							c12.223,119.042,118.633,205.636,237.675,193.414c33.112-3.4,63.699-14.105,90.362-30.324l100.273,22.488l-27.824-94.86
							C1084.403,993.587,1084.789,992.881,1085.2,992.192z"/>
					</g>
				</g>
				<g>
					<g>
						<path style="fill:#FFFFFF;" d="M968.328,820.58L968.328,820.58c-18.752-18.752-49.154-15.392-67.906,3.36l-2.919,2.919
							l-2.918-2.919c-18.752-18.752-49.154-22.112-67.906-3.36h0c-18.752,18.752-18.752,49.154,0,67.906l2.919,2.919l58.955,58.955
							c4.943,4.943,12.958,4.943,17.902,0l58.955-58.955l2.918-2.918C987.08,869.734,987.08,839.331,968.328,820.58z"/>
					</g>
				</g>
			</g>
		</g>
		<g>
			<g>
				<path style="fill:#000072;" d="M3392.83,3323.002H607.169c-8.989,0-16.277-7.29-16.277-16.279s7.288-16.279,16.277-16.279
					H3392.83c8.989,0,16.277,7.29,16.277,16.279S3401.82,3323.002,3392.83,3323.002z"/>
			</g>
		</g>
	</g>
</g>
</svg>
