<?xml version="1.0" encoding="utf-8"?>
<!-- Generator: Adobe Illustrator 27.5.0, SVG Export Plug-In . SVG Version: 6.00 Build 0)  -->
<svg version="1.1" id="Layer_1" xmlns="http://www.w3.org/2000/svg" xmlns:xlink="http://www.w3.org/1999/xlink" x="0px" y="0px"
	 viewBox="0 0 4000 4000" style="enable-background:new 0 0 4000 4000;" xml:space="preserve">
<g>
	<g>
		<rect style="fill:transparent;" width="4000" height="4000"/>
	</g>
	<g>
		<g>
			<g style="opacity:0.2;">
				<ellipse style="fill:#380072;" cx="1992.003" cy="3343.51" rx="1167.5" ry="136.49"/>
			</g>
			<g>
				<path style="fill:#FFB375;" d="M3315.383,2939.779c-60.216,79.133-151.819,164.342-286.64,215.499
					c-119.74,45.509-273.637,64.213-469.9,28.083l121.019-239.906c0,0,38.048,6.714,100.929,7.887
					c105.618,2.024,281.204-11.351,464.411-97.678C3299.184,2828.246,3351.513,2892.299,3315.383,2939.779z"/>
			</g>
			<g style="opacity:0.6;">
				<path style="fill:#FFFFFF;" d="M3321.192,2930.613c-12.843-25.525-44.123-41.725-75.99-26.698
					c-183.207,86.328-358.793,99.704-464.411,97.679c-62.881-1.172-100.929-7.887-100.929-7.887l-97.731,193.704
					c-7.674-1.279-15.454-2.611-23.287-4.05l121.019-239.906c0,0,38.048,6.714,100.929,7.887
					c105.618,2.024,281.204-11.351,464.411-97.678C3295.773,2829.844,3344.905,2884.572,3321.192,2930.613z"/>
			</g>
			<g style="opacity:0.2;">
				<path style="fill:#380072;" d="M3315.383,2939.779c-60.216,79.133-151.819,164.342-286.64,215.499
					c-3.677,1.385-7.407,2.771-11.191,4.157c-1.652,0.586-3.357,1.172-5.062,1.758c-4.263,1.546-8.633,2.985-13.002,4.424
					c-4.263,1.385-8.526,2.771-12.843,4.103c-1.439,0.426-2.824,0.852-4.263,1.279c-3.73,1.119-7.46,2.184-11.244,3.251
					c-1.119,0.319-2.292,0.639-3.411,0.959c-4.796,1.332-9.698,2.611-14.601,3.837c-4.689,1.172-9.485,2.344-14.281,3.463
					c-1.332,0.267-2.665,0.587-3.997,0.853c-9.592,2.185-19.344,4.21-29.256,5.968c-1.172,0.213-2.398,0.427-3.57,0.639
					c-5.063,0.959-10.178,1.812-15.347,2.611c-0.479,0.053-0.959,0.107-1.492,0.213c-5.329,0.853-10.711,1.598-16.2,2.345
					c-4.583,0.585-9.219,1.172-13.908,1.705c-2.238,0.266-4.476,0.533-6.714,0.746h-0.213c-5.009,0.586-10.125,1.065-15.24,1.492
					c-5.595,0.532-11.244,0.959-16.893,1.332c-1.119,0.053-2.238,0.107-3.357,0.213c-5.222,0.319-10.498,0.639-15.826,0.853
					c-0.533,0.053-1.013,0.053-1.492,0.053c-5.169,0.267-10.338,0.426-15.614,0.533c-2.131,0.053-4.316,0.107-6.448,0.16
					c-5.595,0.106-11.244,0.159-16.946,0.159c-60.483,0-126.188-5.914-197.488-19.024l59.204-117.342l61.815-122.564
					c0,0,38.048,6.714,100.929,7.887c21.315,66.024,79.56,141.96,237.721,100.875c132.849-38.474,228.502-109.349,296.072-182.194
					C3329.505,2888.782,3333.235,2916.279,3315.383,2939.779z"/>
			</g>
			<g style="opacity:0.2;">
				<path style="fill:#3A0000;" d="M2905.593,3189.33c9.912-1.758,19.664-3.783,29.256-5.968
					C2925.257,3185.6,2915.505,3187.572,2905.593,3189.33z"/>
			</g>
			<g>
				<path style="fill:#380072;" d="M2757.319,3223.81c-62.012,0-129.346-6.031-202.344-19.458
					c-6.592-1.221-12.256-5.469-15.234-11.499c-2.979-6.006-2.979-13.086,0.049-19.067l121.045-239.893
					c4.199-8.398,13.574-13.037,22.705-11.401c2.686,0.488,270.215,44.946,552.588-88.086c33.398-15.723,71.436-6.958,94.678,21.753
					c23.096,28.565,23.73,67.334,1.514,96.509C3232.807,3083.453,3056.294,3223.81,2757.319,3223.81z M2590.864,3167.267
					c385.547,61.89,597.266-95.459,707.568-240.43c12.402-16.309,7.715-33.35-0.781-43.847
					c-8.643-10.669-24.561-18.848-43.359-10.01c-258.496,121.802-498.926,101.904-562.305,93.823L2590.864,3167.267z"/>
			</g>
			<g>
				<path style="fill:#FFB375;" d="M2818.04,2940.152c-7.034,44.869-19.024,86.541-35.117,124.802
					c-112.386,268.522-422.792,369.771-607.171,234.896c0,0-7.993,1.065-22.541,1.119c-35.17,0.053-108.922-5.915-203.243-47.267
					c-26.911-11.883-55.527-26.591-85.369-44.869c-73.965-45.295-155.656-112.546-238.68-212.195
					c0,0-42.045,106.417-122.724,166.367c-35.597,26.484-78.708,43.91-129.065,39.167
					c-139.563-13.056-171.803-114.997-275.716-192.692c-18.491-13.802-39.327-26.858-63.414-38.528
					c-38.048-18.384-74.338-39.434-105.885-62.667c-100.289-73.858-157.095-173.455-64.852-275.183
					c0.373-0.426,0.799-0.853,1.172-1.279c103.86-113.025,303.852,62.028,308.222,66.664
					c-2.025-7.034-97.359-340.141,225.624-372.488c16.466-1.652,34.052-2.504,52.756-2.504c0,0-15.561-8.793-41.725-26.218
					c-122.138-81.319-475.655-350.693-560.331-790.805c0,0-175.479-131.943-196.369-219.549c-1.865-7.727-2.504-15.081-1.759-21.955
					c1.066-9.698,3.41-17.958,6.608-24.939c16.679-36.023,57.712-39.273,81.425-37.834c2.611,0.159,5.009,0.425,7.141,0.639
					c5.808,0.587,9.645,1.385,10.391,1.492c-3.144-3.943-71.726-89.099-47.746-137.218c1.545-3.197,3.517-6.234,5.968-9.059
					c2.025-2.345,4.37-4.583,7.034-6.608c56.326-43.324,143.56,44.443,152.299,53.502c0.426,0.479,0.693,0.745,0.693,0.745
					s-0.106-1.492-0.266-4.21c-0.479-9.858-1.332-35.917,1.918-64.585c2.984-25.685,9.219-53.502,22.062-73.699
					c9.432-14.868,22.435-25.579,40.233-28.243c76.469-11.403,100.503,101.622,100.503,101.622s42.204-15.294,75.083,12.789
					c22.168,18.97,40.073,57.605,37.995,133.914c-0.959,34.904,1.492,75.35,8.1,118.993
					c24.886,165.461,108.975,377.604,290.903,513.543c25.632,19.185,53.182,36.876,82.811,52.596
					c5.862,3.197,11.83,6.235,17.852,9.219l98.104-216.246l63.307-139.509l320.585,32.665l214.966,21.902l64.639,6.554
					c0,0-40.712,141.268,34.318,337.69c21.103,55.154,51.317,114.731,94.161,176.706
					c150.008,217.205,324.421,385.863,371.422,615.59C2828.538,2782.152,2831.149,2856.862,2818.04,2940.152z"/>
			</g>
			<g>
				<path style="fill:#FFFFFF;" d="M2153.21,3300.969c-35.17,0.053-108.922-5.915-203.243-47.267
					c-26.911-11.883-55.527-26.591-85.369-44.869c-73.965-45.295-155.603-112.546-238.68-212.142v-0.053
					c-197.008-276.462-187.949-613.833-146.864-845.372c34.584-58.244,70.501-94.267,104.819-88.246
					c109.348,19.184-22.754,715.933,405.58,813.719c0,0-87.234,73.378,0,188.215
					C2041.251,3133.11,2106.21,3230.948,2153.21,3300.969z"/>
			</g>
			<g style="opacity:0.6;">
				<path style="fill:#FFFFFF;" d="M739.888,1202.195c34.904,24.353,68.156,39.807,68.156,39.807
					c-83.29,2.718-129.278,22.274-154.43,44.922c-1.865-7.727-2.504-15.081-1.759-21.955c1.066-9.698,3.41-17.958,6.608-24.939
					C675.142,1204.006,716.174,1200.756,739.888,1202.195z"/>
			</g>
			<g style="opacity:0.6;">
				<path style="fill:#FFFFFF;" d="M874.975,1104.943c-4.156,32.985-5.276,59.363-5.276,59.363
					c-28.509-40.446-102.261-95.706-154.057-106.257c2.025-2.345,4.37-4.583,7.034-6.608
					C779.002,1008.117,866.236,1095.884,874.975,1104.943z"/>
			</g>
			<g style="opacity:0.6;">
				<path style="fill:#FFFFFF;" d="M1547.158,1892.55c-338.174-127.607-451.513-509.053-439.959-688.145
					c12.561-194.694-100.122-142.679-100.122-142.679c-87.767-172.708-120.273-46.574-131.676,39.753
					c-0.479-9.858-1.332-35.917,1.918-64.585c2.984-25.685,9.219-53.502,22.062-73.699c9.432-14.868,22.435-25.579,40.233-28.243
					c76.469-11.403,100.503,101.622,100.503,101.622s42.204-15.294,75.083,12.789c22.168,18.97,40.073,57.605,37.995,133.914
					c-0.959,34.904,1.492,75.35,8.1,118.993c24.886,165.461,108.975,377.604,290.903,513.543
					c25.632,19.185,53.182,36.876,82.811,52.596C1542.735,1883.757,1547.158,1892.55,1547.158,1892.55z"/>
			</g>
			<g style="opacity:0.6;">
				<path style="fill:#FFFFFF;" d="M1232.595,2751.777c0,0-187.79-118.035-368.331-118.674c0.373-0.426,0.799-0.853,1.172-1.279
					c103.86-113.025,303.852,62.028,308.222,66.664c-2.132-7.407-107.323-374.992,278.38-374.992
					C1452.038,2323.495,1102.198,2366.073,1232.595,2751.777z"/>
			</g>
			<g style="opacity:0.2;">
				<path style="fill:#380072;" d="M2533.771,3046.201c39.597,37.363-2.001,101.921-52.337,81.18
					c-24.258-9.995-52.855-27.483-86.293-55.926c-146.81-124.856-136.206-264.205-291.809-262.873c-1.119-0.053-2.238,0-3.411,0.053
					c-2.877,0-5.862,0.107-8.899,0.266c0,0,13.056-50.518,49.718-101.888l142.707-355.115c0,0,102.368,189.76,289.784,258.077
					c-21.262-7.46-120.486-38.421-231.006-7.94c-8.899,19.663-90.141,149.512-20.044,279.712
					C2370.134,2970.816,2489.206,3004.15,2533.771,3046.201z"/>
			</g>
			<g style="opacity:0.6;">
				<path style="fill:#FFFFFF;" d="M2818.04,2940.152c-7.034,44.869-19.024,86.541-35.117,124.802
					c8.846-82.704,11.457-174.627-0.533-264.418c-35.97-269.588-326.516-551.745-451.622-758.085
					c-81.004-133.602-97.655-314.023-80.946-466.009l64.639,6.554c0,0-40.712,141.268,34.318,337.69
					c21.103,55.154,51.317,114.731,94.161,176.706c150.008,217.205,324.421,385.863,371.422,615.59
					C2828.538,2782.152,2831.149,2856.862,2818.04,2940.152z"/>
			</g>
			<g style="opacity:0.2;">
				<path style="fill:#3A0000;" d="M2103.332,2808.583c-6.608,12.416-13.002,25.525-19.184,39.326l15.773-39.273
					C2101.094,2808.583,2102.213,2808.529,2103.332,2808.583z"/>
			</g>
			<g style="opacity:0.2;">
				<path style="fill:#3A0000;" d="M2576.802,2611.254c-0.48-0.16-1.119-0.374-1.972-0.693
					C2575.47,2610.828,2576.163,2611.041,2576.802,2611.254z"/>
			</g>
			<g style="opacity:0.2;">
				<path style="fill:#380072;" d="M2818.04,2940.152c-56.486,359.699-431.638,513.81-642.288,359.699
					c0,0-267.189,35.97-549.833-303.212c0,0-87.34,220.988-251.789,205.534c-139.563-13.056-171.803-114.997-275.716-192.692
					c-18.491-13.802-39.327-26.858-63.414-38.528c-38.048-18.384-74.338-39.434-105.885-62.667
					c-94.055-69.275-149.848-161.198-80.359-256.212c111.693-11.67,289.784,180.969,384.052,245.661
					c24.817,17.029,45.9,27.446,63.714,33.294c41.87,13.747,80.333-29.33,62.139-69.469
					c-168.385-371.475,93.377-538.065,93.377-538.065c-0.053,0-0.053,0-0.107-0.053c-7.674-4.37-499.954-286.693-601.949-816.969
					c0,0-207.666-156.135-198.127-241.504c1.066-9.698,3.41-17.958,6.608-24.939c19.557,31.228,77.748,111.64,142.707,80.893
					c54.941-26.005-0.213-68.689-54.141-118.088c5.808,0.587,9.645,1.385,10.391,1.492c-3.144-3.943-71.726-89.099-47.746-137.218
					c37.302,55.686,108.975,147.929,162.317,126.934c50.678-19.983,13.589-78.121,5.329-157.148
					c2.984-25.685,9.219-53.502,22.062-73.699c3.091,66.718,19.504,167.007,92.189,136.366l-0.586,74.071
					c0,0-73.911,114.038,0.586,164.289c70.448,47.48,162.104-96.986,123.63-288.558c22.168,18.97,40.073,57.605,37.995,133.914
					c-0.959,34.904,1.492,75.35,8.1,118.993c-21.598,60.135-55.48,118.232-105.025,163.038
					c-43.732,39.549-60.101,101.023-43.143,157.495c25.593,85.224,69.369,198.391,132.874,254.826
					c97.998,87.073,285.414,128.372,306.197-61.815c30.694,23.021,64.213,43.803,100.662,61.815l98.104-216.246
					c76.576-21.475,240.759-67.41,383.892-106.844l279.605,28.457c0,0-24.558,87.725,12.016,269.389
					c-100.788,63.315-384.93,154.096-612.207,63.292c0,0-47.587,39.327-118.354,41.139c0,0-126.721,657.742,30.002,692.007
					c116.009,25.366,139.83-422.633,139.83-422.633l192.319,175.959c0,0-173.082,672.396,90.964,713.003l123.31-293.568
					c0,0,67.624,102.74,85.901,226.477c18.278,123.736,79.933,182.3,130.184,195.25c50.251,13.003,379.042,29.416,425.883-530.329
					c0,0,0,0,0.053,0C2828.538,2782.152,2831.149,2856.862,2818.04,2940.152z"/>
			</g>
			<g>
				<path style="fill:#380072;" d="M2366.157,3380.768c-71.851,0-139.893-19.848-196.338-58.96
					c-48.706,3.247-284.814,2.783-538.501-286.035c-32.397,63.794-118.286,201.001-259.229,187.646
					c-101.367-9.473-150.781-62.329-203.076-118.262c-24.829-26.538-50.488-53.979-83.398-78.589
					c-18.921-14.112-38.525-26.025-59.937-36.402c-41.284-19.946-78.027-41.723-109.229-64.697
					c-72.412-53.32-113.721-112.744-119.434-171.826c-4.59-47.363,13.135-93.189,52.686-136.231
					c27.124-29.492,61.865-44.58,103.32-44.848c70.166,1.88,142.383,41.455,188.55,73.975
					c-8.35-62.622-9.204-162.622,49.048-239.868c42.212-55.981,107.69-89.673,195.166-100.561
					c-134.106-92.578-469.775-361.939-555.2-787.549c-47.461-36.377-209.766-167.871-199.927-255.957
					c3.076-27.393,15.088-49.341,34.766-63.452c15.576-11.182,33.594-16.04,49.829-17.773
					c-17.041-27.759-35.352-66.528-31.494-100.415c2.173-18.994,11.108-35.034,25.903-46.411
					c47.144-36.401,106.494-4.956,144.263,23.633c2.759-54.541,17.944-134.644,82.544-144.287
					c66.455-10.107,103.564,49.78,119.019,97.9c18.066-1.88,43.896-0.342,67.578,16.724c36.182,26.099,53.491,78.369,51.416,155.371
					c-5.127,187.231,89.307,514.136,368.188,664.526l152.173-335.327c3.809-8.325,12.573-13.281,21.558-12.402l600.195,61.108
					c6.274,0.659,11.938,4.053,15.479,9.253c3.54,5.225,4.59,11.743,2.881,17.822c-0.635,2.222-61.06,226.392,125.488,496.435
					c38.867,56.226,79.639,109.595,119.092,161.182c157.422,205.884,306.152,400.415,259.521,696.973l0,0
					c-29.053,184.986-144.092,335.791-307.715,403.369C2476.313,3369.537,2420.161,3380.768,2366.157,3380.768z M2175.678,3278.546
					c4.517,0,8.96,1.416,12.646,4.102c87.305,63.867,209.473,73.193,326.709,24.78c149.805-61.865,255.176-200.391,281.934-370.557
					v-0.024c43.799-278.564-92.969-457.397-251.27-664.453c-39.795-52.002-80.859-105.786-120.313-162.866
					c-164.136-237.549-148.73-439.185-136.792-507.715l-561.255-57.153l-155.103,341.797c-2.393,5.249-6.812,9.326-12.231,11.255
					c-5.469,1.953-11.426,1.611-16.626-0.952c-312.012-154.224-417.041-511.523-411.523-714.038
					c1.66-60.864-9.912-102.173-33.447-119.409c-22.339-16.431-50.928-6.738-51.196-6.616c-5.762,1.978-12.207,1.416-17.505-1.563
					c-5.322-3.003-9.18-8.105-10.474-14.063c-0.22-0.952-20.337-93.262-76.465-85.034c-46.216,6.909-48.657,111.841-45.898,148.047
					c0.708,9.009-4.37,17.48-12.646,21.118c-8.228,3.589-17.969,1.709-24.146-4.907c-20.898-22.217-88.55-79.443-124.414-51.953
					c-5.737,4.395-8.667,9.79-9.546,17.456c-3.833,33.618,34.204,88.501,47.827,105.078c5.762,6.982,6.421,16.846,1.733,24.585
					c-4.736,7.764-13.843,11.523-22.681,9.79c-10.913-2.319-43.579-5.273-62.817,8.618c-9.814,7.08-15.43,18.018-17.139,33.472
					c-5.981,53.32,113.208,164.551,189.722,222.119c4.224,3.174,7.104,7.813,8.106,13.013
					c99.683,518.164,586.743,799.707,591.65,802.49c8.423,4.785,12.573,14.624,10.107,23.999
					c-2.466,9.351-10.938,15.869-20.605,15.869c-107.104,0-183.594,29.443-227.368,87.5
					c-75.269,99.829-32.397,253.809-30.542,260.327c2.71,9.448-1.392,19.531-9.937,24.39c-8.521,4.883-19.312,3.247-26.05-3.906
					c-0.562-0.488-115.479-101.758-208.276-97.876c-27.954,0.952-50.44,11.084-68.75,31.006
					c-31.006,33.74-45.02,68.482-41.65,103.271c5.688,58.985,58.765,109.57,102.295,141.602
					c29.077,21.435,63.574,41.821,102.515,60.644c23.877,11.573,45.752,24.854,66.87,40.625
					c35.962,26.88,62.939,55.737,89.014,83.618c50.659,54.175,90.674,96.972,175.928,104.956
					c146.411,13.721,229.199-190.112,230.005-192.188c2.783-6.982,9.033-11.987,16.455-13.184
					c7.471-1.196,14.893,1.587,19.751,7.398c270.703,324.853,528.174,296.118,530.664,295.703
					C2173.847,3278.619,2174.775,3278.546,2175.678,3278.546z"/>
			</g>
			<g>
				<path style="fill:#380072;" d="M1608.564,3009.064c-200.757-281.763-192.651-624.023-150.513-861.523
					c29.028-163.33,73.12-273.316,75-277.93c4.395-10.913,16.797-16.235,27.734-11.743c10.913,4.419,16.187,16.821,11.768,27.734
					c-0.439,1.099-44.336,110.767-72.51,269.409c-40.723,229.443-48.95,559.595,143.237,829.248L1608.564,3009.064z"/>
			</g>
			<g>
				<path style="fill:#380072;" d="M2620.866,2641.753c-189.1-93.267-403.474-20.182-487.74,175.011
					c-3.963,7.425-11.588,11.61-19.477,11.55c-140.757,2.055-185.005,183.412-67.036,256.82c21.58,15.725,49.662,46.3,56.248,71.598
					c20.042,47.329,50.912,92.927,86.863,127.05c9.571,7.851,10.744,22.354,2.103,31.357c-8.097,8.531-21.576,8.884-30.107,0.786
					c-43.621-41.463-74.98-89.147-98.094-142.529c-11.163-45.212-71.393-63.216-106.097-119.012
					c-63.89-116.384,19.946-272.627,157.145-268.683c-0.002-0.005-19.459,11.546-19.459,11.546
					c98.963-207.549,333.742-283.748,536.316-175.317C2644.586,2628.753,2633.947,2648.995,2620.866,2641.753L2620.866,2641.753z"/>
			</g>
			<g>
				<path style="fill:#380072;" d="M2113.29,2785.708c184.927,8.827,212.72,227.313,338.424,320.379
					c8.667,6.038,0.151,20.18-9.224,15.231c-139.08-63.684-170.66-272.081-331.232-293.322
					C2084.704,2826.425,2086.69,2784.748,2113.29,2785.708L2113.29,2785.708z"/>
			</g>
			<g>
				<ellipse style="fill:#380072;" cx="947.604" cy="2800.553" rx="58.237" ry="40.252"/>
			</g>
			<g>
				<path style="fill:#380072;" d="M1103.45,2977.848c0,11.084-1.759,21.689-5.063,31.654
					c-18.491-13.802-39.327-26.857-63.414-38.528c-38.048-18.385-74.338-39.434-105.885-62.667
					c18.385-19.45,44.443-31.547,73.325-31.547C1058.208,2876.76,1103.45,2922.002,1103.45,2977.848z"/>
			</g>
			<g>
				<path style="fill:#380072;" d="M1173.976,2662.43c62.686,84.834,118.634,172.955,165.942,266.157
					c3.744,7.117-7.15,13.349-11.367,6.376c-55.258-87.307-119.305-169.494-187.637-245.582
					C1121.646,2667.49,1156.315,2639.048,1173.976,2662.43L1173.976,2662.43z"/>
			</g>
			<g>
				<ellipse style="fill:#380072;" cx="2084.136" cy="2948.714" rx="42.021" ry="36.826"/>
			</g>
			<g>
				<ellipse style="fill:#380072;" cx="2049.022" cy="3048.06" rx="42.021" ry="36.826"/>
			</g>
			<g>
				<ellipse style="fill:#380072;" cx="2172.348" cy="3022.367" rx="42.021" ry="36.826"/>
			</g>
			<g>
				<path style="fill:#380072;" d="M2256.244,3156.845c-14.601,33.731-84.676,7.034-144.785,41.085
					c-10.231-14.601-21.369-29.948-33.359-45.402c-5.169-6.661-11.404-13.003-18.278-19.291
					c13.962-13.482,33.572-27.23,60.216-35.49C2186.01,3077.178,2272.498,3119.116,2256.244,3156.845z"/>
			</g>
			<g>
				<path style="fill:#380072;" d="M1044.412,1057.468c-39.866,19.193-36.84,75.711-32.073,115.654
					c0.718,7.507-3.094,14.41-9.181,18.011c-41.612,27.026-63.401,79.21-63.156,129.135c0.308,10.187-15.431,11.4-16.77,1.333
					c-9.421-59.312,8.517-124.363,55.593-165.468l-8.942,20.424c-5.471-42.161-5.874-92.362,21.853-129.987
					c10.898-13.481,22.405-24.649,44.032-30.849C1064.687,1008.198,1073.862,1052.358,1044.412,1057.468L1044.412,1057.468z"/>
			</g>
			<g>
				<path style="fill:#FFB375;" d="M2689.615,1542.443c-121.605,183.846-411.122,205.535-411.122,205.535
					c-308.275,195.25-585.749,82.224-585.749,82.224c-143.88,102.794-299.749,6.875-299.749,6.875l-0.053,0.053
					c-2.824,1.652-84.942,49.878-145.585-34.318c-26.005-36.077-27.604-78.228-16.946-119.793
					c11.244-43.856,36.183-87.021,60.749-121.712c31.547-44.709,62.401-75.403,62.401-75.403l-42.791-58.245
					c0,0-79.294-57.285-97.891-139.99c-3.464-15.294-4.796-31.494-3.198-48.386c3.784-39.7,30.055-73.006,61.762-99.224
					c54.514-45.029,124.962-69.222,124.962-69.222c52.543-522.975,465.903-412.241,465.903-412.241
					c210.65-56.486,334.013,56.539,334.013,56.539c308.275,20.569,400.784,282.643,400.784,282.643
					c2.878,0.639,5.649,1.546,8.366,2.611c22.914,9.006,41.352,32.24,54.727,60.909c18.438,39.647,27.071,89.631,24.246,126.561
					C2679.33,1254.684,2769.494,1421.691,2689.615,1542.443z"/>
			</g>
			<g>
				<path style="fill:#994E31;" d="M2149.803,1540.246c2.662-35.09,21.639-66.552,40.108-96.507
					c36.779-59.654,73.824-119.667,120.607-171.845c17.507-19.526,36.434-38.031,50.673-60.054
					c22.898-35.418,32.257-77.61,47.499-116.936c15.242-39.325,39.546-78.851,78.807-94.259c21.547-8.456,45.419-8.699,68.49-6.812
					c21.306,1.743,43.048,5.404,61.452,16.281c33.675,19.902,49.906,60.167,55.668,98.857c5.762,38.69,3.414,78.395,11.213,116.726
					c5.473,26.899,15.832,52.542,22.914,79.062c9.76,36.551,13.215,74.444,16.634,112.12c1.296,14.282,2.59,28.694,0.834,42.927
					c-2.616,21.211-11.893,41.041-22.707,59.475c-39.299,66.988-100.21,119.901-168.927,156.094
					c-68.716,36.192-145.07,56.296-222.107,66.146c-43.646,5.58-92.505,6.5-126.326-21.648
					c-28.197-23.467-38.975-61.782-43.587-98.176c-3.647-28.781-3.19-61.354,16.726-82.448"/>
			</g>
			<g style="opacity:0.6;">
				<path style="fill:#FFFFFF;" d="M2660.199,1061.3c-55.953-29.469-100.502-25.526-100.502-25.526
					c-87.766-267.829-429.88-306.25-429.88-306.25c-45.509-30.268-98.478-44.23-159.12-41.299c0.213,0.426,0.373,0.906,0.48,1.385
					c5.169,19.29-33.625,46.361-86.647,60.482c-52.383,13.962-99.01,10.018-105.085-8.686
					c-21.103,9.805-42.844,20.996-65.172,33.519c-192.798,108.122-285.041,334.599-285.041,334.599
					c-144.092,46.574-196.209,127.36-216.352,178.144c-3.464-15.294-4.796-31.494-3.198-48.386
					c3.784-39.7,30.055-73.006,61.762-99.224c54.514-45.029,124.962-69.222,124.962-69.222
					c52.543-522.975,465.903-412.241,465.903-412.241c210.65-56.486,334.013,56.539,334.013,56.539
					c308.275,20.569,400.784,282.643,400.784,282.643c2.878,0.639,5.649,1.546,8.366,2.611
					C2628.386,1009.397,2646.823,1032.63,2660.199,1061.3z"/>
			</g>
			<g>
				<path style="fill:#994E31;" d="M1419.689,1005.29c13.898-100.672,50.793-201.526,123.077-272.96
					c72.285-71.435,184.401-107.538,279.553-71.842c-164.888,71.727-306.9,195.024-401.064,348.211"/>
			</g>
			<g style="opacity:0.2;">
				<path style="fill:#380072;" d="M1779.432,1510.126c33.068-1.853,46.071,42.208,17.291,58.599
					c-72.472,41.273-181.501,82.135-307.649,59.407c-78.974-14.228-145.159-39.593-197.914-66.824
					c31.547-44.709,62.401-75.403,62.401-75.403l-42.791-58.245c0,0-111.374-80.466-101.089-188.375
					c3.784-39.7,30.055-73.006,61.762-99.224c-21.529,73.805-26.271,180.223,124.909,180.862c0,0,92.775,154.004,174.733,180.275
					C1615.624,1515.474,1706.1,1514.234,1779.432,1510.126z"/>
			</g>
			<g style="opacity:0.2;">
				<path style="fill:#380072;" d="M2169.167,1501.19c0,0,50.372-258.935,133.516-397.746
					c54.344-90.728,147.056-97.748,94.898,25.158C2345.422,1251.509,2195.18,1383.93,2169.167,1501.19z"/>
			</g>
			<g style="opacity:0.2;">
				<path style="fill:#380072;" d="M2689.615,1542.443c-121.605,183.846-411.122,205.535-411.122,205.535
					c-308.275,195.25-585.749,82.224-585.749,82.224c-143.88,102.794-299.749,6.875-299.749,6.875l-0.053,0.053
					c-2.824,1.652-84.942,49.878-145.585-34.318c-26.005-36.077-27.604-78.228-16.946-119.793
					c210.694,212.443,422.89,121.936,522.359,57.345c38.924-25.276,83.148-41.433,129.266-46.641
					c205.991-23.262,289.969-188.546,309.596-234.677c-60.856,165.302,81.638,201.325,282.43,124.003
					c205.535-79.188,171.27-322.77,171.27-322.77c-36.396,120.22-130.611,184.805-133.542,186.777
					c124.855-143.933,111.427-344.192,93.682-446.666c54.621,21.422,83.876,123.896,78.974,187.47
					C2679.33,1254.684,2769.494,1421.691,2689.615,1542.443z"/>
			</g>
			<g>
				<path style="fill:#380072;" d="M1544.77,1899.444c-70.85,0-128.809-25.952-152.148-38.159
					c-40.649,18.799-110.669,26.025-162.573-45.996c-84.863-117.896,51.66-283.032,95.752-331.128l-30.371-41.309
					c-18.628-14.282-117.48-95.654-106.982-205.566c9.814-103.101,144.995-164.673,188.135-181.763
					c19.678-172.485,80.786-295.215,181.714-364.941c126.807-87.622,272.827-61.035,303.76-53.931
					c192.944-49.634,314.795,35.327,342.676,57.764c277.93,21.973,386.67,236.304,408.252,286.059
					c65.771,25.537,98.389,135.645,92.676,209.033c-1.318,17.139,6.152,47.241,14.063,79.102
					c20.313,81.958,48.096,194.214-12.354,285.62l0,0c-118.115,178.516-379.712,210.498-421.924,214.551
					c-281.274,175.757-534.009,104.59-589.771,85.254C1643.965,1888.116,1591.548,1899.444,1544.77,1899.444z M1392.915,1815.9
					c3.809,0,7.617,0.977,11.035,3.003c14.99,8.862,150.391,84.058,276.367-6.006c6.006-4.272,13.672-5.176,20.41-2.417
					c2.686,1.05,271.655,106.152,566.333-80.493c2.954-1.855,6.323-2.979,9.79-3.247c2.808-0.195,280.615-23.267,394.971-196.045
					l0,0c50.146-75.781,25.928-173.389,6.494-251.831c-9.131-36.841-16.992-68.628-15.137-92.627
					c5.029-64.99-28.418-157.959-70.85-167.651c-7.129-1.611-12.891-6.787-15.332-13.647
					c-3.662-10.156-92.139-249.17-382.129-268.506c-4.785-0.317-9.375-2.295-12.939-5.493
					c-4.688-4.248-118.091-104.224-314.136-51.733c-3.613,0.952-7.373,0.928-11.011,0.024
					c-1.489-0.415-151.44-38.672-274.634,46.704c-92.505,64.087-147.852,180.859-164.551,347.046
					c-0.83,8.276-6.421,15.332-14.282,18.042c-45.483,15.674-165.088,73.218-172.437,150.317
					c-8.984,94.214,91.357,168.359,92.358,169.092c1.782,1.294,3.369,2.881,4.688,4.639l42.773,58.228
					c6.25,8.496,5.347,20.288-2.124,27.734c-1.831,1.807-180.957,182.324-103.931,289.355
					c47.852,66.431,110.547,32.471,117.48,28.369l0.024,0.024C1385.42,1816.876,1389.155,1815.9,1392.915,1815.9z
					 M2689.594,1542.462h0.488H2689.594z"/>
			</g>
			<g>
				<path style="fill:#380072;" d="M1396.382,1092.169c-2.49,0-5.005-0.415-7.446-1.343c-11.035-4.126-16.65-16.406-12.524-27.417
					c5.103-13.672,128.955-335.767,480.591-425.44c11.45-2.734,23.022,3.955,25.928,15.381s-3.979,23.023-15.381,25.928
					c-330.249,84.204-450.024,395.898-451.196,399.023C1413.154,1086.871,1405.024,1092.169,1396.382,1092.169z"/>
			</g>
			<g>
				<path style="fill:#380072;" d="M2427.236,1061.724c-23.735,144.843-143.188,243.16-207.132,367.492
					c-60.36,94.027-104.002,297.241,56.762,297.547c27.567-2.256,31.204,39.859,3.692,42.457
					c-84.893,11.36-160.934-66.885-157.749-149.036c-0.452-192.921,156.82-316.674,248.674-466.27
					c17.413-30.072,34.695-63.311,40.879-94.895C2414.097,1049.841,2428.89,1052.196,2427.236,1061.724L2427.236,1061.724z"/>
			</g>
			<g>
				<path style="fill:#380072;" d="M2006.982,1267.522c-43.928-47.853-115.939-61.089-170.697-24.818
					c0-0.003-6.547-39.86-6.547-39.86c56.245,16.022,104.587,56.701,126.128,110.402c3.322,7.773-8.197,13.431-12.489,6.245
					c-13.845-21.514-31.917-39.533-53.288-51.821c-19.693-11.877-45.244-20.83-67.224-22.762
					c-11.449-0.879-20.018-10.872-19.14-22.32c0.611-7.962,5.742-14.574,12.592-17.543c35.178-16.105,76.591-23.492,114.436-12.556
					c37.865,10.242,68.697,33.295,91.685,63.103c3.283,4.257,2.493,10.37-1.764,13.652
					C2016.363,1272.594,2010.32,1271.617,2006.982,1267.522L2006.982,1267.522z"/>
			</g>
			<g>
				<path style="fill:#380072;" d="M1411.357,1185.673c39.864,13.418,96.327,41.73,135.041,100.059
					c13.841,20.854,7.767,48.941-13.037,62.856c-25.459,17.029-64.87,35.665-114.771,34.926
					c-16.387-0.243-31.45-9.054-39.415-23.377c-14.752-26.527-35.058-75.91-27.208-137.326
					C1355.577,1194.566,1384.371,1176.59,1411.357,1185.673z"/>
			</g>
			<g>
				<path style="fill:#380072;" d="M1798.868,1564.739c0,0-182.781,260.582-349.041,214.327
					c-16.946-4.636-33.678-12.523-50.038-24.193c-125.015-89.099-46.255-268.948-46.255-268.948l-42.684-58.138
					c1.759,1.439,22.168,15.774,94.108-46.308c0,0,4.796,29.255,17.159,65.652c17.905,53.022,51.69,121.178,109.562,136.419
					c52.596,13.855,125.974,7.354,182.567-1.652C1762.738,1574.224,1798.868,1564.739,1798.868,1564.739z"/>
			</g>
			<g>
				<path style="fill:#380072;" d="M1490.669,1805.89c-15.503,0-31.055-1.978-46.558-6.299c-19.702-5.396-38.794-14.6-56.689-27.368
					c-104.15-74.219-85.547-211.426-58.13-283.301l-35.62-48.511c-6.348-8.667-5.273-20.703,2.515-28.101
					c6.689-6.396,16.602-7.568,24.536-3.418c4.248-0.244,24.17-3.735,70.313-43.555c5.811-5.054,13.94-6.567,21.167-3.906
					c7.251,2.637,12.524,8.96,13.77,16.577c0.049,0.269,4.736,28.149,16.333,62.256c13.525,40.088,43.799,109.253,94.8,122.681
					c50.049,13.062,122.119,6.104,173.804-2.1c46.753-7.397,82.202-16.65,82.544-16.724c8.716-2.271,17.822,1.099,22.925,8.423
					c5.103,7.349,5.078,17.09-0.049,24.414C1809.175,1587.14,1653.706,1805.89,1490.669,1805.89z M1349.604,1444.562l21.118,28.735
					c4.492,6.128,5.371,14.185,2.344,21.143c-2.905,6.714-70.166,165.21,39.111,243.066c13.794,9.839,28.345,16.919,43.286,20.996
					c108.569,30.249,230.664-90.845,289.819-160.327c-8.618,1.611-17.896,3.223-27.71,4.761
					c-55.688,8.887-134.131,16.284-191.309,1.221c-66.797-17.578-104.492-91.382-124.341-150.22
					c-4.272-12.573-7.69-24.341-10.327-34.448C1375.263,1431.5,1361.396,1439.508,1349.604,1444.562z M1324.336,1411.285
					c0,0,0.024,0,0.024,0.024C1324.36,1411.285,1324.336,1411.285,1324.336,1411.285z"/>
			</g>
			<g>
				<path style="fill:#FF82A5;" d="M1714.271,1581.877c-28.403,16.839-155.23,94.321-264.418,197.168
					c-19.77,18.544-38.954,37.994-56.859,58.031l-0.053,0.053c-2.824,1.652-84.942,49.878-145.585-34.318
					c-20.942-29.043-26.058-61.975-21.742-95.44c4.902-37.995,22.168-76.576,42.418-110.681
					c29.469-49.505,69.116-91.923,115.85-125.228c12.257-8.793,25.046-16.893,38.208-24.353c0,0,0,0,0.053,0
					c17.905,53.022,51.69,121.178,109.562,136.419C1584.301,1597.384,1657.679,1590.883,1714.271,1581.877z"/>
			</g>
			<g style="opacity:0.6;">
				<path style="fill:#FFFFFF;" d="M1442.233,1495.975c-11.563,6.714-22.754,13.962-33.572,21.689
					c-46.734,33.306-86.381,75.723-115.849,125.228c-20.25,34.104-37.515,72.685-42.418,110.681
					c-2.504,19.61-1.812,39.06,3.464,57.605c-2.238-2.611-4.37-5.436-6.501-8.366c-20.942-29.043-26.058-61.975-21.742-95.44
					c4.902-37.995,22.168-76.576,42.418-110.681c29.469-49.505,69.116-91.923,115.85-125.228
					c12.257-8.793,25.046-16.893,38.208-24.353c0,0,0,0,0.053,0C1427.419,1462.67,1434.026,1479.509,1442.233,1495.975z"/>
			</g>
			<g>
				<path style="fill:#FF82A5;" d="M1459.285,1525.551c-6.341-9.432-11.99-19.397-17.052-29.575
					c1.546-0.906,3.091-1.758,4.636-2.665c0,0,0,0,0.053,0C1450.439,1503.649,1454.489,1514.573,1459.285,1525.551z"/>
			</g>
			<g style="opacity:0.2;">
				<path style="fill:#380072;" d="M1714.271,1581.898c-28.403,16.839-155.23,94.321-264.418,197.168
					c-19.77,18.544-38.954,37.994-56.859,58.031l-0.053,0.053c-2.824,1.652-84.942,49.878-145.585-34.318
					c-20.942-29.043-26.058-61.975-21.742-95.44c-6.509,77.175,88.906,109.314,135.087,57.551
					c39.916-44.741,85.593-78.637,119.732-100.625c16.268-10.478,10.882-35.486-8.273-38.228l-62.273-8.916
					c17.852-57.019-5.755-112.226-26.005-145.691c12.257-8.793,25.046-16.893,38.208-24.353c0,0,0,0,0.053,0
					c17.905,53.022,51.69,121.178,109.562,136.419C1584.301,1597.405,1657.679,1590.903,1714.271,1581.898z"/>
			</g>
			<g>
				<path style="fill:#380072;" d="M1335.639,1873.981c-34.668,0-73.584-14.258-105.591-58.691
					c-41.821-58.105-35.01-137.451,19.653-229.468c38.501-64.722,94.458-119.092,161.865-157.251
					c5.542-3.174,12.134-3.613,18.091-1.367c5.957,2.271,10.571,7.08,12.598,13.086c13.55,40.039,43.896,109.229,94.849,122.656
					c50.049,13.062,122.119,6.104,173.804-2.1c9.888-1.782,19.922,4.175,23.389,13.818c3.491,9.619-0.366,20.337-9.18,25.562
					c-24.487,14.502-152.1,92.09-260.669,194.36c-19.946,18.701-38.647,37.769-55.591,56.714c-1.465,1.636-3.149,3.003-5.029,4.126
					C1387.275,1865.24,1362.763,1873.981,1335.639,1873.981z M1411.103,1478.741c-51.392,33.35-94.214,77.515-124.756,128.857
					c-45.996,77.393-53.296,138.892-21.704,182.788c43.994,61.133,100.635,37.231,114.819,29.834
					c17.163-18.994,35.913-38.062,55.786-56.714c65.674-61.841,138.013-114.893,191.65-151.147
					c-35.107,1.367-70.776-0.317-100.635-8.203C1468.598,1588.995,1432.612,1531.915,1411.103,1478.741z"/>
			</g>
			<g>
				<path style="fill:#380072;" d="M1498.409,1579.428c-56.901,25.214-109.06,67.044-142.955,120.166
					c-2.217,3.673-6.992,4.853-10.665,2.635c-3.363-2.029-4.549-6.389-3.04-9.898c21.284-46.731,55.23-87.63,94.837-120.444
					c18.941-11.998,51.293-51.904,72.514-23.355C1515.907,1559.743,1510.646,1574.8,1498.409,1579.428L1498.409,1579.428z"/>
			</g>
			<g>
				<path style="fill:#380072;" d="M2197.534,736.437c-29.339-1.417-63.406,1.253-90.147,14.904
					c-4.436,2.295-9.893,0.559-12.188-3.877c-1.94-3.751-0.993-8.232,2.023-10.915c28.191-24.015,61.838-35.128,97.834-42.672
					C2226.394,688.7,2229.318,737.932,2197.534,736.437L2197.534,736.437z"/>
			</g>
			<g>
				<path style="fill:#380072;" d="M1679.016,1813.893l85.974-55.548c8.244-5.639,18.003,6.182,11.07,13.196
					c0.001,0-69.644,75.012-69.644,75.012C1684.389,1869.261,1652.789,1831.676,1679.016,1813.893L1679.016,1813.893z"/>
			</g>
			<g>
				
					<ellipse transform="matrix(0.588 -0.8088 0.8088 0.588 -413.9774 1680.2648)" style="fill:#FFFFFF;" cx="1442.494" cy="1246.526" rx="21.365" ry="63.48"/>
			</g>
			<g>
				<path style="fill:#FFB375;" d="M2258.296,2505.689c0,0.213-0.053,0.427-0.16,0.64v0.159
					c-75.297,297.032-294.313,722.541-350.106,828.373c-8.526,16.2-23.66,28.03-41.512,32.292
					c-149.688,35.811-366.2,15.454-473.47,1.652c-38.315-4.902-63.946-42.684-53.449-79.88c1.066-3.73,2.185-7.46,3.357-11.084
					c7.887-24.193,18.331-45.615,30.641-64.532c83.93-129.865,252.322-142.973,252.322-142.973l157.468-538.802l0.053-0.213
					l37.728-129.012c-65.119-109.615-58.245-239.799-58.245-239.799l393.111,103.966l104.446,27.603l20.729,5.489
					C2288.67,2352.377,2278.918,2424.158,2258.296,2505.689z"/>
			</g>
			<g style="opacity:0.6;">
				<path style="fill:#FFFFFF;" d="M1783.387,2531.535l-95.845,518.36c-6.673,36.089-34.041,64.897-69.812,73.104
					c-69.173,15.87-186.415,56.043-274.775,154.844c7.887-24.193,18.331-45.615,30.641-64.532
					c83.93-129.865,252.322-142.973,252.322-142.973L1783.387,2531.535z"/>
			</g>
			<g style="opacity:0.2;">
				<path style="fill:#380072;" d="M2258.296,2505.689c-0.053,0.107-0.053,0.16-0.053,0.16s-0.053,0.16-0.107,0.48v0.159
					c-75.297,297.032-294.313,722.541-350.106,828.373c-8.526,16.2-23.66,28.03-41.512,32.292
					c-149.688,35.811-366.2,15.454-473.47,1.652c-38.315-4.902-63.946-42.684-53.449-79.88
					c8.153-28.829,19.877-53.874,33.998-75.616c15.347,21.955,36.503,36.823,65.119,30.001c0,0,54.994,74.445,187.203,15.774
					c0,0,106.79,50.89,184.539,6.341c77.801-44.549,196.529-316.694,249.391-530.969c38.847-157.628,64.842-374.042,116.915-462.492
					c18.529-31.472,33.511-40.245,58.351-35.597c24.734,4.628,39.007,27.07,46.094,63.2
					C2296.824,2379.022,2259.042,2500.2,2258.296,2505.689z"/>
			</g>
			<g>
				<path style="fill:#380072;" d="M1770.892,2162.935c3.213,81.017,25.541,163.21,68.592,228.493
					c3.107,5.26,3.721,11.415,2.132,16.873l-195.262,668.001c-2.557,8.751-10.233,14.608-18.812,15.277
					c-81.181,10.788-164.866,47.87-216.053,110.724c-22.901,27.236-37.947,59.862-48.18,93.711
					c-6.844,25.773,15.39,48.761,41.07,48.428c152.758,13.26,326.437,38.173,472.361-11.719
					c169.213-322.991,348.578-667.132,398.976-1033.013c-0.004-6.083,9.972-7.127,11.065-0.95
					c35.39,181.888-51.558,356.483-111.117,522.704c-70.833,176.153-151.863,347.505-238.957,515.787
					c-13.794,38.979-59.059,59.385-99.414,62.698c-134.676,21.923-271.616,13.421-405.853-0.707c0-0.001-33.417-4.014-33.417-4.014
					c-55.049-1.852-98.588-58.603-82.347-112.211c37.56-137.072,174.16-220.937,308.562-233.938
					c-0.002-0.002-18.802,15.264-18.802,15.264l195.262-668.002c-0.056-0.056,2.257,17.222,2.079,16.758
					c-39.831-78.014-53.546-164.744-47.827-251.001C1755.533,2152.417,1771.369,2152.557,1770.892,2162.935L1770.892,2162.935z"/>
			</g>
			<g>
				<path style="fill:#380072;" d="M1393.041,3363.492c10.466-50.522,29.948-96.664,62.619-135.939
					c3.329-3.93,9.215-4.42,13.147-1.091c3.522,2.98,4.282,8.014,2.01,11.856c-22.788,38.46-34.054,86.012-35.34,129.73
					C1434.36,3398.41,1387.69,3393.478,1393.041,3363.492L1393.041,3363.492z"/>
			</g>
			<g>
				<path style="fill:#380072;" d="M1562.979,3375.643c0.848-17.336,72.259-185.714,80.021-127.839
					c-23.135,40.571-32.14,90.356-38.298,136.846C1600.28,3414.549,1554.668,3404.784,1562.979,3375.643L1562.979,3375.643z"/>
			</g>
			<g>
				<path style="fill:#3A0000;" d="M2196.055,1447.802c-0.533,1.492-1.918,5.276-4.263,10.818
					C2193.124,1455.05,2194.509,1451.479,2196.055,1447.802z"/>
			</g>
			<g>
				<g>
					<g>
						<g>
							<path style="fill:#390075;" d="M1599.397,960.131c-34.003-17.543-81.963,8.373-107.12,57.884
								c-25.157,49.511-17.986,103.87,16.018,121.413c34.003,17.543,81.963-8.372,107.12-57.884
								C1640.572,1032.034,1633.4,977.674,1599.397,960.131z"/>
						</g>
					</g>
				</g>
				<g>
					<g>
						<g>
							<path style="fill:#FFFFFF;" d="M1588.433,980.703c-13.141,0.273-24.888,15.873-26.237,34.843
								c-1.349,18.971,8.21,34.127,21.352,33.854c13.141-0.273,24.888-15.872,26.236-34.842
								C1611.133,995.587,1601.574,980.43,1588.433,980.703z"/>
						</g>
					</g>
				</g>
				<g>
					<g>
						<g>
							<path style="fill:#B199C5;" d="M1506.946,1076.367c-6.9,1.853-11.347,11.252-9.933,20.992
								c1.413,9.74,8.152,16.134,15.051,14.28c6.899-1.853,11.347-11.252,9.933-20.991
								C1520.584,1080.908,1513.844,1074.514,1506.946,1076.367z"/>
						</g>
					</g>
				</g>
			</g>
		</g>
		<g>
			<g>
				<path style="fill:#FFFFFF;" d="M2843.612,889.382c-21.336-33.371-32.341-73.726-28.844-116.248
					c8.489-103.21,99.038-179.997,202.248-171.509c103.21,8.489,179.997,99.038,171.509,202.248s-99.038,179.997-202.248,171.508
					c-28.708-2.361-55.361-11.088-78.713-24.653l-86.362,21.214L2843.612,889.382z"/>
			</g>
			<g style="opacity:0.5;">
				<g>
					<path style="fill:#FFFFFF;" d="M3014.06,637.567c-96.413-7.929-181.755,58.562-199.501,151.485
						c-0.157-6.609-0.007-13.282,0.547-20.019c8.489-103.21,99.038-179.997,202.248-171.509
						c103.21,8.489,179.997,99.038,171.509,202.248c-0.556,6.766-1.485,13.41-2.727,19.932
						C3183.855,725.091,3110.504,645.499,3014.06,637.567z"/>
				</g>
			</g>
			<g>
				<path style="fill:#380072;" d="M3001.802,992.926c-5.615,0-11.23-0.244-16.895-0.708c-28.223-2.295-55.029-10.205-79.785-23.486
					l-79.883,19.629c-6.104,1.465-11.963-0.342-16.162-4.59c-4.15-4.297-5.762-10.474-4.199-16.235l20.508-75.537
					c-21.484-36.426-30.957-77.832-27.441-120.264c4.443-54.394,29.834-103.809,71.484-139.136
					c41.65-35.303,94.531-52.344,148.975-47.827c112.354,9.253,196.191,108.154,186.963,220.483
					C3196.577,911.92,3106.977,992.901,3001.802,992.926z M2907.563,933.844c2.979,0,5.908,0.757,8.496,2.271
					c22.021,12.793,46.094,20.337,71.582,22.412c45.654,3.857,89.6-10.425,124.365-39.917
					c34.717-29.468,55.908-70.703,59.668-116.138c7.715-93.75-62.256-176.294-156.006-184.009
					c-45.557-3.613-89.6,10.474-124.365,39.917c-34.766,29.492-55.957,70.727-59.668,116.113
					c-3.125,37.549,5.957,74.121,26.221,105.786c2.539,4.028,3.32,8.936,2.051,13.525l-14.893,54.883l58.496-14.356
					C2904.878,933.99,2906.196,933.844,2907.563,933.844z"/>
			</g>
			<g style="opacity:0.2;">
				<path style="fill:#380072;" d="M2842.523,887.603c52.229,42.392,123.354,59.979,193.248,41.072
					c77.513-20.968,133.712-81.455,152.9-153.873c0.687,9.537,0.662,19.245-0.146,29.071
					c-8.489,103.21-99.038,179.997-202.248,171.508c-28.708-2.361-55.36-11.087-78.713-24.653l-86.362,21.214l22.411-82.561
					C2843.237,888.796,2842.891,888.193,2842.523,887.603z"/>
			</g>
			<g>
				<path style="fill:#FF0068;" d="M2944.127,734.253L2944.127,734.253c16.754-15.683,42.954-11.909,58.637,4.844l2.441,2.608
					l2.608-2.441c16.754-15.683,43.145-17.721,58.828-0.968l0,0c15.683,16.754,14.815,43.049-1.938,58.732l-2.608,2.441
					l-52.674,49.308c-4.417,4.135-11.349,3.906-15.484-0.511l-49.308-52.673l-2.441-2.608
					C2926.506,776.231,2927.374,749.936,2944.127,734.253z"/>
			</g>
		</g>
	</g>
</g>
</svg>
