<?xml version="1.0" encoding="iso-8859-1"?>
<!-- Generator: Adobe Illustrator 27.9.0, SVG Export Plug-In . SVG Version: 6.00 Build 0)  -->
<svg version="1.1" id="&#xD1;&#xEB;&#xEE;&#xE9;_1" xmlns="http://www.w3.org/2000/svg" xmlns:xlink="http://www.w3.org/1999/xlink"
	 x="0px" y="0px" viewBox="0 0 2005 2005" style="enable-background:new 0 0 2005 2005;" xml:space="preserve">
<g>
	<defs>
		<rect id="SVGID_1_" width="2005" height="2005"/>
	</defs>
	<clipPath id="SVGID_00000176751785385730390280000016022333314934671525_">
		<use xlink:href="#SVGID_1_"  style="overflow:visible;"/>
	</clipPath>
	<g style="clip-path:url(#SVGID_00000176751785385730390280000016022333314934671525_);">
		<path style="fill:#FFBBB4;" d="M1220.929,954.074c5.135,4.658,10.402,9.179,15.368,14.009
			c5.513,5.362,11.336,10.541,14.898,17.547c6.125,12.047,0.006,23.369-13.418,24.773c-8.288,0.867-16.069-1.488-23.515-4.728
			c-16.135-7.02-31.858-14.904-48.024-24.064c0.139,4.888,3.417,6.816,5.687,9.073c10.693,10.634,20.865,21.715,29.687,33.959
			c2.99,4.15,5.948,8.461,8.041,13.095c5.101,11.293-0.248,20.062-12.702,20.471c-11.135,0.365-21.913-2.463-32.191-6.515
			c-15.404-6.074-29.594-14.59-43.792-23.028c-4.021-2.39-8.026-4.806-12.379-6.735c10.787,12.021,22.273,23.244,31.885,36.138
			c3.522,4.724,6.908,9.562,9.089,15.035c4.138,10.381-0.443,18.195-11.575,20.027c-6.659,1.095-13.179-0.152-19.642-1.614
			c-14.109-3.192-26.929-9.592-39.619-16.232c-65.878-34.469-127.441-75.592-186.912-120.104
			c-51.332-38.419-97.42-82.633-143.544-126.864c-18.555-17.793-37.158-35.552-55.218-53.84
			c-22.953-23.243-45.766-46.651-67.923-70.649c-23.482-25.434-25.825-49.146-9.758-79.63c6.838-12.974,13.358-26.131,19.552-39.425
			c9.379-20.13,25.616-27.045,46.727-25.444c11.81,0.896,23.175,3.777,34.402,7.291c45.758,14.322,88.949,34.497,130.258,58.594
			c39.631,23.119,79.498,45.77,120.105,67.136c38.713,20.368,74.974,44.782,111.428,68.82
			c34.933,23.035,70.028,45.888,103.412,71.152c34.46,26.077,64.38,56.784,90.097,91.542c3.499,4.729,6.751,9.666,8.817,15.193
			c3.851,10.304-0.416,17.594-11.489,18.692c-13.285,1.317-26.359-0.875-39.266-3.996c-2.38-0.576-4.723-1.307-7.083-1.966
			C1221.863,952.549,1221.396,953.311,1220.929,954.074z"/>
		<path style="fill:#E9281F;" d="M1131.716,713.759c8.236-0.344,14.905-2.184,21.53-3.907c15.627-4.065,31.171-8.451,46.781-12.581
			c15.317-4.052,30.897-6.504,46.763-6.619c28.732-0.209,53.222,9.772,72.1,31.678c16.727,19.41,19.074,43.452,6.119,65.448
			c-17.146,29.112-41.98,49.748-73.277,62.248c-30.462,12.167-62.217,19.924-94.552,25.022
			c-47.492,7.489-95.079,14.367-142.609,21.622c-10.517,1.605-20.959,3.7-31.435,5.572c-4.049,0.724-8.043,1.202-11.376-2.063
			c-3.3-3.233-0.94-6.599-0.716-10.139c0.483-7.635-0.076-15.359-0.546-23.026c-2.692-43.956-5.935-87.884-8.097-131.865
			c-1.767-35.953-0.234-71.957,3.283-107.743c2.767-28.156,8.711-55.828,21.485-81.5c7.891-15.858,19.505-28.318,34.841-37.227
			c41.412-24.057,89.195-11.228,115.375,31.004c7.231,11.666,12.012,24.317,14.462,37.824c5.504,30.342,5.109,60.61-1.414,90.759
			c-2.496,11.538-6.642,22.484-12.324,32.852C1136.055,704.868,1134.239,708.749,1131.716,713.759z"/>
		<path style="fill:#FFA19F;" d="M634.203,676.508c-4.35-3.946-8.765-7.822-13.037-11.85
			c-13.272-12.512-17.057-27.783-12.889-45.263c3.155-13.23,7.396-26.139,12.547-38.704c6.816-16.625,13.976-33.11,21.128-49.595
			c7.99-18.416,17.297-22.863,36.694-17.93c19.339,4.918,37.608,12.726,55.052,22.102c53.654,28.841,108.681,54.97,162.727,83.031
			c33.93,17.617,65.591,38.985,98.284,58.642c25.808,15.516,52.207,29.901,79.23,43.176c10.547,5.181,20.858,10.779,29.61,18.859
			c5.258,4.854,9.083,10.589,11.359,17.298c5.444,16.049,0.661,29.798-13.363,39.366c-11.426,7.795-23.948,10.708-37.651,9.126
			c-21.083-2.433-40.437-10.519-59.689-18.626c-21.033-8.857-40.099-21.441-59.368-33.518c-6.45-4.043-13.143-6.302-20.623-6.741
			c-19.163-1.124-38.141,1.089-57.095,3.319c-17.501,2.059-34.948,4.582-52.423,6.869c-23.126,3.026-45.215-0.687-66.865-9.216
			C705.665,730.244,668.407,705.847,634.203,676.508z"/>
		<path style="fill:#24586D;" d="M-278.58-86.586c38.002-41.893,76.003-83.787,114.005-125.68c1.728-1.904,3.437-3.825,5.189-5.706
			c6.554-7.034,6.637-7.152,14.421-2.201c16.103,10.243,32.054,20.726,48.173,30.942c66.064,41.871,129.575,87.511,194.263,131.413
			C132.7-33.909,168.616-11.01,203.365,13.605c66.819,47.332,133.158,95.273,195.573,148.45
			c48.645,41.446,97.433,82.71,144.233,126.251c29.052,27.03,56.286,55.878,83.638,84.593c23.803,24.99,47.519,50.068,70.915,75.438
			c15.676,16.999,30.675,34.62,46.089,51.863c4.643,5.193,9.354,10.406,14.595,14.963c5.588,4.858,6.643,10.137,3.848,16.684
			c-2.16,5.06-3.914,10.302-6.236,15.282c-21.591,46.317-45.496,91.263-76.794,131.974c-8.721,11.343-17.446,22.712-25.882,34.263
			c-8.04,11.008-17.379,13.73-30.527,10.344c-44.833-11.546-89.376-23.754-131.574-43.297
			c-99.644-46.149-196.961-96.719-290.822-153.759c-59.308-36.042-116.864-74.796-172.874-115.776
			c-47.415-34.692-93.735-70.828-139.549-107.616c-37.792-30.347-75.794-60.432-113.728-90.602
			c-59.833-47.586-117.402-97.737-171.828-151.457c-1.307-1.29-2.527-2.676-3.902-3.887c-3.233-2.846-2.748-5.568,0.005-8.42
			c2.04-2.112,3.937-4.362,5.911-6.538C-356.558-0.623-317.569-43.604-278.58-86.586z"/>
		<path style="fill:#78AEAE;" d="M618.17,509.352c2.719,12.459,6.945,23.385,10.524,34.505c1.121,3.484,2.43,6.962,1.846,10.717
			c-0.482,3.095-1.975,5.508-5.202,6.407c-2.884,0.803-5.073-0.63-6.716-2.666c-1.347-1.668-2.536-3.63-3.2-5.657
			c-4.215-12.866-8.268-25.786-12.36-38.693c-0.22-0.695-0.334-1.426-0.465-2.146c-2.397-13.228,3.105-19.792,16.32-19.173
			c4.003,0.187,8.025,0.793,11.954,1.608c10.032,2.082,20.02,4.38,30.019,6.62c1.418,0.318,2.901,0.587,4.181,1.226
			c3.196,1.595,5.17,4.054,4.616,7.891c-0.558,3.863-3.156,5.828-6.72,6.086c-2.869,0.208-5.856-0.145-8.69-0.73
			c-7.526-1.554-14.978-3.459-22.498-5.045C627.554,509.411,623.353,507.657,618.17,509.352z"/>
		<path style="fill:#78AEAE;" d="M74.773-9.386c5.448-5.6,11.064-6.83,17.036-4.923c12.381,3.954,22.981,11.17,32.825,19.432
			c3.341,2.804,4.484,6.859,1.347,10.73c-3.159,3.899-7.095,3.232-10.822,0.874c-6.179-3.91-12.104-8.235-18.385-11.967
			C87.415-0.8,86.009-0.123,83.901,10.219c-1.766,8.665-2.058,17.416-1.243,26.223c0.302,3.271,0.518,6.573,0.428,9.851
			c-0.107,3.87-1.296,7.611-5.653,8.271c-3.816,0.577-5.886-2.374-7.228-5.576c-0.845-2.013-1.78-4.07-2.128-6.197
			c-2.581-15.797-1.7-31.344,3.766-46.504C72.717-6.138,73.699-8.504,74.773-9.386z"/>
		<path style="fill:#78AEAE;" d="M242.939,260.312c3.387-4.199,8.628-6.423,14.892-5.803c14.957,1.479,27.88,8.562,40.784,15.448
			c3.408,1.819,4.977,5.504,2.939,9.496c-1.978,3.875-5.475,4.794-9.332,3.53c-3.811-1.25-7.444-3.038-11.163-4.571
			c-5.745-2.369-11.372-5.119-17.277-6.988c-8.679-2.746-10.952-1.2-12.972,7.815c-1.55,6.92-1.158,13.817,0.589,20.68
			c0.81,3.182,1.768,6.387,1.249,9.743c-0.827,5.356-5.082,7.383-9.587,4.402c-1.464-0.968-2.674-2.478-3.68-3.958
			C231.424,298.39,233.053,271.725,242.939,260.312z"/>
		<path style="fill:#78AEAE;" d="M468.072,483.453c1.025,8.912,4.301,15.804,7.253,22.81c2.272,5.393,5.286,10.572,5.735,16.566
			c0.275,3.675,0.49,7.763-3.798,9.383c-4.285,1.619-7.196-1.193-8.918-4.57c-6.841-13.414-13.713-26.916-15.881-42.037
			c-2.037-14.203,5.697-21.198,19.461-17.827c9.685,2.372,18.532,6.922,27.218,11.734c0.319,0.177,0.602,0.42,0.893,0.644
			c4.693,3.606,6.167,7.687,3.764,11.216c-2.793,4.101-6.753,3.963-10.786,2.244c-3.032-1.292-5.907-2.947-8.876-4.389
			C479.527,486.992,475.008,484.507,468.072,483.453z"/>
		<path style="fill:#78AEAE;" d="M-28.909-80.977c-1.923,11.094-0.191,21.195,0.603,31.296c0.344,4.373,1.124,8.742-0.151,13.08
			c-0.868,2.951-2.275,5.484-5.767,5.788c-3.472,0.302-5.957-1.865-6.666-4.666c-4.521-17.863-6.735-35.997-2.246-54.138
			c1.567-6.331,7.031-8.902,14.048-7.501c12.715,2.538,24.049,8.549,34.796,15.609c3.387,2.225,4.808,5.717,2.893,9.568
			c-2.212,4.449-6.228,4.922-10.325,3.137C-10.405-72.586-18.308-78.094-28.909-80.977z"/>
		<path style="fill:#78AEAE;" d="M231.463,96.46c-1.872,8.404,0.253,15.442,2.137,22.479c1.049,3.917,2.199,7.84,1.153,11.88
			c-1.453,5.614-6.892,7.034-10.904,2.899c-0.995-1.026-1.753-2.365-2.35-3.682c-5.088-11.23-7.607-22.995-5.911-35.275
			c1.699-12.301,9.265-17.162,21.133-13.539c12.694,3.875,23.859,11.102,35.394,17.435c4.008,2.2,5.331,6.302,3.227,10.444
			c-2.213,4.355-6.39,4.722-10.433,2.87c-5.316-2.435-10.385-5.406-15.614-8.039C243.816,101.172,238.678,97.571,231.463,96.46z"/>
		<path style="fill:#78AEAE;" d="M473.846,296.532c1.664,7.872,5.261,13.812,7.616,20.189c1.262,3.418,2.804,6.807,3.474,10.35
			c0.8,4.231-0.361,8.322-4.871,9.867c-4.313,1.478-7.098-1.648-8.677-4.963c-3.768-7.911-7.208-15.993-10.439-24.141
			c-1.878-4.736-3.665-9.638-4.494-14.631c-1.912-11.519,5.07-17.773,16.308-14.385c11.229,3.385,21.518,9.09,31.674,14.891
			c4.147,2.369,6.667,5.925,4.508,10.965c-1.754,4.095-6.389,4.92-12.415,2.121C489.356,303.462,482.654,299.051,473.846,296.532z"
			/>
		<path style="fill:#78AEAE;" d="M-141.288-148.623c-2.4,11.343-1.278,21.98-1.423,32.559c-0.05,3.655-0.019,7.373-0.69,10.938
			c-0.624,3.317-2.551,6.618-6.266,6.768c-4.283,0.172-6.276-3.235-7.378-6.977c-0.412-1.399-0.701-2.871-0.78-4.325
			c-0.721-13.205-1.21-26.44,0.519-39.581c1.99-15.118,9.908-19.568,23.954-13.434c7.037,3.073,13.714,6.984,20.492,10.631
			c4.344,2.337,6.736,5.796,4.75,10.859c-1.69,4.308-6.1,5.154-12.296,2.583C-127.132-141.391-132.847-146.301-141.288-148.623z"/>
		<path style="fill:#78AEAE;" d="M362.399,377.854c1.725,8.524,3.178,15.269,4.425,22.052c0.663,3.604,1.098,7.286-0.75,10.753
			c-2.563,4.808-7.092,5.505-10.67,1.481c-1.182-1.329-2.277-3.018-2.674-4.714c-2.587-11.066-5.497-22.097-7.275-33.302
			c-1.812-11.42,4.86-17.272,15.677-13.773c12.945,4.188,24.806,10.944,36.307,18.14c5.036,3.151,6.001,7.489,3.764,11.186
			c-2.192,3.623-6.507,4.587-11.677,1.827C381.13,387.023,372.965,382.109,362.399,377.854z"/>
		<path style="fill:#78AEAE;" d="M537.664,608.338c1.264,9.926,4.734,17.621,7.341,25.55c1.14,3.465,2.772,6.809,2.168,10.628
			c-0.425,2.681-1.494,5.046-4.149,6.019c-2.989,1.095-6.453,0.78-7.88-2.055c-7.254-14.407-13.839-29.214-13.109-45.784
			c0.305-6.931,5.786-11.036,13.006-10.635c12.036,0.669,22.283,6.697,32.556,12.26c2.75,1.489,3.569,4.645,2.434,7.751
			c-1.258,3.443-3.867,5.173-7.583,5.215c-3.067,0.035-5.664-1.453-8.308-2.632C549.145,612.428,544.331,609.768,537.664,608.338z"
			/>
		<path style="fill:#78AEAE;" d="M101.626,367.013c5.012-5.931,11.308-7.672,18.746-5.898c10.819,2.581,19.904,9.016,29.858,13.511
			c3.28,1.481,4.233,4.973,2.831,8.503c-1.343,3.382-4.003,5.144-7.679,5.077c-3.39-0.061-6.316-1.637-9.256-3.113
			c-4.893-2.457-9.669-5.2-14.717-7.281c-6.717-2.769-8.887-1.51-11.198,5.574c-1.499,4.596-1.679,9.321-1.299,14.094
			c0.231,2.912,0.738,5.834,0.624,8.732c-0.13,3.297-0.585,6.851-4.693,7.706c-3.846,0.801-6.156-1.805-8.027-4.565
			c-3.693-5.447-3.756-11.737-3.52-17.963C93.635,382.465,95.583,374.011,101.626,367.013z"/>
		<path style="fill:#78AEAE;" d="M372.583,193.243c-0.804,8.003,2.51,14.234,5.315,20.546c1.488,3.349,3.534,6.501,3.675,10.27
			c0.115,3.08-0.764,5.811-3.927,7.213c-2.75,1.219-5.028,0.106-7.102-1.542c-1.135-0.902-2.25-1.957-3.02-3.168
			c-6.618-10.395-11.142-21.574-11.011-34.069c0.098-9.397,4.985-14.617,14.098-14.98c13.132-0.522,24.984,5.324,37.353,8.513
			c2.946,0.759,4.065,4.037,3.526,7.315c-0.541,3.29-2.699,5.154-5.702,6.047c-4.495,1.336-8.714-0.379-12.923-1.558
			C386.262,195.981,379.864,193.161,372.583,193.243z"/>
		<path style="fill:#78AEAE;" d="M558.703,394.345c0.686,7.445,3.377,13.483,5.069,19.755c0.955,3.54,2.061,7.082,1.132,10.808
			c-0.642,2.572-1.721,4.826-4.572,5.679c-3.332,0.997-5.702-0.517-7.624-2.961c-0.892-1.134-1.735-2.434-2.149-3.796
			c-3.096-10.166-6.923-20.171-8.46-30.722c-1.864-12.799,5.395-19.48,17.53-15.702c10.11,3.148,19.86,7.483,29.69,11.485
			c3.323,1.353,5.229,4.029,4.609,7.862c-0.703,4.345-3.72,6.112-7.752,6.383c-4.162,0.28-7.822-1.552-11.598-2.981
			C569.575,398.262,564.998,395.016,558.703,394.345z"/>
		<path style="fill:#78AEAE;" d="M-17.432,94.753c-3.738,4.376-1.683,9.225-1.803,13.815c-0.12,4.655,0.816,10.032-5.161,11.95
			c-4.109,1.318-8.194-2.755-9.782-9.725c-1.74-7.641-1.654-15.263,1.547-22.619c4.086-9.39,12.526-13.089,21.513-8.521
			c12.847,6.531,23.05,16.728,33.798,26.086c2.941,2.561,4.076,6.233,1.393,9.854c-2.942,3.968-7.017,4.23-10.658,1.587
			c-6.504-4.723-12.634-9.964-18.881-15.036C-9.129,99.17-12.504,95.746-17.432,94.753z"/>
		<path style="fill:#78AEAE;" d="M361.26,538.843c0.707,9.369,3.937,16.741,6.598,24.286c2.797,7.933,1.888,12.867-2.39,14.631
			c-4.121,1.699-8.678-1.461-11.878-8.927c-4.337-10.122-7.789-20.587-8.757-31.618c-1.166-13.296,6.618-19.599,19-15.013
			c7.849,2.907,15.367,6.844,22.734,10.867c4.674,2.552,6.001,7.609,3.599,11.139c-2.752,4.044-6.587,3.959-10.717,2.311
			C373.78,544.256,368.826,540.304,361.26,538.843z"/>
		<path style="fill:#78AEAE;" d="M-24.178,273.031c7.637-8.635,15.134-10.54,23.518-7.743c11.957,3.989,21.999,11.44,31.912,18.947
			c3.596,2.724,4.84,6.632,2.01,10.605c-2.9,4.071-7.139,3.553-10.829,1.463c-5.078-2.876-9.769-6.426-14.709-9.558
			c-2.774-1.759-5.621-3.457-8.597-4.832c-8.287-3.83-12.381-1.236-12.708,7.993c-0.077,2.179,0.415,4.373,0.445,6.563
			c0.056,4.09,0.148,8.638-4.934,9.733c-5.485,1.182-8-3.016-9.46-7.246C-31.008,288.877-29.249,279.533-24.178,273.031z"/>
		<path style="fill:#78AEAE;" d="M102.931,175.448c6.317-7.851,13.367-10.047,21.556-7.467c10.588,3.336,19.817,9.345,28.849,15.602
			c3.736,2.588,5.307,6.323,2.7,10.467c-2.599,4.132-6.717,4.298-10.654,2.216c-6.788-3.59-13.241-7.828-20.102-11.259
			c-7.367-3.684-10.526-2.185-12.995,5.663c-0.866,2.753-1.059,5.733-1.413,8.627c-0.31,2.535-0.159,5.149-0.675,7.632
			c-0.685,3.3-1.927,6.571-6.009,6.85c-4.483,0.306-6.663-2.74-7.597-6.49C93.569,195.146,96.011,184.049,102.931,175.448z"/>
		<path style="fill:#78AEAE;" d="M249.592,476.324c0.514,8.567,3.062,14.598,5.5,20.707c2.914,7.301,2.322,11.999-1.339,14.005
			c-3.902,2.137-9.394-0.9-12.732-7.761c-4.534-9.323-7.444-19.221-7.671-29.645c-0.27-12.421,7.127-17.869,18.605-13.169
			c8.792,3.6,17.041,8.526,25.524,12.877c4.344,2.228,5.585,5.876,3.731,10.138c-1.728,3.973-5.481,4.714-9.336,3.791
			c-2.453-0.588-4.795-1.781-7.073-2.928C260.259,482.05,255.795,479.606,249.592,476.324z"/>
		<path style="fill:#78AEAE;" d="M-106.012,10.818c7.798,6.739,9.209,10.756,6.023,14.751c-3.127,3.92-7.64,3.356-14.522-1.55
			c-4.168-2.971-8.478-5.746-12.793-8.503c-3.323-2.124-5.608-0.722-6.824,2.586c-1.92,5.223-2.429,10.699-2.363,16.232
			c0.053,4.414,0.133,8.887-1.786,12.957c-2.236,4.742-7.404,5.051-10.493,0.824c-7.867-10.762-1.693-41.593,9.684-48.379
			c4.501-2.685,9.153-2.277,13.736-0.437C-117.81,2.326-111.135,6.83-106.012,10.818z"/>
		<path style="fill:#78AEAE;" d="M-124.871,199.816c-0.925,4.963,1.048,9.02,2.136,13.216c0.921,3.554,1.991,7.101,1.239,10.819
			c-1.014,5.014-4.77,6.603-8.902,3.521c-2.004-1.494-3.961-3.484-5.057-5.688c-5.017-10.096-7.266-20.856-4.967-31.994
			c2.222-10.766,10.401-14.044,19.868-8.248c6.896,4.222,13.057,9.513,18.599,15.377c4.363,4.616,4.642,9.894,1.047,12.613
			c-4.363,3.299-8.215,1.418-11.803-1.753c-3.281-2.9-6.184-6.287-10.258-8.187C-123.229,199.37-123.652,199.594-124.871,199.816z"
			/>
		<path style="fill:#78AEAE;" d="M-237.538,112.931c-1.875,5.195,0.096,8.551,0.689,12.068c0.483,2.865,0.973,5.755,1.077,8.648
			c0.1,2.792-1.47,4.996-3.998,6.017c-2.637,1.066-5.01-0.202-6.998-1.953c-7.192-6.335-10.256-29.175-5.038-37.213
			c3.61-5.56,8.628-7.393,15.218-4.626c8.812,3.699,16.431,9.486,23.878,15.368c3.464,2.737,4.754,6.657,1.905,10.657
			c-2.833,3.977-6.688,4.091-10.603,1.618C-226.593,120.239-231.672,116.793-237.538,112.931z"/>
		<path style="fill:#78AEAE;" d="M-226.215-52.172c-1.521,6.866-0.348,12.254,0.168,17.63c0.387,4.02,0.882,8.056-0.335,11.982
			c-0.905,2.921-2.568,5.33-6.066,5.447c-2.989,0.099-4.641-1.848-5.86-4.22c-0.666-1.295-1.281-2.665-1.62-4.073
			c-2.591-10.774-3.676-21.717-1.967-32.684c1.674-10.735,8.21-14.401,18.191-10.177c5.691,2.409,11.051,5.699,16.308,8.994
			c3.786,2.373,5.343,6.061,3.275,10.431c-1.89,3.991-5.996,4.842-11.319,2.359C-218.742-48.024-221.899-49.878-226.215-52.172z"/>
		<path style="fill:#78AEAE;" d="M-312.156,50.713c-1.475,5.055,0.405,9.803-0.175,14.518c-0.406,3.297-0.749,6.936-4.738,7.828
			c-4.347,0.973-7.011-1.853-8.502-5.381c-4.212-9.961-4.08-20.072,0.725-29.738c2.963-5.959,8.695-7.969,14.937-5.348
			c4.68,1.965,9.048,4.794,13.292,7.631c2.993,2.001,4.19,5.164,2.564,8.669c-1.759,3.793-4.934,5.041-9.051,4.575
			C-306.064,53.133-308.017,50.174-312.156,50.713z"/>
		<path style="fill:#78AEAE;" d="M712.11,550.298c-5.252-4.793-4.442-10.323,0.576-12.603c2.414-1.097,5.005-1.117,7.493-0.474
			c8.128,2.101,15.89,5.253,23.433,8.876c3.56,1.709,5.551,4.676,4.316,8.944c-1.086,3.753-4.107,5.662-7.452,5.056
			C730.054,558.208,720.744,553.017,712.11,550.298z"/>
		<path style="fill:#78AEAE;" d="M686.868,662.464c-2.558,2.543-5.645,3.385-9.054,2.374c-8.054-2.389-16.126-4.748-24.068-7.473
			c-3.619-1.242-6.491-3.76-5.614-8.232c0.852-4.341,4.332-6.065,8.145-5.887c10.375,0.483,19.994,4.146,29.159,8.68
			C689.301,653.837,689.551,659.281,686.868,662.464z"/>
		<path style="fill:#78AEAE;" d="M702.57,618.409c3.01,2.577,4.388,4.943,3.43,8.202c-0.926,3.151-3.185,4.979-6.237,5.323
			c-2.081,0.235-4.398-0.134-6.388-0.849c-6.498-2.333-12.99-4.606-19.703-6.31c-4.015-1.019-7.695-3.247-7.092-8.234
			c0.6-4.964,4.72-6.48,8.823-6.366C685.429,610.455,694.304,614.849,702.57,618.409z"/>
		<path style="fill:#78AEAE;" d="M728.362,579.651c3.319,3.056,4.697,5.873,3.064,9.379c-1.573,3.377-4.695,5.344-7.994,4.154
			c-8.858-3.195-17.529-6.942-26.137-10.777c-2.366-1.055-3.696-3.5-3.292-6.369c0.467-3.326,2.698-5.036,5.747-5.756
			c1.392-0.328,2.92-0.579,4.305-0.357C713.197,571.389,721.201,575.665,728.362,579.651z"/>
		<path style="fill:#78AEAE;" d="M660.569,679.2c3.933,2.948,6.059,6.548,3.584,11.348c-1.871,3.628-6.723,4.558-11.598,1.573
			c-5.649-3.459-11.529-6.235-17.667-8.62c-4.057-1.576-7.215-4.242-5.763-9.097c1.403-4.69,5.585-5.624,9.764-5.057
			C647.048,670.454,654.002,674.489,660.569,679.2z"/>
		<path style="fill:#78AEAE;" d="M756.883,516.662c7.2,5.882,8.821,9.923,5.931,13.87c-2.95,4.031-7.639,3.715-14.503-0.988
			c-4.5-3.083-9.094-6.042-13.462-9.302c-4.981-3.718-6.183-7.539-3.588-10.999c3.22-4.293,7.47-4.071,11.715-1.891
			C748.169,510.019,753.023,513.253,756.883,516.662z"/>
		<path style="fill:#78AEAE;" d="M644.526,706.322c1.156,1.377,2.534,2.635,3.438,4.172c1.839,3.127,1.667,6.411-0.783,9.077
			c-2.149,2.339-5.511,3.103-8.02,1.496c-5.524-3.54-11.325-6.308-17.396-8.711c-2.411-0.954-3.946-3.168-3.694-6.111
			c0.287-3.357,2.337-5.252,5.353-6.119C631.733,697.737,638.195,701.7,644.526,706.322z"/>
		<path style="fill:#FFBBB4;" d="M1064.113,770.024c-5.682-5.254-9.636-9.937-10.961-16.34
			c-2.333-11.274,4.053-19.593,15.531-20.075c5.192-0.218,10.197,0.922,14.872,3.068c3.932,1.805,7.321,4.606,11.877,5.279
			c3.011,0.445,4.852,2.995,6.023,5.842c3.098,7.528,0.613,20.119-5.054,25.449c-6.245,5.872-15.489,6.79-24.433,2.083
			C1068.767,773.645,1065.931,771.271,1064.113,770.024z"/>
	</g>
	<g style="clip-path:url(#SVGID_00000176751785385730390280000016022333314934671525_);">
		<path style="fill:#FFBBB4;" d="M1180.524,1369.035c-8.72-9.318-17.541-18.545-26.133-27.979
			c-10.251-11.256-20.961-22.132-29.558-34.801c-1.833-2.701-3.576-5.444-4.825-8.458c-3.218-7.763,0.857-14.011,9.266-14.214
			c4.172-0.101,7.991,1.287,11.683,3.066c5.703,2.748,10.821,6.413,15.897,10.151c10.828,7.974,20.405,17.362,30.167,26.545
			c2.185,2.055,4.494,3.98,7.662,5.293c-1.623-2.315-3.141-4.712-4.886-6.931c-10.549-13.413-21.146-26.788-31.733-40.17
			c-3.937-4.977-7.13-10.375-9.391-16.318c-1.324-3.48-2.035-7.055-1.345-10.747c0.938-5.019,4.455-7.247,9.394-5.973
			c3.612,0.932,6.594,3.097,9.525,5.301c9.956,7.485,18.45,16.511,26.836,25.633c7.287,7.927,14.649,15.771,22.594,23.052
			c1.316,1.206,2.498,2.562,5.432,3.703c-5.749-8.177-10.734-15.488-15.953-22.627c-5.288-7.233-10.075-14.774-14.646-22.465
			c-1.776-2.987-3.116-6.166-4.273-9.426c-1.035-2.916-1.427-5.926-0.986-9.001c1.407-9.804,8.859-13.491,17.307-8.326
			c7.344,4.49,13.413,10.574,18.974,17.046c14.575,16.96,28.02,34.819,41.175,52.891c6.593,9.058,13.508,17.798,22.266,24.914
			c3.368,2.737,7.056,4.798,11.338,5.651c3.821,0.761,4.405,0.358,4.568-3.38c0.097-2.227-0.046-4.469-0.171-6.699
			c-0.944-16.962-4.935-33.309-10.006-49.437c-2.314-7.359-4.818-14.667-5.377-22.455c-0.404-5.617,0.37-10.943,3.391-15.809
			c5.243-8.444,14.082-9.798,21.711-3.215c4.227,3.647,6.957,8.44,9.593,13.268c6.852,12.552,11.736,25.873,15.516,39.632
			c5.218,18.99,9.483,38.223,15.525,57.009c11.35,35.293,28.269,67.841,48.036,98.987c14.49,22.831,30.63,44.53,46.759,66.223
			c2.542,3.419,4.814,7.045,7.092,10.65c3.053,4.831,2.589,9.647-0.4,14.336c-2.102,3.298-4.908,5.969-7.979,8.313
			c-13.603,10.378-28.262,19.164-42.962,27.833c-9.997,5.895-18.901,3.145-26.77-7.482c-1.446-1.953-2.642-4.099-3.88-6.199
			c-11.132-18.892-24.68-35.708-41.85-49.528c-7.645-6.154-16.039-11.03-24.504-15.887c-42.468-24.37-84.819-48.955-124.177-78.239
			c-20.948-15.587-39.682-33.558-55.714-54.242c-1.484-1.914-2.943-3.959-3.872-6.171c-2.885-6.865,1.087-12.411,8.516-11.9
			c6.218,0.427,11.849,2.841,17.075,6.082c8.805,5.46,17.373,11.279,25.664,17.506
			C1174.666,1365.972,1176.98,1368.318,1180.524,1369.035z"/>
		<path style="fill:#FFA19F;" d="M1262.803,1334.404c1.111,2.29,0.279,4.246-1.423,5.955c-3.147,3.16-6.308,6.307-9.506,9.415
			c-13.178,12.807-22.407,28.21-29.509,44.989c-1.021,2.413-1.585,5.021-2.343,7.544c-0.662,2.202-2.062,3.599-4.419,3.335
			c-2.667-0.299-3.774-2.196-3.768-4.714c0.006-2.895,1.013-5.583,2.064-8.225c8.943-22.469,22.746-41.531,40.554-57.784
			c1.22-1.114,2.435-2.131,4.132-2.4C1260.367,1332.237,1261.785,1332.729,1262.803,1334.404z"/>
		<path style="fill:#FFA19F;" d="M1321.255,1473.283c-1.685,1.03-2.184,1.388-2.727,1.658c-3.249,1.616-5.701,1.283-6.899-1.055
			c-1.414-2.76-0.051-4.62,2.215-6.104c9.349-6.124,16.334-14.387,22.073-23.889c3.768-6.238,7.839-12.304,12.003-18.288
			c2.689-3.865,5.226-4.666,7.443-2.99c2.129,1.609,2.066,4.396-0.422,8.185c-5.56,8.467-11.136,16.925-16.826,25.305
			C1333.282,1463.226,1326.91,1468.853,1321.255,1473.283z"/>
		<path style="fill:#FFA19F;" d="M1289.394,1398.418c-2.016,1.398-4.847,0.512-6.131-1.926c-0.891-1.692-0.748-3.541-0.782-5.358
			c-0.343-18.249,4.193-35.344,12.275-51.584c0.716-1.439,1.558-2.882,2.63-4.06c1.39-1.528,3.28-1.606,5.007-0.575
			c1.515,0.905,2.213,2.446,1.776,4.186c-0.34,1.356-0.956,2.662-1.585,3.923c-7.735,15.514-12.075,31.81-11.448,49.264
			C1291.217,1394.516,1291.481,1396.804,1289.394,1398.418z"/>
		<path style="fill:#FFA19F;" d="M1219.877,1347.844c1.105,1.959,1.828,3.667,0.474,5.389c-1.336,1.698-3.306,1.867-4.948,0.904
			c-5.616-3.291-10.185-7.931-14.936-12.296c-1.188-1.091-1.17-3.033-0.084-4.513c1.198-1.632,2.846-2.216,4.816-1.546
			c0.567,0.193,1.137,0.461,1.614,0.817C1211.518,1340.112,1216.027,1343.854,1219.877,1347.844z"/>
		<path style="fill:#FFA19F;" d="M1239.495,1326.019c1.416,2.607,2.551,4.794,0.502,6.691c-2.254,2.088-4.643,1.015-6.471-0.793
			c-2.87-2.839-5.585-5.848-8.216-8.913c-1.613-1.879-1.96-4.146-0.085-6.038c1.934-1.95,4.225-1.405,5.962,0.281
			C1234.23,1320.2,1237.035,1323.397,1239.495,1326.019z"/>
		<path style="fill:#BCD9D7;" d="M1444.224,1474.95c3.495,5.719,540.704,566.456,544.117,572.224
			c3.548,5.996-27.063,51.491-32.262,56.117c-7.577,6.741-15.496,13.102-23.346,19.532c-15.229,12.474-31.167,24.084-45.45,37.706
			c-5.162,4.923-9.763,10.296-14.105,15.93c-4.032,5.233-7.276,5.475-12.002,0.75c-6.76-6.757-12.88-14.089-18.51-21.805
			c-5.746-7.876-514.563-613.081-520.188-621.044c-4.287-6.069-4.111-10.548,1.442-15.598c8.707-7.918,17.771-15.442,26.62-23.206
			c15.257-13.388,30.442-26.858,45.712-40.231c3.357-2.94,6.862-5.729,10.444-8.393c7.576-5.634,11.319-5.336,17.848,1.647
			c2.902,3.104,5.507,6.519,7.984,9.981c3.9,5.451,7.577,11.061,11.349,16.604
			C1443.992,1475.093,1444.108,1475.022,1444.224,1474.95z"/>
	</g>
	<g style="clip-path:url(#SVGID_00000176751785385730390280000016022333314934671525_);">
		<path style="fill:#FFBBB4;" d="M1533.823,1038.194c-7.904-10.02-15.702-20.125-23.74-30.036
			c-9.589-11.824-18.735-24.045-29.97-34.447c-2.396-2.218-4.846-4.353-7.638-6.04c-7.192-4.347-13.981-1.256-15.444,7.028
			c-0.726,4.11,0.073,8.093,1.278,12.011c1.861,6.051,4.716,11.661,7.65,17.24c6.258,11.903,14.103,22.78,21.717,33.81
			c1.704,2.469,3.261,5.04,4.083,8.37c-2.045-1.952-4.188-3.812-6.119-5.871c-11.678-12.442-23.31-24.927-34.953-37.403
			c-4.329-4.64-9.187-8.607-14.724-11.734c-3.242-1.831-6.67-3.071-10.423-2.943c-5.103,0.174-7.834,3.317-7.316,8.391
			c0.379,3.711,2.072,6.984,3.811,10.213c5.906,10.967,13.555,20.719,21.315,30.379c6.744,8.395,13.394,16.85,19.4,25.797
			c0.995,1.482,2.158,2.854,2.846,5.926c-7.221-6.911-13.701-12.936-19.976-19.168c-6.357-6.313-13.094-12.178-20.012-17.852
			c-2.686-2.204-5.628-4.006-8.678-5.639c-2.727-1.461-5.645-2.301-8.751-2.326c-9.904-0.08-14.668,6.734-10.83,15.862
			c3.337,7.935,8.441,14.848,14.005,21.318c14.58,16.956,30.219,32.929,46.112,48.647c7.966,7.878,15.569,16.026,21.289,25.754
			c2.2,3.741,3.685,7.696,3.885,12.057c0.179,3.892-0.307,4.409-4.027,4.009c-2.216-0.238-4.411-0.717-6.597-1.174
			c-16.628-3.479-32.191-9.878-47.375-17.312c-6.928-3.392-13.778-6.964-21.394-8.687c-5.493-1.242-10.875-1.277-16.138,0.98
			c-9.135,3.916-11.8,12.452-6.437,20.982c2.971,4.726,7.3,8.145,11.678,11.475c11.382,8.659,23.818,15.486,36.854,21.289
			c17.992,8.009,36.367,15.113,54.033,23.905c33.189,16.518,62.829,38.131,90.656,62.349c20.398,17.753,39.428,36.967,58.455,56.169
			c2.998,3.026,6.242,5.817,9.465,8.61c4.318,3.743,9.149,4.007,14.234,1.757c3.577-1.583,6.638-3.956,9.416-6.641
			c12.303-11.891,23.189-25.065,33.966-38.298c7.329-8.999,5.946-18.215-3.38-27.59c-1.714-1.723-3.656-3.228-5.547-4.766
			c-17.007-13.842-31.599-29.76-42.685-48.81c-4.937-8.482-8.497-17.513-12.029-26.611c-17.72-45.645-35.669-91.205-58.715-134.513
			c-12.266-23.05-27.222-44.27-45.265-63.224c-1.67-1.754-3.473-3.504-5.52-4.755c-6.354-3.882-12.433-0.788-13.044,6.633
			c-0.511,6.211,1.031,12.141,3.451,17.795c4.076,9.525,8.544,18.869,13.456,28
			C1531.675,1031.943,1533.646,1034.583,1533.823,1038.194z"/>
		<path style="fill:#FFA19F;" d="M1487.236,1114.343c2.097,1.442,4.156,0.913,6.101-0.513c3.597-2.637,7.182-5.289,10.735-7.985
			c14.64-11.106,31.253-17.919,48.909-22.422c2.539-0.648,5.202-0.813,7.81-1.184c2.276-0.324,3.868-1.498,3.96-3.869
			c0.105-2.681-1.604-4.06-4.094-4.433c-2.863-0.428-5.672,0.163-8.441,0.807c-23.557,5.469-44.474,16.254-63.216,31.422
			c-1.284,1.039-2.472,2.087-2.993,3.725C1485.458,1111.61,1485.732,1113.085,1487.236,1114.343z"/>
		<path style="fill:#FFA19F;" d="M1615.768,1192.978c1.271-1.512,1.7-1.951,2.048-2.447c2.086-2.969,2.124-5.444-0.008-6.979
			c-2.516-1.812-4.56-0.743-6.367,1.274c-7.458,8.324-16.675,13.989-26.932,18.237c-6.733,2.789-13.341,5.904-19.882,9.122
			c-4.225,2.079-5.397,4.466-4.073,6.91c1.272,2.347,4.037,2.702,8.156,0.811c9.206-4.226,18.405-8.47,27.544-12.837
			C1604.02,1203.359,1610.54,1197.904,1615.768,1192.978z"/>
		<path style="fill:#FFA19F;" d="M1546.533,1150.241c1.685-1.784,1.234-4.715-0.984-6.351c-1.539-1.135-3.388-1.271-5.18-1.577
			c-17.991-3.078-35.573-1.16-52.842,4.394c-1.53,0.492-3.083,1.107-4.409,1.991c-1.719,1.145-2.081,3.001-1.32,4.864
			c0.667,1.634,2.086,2.555,3.872,2.384c1.391-0.133,2.775-0.546,4.116-0.978c16.499-5.319,33.262-7.164,50.424-3.924
			C1542.402,1151.458,1544.624,1152.062,1546.533,1150.241z"/>
		<path style="fill:#FFA19F;" d="M1506.966,1073.92c1.771,1.386,3.351,2.358,5.257,1.278c1.88-1.066,2.342-2.989,1.637-4.757
			c-2.411-6.046-6.313-11.26-9.915-16.612c-0.901-1.339-2.824-1.612-4.45-0.76c-1.794,0.939-2.618,2.481-2.252,4.53
			c0.105,0.589,0.285,1.193,0.565,1.718C1500.576,1064.496,1503.599,1069.515,1506.966,1073.92z"/>
		<path style="fill:#FFA19F;" d="M1482.443,1090.041c2.365,1.791,4.357,3.241,6.54,1.501c2.402-1.916,1.7-4.438,0.187-6.517
			c-2.376-3.264-4.943-6.399-7.579-9.46c-1.616-1.876-3.805-2.56-5.957-0.99c-2.218,1.619-2.023,3.966-0.617,5.936
			C1477.481,1083.962,1480.22,1087.215,1482.443,1090.041z"/>
		<path style="fill:#BCD9D7;" d="M1598.959,1314.804c5.13,4.314,478.883,619.6,484.074,623.84
			c5.396,4.408,54.97-19.028,60.323-23.474c7.802-6.479,15.28-13.354,22.815-20.15c14.618-13.184,28.489-27.199,44.1-39.276
			c5.642-4.365,11.645-8.107,17.867-11.554c5.779-3.201,6.505-6.372,2.543-11.754c-5.666-7.697-11.996-14.849-18.78-21.573
			c-6.924-6.863-528.904-600.753-535.932-607.51c-5.357-5.149-9.812-5.648-15.637-0.916c-9.135,7.42-17.934,15.252-26.938,22.835
			c-15.526,13.075-31.123,26.066-46.637,39.156c-3.411,2.878-6.694,5.924-9.866,9.066c-6.708,6.644-6.975,10.39-1.05,17.893
			c2.634,3.335,5.619,6.423,8.67,9.391c4.804,4.674,9.799,9.152,14.712,13.713C1599.135,1314.596,1599.047,1314.7,1598.959,1314.804
			z"/>
	</g>
</g>
</svg>
