<svg width="104" height="124" viewBox="0 0 104 124" fill="none" xmlns="http://www.w3.org/2000/svg">
<g clip-path="url(#clip0_53_25530)">
<path d="M56.7627 41.196C57.2799 40.8728 57.8294 40.6627 58.3789 40.5334C59.1386 40.3717 59.9305 40.3879 60.6579 40.5495C61.9024 40.8404 63.0499 41.6001 63.7934 42.7476L83.1722 71.8078C84.5945 73.9251 85.338 76.4303 85.338 78.984V90.8634C85.338 91.9786 86.0491 92.9645 87.0997 93.3201L99.9004 97.587C102.018 98.282 103.44 100.254 103.44 102.484V118C103.44 119.6 102.697 121.12 101.42 122.106C100.143 123.091 98.4943 123.415 96.9427 122.994L69.6604 115.721C60.6094 113.313 54.306 105.103 54.306 95.7283L54.306 76.6242C54.306 73.7635 56.6172 71.4522 59.478 71.4522C62.3388 71.4522 64.65 73.7635 64.65 76.6242V89.5542C64.65 90.9765 65.8137 92.1402 67.236 92.1402C68.6583 92.1402 69.822 90.9765 69.822 89.5542V75.8323C69.822 74.7009 69.5311 73.6018 68.9654 72.6321L55.001 48.1944C54.7262 47.7095 54.5323 47.2085 54.4191 46.6913C54.2575 45.9316 54.2575 45.1397 54.4353 44.4124C54.7424 43.1194 55.5343 41.9557 56.7465 41.196H56.7627ZM46.6773 41.196C47.8895 41.9395 48.6814 43.1194 48.9885 44.4124C49.1663 45.1558 49.1825 45.9316 49.0047 46.6913C48.8916 47.2085 48.6976 47.7095 48.4228 48.1944L34.4746 72.6321C33.9089 73.6018 33.618 74.7171 33.618 75.8323L33.618 89.5542C33.618 90.9765 34.7817 92.1402 36.204 92.1402C37.6263 92.1402 38.79 90.9765 38.79 89.5542L38.79 76.6242C38.79 73.7635 41.1012 71.4522 43.962 71.4522C46.8228 71.4522 49.134 73.7635 49.134 76.6242L49.134 95.7445C49.134 105.119 42.8306 113.313 33.7796 115.737L6.51349 123.011C4.96189 123.431 3.29715 123.091 2.03647 122.122C0.7758 121.152 0 119.616 0 118L0 102.484C0 100.254 1.4223 98.282 3.53959 97.5708L16.3403 93.3039C17.3908 92.9484 18.102 91.9624 18.102 90.8472L18.102 78.9678C18.102 76.4141 18.8616 73.9251 20.2678 71.7916L39.6304 42.7638C40.3739 41.6162 41.5215 40.8566 42.766 40.5657C43.5095 40.3879 44.2852 40.3717 45.0449 40.5495C45.6106 40.6788 46.1601 40.8889 46.6611 41.2122L46.6773 41.196Z" fill="#FFBBB4"/>
</g>
<path d="M52.4229 40L49.3054 37.1226C38.2329 26.9428 30.9229 20.2289 30.9229 11.9891C30.9229 5.2752 36.1259 0 42.7479 0C46.4889 0 50.0794 1.76567 52.4229 4.55586C54.7664 1.76567 58.3569 0 62.0979 0C68.7199 0 73.9229 5.2752 73.9229 11.9891C73.9229 20.2289 66.6129 26.9428 55.5404 37.1444L52.4229 40Z" fill="#E9281F"/>
<defs>
<clipPath id="clip0_53_25530">
<rect width="103.44" height="82.752" fill="white" transform="translate(0 40.4199)"/>
</clipPath>
</defs>
</svg>
