<?xml version="1.0" encoding="utf-8"?>
<!-- Generator: Adobe Illustrator 27.5.0, SVG Export Plug-In . SVG Version: 6.00 Build 0)  -->
<svg version="1.1" xmlns="http://www.w3.org/2000/svg" xmlns:xlink="http://www.w3.org/1999/xlink" x="0px" y="0px"
	 viewBox="0 0 500 500" style="enable-background:new 0 0 500 500;" xml:space="preserve">
<g id="BACKGROUND">
	<rect style="fill:#E7F1FC;" width="500" height="500"/>
	<g>
		<defs>
			<rect id="SVGID_1_" width="500" height="500"/>
		</defs>
		<clipPath id="SVGID_00000028307989936644327420000013062152680357864360_">
			<use xlink:href="#SVGID_1_"  style="overflow:visible;"/>
		</clipPath>
	</g>
	<rect style="fill:none;" width="500" height="500"/>
</g>
<g id="OBJECTS">
	<g>
		<defs>
			<rect id="SVGID_00000147202007464715065690000014998300064874436769_" width="500" height="500"/>
		</defs>
		<clipPath id="SVGID_00000114793605586950381530000000123127940838411179_">
			<use xlink:href="#SVGID_00000147202007464715065690000014998300064874436769_"  style="overflow:visible;"/>
		</clipPath>
		<g style="clip-path:url(#SVGID_00000114793605586950381530000000123127940838411179_);">
			<g>
				<g>
					<path style="fill:#FFFFFF;" d="M-7,111c0,0,45-4,45,39c0,0,40-2,40,32c0,0,4-19,43-19s31,47,31,47s50-4,50,43c0,0,35-3,35,42
						H-33L-7,111z"/>
					<path style="fill:#FFFFFF;" d="M224,298c0,0-4-33,32-35c0,0-4-34,36-34c0,0,1-45,44-45s48,25,48,25s35-9,47,24c0,0,0-44,37-44
						c0,0-5-49,39-49v179L224,298z"/>
				</g>
				<path style="fill:#FFFFFF;" d="M315,121.681c0,0,3.905-14.505,16.179-15.063c12.274-0.558,16.737,6.974,16.737,6.974
					s1.953-13.947,18.132-15.342c16.179-1.395,20.084,14.226,20.084,14.226s9.484-7.532,15.621-1.953
					c6.137,5.579,6.137,7.811,6.137,7.811L421,121.402L315,121.681z"/>
				<path style="fill:#FFFFFF;" d="M79,77.681c0,0,3.905-14.505,16.179-15.063c12.274-0.558,16.737,6.974,16.737,6.974
					s1.953-13.947,18.132-15.342c16.179-1.395,20.084,14.226,20.084,14.226s9.484-7.532,15.621-1.953
					c6.137,5.579,6.137,7.811,6.137,7.811L185,77.402L79,77.681z"/>
			</g>
			<path style="fill:#D2E5F9;" d="M342.178,352.085c52.535-16.248,114.902-35.998,114.902-35.998
				c-52.497,0-70.496-49.498-116.994-59.997c-46.498-10.499-44.998,20.999-107.994,25.499c-62.997,4.5-59.997-47.998-137.993-82.496
				c-49.318-21.814-87.833-8.246-109.495,4.681v148.311H342.178z"/>
			<path style="fill:#B6E08C;" d="M532.039,293.802c-1.788-0.46-26.078-45.354-85.477-44.238
				c-59.994,1.127-74.987,64.46-155.983,71.194c-80.996,6.734-94.491-20.225-149.988-3.872C85.094,333.24,59.6,364,59.6,364H544
				L532.039,293.802z"/>
			<g>
				<path style="fill:#62AB72;" d="M20.428,342.309c0,0-41.249-31.181-14.32-116.367C6.107,225.942,58.231,302.33,20.428,342.309z"
					/>
				<path style="fill:#B3DE8A;" d="M43.238,341.248c0,0-29.196-22.07-10.136-82.363C33.103,258.884,69.995,312.952,43.238,341.248z"
					/>
				
					<linearGradient id="SVGID_00000042011536310661686090000009289626552092446357_" gradientUnits="userSpaceOnUse" x1="212.8066" y1="206.1838" x2="206.7896" y2="254.9214" gradientTransform="matrix(0.9717 -0.2363 0.2363 0.9717 -261.7666 147.8697)">
					<stop  offset="0" style="stop-color:#2F8988"/>
					<stop  offset="1" style="stop-color:#18485B"/>
				</linearGradient>
				<path style="fill:url(#SVGID_00000042011536310661686090000009289626552092446357_);" d="M4.017,345.701
					c0,0-34.056-14.434-19.151-63.094C-15.135,282.606,26.498,313.901,4.017,345.701z"/>
			</g>
			<path style="fill:#76C46F;" d="M517.403,326.587c-33.6-67.199-178.491,37.498-346.483,6
				C69.982,313.66,10.403,306.267-18.07,311.493v214.99l535.473,2.593C517.403,529.076,518.903,329.586,517.403,326.587z"/>
			<g>
				<path style="fill:#4B9F66;" d="M472.623,441.83c0,0-7.706-2.102-12.61,1.168c-4.904,3.269,0.233-0.934,0.233-0.934l5.371-9.808
					c0,0-10.742,3.269-13.31,7.94l1.168-7.005c0,0-2.335,1.167-3.503,3.736l-6.538-8.407l5.371-1.401c0,0-4.437-3.736-9.574-2.569
					c0,0,4.437-2.102,7.239-7.939c0,0-7.94-2.335-13.544,1.868c0,0,5.604-11.442,6.538-14.478c0,0-16.346,2.569-23.585,14.945
					l0.467-11.909c0,0-2.691,2.406-5.521,5.968c-6.805,0.485-10.591,3.528-10.591,3.528c2.802-6.85,1.09-15.723,1.09-15.723
					c-5.293,1.712-11.053,10.897-11.053,10.897c-1.401-5.604-7.784-9.963-7.784-9.963s-1.868-0.312-0.934-0.156
					c0.934,0.156,7.784-0.623,8.407-0.934c-2.491-6.071-12.297-8.563-12.297-8.563c6.383,0.778,10.9-2.804,10.9-2.804
					c-5.449-8.251-19.455-5.608-19.455-5.608c9.185-3.892,12.619-14.952,12.619-14.952c-15.568-0.778-23.643,8.859-23.643,8.859
					c1.401-8.718-2.919-16.842-5.41-19.333c-6.383,4.826-5.059,19.557-5.059,19.557l-2.491-8.368l-1.168,5.371
					c0,0,0.234-10.275-1.868-12.843c-4.904,2.569-7.005,12.61-7.005,12.61c-1.634-4.203-4.904-4.437-4.904-4.437l1.168,7.005
					c-3.97-4.904-11.676-3.503-11.676-3.503c0.934,4.437,7.706,9.341,7.706,9.341c-4.904,0.934-10.041,12.843-10.041,12.843
					c-1.168-3.97-4.67-7.005-5.371-7.005c-0.934,3.97,0.701,8.64,0.701,8.64c-6.305-5.137-16.579-4.67-16.579-4.67
					c0.277,0.555,0.561,1.081,0.849,1.588c-0.743-0.576-1.499-0.978-2.25-1.121c0,0,6.772-4.904,7.706-9.34
					c0,0-7.706-1.401-11.676,3.503l1.167-7.005c0,0-3.269,0.233-4.904,4.437c0,0-2.102-10.041-7.005-12.61
					c-2.102,2.569-1.868,12.843-1.868,12.843l-1.168-5.371l-2.491,8.368c0,0,1.323-14.731-5.059-19.557
					c-2.491,2.491-6.811,10.615-5.41,19.333c0,0-8.076-9.637-23.643-8.859c0,0,3.435,11.06,12.62,14.952
					c0,0-14.006-2.643-19.455,5.608c0,0,4.517,3.582,10.9,2.804c0,0-9.806,2.492-12.297,8.563c0.623,0.311,7.473,1.09,8.407,0.935
					c0.934-0.156-0.934,0.156-0.934,0.156s-3.447,2.361-5.83,5.837c-0.148-0.349-0.241-0.543-0.241-0.543
					c-1.291,0.753-2.338,1.619-3.198,2.504c-1.069-1.471-2.63-3.455-4.395-5.187c-0.697-3.732-1.688-7.226-2.681-8.993
					c-4.904,4.67-5.604,10.275-5.604,10.275c-0.934-9.34-11.909-19.148-11.909-19.148l0.467,11.909
					c-7.239-12.376-23.585-14.945-23.585-14.945c0.934,3.036,6.538,14.478,6.538,14.478c-5.604-4.203-13.544-1.868-13.544-1.868
					c2.802,5.838,7.239,7.939,7.239,7.939c-5.137-1.168-9.574,2.569-9.574,2.569l5.371,1.401l-6.538,8.406
					c-1.167-2.569-3.503-3.736-3.503-3.736l1.168,7.005c-2.569-4.67-13.31-7.94-13.31-7.94l5.371,9.808c0,0,5.137,4.203,0.234,0.934
					s-12.61-1.168-12.61-1.168c2.335,3.503,5.838,5.137,5.838,5.137c-15.178,1.401-19.148,7.005-19.148,7.005
					c5.604,1.635,10.508,0.467,10.508,0.467c-7.04,1.408-10.297,5.01-11.686,7.239h347.811c-2.789-1.671-7.723-3.675-15.977-4.437
					C466.786,446.968,470.288,445.333,472.623,441.83z M305.658,403.871c-0.031,0.058-0.062,0.115-0.093,0.173
					c-0.344,0.046-0.939,0.126-1.695,0.228c-0.409-0.831-0.95-1.877-1.587-2.993C303.875,402.773,305.154,403.582,305.658,403.871z"
					/>
				<path style="fill:#4B9F66;" d="M658.614,458.329c0,0-7.706-2.102-12.61,1.168s0.234-0.934,0.234-0.934l5.371-9.808
					c0,0-10.742,3.269-13.31,7.939l1.168-7.005c0,0-2.335,1.168-3.503,3.736l-6.538-8.406l5.371-1.401c0,0-4.437-3.736-9.574-2.569
					c0,0,4.437-2.102,7.239-7.939c0,0-7.94-2.335-13.544,1.868c0,0,5.604-11.442,6.538-14.478c0,0-16.346,2.569-23.585,14.945
					l0.467-11.909c0,0-2.691,2.406-5.521,5.968c-6.805,0.485-10.591,3.528-10.591,3.528c2.802-6.85,1.09-15.723,1.09-15.723
					c-5.293,1.712-11.053,10.897-11.053,10.897c-1.401-5.604-7.784-9.963-7.784-9.963s-1.868-0.312-0.934-0.156
					c0.934,0.156,7.784-0.623,8.407-0.935c-2.491-6.071-12.297-8.563-12.297-8.563c6.383,0.778,10.9-2.804,10.9-2.804
					c-5.449-8.251-19.455-5.608-19.455-5.608c9.185-3.892,12.62-14.952,12.62-14.952c-15.568-0.778-23.643,8.859-23.643,8.859
					c1.401-8.718-2.919-16.842-5.41-19.333c-6.383,4.826-5.059,19.557-5.059,19.557l-2.491-8.368l-1.167,5.371
					c0,0,0.234-10.275-1.868-12.843c-4.904,2.569-7.005,12.61-7.005,12.61c-1.635-4.203-4.904-4.437-4.904-4.437l1.167,7.006
					c-3.97-4.904-11.676-3.503-11.676-3.503c0.934,4.437,7.706,9.341,7.706,9.341c-4.904,0.934-10.041,12.843-10.041,12.843
					c-1.167-3.97-4.67-7.005-5.371-7.005c-0.934,3.97,0.701,8.64,0.701,8.64c-6.305-5.137-16.579-4.67-16.579-4.67
					c0.277,0.555,0.561,1.081,0.849,1.588c-0.743-0.576-1.499-0.978-2.25-1.121c0,0,6.772-4.904,7.706-9.341
					c0,0-7.706-1.401-11.676,3.503l1.167-7.005c0,0-3.269,0.234-4.904,4.437c0,0-2.102-10.041-7.005-12.61
					c-2.102,2.569-1.868,12.843-1.868,12.843l-1.168-5.371l-2.491,8.368c0,0,1.323-14.731-5.059-19.557
					c-2.491,2.491-6.811,10.615-5.41,19.333c0,0-8.076-9.637-23.643-8.859c0,0,3.435,11.06,12.62,14.952
					c0,0-14.006-2.643-19.455,5.608c0,0,4.517,3.582,10.9,2.804c0,0-9.806,2.492-12.297,8.563c0.623,0.311,7.473,1.09,8.407,0.935
					c0.934-0.156-0.934,0.156-0.934,0.156s-3.447,2.361-5.831,5.836c-0.148-0.349-0.241-0.543-0.241-0.543
					c-1.291,0.753-2.338,1.619-3.198,2.504c-1.069-1.471-2.63-3.455-4.395-5.187c-0.697-3.732-1.688-7.226-2.681-8.993
					c-4.904,4.67-5.604,10.275-5.604,10.275c-0.934-9.34-11.909-19.148-11.909-19.148l0.467,11.909
					c-7.239-12.376-23.585-14.945-23.585-14.945c0.934,3.036,6.538,14.478,6.538,14.478c-5.604-4.203-13.544-1.868-13.544-1.868
					c2.802,5.838,7.239,7.939,7.239,7.939c-5.137-1.168-9.574,2.569-9.574,2.569l5.371,1.401l-6.538,8.406
					c-1.168-2.569-3.503-3.736-3.503-3.736l1.168,7.005c-2.569-4.67-13.31-7.939-13.31-7.939l5.371,9.808
					c0,0,5.137,4.203,0.233,0.934c-4.904-3.269-12.61-1.168-12.61-1.168c2.335,3.503,5.838,5.137,5.838,5.137
					c-15.178,1.401-19.148,7.005-19.148,7.005c5.604,1.635,10.508,0.467,10.508,0.467c-7.04,1.408-10.297,5.01-11.686,7.239h347.811
					c-2.789-1.671-7.723-3.675-15.977-4.437C652.776,463.467,656.279,461.832,658.614,458.329z M491.649,420.371
					c-0.031,0.058-0.062,0.115-0.093,0.173c-0.344,0.046-0.939,0.126-1.695,0.228c-0.409-0.831-0.95-1.877-1.587-2.993
					C489.866,419.272,491.145,420.081,491.649,420.371z"/>
				<path style="fill:#B6E08C;" d="M7.185,476.337c-8.254,0.762-13.188,2.766-15.977,4.437h347.811
					c-1.389-2.229-4.646-5.831-11.686-7.239c0,0,4.904,1.168,10.508-0.467c0,0-3.97-5.604-19.148-7.005c0,0,3.503-1.635,5.838-5.137
					c0,0-7.706-2.102-12.61,1.168c-4.904,3.269,0.234-0.934,0.234-0.934l5.371-9.807c0,0-10.742,3.269-13.31,7.939l1.168-7.005
					c0,0-2.335,1.168-3.503,3.736l-6.538-8.406l5.371-1.401c0,0-4.437-3.736-9.574-2.569c0,0,4.437-2.102,7.239-7.939
					c0,0-7.939-2.335-13.544,1.868c0,0,5.604-11.442,6.538-14.478c0,0-16.346,2.569-23.585,14.945l0.467-11.909
					c0,0-10.975,9.808-11.909,19.148c0,0-0.701-5.604-5.604-10.275c-0.994,1.767-1.984,5.261-2.682,8.993
					c-1.765,1.732-3.326,3.716-4.395,5.187c-0.86-0.885-1.907-1.751-3.198-2.504c0,0-0.093,0.194-0.241,0.543
					c-2.384-3.475-5.83-5.836-5.83-5.836s-1.868-0.312-0.934-0.156c0.934,0.156,7.784-0.623,8.407-0.935
					c-2.491-6.071-12.297-8.563-12.297-8.563c6.383,0.778,10.9-2.804,10.9-2.804c-5.449-8.251-19.455-5.608-19.455-5.608
					c9.185-3.892,12.62-14.952,12.62-14.952c-15.568-0.779-23.643,8.859-23.643,8.859c1.401-8.718-2.919-16.842-5.41-19.333
					c-6.383,4.826-5.06,19.557-5.06,19.557l-2.491-8.367l-1.168,5.371c0,0,0.234-10.275-1.868-12.843
					c-4.904,2.569-7.005,12.61-7.005,12.61c-1.635-4.203-4.904-4.437-4.904-4.437l1.168,7.005
					c-3.97-4.904-11.676-3.503-11.676-3.503c0.934,4.437,7.706,9.341,7.706,9.341c-0.751,0.143-1.507,0.545-2.25,1.121
					c0.287-0.507,0.571-1.033,0.849-1.588c0,0-10.275-0.467-16.579,4.67c0,0,1.635-4.67,0.701-8.64
					c-0.701,0-4.203,3.036-5.371,7.005c0,0-5.137-11.909-10.041-12.843c0,0,6.772-4.904,7.706-9.341c0,0-7.706-1.401-11.676,3.503
					l1.168-7.005c0,0-3.269,0.233-4.904,4.437c0,0-2.102-10.041-7.005-12.61c-2.102,2.569-1.868,12.843-1.868,12.843l-1.168-5.371
					l-2.491,8.367c0,0,1.323-14.731-5.059-19.557c-2.491,2.491-6.811,10.615-5.41,19.333c0,0-8.076-9.637-23.643-8.859
					c0,0,3.435,11.06,12.619,14.952c0,0-14.006-2.643-19.455,5.608c0,0,4.517,3.582,10.9,2.804c0,0-9.806,2.492-12.297,8.563
					c0.623,0.311,7.473,1.09,8.407,0.934c0.934-0.156-0.934,0.156-0.934,0.156s-6.382,4.359-7.784,9.963
					c0,0-5.76-9.185-11.053-10.897c0,0-1.712,8.874,1.09,15.723c0,0-3.786-3.043-10.591-3.528c-2.83-3.562-5.521-5.968-5.521-5.968
					l0.467,11.909c-7.239-12.376-23.585-14.945-23.585-14.945c0.934,3.036,6.538,14.478,6.538,14.478
					c-5.604-4.203-13.544-1.868-13.544-1.868c2.802,5.838,7.239,7.939,7.239,7.939c-5.137-1.168-9.574,2.569-9.574,2.569
					l5.371,1.401l-6.538,8.406c-1.168-2.569-3.503-3.736-3.503-3.736l1.167,7.005c-2.569-4.67-13.31-7.939-13.31-7.939l5.371,9.808
					c0,0,5.137,4.203,0.234,0.934c-4.904-3.269-12.61-1.168-12.61-1.168C3.682,474.702,7.185,476.337,7.185,476.337z
					 M171.687,430.649c-0.637,1.116-1.178,2.162-1.587,2.993c-0.756-0.103-1.352-0.183-1.695-0.228
					c-0.03-0.059-0.062-0.116-0.093-0.173C168.816,432.952,170.095,432.142,171.687,430.649z"/>
				<g>
					<path style="fill:#12575C;" d="M-6.095,412.585c0,0,1.586-17.653-6.063-23.436c-2.985,2.985-8.162,12.721-6.483,23.168
						c0,0-9.678-11.549-28.333-10.616c0,0,4.116,13.254,15.123,17.918c0,0-16.784-3.167-23.314,6.72c0,0,5.413,4.293,13.062,3.36
						c0,0-11.752,2.986-14.737,10.262c0.746,0.373,8.955,1.306,10.075,1.12c1.119-0.186-1.119,0.187-1.119,0.187
						s-7.649,5.224-9.328,11.94c0,0-6.903-11.007-13.246-13.059c0,0-2.052,10.634,1.306,18.842c0,0-5.783-4.664-16.044-4.291
						c1.119,2.425,6.716,8.955,9.141,10.261c0,0-14.178-1.679-19.589,6.157c0,0,6.903,2.985,13.059,3.171
						c0,0-14.925,3.172-19.402,9.888c0,0,5.97,1.866,12.873-0.56c0,0-10.447,5.41-12.313,10.447c0,0,5.97,0.933,12.126-0.56
						c0,0-11.94,4.701-14.552,10.858l6.996-1.362h346.718c0,0-2.518-8.386-15.111-10.904c0,0,5.876,1.404,12.593-0.555
						c0,0-4.757-6.714-22.947-8.393c0,0,4.198-1.958,6.996-6.155c0,0-9.235-2.518-15.111,1.4c-5.876,3.918,0.28-1.119,0.28-1.119
						l6.436-11.753c0,0-12.872,3.918-15.951,9.514l1.399-8.395c0,0-2.798,1.399-4.197,4.477l-7.836-10.074l6.436-1.679
						c0,0-5.317-4.477-11.473-3.078c0,0,5.317-2.518,8.675-9.514c0,0-9.514-2.798-16.23,2.239c0,0,6.716-13.712,7.835-17.35
						c0,0-19.589,3.078-28.264,17.909l0.56-14.272c0,0-13.152,11.753-14.272,22.947c0,0-0.839-6.716-6.716-12.313
						c-2.518,4.477-5.037,18.189-4.197,24.346c0,0-1.399-6.436-8.115-10.354c0,0-3.078,6.436-2.798,12.872
						c0,0-3.638-9.794-15.951-12.593c0.28,3.638,4.477,11.473,4.477,11.473s-3.078-3.358-6.996-3.078
						c0,2.239,3.358,6.156,4.477,7.276c0,0-17.07-5.877-29.663,2.798c0,0,2.239-3.078,3.078-8.675
						c-3.638,1.399-9.235,2.798-12.313,7.556c0,0,4.477-9.514,0.84-17.63c-2.798,2.239-7.276,7.556-8.675,11.753l-3.078-6.156
						c0,0-2.519,3.918-3.078,9.794c0,0-3.918-10.074-9.235-13.712c0,0,6.716,1.119,9.235,0.28c-1.399-0.28-5.317-7.835-12.033-8.675
						c0,0,8.395-2.518,11.473-6.716c-1.679-0.56-16.51-2.519-16.51-2.519s6.716-3.358,11.753-13.432c0,0-12.313-0.56-19.868,5.597
						c0,0,1.959-5.597,0.84-10.354c-0.84,0-5.037,3.638-6.436,8.395c0,0-6.156-14.272-12.033-15.391c0,0,8.115-5.877,9.235-11.193
						c0,0-9.235-1.679-13.992,4.198l1.399-8.395c0,0-3.918,0.28-5.877,5.317c0,0-2.519-12.033-8.395-15.111
						c-2.518,3.078-2.239,15.391-2.239,15.391l-1.399-6.436L-6.095,412.585z"/>
					<path style="fill:#12575C;" d="M201.835,497.702c-9.892,0.913-15.805,3.315-19.147,5.317h416.807
						c-1.665-2.671-5.568-6.988-14.005-8.675c0,0,5.877,1.399,12.593-0.56c0,0-4.757-6.716-22.947-8.395
						c0,0,4.198-1.959,6.996-6.156c0,0-9.235-2.518-15.111,1.399c-5.877,3.918,0.28-1.119,0.28-1.119l6.436-11.753
						c0,0-12.872,3.918-15.951,9.514l1.399-8.395c0,0-2.798,1.399-4.198,4.477l-7.835-10.074l6.436-1.679
						c0,0-5.317-4.477-11.473-3.078c0,0,5.317-2.518,8.675-9.514c0,0-9.514-2.798-16.231,2.239c0,0,6.716-13.712,7.835-17.35
						c0,0-19.589,3.078-28.264,17.91l0.56-14.272c0,0-13.152,11.753-14.272,22.947c0,0-0.84-6.716-6.716-12.313
						c-1.191,2.117-2.378,6.304-3.214,10.776c-2.115,2.076-3.986,4.454-5.267,6.217c-1.031-1.061-2.285-2.098-3.832-3.001
						c0,0-0.111,0.233-0.288,0.651c-2.857-4.165-6.987-6.994-6.987-6.994s-2.238-0.373-1.119-0.187
						c1.119,0.187,9.329-0.747,10.075-1.12c-2.985-7.276-14.737-10.262-14.737-10.262c7.649,0.933,13.062-3.36,13.062-3.36
						c-6.529-9.888-23.314-6.72-23.314-6.72c11.007-4.664,15.123-17.918,15.123-17.918c-18.656-0.933-28.333,10.616-28.333,10.616
						c1.679-10.447-3.498-20.183-6.483-23.168c-7.649,5.783-6.063,23.436-6.063,23.436l-2.985-10.027l-1.399,6.436
						c0,0,0.28-12.313-2.239-15.391c-5.877,3.078-8.395,15.111-8.395,15.111c-1.959-5.037-5.877-5.317-5.877-5.317l1.399,8.395
						c-4.757-5.877-13.992-4.198-13.992-4.198c1.119,5.317,9.235,11.194,9.235,11.194c-0.9,0.171-1.806,0.654-2.696,1.343
						c0.344-0.607,0.685-1.238,1.017-1.903c0,0-12.313-0.56-19.868,5.597c0,0,1.959-5.597,0.84-10.354
						c-0.84,0-5.037,3.638-6.436,8.395c0,0-6.156-14.272-12.033-15.391c0,0,8.115-5.877,9.235-11.193c0,0-9.235-1.679-13.992,4.198
						l1.399-8.395c0,0-3.918,0.28-5.877,5.317c0,0-2.519-12.033-8.395-15.111c-2.518,3.078-2.239,15.391-2.239,15.391l-1.399-6.436
						l-2.985,10.027c0,0,1.586-17.653-6.063-23.436c-2.985,2.985-8.162,12.721-6.483,23.168c0,0-9.678-11.549-28.333-10.616
						c0,0,4.116,13.254,15.123,17.918c0,0-16.784-3.167-23.314,6.72c0,0,5.413,4.293,13.062,3.36c0,0-11.752,2.986-14.737,10.262
						c0.746,0.373,8.955,1.306,10.075,1.12c1.119-0.187-1.119,0.187-1.119,0.187s-7.649,5.224-9.328,11.94
						c0,0-6.902-11.007-13.245-13.059c0,0-2.052,10.634,1.306,18.842c0,0-4.537-3.647-12.692-4.228
						c-3.392-4.268-6.616-7.152-6.616-7.152l0.56,14.272c-8.675-14.831-28.263-17.91-28.263-17.91
						c1.119,3.638,7.835,17.35,7.835,17.35c-6.716-5.037-16.231-2.239-16.231-2.239c3.358,6.996,8.675,9.514,8.675,9.514
						c-6.156-1.399-11.473,3.078-11.473,3.078l6.436,1.679l-7.835,10.074c-1.399-3.078-4.198-4.477-4.198-4.477l1.399,8.395
						c-3.078-5.597-15.951-9.514-15.951-9.514l6.436,11.753c0,0,6.156,5.037,0.28,1.119c-5.877-3.918-15.111-1.399-15.111-1.399
						C197.638,495.743,201.835,497.702,201.835,497.702z M398.971,442.951c-0.764,1.338-1.411,2.591-1.902,3.587
						c-0.906-0.123-1.62-0.219-2.032-0.274c-0.036-0.07-0.074-0.139-0.111-0.208C395.53,445.71,397.063,444.741,398.971,442.951z"/>
				</g>
				<g>
					<path style="fill:#13334C;" d="M444.342,454.29c0,0-1.227-13.663,4.693-18.138c2.31,2.31,6.317,9.845,5.017,17.931
						c0,0,7.49-8.938,21.929-8.216c0,0-3.186,10.258-11.704,13.868c0,0,12.99-2.451,18.044,5.201c0,0-4.189,3.323-10.109,2.601
						c0,0,9.095,2.311,11.405,7.942c-0.578,0.289-6.931,1.011-7.797,0.867c-0.866-0.144,0.866,0.145,0.866,0.145
						s5.92,4.043,7.219,9.241c0,0,5.342-8.519,10.251-10.107c0,0,1.588,8.23-1.011,14.583c0,0,4.476-3.61,12.417-3.321
						c-0.866,1.877-5.198,6.931-7.075,7.941c0,0,10.973-1.299,15.16,4.765c0,0-5.342,2.31-10.107,2.455
						c0,0,11.551,2.454,15.016,7.652c0,0-4.62,1.444-9.963-0.433c0,0,8.086,4.187,9.53,8.086c0,0-4.62,0.722-9.385-0.433
						c0,0,9.241,3.505,11.262,8.27L514.586,524H246.244c0,0,1.949-6.357,11.695-8.306c0,0-4.548,1.153-9.746-0.363
						c0,0,3.682-5.163,17.76-6.462c0,0-3.249-1.499-5.414-4.747c0,0,7.147-1.94,11.695,1.092c4.548,3.032-0.216-0.862-0.216-0.862
						l-4.981-9.094c0,0,9.963,3.033,12.345,7.365l-1.083-6.497c0,0,2.166,1.083,3.249,3.465l6.064-7.797l-4.981-1.299
						c0,0,4.115-3.465,8.88-2.382c0,0-4.115-1.949-6.714-7.364c0,0,7.364-2.166,12.562,1.733c0,0-5.198-10.612-6.064-13.428
						c0,0,15.161,2.382,21.875,13.861l-0.433-11.046c0,0,10.179,9.096,11.046,17.759c0,0,0.65-5.198,5.198-9.529
						c1.949,3.465,3.898,14.078,3.249,18.842c0,0,1.083-4.981,6.281-8.014c0,0,2.382,4.981,2.166,9.963c0,0,2.816-7.58,12.345-9.746
						c-0.217,2.816-3.465,8.88-3.465,8.88s2.382-2.599,5.414-2.382c0,1.733-2.599,4.765-3.465,5.631c0,0,13.211-4.548,22.957,2.166
						c0,0-1.733-2.382-2.382-6.714c2.815,1.083,7.147,2.166,9.529,5.848c0,0-3.465-7.364-0.65-13.645
						c2.166,1.733,5.631,5.848,6.714,9.096l2.382-4.765c0,0,1.949,3.032,2.382,7.58c0,0,3.032-7.797,7.147-10.612
						c0,0-5.198,0.866-7.147,0.217c1.083-0.217,4.115-6.064,9.313-6.714c0,0-6.497-1.949-8.88-5.198
						c1.299-0.433,12.778-1.949,12.778-1.949s-5.198-2.599-9.096-10.396c0,0,9.53-0.433,15.377,4.332c0,0-1.516-4.332-0.65-8.013
						c0.65,0,3.898,2.816,4.981,6.497c0,0,4.765-11.046,9.313-11.912c0,0-6.281-4.548-7.147-8.663c0,0,7.147-1.299,10.829,3.249
						l-1.083-6.497c0,0,3.032,0.217,4.548,4.115c0,0,1.949-9.313,6.497-11.695c1.949,2.382,1.733,11.912,1.733,11.912l1.083-4.981
						L444.342,454.29z"/>
					<path style="fill:#13334C;" d="M288.828,515.401c0,0-7.147-1.949-11.695,1.083c-4.548,3.032,0.217-0.866,0.217-0.866
						l4.981-9.096c0,0-9.963,3.032-12.345,7.364l1.083-6.497c0,0-2.166,1.083-3.249,3.465l-6.064-7.797l4.981-1.299
						c0,0-4.115-3.465-8.88-2.382c0,0,4.115-1.949,6.714-7.364c0,0-7.364-2.166-12.562,1.733c0,0,5.198-10.612,6.064-13.428
						c0,0-15.161,2.382-21.875,13.861l0.433-11.046c0,0-2.496,2.232-5.121,5.535c-6.311,0.45-9.823,3.272-9.823,3.272
						c2.599-6.353,1.011-14.583,1.011-14.583c-4.909,1.588-10.251,10.107-10.251,10.107c-1.299-5.198-7.219-9.241-7.219-9.241
						s-1.732-0.289-0.866-0.145c0.866,0.144,7.22-0.578,7.797-0.867c-2.31-5.631-11.405-7.942-11.405-7.942
						c5.92,0.722,10.109-2.601,10.109-2.601c-5.054-7.652-18.044-5.201-18.044-5.201c8.519-3.61,11.704-13.868,11.704-13.868
						c-14.439-0.722-21.929,8.217-21.929,8.217c1.299-8.086-2.707-15.621-5.017-17.931c-5.92,4.476-4.693,18.138-4.693,18.138
						l-2.31-7.761l-1.083,4.981c0,0,0.217-9.53-1.733-11.912c-4.548,2.382-6.497,11.695-6.497,11.695
						c-1.516-3.898-4.548-4.115-4.548-4.115l1.083,6.497c-3.682-4.548-10.829-3.249-10.829-3.249
						c0.866,4.115,7.147,8.663,7.147,8.663c-4.548,0.866-9.313,11.912-9.313,11.912c-1.083-3.682-4.332-6.497-4.981-6.497
						c-0.866,3.682,0.65,8.013,0.65,8.013c-5.848-4.765-15.377-4.332-15.377-4.332c0.257,0.514,0.52,1.003,0.787,1.473
						c-0.689-0.534-1.39-0.907-2.087-1.04c0,0,6.281-4.548,7.147-8.663c0,0-7.147-1.299-10.829,3.249l1.083-6.497
						c0,0-3.032,0.217-4.548,4.115c0,0-1.949-9.313-6.497-11.695c-1.949,2.382-1.733,11.912-1.733,11.912l-1.083-4.981l-2.31,7.761
						c0,0,1.227-13.663-4.693-18.139c-2.31,2.31-6.317,9.845-5.018,17.931c0,0-7.49-8.938-21.929-8.216
						c0,0,3.185,10.258,11.704,13.868c0,0-12.99-2.451-18.044,5.201c0,0,4.19,3.322,10.109,2.601c0,0-9.095,2.311-11.405,7.942
						c0.577,0.289,6.931,1.011,7.797,0.867c0.866-0.144-0.866,0.145-0.866,0.145s-3.197,2.19-5.408,5.413
						c-0.137-0.324-0.223-0.504-0.223-0.504c-1.198,0.699-2.168,1.502-2.966,2.323c-0.991-1.364-2.439-3.204-4.076-4.811
						c-0.647-3.461-1.565-6.702-2.487-8.34c-4.548,4.332-5.198,9.529-5.198,9.529c-0.866-8.663-11.045-17.759-11.045-17.759
						l0.433,11.046c-6.714-11.479-21.875-13.861-21.875-13.861c0.866,2.815,6.064,13.428,6.064,13.428
						c-5.198-3.898-12.562-1.733-12.562-1.733c2.599,5.414,6.714,7.364,6.714,7.364c-4.765-1.083-8.88,2.382-8.88,2.382l4.981,1.299
						l-6.064,7.797c-1.083-2.382-3.249-3.465-3.249-3.465l1.083,6.497c-2.382-4.332-12.345-7.364-12.345-7.364l4.981,9.096
						c0,0,4.765,3.898,0.217,0.866c-4.548-3.032-11.695-1.083-11.695-1.083c2.166,3.249,5.414,4.765,5.414,4.765
						c-14.078,1.299-17.76,6.497-17.76,6.497c5.198,1.516,9.746,0.433,9.746,0.433c-6.529,1.306-9.55,4.647-10.839,6.714h322.588
						c-2.587-1.55-7.163-3.408-14.819-4.115C283.414,520.166,286.662,518.65,288.828,515.401z M133.971,480.195
						c-0.029,0.053-0.058,0.107-0.086,0.161c-0.319,0.043-0.871,0.116-1.572,0.212c-0.38-0.771-0.881-1.741-1.472-2.776
						C132.318,479.177,133.504,479.927,133.971,480.195z"/>
				</g>
			</g>
			<g>
				<path style="fill:#13334C;" d="M514.821,409.754c0,0-8.148-14.55-11.64-26.771c-3.492-12.222-6.402-14.55-8.148-16.296
					c-1.746-1.746,2.91-4.074,2.91-4.074s-3.492,1.164-6.402-1.164c-2.91-2.328-7.566-6.984-10.476-9.312
					c-2.91-2.328-4.656-4.074-9.312-7.566c-4.656-3.492-12.804-10.476-15.714-11.64c-2.91-1.164-16.878-9.312-16.878-9.312
					l-6.984-1.164c0,0,12.222-1.164,22.697,0.582c10.476,1.746,25.607,11.64,32.009,13.968c6.402,2.328,16.296,15.132,20.37,18.042
					c4.074,2.91,15.714,16.878,15.714,16.878l10.476,18.042L514.821,409.754z"/>
				<path style="fill:#13334C;" d="M539.084,415.582c-5.965-8.568-19.868-25.56-27.71-31.626
					c-7.842-6.066-13.423-11.457-13.423-11.457s-2.505,7.507-5.873,6.302s-2.596-10.492-2.596-10.492s-9.863-8.665-25.502-11.798
					c-15.639-3.133-20.115-1.738-36.863-2.273c-16.747-0.534-43.891,7.013-43.891,7.013s8.324,5.344,9.816,5.922
					c1.492,0.578,9.046,5.826,9.046,5.826l10.008,7.51c0,0,11.453,2.217,12.993,2.41c1.54,0.193,7.893-3.703,9.913,2.024
					c2.02,5.727,0.913,5.198-3.659,4.234c-4.572-0.964-13.234-0.485-13.234-0.485s9.527,5.104,15.83,10.977
					c6.303,5.873,8.803,10.879,12.027,13.238c3.224,2.359,17.036,1.352,21.607,2.316s13.809,8.378,12.316,10.523
					c-1.492,2.146-6.161,2.761-13.764,1.026c-7.603-1.735-17.421-1.401-17.421-1.401s-0.241,1.925,15.008,23.778
					c15.152,22.623,46.674,20.707,46.674,20.707l22.087,4.723c0,0,0,0,1.541-2.935c1.541-2.935,9.294-21.124,10.403-26.85
					C545.526,439.069,545.049,424.15,539.084,415.582z M438.853,376.042c-1.612,0.385-6.4-0.411-11.983-1.111
					c-5.582-0.699-7.555-2.12-8.589-3.227c-1.034-1.107,0.747-2.839,5.295-3.247c0,0,1.083-0.842,5.414,0.483
					c4.331,1.325,4.716,1.373,8.012,3.155C440.298,373.877,440.465,375.658,438.853,376.042z M452.732,393.227
					c-3.152,0.192-6.184-0.579-4.884-1.59c1.3-1.01,3.345-1.731,3.345-1.731s5.655-1.442,7.098,1.085
					C459.734,393.518,455.884,393.035,452.732,393.227z M485.268,378.535c-1.661,1.552-2.237-3.213-5.376-6.246
					c-3.139-3.033-4.076-7.256-4.076-7.256c0.867-2.237,5.81,2.781,7.758,5.958C485.522,374.168,486.929,376.983,485.268,378.535z"
					/>
			</g>
			<g>
				<g>
					<path style="fill:#4B9F66;" d="M-9.298,467.016c0,0,19.291,2.411,26.525-19.291c7.234-21.703-3.215-29.741,16.076-43.405
						c19.291-13.665,20.899-17.684,20.095-32.152c-0.804-14.468,8.842-14.468,20.095-28.133
						c11.253-13.665-0.804-19.291,10.449-29.741s26.525-5.627,28.937-12.861S96,280.534,67.867,283.749
						c-28.133,3.215-34.563,19.291-41.798,33.76C18.835,331.977-1.26,333.585-1.26,352.876s-14.468,28.133-20.899,35.367
						c-6.431,7.234,0,9.646-11.253,31.348C-44.665,441.294-38.235,471.035-9.298,467.016z"/>
					<path style="fill:#9ED188;" d="M113.864,299.806c-13.778-5.376-28.723-3.691-42.11,2.009
						c-14.432,6.145-25.871,17.093-34.886,29.717c-9.85,13.793-16.643,29.525-23.257,45.04
						c-7.734,18.141-15.437,36.295-23.155,54.443c-4.503,10.588-9.006,21.176-13.51,31.764c-0.301,0.707,0.738,1.322,1.041,0.609
						c7.764-18.255,15.528-36.511,23.292-54.766c7.244-17.031,14.129-34.277,22.07-50.999c7.274-15.318,16.158-30.266,28.813-41.769
						c11.88-10.799,27.689-18.018,43.866-18.186c6.001-0.062,11.936,1.123,17.514,3.299
						C114.269,301.252,114.58,300.086,113.864,299.806z"/>
				</g>
				<g>
					<path style="fill:#FED06F;" d="M-15.26,494.786c0,0-0.804-25.822,16.88-45.917l11.253,15.222L8.05,444.775
						c0,0,4.019-15.285,21.703-27.342l13.665,4.817l-6.43-11.256c0,0,25.105-22.508,45.2-30.546L88,385.268c0,0-3-8.44,0-8.44
						c2,0,26.339-5.225,26.339-5.225s-14.562,23.31-27.423,40.19c-12.861,16.88-17.73,24.114-17.73,24.114l-14.492-4.823
						l9.634,8.842c0,0-19.615,38.223-26.288,43.627l-11.499-6.652l7.441,10.092c0,0-7.443,17.237-30.754,23.668
						c-23.31,6.43-23.311,6.43-23.311,6.43L-15.26,494.786z"/>
					<path style="fill:#F2D188;" d="M114.118,371.704c-8.568,3.931-16.32,9.179-23.59,15.07c-0.179-0.352-0.256-0.788-0.289-1.328
						c-0.049-0.796-0.025-1.594,0.017-2.389c0.041-0.777-1.165-0.773-1.206,0c-0.06,1.141-0.37,3.398,0.38,4.61
						c-4.433,3.655-8.691,7.541-12.846,11.506c-0.825,0.787-1.636,1.588-2.454,2.382c-0.236-0.838-0.275-1.896-0.317-2.337
						c-0.059-0.623,0.295-2.814-0.419-3.084c0.729,0.275,1.041-0.89,0.321-1.163c-0.05-0.019-0.1-0.038-0.151-0.057
						c-0.195-0.074-0.447,0.013-0.587,0.155c-0.811,0.824-0.438,2.449-0.408,3.487c0.035,1.23,0.172,2.68,0.626,3.905
						c-5.412,5.286-10.688,10.71-15.851,16.241c-0.559-1.553-0.702-4.13-0.783-4.738c-0.291-2.183-0.313-4.392-0.244-6.59
						c0.024-0.778-1.181-0.776-1.206,0c-0.082,2.619-0.007,5.248,0.411,7.84c0.203,1.26,0.261,3.158,0.876,4.509
						c-5.549,5.972-10.984,12.052-16.34,18.195c-0.958-1.356-1.05-3.559-1.324-5.115c-0.438-2.489-0.608-5.03-0.812-7.547
						c-0.063-0.769-1.269-0.775-1.206,0c0.214,2.633,0.458,5.255,0.855,7.867c0.283,1.863,0.546,4.19,1.529,5.905
						c-5.434,6.252-10.789,12.573-16.117,18.916c-1.668,1.986-3.374,3.959-5.073,5.942c-0.625-8.723,0.351-17.378,2.958-25.752
						c0.232-0.745-0.932-1.06-1.163-0.32c-2.767,8.89-3.746,18.108-2.91,27.378c-3.277,3.848-6.489,7.759-9.302,11.924
						c-1.913,2.831-3.605,5.797-5.26,8.786c-1.343-6.679-1.787-13.433-1.321-20.246c0.053-0.776-1.153-0.771-1.206,0
						c-0.503,7.362,0.052,14.666,1.631,21.867c-2.032,3.696-4.055,7.399-6.405,10.91c-4.902,7.324-9.949,14.963-16.412,21.009
						c-0.569,0.532,0.286,1.383,0.853,0.853c9.553-8.937,16.288-20.44,22.794-31.783c0.005-0.001,0.009,0.001,0.015-0.001
						c7.837-1.863,15.845-2.612,23.889-2.134c0.777,0.046,0.773-1.16,0-1.206c-7.77-0.462-15.514,0.233-23.097,1.933
						c1.284-2.241,2.564-4.472,3.859-6.67c3.042-5.164,6.913-9.849,10.851-14.436c0.123-0.042,0.208-0.139,0.264-0.26
						c8.013,0.618,15.98,0.052,23.829-1.687c0.759-0.168,0.437-1.331-0.32-1.163c-7.441,1.649-14.976,2.202-22.562,1.705
						c1.416-1.643,2.832-3.28,4.211-4.924c5.543-6.609,11.121-13.19,16.772-19.707c1.298,0.878,4.566,0.583,5.73,0.667
						c3.49,0.253,6.996,0.188,10.485-0.036c0.772-0.05,0.777-1.256,0-1.206c-4.671,0.301-9.313,0.211-13.969-0.27
						c-0.461-0.048-0.844-0.184-1.175-0.377c5.295-6.084,10.679-12.092,16.171-17.998c1.097,0.912,4.332,0.743,5.554,0.836
						c3.031,0.23,6.078,0.091,9.098-0.216c0.766-0.078,0.773-1.284,0-1.206c-4.509,0.458-8.976,0.385-13.465-0.259
						c-0.105-0.015-0.202-0.064-0.294-0.129c5.146-5.511,10.417-10.904,15.799-16.187c0.794,0.679,2.782,0.751,3.658,0.865
						c1.895,0.246,3.845-0.08,5.649-0.652c0.738-0.234,0.423-1.398-0.321-1.163c-2.642,0.837-5.232,0.85-7.885,0.048
						c-0.045-0.014-0.079-0.053-0.12-0.076c0.34-0.331,0.667-0.674,1.008-1.004c4.688-4.546,9.51-9.001,14.564-13.152
						c1.766,0.925,4.196,1.051,6.103,1.083c0.778,0.013,0.777-1.193,0-1.206c-1.587-0.027-3.126-0.239-4.661-0.641
						c-0.134-0.035-0.251-0.077-0.363-0.121c7.18-5.795,14.842-10.946,23.286-14.819
						C115.432,372.421,114.819,371.382,114.118,371.704z"/>
				</g>
			</g>
			<g>
				<g>
					<path style="fill:#FFFFFF;" d="M36.802,481.505c0,0-2.785-10.339-1.706-11.519c1.078-1.18,1.234,0.052,2.623-0.58
						c1.389-0.632,2.39-1.47,3.74-0.974c1.35,0.496,1.678,1.382,2.896,1.096c1.217-0.285,1.745,0.815,1.895,1.934
						c0.15,1.119-1.707,10.005-2.201,11.037C42.504,485.729,38.352,486.047,36.802,481.505z"/>
					<path style="fill:#FFFFFF;" d="M31.15,488.224c0,0-8.867-6.002-8.823-7.6c0.044-1.598,0.967-0.768,1.605-2.154
						c0.638-1.387,0.847-2.675,2.193-3.182c1.346-0.507,2.173-0.052,2.907-1.064c0.734-1.012,1.853-0.524,2.699,0.224
						c0.845,0.749,5.25,8.686,5.551,9.789C38.226,487.692,35.293,490.647,31.15,488.224z"/>
					<path style="fill:#FFFFFF;" d="M36.802,504.007c0,0-2.785,10.339-1.706,11.519c1.078,1.18,1.234-0.052,2.623,0.58
						c1.389,0.632,2.39,1.47,3.74,0.974c1.35-0.496,1.678-1.381,2.896-1.096c1.217,0.286,1.745-0.815,1.895-1.934
						c0.15-1.119-1.707-10.005-2.201-11.037C42.504,499.783,38.352,499.465,36.802,504.007z"/>
					<path style="fill:#FFFFFF;" d="M30.715,496.958c0,0-9.291,5.322-9.367,6.919c-0.075,1.596,0.907,0.838,1.44,2.268
						c0.532,1.43,0.644,2.731,1.949,3.337c1.305,0.607,2.163,0.215,2.82,1.279c0.656,1.064,1.809,0.662,2.708-0.022
						c0.899-0.683,5.885-8.269,6.268-9.347C37.731,498.018,35.027,494.852,30.715,496.958z"/>
					<path style="fill:#FFFFFF;" d="M31.358,496.135c0,0-10.539,1.895-11.623,0.721c-1.084-1.175,0.156-1.225-0.355-2.663
						c-0.512-1.438-1.262-2.506-0.652-3.81c0.61-1.303,1.519-1.555,1.338-2.792c-0.181-1.237,0.96-1.669,2.088-1.724
						c1.128-0.054,9.823,2.552,10.809,3.131C36.052,490.813,36.016,494.976,31.358,496.135z"/>
					<path style="fill:#FFFFFF;" d="M50.786,487.846c0,0,8.656-6.304,8.556-7.899c-0.099-1.595-0.993-0.734-1.678-2.098
						c-0.685-1.364-0.938-2.644-2.302-3.105c-1.363-0.461-2.174,0.023-2.942-0.963c-0.769-0.986-1.87-0.46-2.689,0.317
						c-0.819,0.777-4.948,8.862-5.211,9.975C43.696,487.557,46.729,490.41,50.786,487.846z"/>
					<path style="fill:#FFFFFF;" d="M51.153,496.907c0,0,8.795,6.108,8.731,7.705c-0.063,1.597-0.976,0.756-1.631,2.135
						c-0.655,1.379-0.879,2.665-2.231,3.156c-1.352,0.491-2.174,0.026-2.92,1.029c-0.746,1.003-1.859,0.502-2.696-0.257
						c-0.836-0.759-5.146-8.748-5.434-9.855C44.071,497.355,47.039,494.435,51.153,496.907z"/>
					<path style="fill:#FFFFFF;" d="M50.062,496.095c0,0,10.381,2.627,11.544,1.531c1.163-1.096-0.07-1.233,0.54-2.632
						c0.611-1.399,1.434-2.412,0.917-3.755s-1.407-1.657-1.14-2.879c0.267-1.221-0.841-1.732-1.963-1.866
						c-1.121-0.133-9.978,1.859-11.002,2.368C45.752,490.457,45.497,494.613,50.062,496.095z"/>
				</g>
				<path style="fill:#FFA975;" d="M48.12,488.187c-0.639-0.997-1.494-1.799-2.477-2.41c-0.925-0.888-2.069-1.548-3.355-1.868
					c-6.341-1.583-12.106,4.477-11.085,10.633c0.965,5.82,6.728,9.658,12.368,7.777c2.891-0.964,4.975-2.887,5.985-5.763
					C50.474,493.941,49.56,490.435,48.12,488.187z"/>
			</g>
			<g>
				<g>
					<g>
						<path style="fill:#FFFFFF;" d="M300.999,450.822c0,0-1.964-7.291-1.203-8.123c0.76-0.832,0.87,0.036,1.85-0.409
							s1.685-1.037,2.637-0.686c0.952,0.35,1.184,0.974,2.042,0.773c0.858-0.201,1.23,0.575,1.336,1.364
							c0.106,0.789-1.204,7.055-1.552,7.782C305.02,453.801,302.093,454.025,300.999,450.822z"/>
						<path style="fill:#FFFFFF;" d="M297.014,455.56c0,0-6.253-4.232-6.221-5.359c0.031-1.127,0.682-0.541,1.132-1.519
							c0.45-0.978,0.597-1.886,1.547-2.244c0.949-0.358,1.532-0.037,2.05-0.75s1.307-0.37,1.903,0.158
							c0.596,0.528,3.702,6.125,3.914,6.903C302.004,455.185,299.935,457.269,297.014,455.56z"/>
						<path style="fill:#FFFFFF;" d="M300.999,466.689c0,0-1.964,7.291-1.203,8.123c0.76,0.832,0.87-0.036,1.85,0.409
							c0.98,0.446,1.685,1.037,2.637,0.686c0.952-0.35,1.184-0.974,2.042-0.773c0.858,0.201,1.23-0.575,1.336-1.364
							c0.106-0.789-1.204-7.055-1.552-7.782C305.02,463.711,302.093,463.487,300.999,466.689z"/>
						<path style="fill:#FFFFFF;" d="M296.707,461.719c0,0-6.552,3.753-6.605,4.879c-0.053,1.126,0.64,0.591,1.015,1.599
							c0.375,1.009,0.454,1.926,1.374,2.353c0.92,0.428,1.525,0.151,1.988,0.902c0.463,0.75,1.275,0.467,1.909-0.015
							c0.634-0.482,4.15-5.831,4.42-6.591C301.655,462.466,299.748,460.234,296.707,461.719z"/>
						<path style="fill:#FFFFFF;" d="M297.161,461.138c0,0-7.431,1.336-8.196,0.508c-0.764-0.828,0.11-0.864-0.25-1.878
							c-0.361-1.014-0.89-1.767-0.46-2.686c0.43-0.919,1.071-1.096,0.944-1.969c-0.128-0.872,0.677-1.177,1.473-1.216
							c0.795-0.038,6.927,1.799,7.622,2.208C300.471,457.385,300.445,460.321,297.161,461.138z"/>
						<path style="fill:#FFFFFF;" d="M310.86,455.293c0,0,6.103-4.445,6.033-5.57c-0.07-1.125-0.7-0.518-1.184-1.479
							c-0.483-0.962-0.662-1.864-1.623-2.189c-0.961-0.325-1.533,0.016-2.075-0.679c-0.542-0.695-1.319-0.325-1.896,0.223
							c-0.578,0.548-3.489,6.249-3.675,7.034C305.861,455.09,307.999,457.101,310.86,455.293z"/>
						<path style="fill:#FFFFFF;" d="M311.119,461.683c0,0,6.202,4.307,6.157,5.433c-0.045,1.126-0.689,0.533-1.15,1.505
							c-0.462,0.972-0.62,1.879-1.573,2.225c-0.954,0.346-1.533,0.018-2.059,0.726c-0.526,0.707-1.311,0.354-1.901-0.181
							c-0.59-0.535-3.628-6.169-3.832-6.949C306.125,461.999,308.218,459.94,311.119,461.683z"/>
						<path style="fill:#FFFFFF;" d="M310.35,461.11c0,0,7.32,1.852,8.14,1.08c0.82-0.773-0.05-0.869,0.381-1.856
							c0.431-0.986,1.011-1.701,0.646-2.647c-0.364-0.947-0.992-1.169-0.804-2.03s-0.593-1.222-1.384-1.315
							c-0.791-0.094-7.036,1.311-7.758,1.67C307.31,457.135,307.131,460.065,310.35,461.11z"/>
					</g>
					<path style="fill:#FFA975;" d="M308.98,455.534c-0.451-0.703-1.053-1.269-1.747-1.699c-0.652-0.626-1.459-1.091-2.366-1.318
						c-4.471-1.116-8.536,3.157-7.817,7.497c0.68,4.104,4.744,6.81,8.721,5.484c2.038-0.68,3.508-2.035,4.22-4.064
						C310.64,459.592,309.996,457.119,308.98,455.534z"/>
				</g>
				<g>
					<g>
						<path style="fill:#FFFFFF;" d="M207.616,458.531c0,0-1.54-5.72-0.944-6.373c0.596-0.653,0.683,0.029,1.451-0.321
							c0.769-0.35,1.322-0.813,2.069-0.539c0.747,0.275,0.929,0.764,1.602,0.606c0.673-0.158,0.965,0.451,1.049,1.07
							c0.083,0.619-0.945,5.535-1.217,6.106C210.771,460.868,208.474,461.044,207.616,458.531z"/>
						<path style="fill:#FFFFFF;" d="M204.489,462.249c0,0-4.906-3.321-4.881-4.204c0.025-0.884,0.535-0.425,0.888-1.192
							c0.353-0.767,0.469-1.48,1.213-1.76s1.202-0.029,1.609-0.589c0.406-0.56,1.025-0.29,1.493,0.124
							c0.468,0.414,2.904,4.806,3.071,5.416C208.404,461.954,206.782,463.589,204.489,462.249z"/>
						<path style="fill:#FFFFFF;" d="M207.616,470.98c0,0-1.54,5.72-0.944,6.373s0.683-0.029,1.451,0.321
							c0.769,0.35,1.322,0.813,2.069,0.539c0.747-0.275,0.929-0.764,1.602-0.606c0.673,0.158,0.965-0.451,1.049-1.07
							c0.083-0.619-0.945-5.535-1.217-6.106C210.771,468.643,208.474,468.467,207.616,470.98z"/>
						<path style="fill:#FFFFFF;" d="M204.249,467.08c0,0-5.14,2.944-5.182,3.828c-0.042,0.883,0.502,0.464,0.797,1.255
							c0.295,0.791,0.356,1.511,1.078,1.846c0.722,0.336,1.197,0.119,1.56,0.707c0.363,0.589,1.001,0.366,1.498-0.012
							c0.497-0.378,3.256-4.575,3.468-5.171C208.131,467.667,206.635,465.915,204.249,467.08z"/>
						<path style="fill:#FFFFFF;" d="M204.605,466.625c0,0-5.83,1.048-6.43,0.399c-0.6-0.65,0.087-0.678-0.197-1.473
							s-0.698-1.387-0.361-2.108c0.337-0.721,0.84-0.86,0.74-1.544c-0.1-0.684,0.531-0.924,1.155-0.954
							c0.624-0.03,5.435,1.412,5.98,1.732C207.202,463.681,207.182,465.984,204.605,466.625z"/>
						<path style="fill:#FFFFFF;" d="M215.353,462.039c0,0,4.788-3.487,4.734-4.37c-0.055-0.883-0.549-0.406-0.929-1.161
							c-0.379-0.755-0.519-1.463-1.273-1.718c-0.754-0.255-1.203,0.012-1.628-0.533c-0.425-0.546-1.035-0.255-1.488,0.175
							c-0.453,0.43-2.737,4.902-2.883,5.518C211.43,461.88,213.108,463.458,215.353,462.039z"/>
						<path style="fill:#FFFFFF;" d="M215.556,467.053c0,0,4.866,3.379,4.83,4.263c-0.035,0.884-0.54,0.418-0.902,1.181
							c-0.362,0.763-0.486,1.474-1.234,1.746c-0.748,0.272-1.203,0.015-1.615,0.569c-0.413,0.555-1.029,0.278-1.491-0.142
							c-0.463-0.42-2.847-4.84-3.006-5.452C211.638,467.3,213.28,465.685,215.556,467.053z"/>
						<path style="fill:#FFFFFF;" d="M214.952,466.603c0,0,5.743,1.453,6.386,0.847c0.644-0.606-0.039-0.682,0.299-1.456
							c0.338-0.774,0.793-1.334,0.507-2.077c-0.286-0.743-0.778-0.917-0.631-1.592c0.148-0.676-0.465-0.958-1.086-1.032
							c-0.62-0.074-5.52,1.028-6.087,1.31C212.568,463.484,212.427,465.783,214.952,466.603z"/>
					</g>
					<path style="fill:#FFA975;" d="M213.878,462.228c-0.354-0.552-0.827-0.996-1.371-1.333c-0.511-0.491-1.145-0.856-1.856-1.034
						c-3.508-0.875-6.697,2.477-6.133,5.882c0.533,3.22,3.722,5.343,6.842,4.303c1.599-0.533,2.752-1.597,3.311-3.189
						C215.18,465.412,214.675,463.472,213.878,462.228z"/>
				</g>
				<g>
					<g>
						<path style="fill:#FFFFFF;" d="M456.616,445.531c0,0-1.54-5.72-0.944-6.373c0.597-0.653,0.683,0.029,1.451-0.321
							c0.769-0.35,1.322-0.813,2.069-0.539c0.747,0.275,0.929,0.764,1.602,0.606c0.673-0.158,0.965,0.451,1.048,1.07
							c0.083,0.619-0.944,5.535-1.217,6.106C459.771,447.868,457.474,448.044,456.616,445.531z"/>
						<path style="fill:#FFFFFF;" d="M453.489,449.249c0,0-4.906-3.321-4.881-4.204c0.025-0.884,0.535-0.425,0.888-1.192
							c0.353-0.767,0.468-1.48,1.213-1.76s1.202-0.029,1.609-0.589c0.406-0.56,1.025-0.29,1.493,0.124
							c0.468,0.414,2.904,4.806,3.071,5.416C457.404,448.954,455.782,450.589,453.489,449.249z"/>
						<path style="fill:#FFFFFF;" d="M456.616,457.98c0,0-1.54,5.72-0.944,6.373c0.597,0.653,0.683-0.029,1.451,0.321
							c0.769,0.35,1.322,0.813,2.069,0.539c0.747-0.275,0.929-0.764,1.602-0.606c0.673,0.158,0.965-0.451,1.048-1.07
							c0.083-0.619-0.944-5.535-1.217-6.106C459.771,455.643,457.474,455.467,456.616,457.98z"/>
						<path style="fill:#FFFFFF;" d="M453.249,454.08c0,0-5.14,2.944-5.182,3.828c-0.042,0.883,0.502,0.464,0.797,1.255
							c0.295,0.791,0.357,1.511,1.078,1.846c0.722,0.336,1.197,0.119,1.56,0.707c0.363,0.589,1.001,0.366,1.498-0.012
							c0.497-0.378,3.256-4.575,3.468-5.171C457.131,454.667,455.635,452.915,453.249,454.08z"/>
						<path style="fill:#FFFFFF;" d="M453.605,453.625c0,0-5.83,1.048-6.43,0.399c-0.6-0.65,0.086-0.678-0.197-1.473
							c-0.283-0.796-0.698-1.387-0.361-2.108c0.337-0.721,0.841-0.86,0.74-1.544c-0.1-0.684,0.531-0.924,1.155-0.954
							c0.624-0.03,5.435,1.412,5.98,1.732C456.202,450.681,456.182,452.984,453.605,453.625z"/>
						<path style="fill:#FFFFFF;" d="M464.353,449.039c0,0,4.789-3.487,4.734-4.37c-0.055-0.883-0.549-0.406-0.929-1.161
							c-0.379-0.755-0.519-1.463-1.273-1.718c-0.754-0.255-1.203,0.012-1.628-0.533c-0.425-0.546-1.035-0.255-1.488,0.175
							c-0.453,0.43-2.737,4.902-2.883,5.518C460.43,448.88,462.108,450.458,464.353,449.039z"/>
						<path style="fill:#FFFFFF;" d="M464.556,454.053c0,0,4.866,3.379,4.831,4.263c-0.035,0.884-0.54,0.418-0.902,1.181
							c-0.362,0.763-0.486,1.474-1.234,1.746c-0.748,0.272-1.203,0.015-1.615,0.569c-0.413,0.555-1.029,0.278-1.491-0.142
							c-0.463-0.42-2.847-4.84-3.006-5.452C460.638,454.3,462.28,452.685,464.556,454.053z"/>
						<path style="fill:#FFFFFF;" d="M463.952,453.603c0,0,5.743,1.453,6.386,0.847c0.644-0.606-0.039-0.682,0.299-1.456
							c0.338-0.774,0.793-1.334,0.507-2.077c-0.286-0.743-0.778-0.917-0.631-1.592c0.148-0.676-0.465-0.958-1.086-1.032
							c-0.62-0.074-5.52,1.028-6.087,1.31C461.568,450.484,461.427,452.783,463.952,453.603z"/>
					</g>
					<path style="fill:#FFA975;" d="M462.878,449.228c-0.353-0.552-0.827-0.996-1.371-1.333c-0.512-0.491-1.145-0.856-1.856-1.034
						c-3.508-0.875-6.697,2.477-6.133,5.882c0.533,3.22,3.722,5.343,6.842,4.303c1.599-0.533,2.752-1.597,3.311-3.189
						C464.18,452.412,463.675,450.472,462.878,449.228z"/>
				</g>
				<g>
					<g>
						<path style="fill:#FFFFFF;" d="M117.222,450.208c0,0-1.126-4.179-0.69-4.656c0.436-0.477,0.499,0.021,1.06-0.235
							c0.562-0.255,0.966-0.594,1.512-0.393c0.546,0.201,0.678,0.558,1.17,0.443c0.492-0.115,0.705,0.329,0.766,0.782
							c0.061,0.452-0.69,4.044-0.889,4.461C119.526,451.916,117.848,452.044,117.222,450.208z"/>
						<path style="fill:#FFFFFF;" d="M114.937,452.924c0,0-3.584-2.426-3.566-3.072c0.018-0.646,0.391-0.31,0.649-0.871
							c0.258-0.56,0.342-1.081,0.886-1.286c0.544-0.205,0.878-0.021,1.175-0.43c0.297-0.409,0.749-0.212,1.091,0.091
							c0.342,0.303,2.122,3.511,2.244,3.957C117.797,452.709,116.612,453.904,114.937,452.924z"/>
						<path style="fill:#FFFFFF;" d="M117.222,459.303c0,0-1.126,4.179-0.69,4.656c0.436,0.477,0.499-0.021,1.06,0.234
							c0.562,0.255,0.966,0.594,1.512,0.394c0.546-0.201,0.678-0.558,1.17-0.443c0.492,0.115,0.705-0.329,0.766-0.782
							c0.061-0.452-0.69-4.044-0.889-4.461C119.526,457.596,117.848,457.467,117.222,459.303z"/>
						<path style="fill:#FFFFFF;" d="M114.762,456.454c0,0-3.755,2.151-3.786,2.796c-0.031,0.645,0.367,0.339,0.582,0.917
							c0.215,0.578,0.26,1.104,0.788,1.349c0.527,0.245,0.874,0.087,1.14,0.517c0.265,0.43,0.731,0.267,1.094-0.009
							c0.363-0.276,2.379-3.342,2.533-3.778C117.598,456.883,116.505,455.603,114.762,456.454z"/>
						<path style="fill:#FFFFFF;" d="M115.022,456.121c0,0-4.259,0.766-4.698,0.291c-0.438-0.475,0.063-0.495-0.144-1.076
							c-0.207-0.581-0.51-1.013-0.264-1.54c0.246-0.527,0.614-0.628,0.541-1.128c-0.073-0.5,0.388-0.675,0.844-0.697
							c0.456-0.022,3.97,1.031,4.369,1.266C116.919,453.97,116.904,455.653,115.022,456.121z"/>
						<path style="fill:#FFFFFF;" d="M122.874,452.771c0,0,3.498-2.548,3.458-3.193c-0.04-0.645-0.401-0.297-0.678-0.848
							c-0.277-0.551-0.379-1.069-0.93-1.255c-0.551-0.186-0.879,0.009-1.189-0.389c-0.311-0.398-0.756-0.186-1.087,0.128
							c-0.331,0.314-2,3.582-2.106,4.031C120.008,452.655,121.234,453.807,122.874,452.771z"/>
						<path style="fill:#FFFFFF;" d="M123.022,456.434c0,0,3.555,2.469,3.529,3.114c-0.026,0.645-0.395,0.306-0.659,0.863
							c-0.265,0.557-0.355,1.077-0.902,1.276c-0.547,0.199-0.879,0.011-1.18,0.416c-0.302,0.405-0.752,0.203-1.09-0.104
							c-0.338-0.307-2.08-3.536-2.196-3.983C120.16,456.615,121.36,455.435,123.022,456.434z"/>
						<path style="fill:#FFFFFF;" d="M122.581,456.105c0,0,4.196,1.062,4.666,0.619c0.47-0.443-0.028-0.498,0.218-1.064
							c0.247-0.565,0.579-0.975,0.37-1.517c-0.209-0.543-0.569-0.67-0.461-1.164c0.108-0.494-0.34-0.7-0.793-0.754
							c-0.453-0.054-4.033,0.751-4.447,0.957C120.839,453.827,120.736,455.507,122.581,456.105z"/>
					</g>
					<path style="fill:#FFA975;" d="M121.796,452.909c-0.258-0.403-0.604-0.727-1.001-0.974c-0.374-0.359-0.836-0.625-1.356-0.755
						c-2.563-0.64-4.893,1.809-4.48,4.297c0.39,2.352,2.719,3.903,4.999,3.143c1.168-0.389,2.011-1.167,2.419-2.329
						C122.748,455.235,122.378,453.818,121.796,452.909z"/>
				</g>
				<g>
					<g>
						<path style="fill:#FFFFFF;" d="M207.464,412.879c0,0-0.96-3.562-0.588-3.969c0.371-0.406,0.425,0.018,0.904-0.2
							c0.479-0.218,0.823-0.507,1.289-0.336c0.465,0.171,0.578,0.476,0.998,0.378c0.419-0.098,0.601,0.281,0.653,0.666
							c0.052,0.386-0.588,3.447-0.758,3.803C209.429,414.335,207.998,414.444,207.464,412.879z"/>
						<path style="fill:#FFFFFF;" d="M205.516,415.194c0,0-3.055-2.068-3.04-2.619c0.015-0.551,0.333-0.264,0.553-0.742
							c0.22-0.478,0.292-0.922,0.756-1.096c0.464-0.175,0.749-0.018,1.002-0.367c0.253-0.349,0.639-0.181,0.93,0.077
							c0.291,0.258,1.809,2.993,1.913,3.373C207.955,415.011,206.944,416.029,205.516,415.194z"/>
						<path style="fill:#FFFFFF;" d="M207.464,420.632c0,0-0.96,3.563-0.588,3.969c0.371,0.407,0.425-0.018,0.904,0.2
							c0.479,0.218,0.823,0.507,1.289,0.336c0.465-0.171,0.578-0.476,0.998-0.378c0.419,0.098,0.601-0.281,0.653-0.666
							c0.052-0.386-0.588-3.447-0.758-3.803C209.429,419.177,207.998,419.067,207.464,420.632z"/>
						<path style="fill:#FFFFFF;" d="M205.367,418.204c0,0-3.201,1.834-3.227,2.384c-0.026,0.55,0.313,0.289,0.496,0.781
							c0.184,0.493,0.222,0.941,0.672,1.15c0.45,0.209,0.745,0.074,0.972,0.441c0.226,0.367,0.623,0.228,0.933-0.007
							c0.31-0.236,2.028-2.849,2.16-3.22C207.784,418.569,206.853,417.478,205.367,418.204z"/>
						<path style="fill:#FFFFFF;" d="M205.588,417.92c0,0-3.631,0.653-4.005,0.248c-0.374-0.405,0.054-0.422-0.122-0.918
							c-0.176-0.495-0.435-0.863-0.225-1.313c0.21-0.449,0.523-0.536,0.461-0.962c-0.062-0.426,0.331-0.575,0.719-0.594
							c0.389-0.019,3.385,0.879,3.724,1.079C207.206,416.086,207.193,417.521,205.588,417.92z"/>
						<path style="fill:#FFFFFF;" d="M212.282,415.064c0,0,2.982-2.172,2.948-2.722c-0.034-0.55-0.342-0.253-0.578-0.723
							c-0.236-0.47-0.323-0.911-0.793-1.07c-0.47-0.159-0.749,0.008-1.014-0.332c-0.265-0.34-0.644-0.159-0.927,0.109
							c-0.282,0.268-1.705,3.053-1.795,3.437C209.839,414.965,210.884,415.947,212.282,415.064z"/>
						<path style="fill:#FFFFFF;" d="M212.409,418.186c0,0,3.03,2.105,3.008,2.655c-0.022,0.55-0.337,0.26-0.562,0.736
							s-0.303,0.918-0.769,1.087c-0.466,0.169-0.749,0.009-1.006,0.354c-0.257,0.346-0.641,0.173-0.929-0.088
							c-0.288-0.261-1.773-3.014-1.872-3.396C209.969,418.34,210.991,417.334,212.409,418.186z"/>
						<path style="fill:#FFFFFF;" d="M212.033,417.906c0,0,3.577,0.905,3.977,0.528s-0.024-0.425,0.186-0.907
							c0.21-0.482,0.494-0.831,0.316-1.294s-0.485-0.571-0.393-0.992c0.092-0.421-0.29-0.597-0.676-0.643
							c-0.386-0.046-3.438,0.641-3.791,0.816C210.548,415.964,210.46,417.396,212.033,417.906z"/>
					</g>
					<path style="fill:#FFA975;" d="M211.364,415.182c-0.22-0.344-0.515-0.62-0.854-0.83c-0.319-0.306-0.713-0.533-1.156-0.644
						c-2.185-0.545-4.171,1.542-3.819,3.663c0.332,2.005,2.318,3.328,4.261,2.68c0.996-0.332,1.714-0.995,2.062-1.986
						C212.175,417.164,211.86,415.956,211.364,415.182z"/>
				</g>
				<g>
					<g>
						<path style="fill:#FFFFFF;" d="M363.464,383.879c0,0-0.96-3.562-0.588-3.969c0.371-0.406,0.425,0.018,0.904-0.2
							c0.479-0.218,0.823-0.507,1.289-0.336c0.465,0.171,0.578,0.476,0.998,0.378c0.419-0.098,0.601,0.281,0.653,0.666
							c0.052,0.386-0.588,3.447-0.758,3.803C365.429,385.335,363.998,385.444,363.464,383.879z"/>
						<path style="fill:#FFFFFF;" d="M361.516,386.194c0,0-3.055-2.068-3.04-2.619c0.015-0.551,0.333-0.264,0.553-0.742
							c0.22-0.478,0.292-0.922,0.756-1.096c0.464-0.175,0.749-0.018,1.002-0.367c0.253-0.349,0.639-0.181,0.93,0.077
							c0.291,0.258,1.809,2.993,1.913,3.373C363.955,386.011,362.944,387.029,361.516,386.194z"/>
						<path style="fill:#FFFFFF;" d="M363.464,391.632c0,0-0.96,3.563-0.588,3.969c0.371,0.407,0.425-0.018,0.904,0.2
							c0.479,0.218,0.823,0.507,1.289,0.336c0.465-0.171,0.578-0.476,0.998-0.378c0.419,0.098,0.601-0.281,0.653-0.666
							c0.052-0.386-0.588-3.447-0.758-3.803C365.429,390.177,363.998,390.067,363.464,391.632z"/>
						<path style="fill:#FFFFFF;" d="M361.367,389.204c0,0-3.201,1.834-3.227,2.384c-0.026,0.55,0.313,0.289,0.496,0.781
							c0.184,0.493,0.222,0.941,0.672,1.15c0.45,0.209,0.745,0.074,0.972,0.441c0.226,0.367,0.623,0.228,0.933-0.007
							c0.31-0.236,2.028-2.849,2.16-3.22C363.784,389.569,362.853,388.478,361.367,389.204z"/>
						<path style="fill:#FFFFFF;" d="M361.589,388.92c0,0-3.631,0.653-4.005,0.248c-0.374-0.405,0.054-0.422-0.122-0.918
							c-0.176-0.495-0.435-0.863-0.225-1.313s0.523-0.536,0.461-0.962c-0.062-0.426,0.331-0.575,0.72-0.594
							c0.389-0.019,3.385,0.879,3.724,1.079C363.206,387.086,363.193,388.521,361.589,388.92z"/>
						<path style="fill:#FFFFFF;" d="M368.283,386.064c0,0,2.982-2.172,2.948-2.722c-0.034-0.55-0.342-0.253-0.578-0.723
							c-0.236-0.47-0.323-0.911-0.793-1.07c-0.47-0.159-0.749,0.008-1.014-0.332c-0.265-0.34-0.644-0.159-0.927,0.109
							s-1.705,3.053-1.796,3.437C365.839,385.965,366.884,386.947,368.283,386.064z"/>
						<path style="fill:#FFFFFF;" d="M368.409,389.186c0,0,3.03,2.105,3.009,2.655c-0.022,0.55-0.337,0.26-0.562,0.736
							s-0.303,0.918-0.769,1.087c-0.466,0.169-0.749,0.009-1.006,0.354c-0.257,0.346-0.641,0.173-0.929-0.088
							c-0.288-0.261-1.773-3.014-1.872-3.396C365.969,389.34,366.991,388.334,368.409,389.186z"/>
						<path style="fill:#FFFFFF;" d="M368.033,388.906c0,0,3.577,0.905,3.977,0.528c0.401-0.378-0.024-0.425,0.186-0.907
							c0.21-0.482,0.494-0.831,0.316-1.294s-0.485-0.571-0.393-0.992c0.092-0.421-0.29-0.597-0.676-0.643
							c-0.386-0.046-3.438,0.641-3.791,0.816C366.548,386.964,366.46,388.396,368.033,388.906z"/>
					</g>
					<path style="fill:#FFA975;" d="M367.364,386.182c-0.22-0.344-0.515-0.62-0.854-0.83c-0.319-0.306-0.713-0.533-1.156-0.644
						c-2.185-0.545-4.171,1.542-3.82,3.663c0.332,2.005,2.318,3.328,4.262,2.68c0.996-0.332,1.714-0.995,2.062-1.986
						C368.175,388.164,367.86,386.956,367.364,386.182z"/>
				</g>
				<g>
					<g>
						<path style="fill:#FFFFFF;" d="M376.222,436.208c0,0-1.126-4.179-0.69-4.656c0.436-0.477,0.499,0.021,1.06-0.235
							c0.562-0.255,0.966-0.594,1.512-0.393c0.546,0.201,0.678,0.558,1.17,0.443c0.492-0.115,0.705,0.329,0.766,0.782
							c0.061,0.452-0.69,4.044-0.889,4.461C378.526,437.916,376.848,438.044,376.222,436.208z"/>
						<path style="fill:#FFFFFF;" d="M373.937,438.924c0,0-3.584-2.426-3.566-3.072c0.018-0.646,0.391-0.31,0.649-0.871
							c0.258-0.56,0.342-1.081,0.887-1.286c0.544-0.205,0.878-0.021,1.175-0.43c0.297-0.409,0.749-0.212,1.091,0.091
							c0.342,0.303,2.122,3.511,2.244,3.957C376.797,438.709,375.612,439.904,373.937,438.924z"/>
						<path style="fill:#FFFFFF;" d="M376.222,445.303c0,0-1.126,4.179-0.69,4.656c0.436,0.477,0.499-0.021,1.06,0.234
							c0.562,0.255,0.966,0.594,1.512,0.394c0.546-0.201,0.678-0.558,1.17-0.443c0.492,0.115,0.705-0.329,0.766-0.782
							c0.061-0.452-0.69-4.044-0.889-4.461C378.526,443.596,376.848,443.467,376.222,445.303z"/>
						<path style="fill:#FFFFFF;" d="M373.762,442.454c0,0-3.755,2.151-3.786,2.796c-0.031,0.645,0.367,0.339,0.582,0.917
							c0.215,0.578,0.26,1.104,0.788,1.349c0.527,0.245,0.874,0.087,1.14,0.517c0.265,0.43,0.731,0.267,1.094-0.009
							c0.363-0.276,2.379-3.342,2.533-3.778C376.598,442.883,375.505,441.603,373.762,442.454z"/>
						<path style="fill:#FFFFFF;" d="M374.022,442.121c0,0-4.259,0.766-4.698,0.291c-0.438-0.475,0.063-0.495-0.144-1.076
							c-0.207-0.581-0.51-1.013-0.263-1.54c0.246-0.527,0.614-0.628,0.541-1.128c-0.073-0.5,0.388-0.675,0.844-0.697
							c0.456-0.022,3.97,1.031,4.369,1.266C375.919,439.97,375.904,441.653,374.022,442.121z"/>
						<path style="fill:#FFFFFF;" d="M381.874,438.771c0,0,3.498-2.548,3.458-3.193c-0.04-0.645-0.401-0.297-0.678-0.848
							c-0.277-0.551-0.379-1.069-0.93-1.255c-0.551-0.186-0.879,0.009-1.189-0.389c-0.311-0.398-0.756-0.186-1.087,0.128
							c-0.331,0.314-2,3.582-2.106,4.031C379.008,438.655,380.234,439.807,381.874,438.771z"/>
						<path style="fill:#FFFFFF;" d="M382.022,442.434c0,0,3.555,2.469,3.529,3.114c-0.026,0.645-0.395,0.306-0.659,0.863
							c-0.265,0.557-0.355,1.077-0.902,1.276c-0.547,0.199-0.879,0.011-1.18,0.416c-0.302,0.405-0.751,0.203-1.089-0.104
							c-0.338-0.307-2.08-3.536-2.196-3.983C379.16,442.615,380.36,441.435,382.022,442.434z"/>
						<path style="fill:#FFFFFF;" d="M381.581,442.105c0,0,4.195,1.062,4.666,0.619c0.47-0.443-0.028-0.498,0.218-1.064
							c0.247-0.565,0.579-0.975,0.371-1.517c-0.209-0.543-0.569-0.67-0.461-1.164c0.108-0.494-0.34-0.7-0.793-0.754
							c-0.453-0.054-4.033,0.751-4.447,0.957C379.839,439.827,379.736,441.507,381.581,442.105z"/>
					</g>
					<path style="fill:#FFA975;" d="M380.796,438.909c-0.258-0.403-0.604-0.727-1.001-0.974c-0.374-0.359-0.836-0.625-1.356-0.755
						c-2.563-0.64-4.893,1.809-4.48,4.297c0.39,2.352,2.719,3.903,4.999,3.143c1.168-0.389,2.011-1.167,2.419-2.329
						C381.748,441.235,381.378,439.818,380.796,438.909z"/>
				</g>
				<g>
					<path style="fill:#E12500;" d="M355,473.5c0,0-4.25-4.75-6-7s1-2.75,4.75-1.5s3.25,6.5,4.25,5s0-6,2.25-4.75
						s-1.25,6.25,0.5,5.25s4-3.75,4.75-1.75s-0.25,1.5-3.75,4.5S358,476,355,473.5z"/>
					<path style="fill:#FFCC4A;" d="M89.553,486.727c0,0-5.313-2.605-7.604-3.931c-2.29-1.326-0.098-2.715,3.564-2.947
						c3.663-0.232,5.063,4.46,5.4,2.82c0.338-1.639-2.092-5.163,0.28-4.872c2.372,0.291,1.104,5.814,2.261,4.343
						c1.157-1.471,2.134-4.622,3.477-3.162c1.343,1.46,0.308,1.378-1.658,5.18C93.309,487.96,93.007,487.832,89.553,486.727z"/>
					
						<linearGradient id="SVGID_00000165204552854433343530000016570280312847333509_" gradientUnits="userSpaceOnUse" x1="113.9587" y1="409.1467" x2="117.6253" y2="432.1467">
						<stop  offset="7.000000e-08" style="stop-color:#FFFFB7"/>
						<stop  offset="1" style="stop-color:#CE7424"/>
					</linearGradient>
					<path style="fill:url(#SVGID_00000165204552854433343530000016570280312847333509_);" d="M113.553,410.727
						c0,0-5.313-2.605-7.604-3.931c-2.29-1.326-0.098-2.715,3.564-2.947c3.663-0.232,5.063,4.46,5.4,2.82
						c0.338-1.639-2.092-5.163,0.28-4.872c2.372,0.291,1.104,5.814,2.261,4.343c1.157-1.471,2.134-4.622,3.477-3.162
						c1.343,1.46,0.308,1.378-1.658,5.18C117.309,411.96,117.007,411.832,113.553,410.727z"/>
					
						<linearGradient id="SVGID_00000133504251989170536790000011635350462573362609_" gradientUnits="userSpaceOnUse" x1="305.9586" y1="398.1467" x2="309.6253" y2="421.1467">
						<stop  offset="7.000000e-08" style="stop-color:#FFFFB7"/>
						<stop  offset="1" style="stop-color:#CE7424"/>
					</linearGradient>
					<path style="fill:url(#SVGID_00000133504251989170536790000011635350462573362609_);" d="M305.553,399.727
						c0,0-5.313-2.605-7.604-3.931c-2.29-1.326-0.098-2.715,3.564-2.947c3.663-0.232,5.063,4.46,5.4,2.82
						c0.338-1.639-2.092-5.163,0.28-4.872c2.372,0.291,1.104,5.814,2.261,4.343c1.157-1.471,2.134-4.622,3.477-3.162
						c1.343,1.46,0.308,1.378-1.658,5.18C309.309,400.96,309.007,400.832,305.553,399.727z"/>
					<path style="fill:#FFCC4A;" d="M440.945,430.944c0,0,3.089-5.575,4.296-8.157c1.207-2.582-1.586-2.459-4.965-0.408
						c-3.379,2.051-1.726,7.059-3.034,5.819c-1.308-1.241-1.332-5.85-3.248-4.132c-1.916,1.718,2.606,5.816,0.678,5.23
						c-1.928-0.587-4.733-2.768-5.02-0.652c-0.287,2.117,0.577,1.407,4.656,3.555C438.387,434.347,438.575,434.048,440.945,430.944z
						"/>
					<path style="fill:#FFCC4A;" d="M482.917,484.734c0,0,4.864-3.468,6.927-5.164c2.063-1.697-0.348-2.72-4.034-2.35
						c-3.686,0.371-4.31,5.274-4.915,3.696c-0.605-1.577,1.236-5.486-1.079-4.806c-2.315,0.68-0.144,5.972-1.538,4.697
						c-1.394-1.275-2.885-4.252-3.983-2.578c-1.098,1.674-0.08,1.423,2.502,4.887C479.38,486.579,479.66,486.402,482.917,484.734z"
						/>
					<path style="fill:#FFCC4A;" d="M264.364,433.872c0,0-3.512-3.925-4.958-5.784c-1.446-1.859,0.826-2.272,3.925-1.24
						c3.099,1.033,2.686,5.371,3.512,4.132c0.826-1.239,0-4.958,1.859-3.925c1.859,1.033-1.033,5.164,0.413,4.338
						c1.446-0.826,3.305-3.099,3.925-1.446c0.62,1.653-0.207,1.24-3.099,3.719C267.05,436.144,266.843,435.938,264.364,433.872z"/>
					<path style="fill:#E12500;" d="M163.624,482.008c0,0-3.832-3.613-5.43-5.344c-1.598-1.73,0.631-2.334,3.806-1.568
						c3.175,0.767,3.131,5.124,3.849,3.819c0.718-1.305-0.42-4.94,1.52-4.068c1.94,0.872-0.592,5.233,0.779,4.288
						c1.371-0.946,3.031-3.367,3.788-1.773c0.757,1.594-0.101,1.252-2.773,3.968C166.492,484.045,166.269,483.857,163.624,482.008z"
						/>
				</g>
			</g>
			<g>
				<path style="fill:#4B9F66;" d="M133,335.5c-1.935,0-1.935,3,0,3C134.935,338.5,134.935,335.5,133,335.5z"/>
				<path style="fill:#B6E08C;" d="M150,348.833c-1.935,0-1.935,3,0,3C151.935,351.833,151.935,348.833,150,348.833z"/>
				<path style="fill:#4B9F66;" d="M173,343L173,343c0,1.935,3,1.935,3,0l0,0C176,341,173,341,173,343z"/>
				<path style="fill:#4B9F66;" d="M198,358.833c-1.935,0-1.935,3,0,3C199.935,361.833,199.935,358.833,198,358.833z"/>
				<path style="fill:#B6E08C;" d="M227,347L227,347c0,2,3,2,3,0l0,0C230,345.065,227,345.065,227,347z"/>
				<path style="fill:#B6E08C;" d="M100,352L100,352c-1.935,0-1.935,3,0,3l0,0C102,355,102,352,100,352z"/>
				<path style="fill:#4B9F66;" d="M88,328.833c-2,0-2,3,0,3S90,328.833,88,328.833z"/>
				<path style="fill:#4B9F66;" d="M68.061,369.606c-0.578-0.578-1.543-0.578-2.121,0c-0.111,0.111-0.222,0.222-0.333,0.333
					c-0.578,0.578-0.578,1.543,0,2.121c0.578,0.578,1.543,0.578,2.121,0c0.111-0.111,0.222-0.222,0.333-0.333
					C68.638,371.149,68.638,370.184,68.061,369.606z"/>
				<path style="fill:#4B9F66;" d="M285,344L285,344c-2,0-2,3,0,3l0,0C286.935,347,286.935,344,285,344z"/>
				<path style="fill:#B6E08C;" d="M309,370L309,370c-2,0-2,3,0,3l0,0C310.935,373,310.935,370,309,370z"/>
				<path style="fill:#B6E08C;" d="M340,340.167c-1.935,0-1.935,3,0,3S341.935,340.167,340,340.167z"/>
				<path style="fill:#4B9F66;" d="M384,346.167c-2,0-2,3,0,3S386,346.167,384,346.167z"/>
				<path style="fill:#4B9F66;" d="M406,324.167c-1.935,0-1.935,3,0,3S407.935,324.167,406,324.167z"/>
				<path style="fill:#B6E08C;" d="M429,333L429,333c0,2,3,2,3,0l0,0C432,331.065,429,331.065,429,333z"/>
				<path style="fill:#4B9F66;" d="M467,311.833c-2,0-2,3,0,3S469,311.833,467,311.833z"/>
			</g>
		</g>
	</g>
</g>
</svg>
