<svg width="1028" height="768" viewBox="0 0 1028 768" fill="none" xmlns="http://www.w3.org/2000/svg">
<path d="M1028 0H0V768H1028V0Z" fill="#FCFDFF"/>
<mask id="mask0_15_355" style="mask-type:luminance" maskUnits="userSpaceOnUse" x="0" y="0" width="1028" height="768">
<path d="M1028 0H0V768H1028V0Z" fill="white"/>
</mask>
<g mask="url(#mask0_15_355)">
<path d="M-14.3919 50.6839C-14.3919 50.6839 78.1281 43.3079 78.1281 122.6C78.1281 122.6 160.368 118.912 160.368 181.608C160.368 181.608 168.592 146.572 248.776 146.572C328.96 146.572 312.512 233.24 312.512 233.24C312.512 233.24 415.312 225.864 415.312 312.532C415.312 312.532 487.272 307 487.272 389.98H-67.8479L-14.3919 50.6839Z" fill="white"/>
<path d="M460.544 395.512C460.544 395.512 452.32 334.66 526.336 330.972C526.336 330.972 518.112 268.276 600.352 268.276C600.352 268.276 602.408 185.296 690.816 185.296C779.224 185.296 789.504 231.396 789.504 231.396C789.504 231.396 861.464 214.8 886.136 275.652C886.136 275.652 886.136 194.516 962.208 194.516C962.208 194.516 951.928 104.16 1042.39 104.16V434.236L460.544 395.512Z" fill="white"/>
<path d="M647.64 70.3797C647.64 70.3797 655.669 43.6325 680.904 42.6035C706.139 41.5746 715.315 55.4636 715.315 55.4636C715.315 55.4636 719.331 29.7453 752.595 27.173C785.859 24.6006 793.887 53.4057 793.887 53.4057C793.887 53.4057 813.386 39.5167 826.004 49.8044C838.622 60.092 838.622 64.2078 838.622 64.2078L865.576 69.8652L647.64 70.3797Z" fill="white"/>
<path d="M132 98.3693C132 98.3693 140.029 71.6221 165.264 70.5932C190.499 69.5642 199.675 83.4532 199.675 83.4532C199.675 83.4532 203.691 57.735 236.955 55.1626C270.219 52.5902 278.247 81.3953 278.247 81.3953C278.247 81.3953 297.747 67.5063 310.364 77.794C322.982 88.0817 322.982 92.1975 322.982 92.1975L349.936 97.8549L132 98.3693Z" fill="white"/>
<path d="M42.0002 477.218C42.0002 477.218 -42.8078 419.72 12.5582 262.637C12.5582 262.637 119.723 403.496 42.0002 477.218Z" fill="#62AB72"/>
<path d="M88.8974 475.261C88.8974 475.261 28.8704 434.564 68.0578 323.384C68.0578 323.384 143.91 423.083 88.8974 475.261Z" fill="#B3DE8A"/>
<path d="M8.25926 483.473C8.25926 483.473 -61.7599 456.856 -31.1152 367.127C-31.1152 367.127 54.4802 424.833 8.25926 483.473Z" fill="url(#paint0_linear_15_355)"/>
<path d="M971.713 660.734C971.713 660.734 955.87 656.858 945.787 662.888C935.704 668.916 946.266 661.166 946.266 661.166L957.309 643.08C957.309 643.08 935.223 649.108 929.943 657.721L932.345 644.804C932.345 644.804 927.544 646.956 925.143 651.693L911.7 636.191L922.743 633.607C922.743 633.607 913.621 626.718 903.059 628.87C903.059 628.87 912.182 624.994 917.942 614.231C917.942 614.231 901.618 609.925 890.096 617.675C890.096 617.675 901.618 596.576 903.538 590.978C903.538 590.978 869.931 595.715 855.047 618.536L856.008 596.576C856.008 596.576 850.475 601.013 844.656 607.581C830.665 608.476 822.881 614.087 822.881 614.087C828.642 601.455 825.122 585.094 825.122 585.094C814.24 588.251 802.397 605.188 802.397 605.188C799.517 594.854 786.393 586.816 786.393 586.816C786.393 586.816 782.553 586.241 784.473 586.528C786.393 586.816 800.477 585.379 801.758 584.806C796.636 573.611 776.475 569.016 776.475 569.016C789.599 570.45 798.886 563.845 798.886 563.845C787.683 548.63 758.886 553.504 758.886 553.504C777.771 546.327 784.831 525.933 784.831 525.933C752.823 524.498 736.221 542.269 736.221 542.269C739.101 526.193 730.219 511.212 725.098 506.618C711.974 515.518 714.697 542.682 714.697 542.682L709.575 527.251L707.174 537.155C707.174 537.155 707.655 518.208 703.333 513.473C693.25 518.21 688.931 536.725 688.931 536.725C685.571 528.975 678.848 528.544 678.848 528.544L681.25 541.461C673.087 532.418 657.244 535.001 657.244 535.001C659.164 543.183 673.087 552.226 673.087 552.226C663.005 553.948 652.443 575.909 652.443 575.909C650.042 568.588 642.841 562.991 641.4 562.991C639.48 570.312 642.841 578.924 642.841 578.924C629.878 569.451 608.755 570.312 608.755 570.312C609.325 571.336 609.908 572.305 610.501 573.24C608.973 572.178 607.419 571.437 605.875 571.173C605.875 571.173 619.798 562.13 621.718 553.95C621.718 553.95 605.875 551.367 597.712 560.41L600.112 547.493C600.112 547.493 593.391 547.922 590.029 555.674C590.029 555.674 585.707 537.159 575.627 532.422C571.305 537.159 571.786 556.104 571.786 556.104L569.385 546.2L564.263 561.631C564.263 561.631 566.983 534.467 553.862 525.567C548.74 530.161 539.858 545.141 542.739 561.217C542.739 561.217 526.135 543.447 494.129 544.881C494.129 544.881 501.191 565.276 520.076 572.453C520.076 572.453 491.279 567.579 480.076 582.794C480.076 582.794 489.363 589.399 502.487 587.965C502.487 587.965 482.325 592.56 477.204 603.755C478.485 604.328 492.568 605.765 494.489 605.479C496.409 605.191 492.568 605.767 492.568 605.767C492.568 605.767 485.481 610.12 480.582 616.53C480.278 615.887 480.086 615.529 480.086 615.529C477.432 616.917 475.28 618.514 473.511 620.146C471.314 617.434 468.104 613.775 464.475 610.581C463.042 603.7 461.005 597.257 458.963 593.998C448.88 602.61 447.441 612.945 447.441 612.945C445.521 595.722 422.956 577.636 422.956 577.636L423.917 599.597C409.033 576.775 375.426 572.038 375.426 572.038C377.346 577.636 388.868 598.736 388.868 598.736C377.346 590.985 361.021 595.291 361.021 595.291C366.782 606.056 375.905 609.93 375.905 609.93C365.343 607.777 356.221 614.668 356.221 614.668L367.263 617.251L353.821 632.752C351.422 628.015 346.619 625.863 346.619 625.863L349.021 638.78C343.739 630.168 321.655 624.138 321.655 624.138L332.698 642.224C332.698 642.224 343.26 649.975 333.179 643.947C323.099 637.919 307.253 641.793 307.253 641.793C312.054 648.252 319.256 651.266 319.256 651.266C288.05 653.849 279.888 664.183 279.888 664.183C291.409 667.198 301.492 665.044 301.492 665.044C287.018 667.64 280.321 674.282 277.466 678.393H992.565C986.831 675.311 976.686 671.616 959.716 670.211C959.712 670.209 966.912 667.194 971.713 660.734ZM628.433 590.738C628.369 590.845 628.306 590.95 628.242 591.057C627.535 591.142 626.311 591.289 624.757 591.478C623.916 589.945 622.804 588.016 621.494 585.958C624.767 588.713 627.397 590.205 628.433 590.738Z" fill="#4B9F66"/>
<path d="M1354.11 691.159C1354.11 691.159 1338.27 687.283 1328.18 693.312C1318.1 699.342 1328.67 691.59 1328.67 691.59L1339.71 673.504C1339.71 673.504 1317.62 679.532 1312.34 688.144L1314.74 675.226C1314.74 675.226 1309.94 677.38 1307.54 682.116L1294.1 666.615L1305.14 664.032C1305.14 664.032 1296.02 657.142 1285.46 659.294C1285.46 659.294 1294.58 655.418 1300.34 644.655C1300.34 644.655 1284.02 640.349 1272.5 648.099C1272.5 648.099 1284.02 627 1285.94 621.402C1285.94 621.402 1252.33 626.139 1237.45 648.961L1238.41 627C1238.41 627 1232.87 631.437 1227.06 638.005C1213.07 638.9 1205.28 644.511 1205.28 644.511C1211.04 631.88 1207.52 615.518 1207.52 615.518C1196.64 618.675 1184.8 635.612 1184.8 635.612C1181.92 625.278 1168.79 617.24 1168.79 617.24C1168.79 617.24 1164.95 616.665 1166.87 616.952C1168.79 617.24 1182.88 615.804 1184.16 615.228C1179.04 604.033 1158.88 599.438 1158.88 599.438C1172 600.873 1181.29 594.267 1181.29 594.267C1170.08 579.053 1141.29 583.926 1141.29 583.926C1160.17 576.749 1167.23 556.355 1167.23 556.355C1135.22 554.92 1118.62 572.691 1118.62 572.691C1121.5 556.615 1112.62 541.634 1107.5 537.041C1094.38 545.94 1097.1 573.104 1097.1 573.104L1091.98 557.673L1089.58 567.577C1089.58 567.577 1090.06 548.63 1085.74 543.895C1075.65 548.632 1071.33 567.148 1071.33 567.148C1067.97 559.397 1061.25 558.966 1061.25 558.966L1063.65 571.885C1055.49 562.842 1039.65 565.426 1039.65 565.426C1041.57 573.607 1055.49 582.65 1055.49 582.65C1045.41 584.373 1034.84 606.333 1034.84 606.333C1032.45 599.012 1025.24 593.416 1023.8 593.416C1021.88 600.736 1025.24 609.348 1025.24 609.348C1012.28 599.875 991.157 600.736 991.157 600.736C991.726 601.76 992.31 602.73 992.902 603.665C991.375 602.602 989.82 601.861 988.276 601.597C988.276 601.597 1002.2 592.554 1004.12 584.373C1004.12 584.373 988.276 581.789 980.114 590.832L982.513 577.915C982.513 577.915 975.792 578.346 972.431 586.097C972.431 586.097 968.109 567.581 958.029 562.844C953.707 567.581 954.188 586.526 954.188 586.526L951.786 576.622L946.665 592.053C946.665 592.053 949.385 564.889 936.264 555.99C931.142 560.583 922.26 575.564 925.141 591.64C925.141 591.64 908.536 573.869 876.531 575.304C876.531 575.304 883.593 595.698 902.477 602.875C902.477 602.875 873.681 598.002 862.478 613.216C862.478 613.216 871.765 619.822 884.888 618.387C884.888 618.387 864.727 622.982 859.606 634.177C860.887 634.751 874.97 636.187 876.89 635.901C878.811 635.614 874.97 636.189 874.97 636.189C874.97 636.189 867.883 640.543 862.982 646.951C862.677 646.307 862.486 645.949 862.486 645.949C859.832 647.338 857.679 648.935 855.911 650.567C853.713 647.854 850.504 644.196 846.875 641.002C845.442 634.12 843.404 627.677 841.363 624.419C831.28 633.03 829.841 643.366 829.841 643.366C827.921 626.143 805.356 608.057 805.356 608.057L806.316 630.017C791.433 607.196 757.826 602.459 757.826 602.459C759.746 608.057 771.268 629.156 771.268 629.156C759.746 621.406 743.421 625.711 743.421 625.711C749.182 636.477 758.305 640.351 758.305 640.351C747.743 638.197 738.62 645.088 738.62 645.088L749.663 647.672L736.221 663.172C733.82 658.435 729.019 656.283 729.019 656.283L731.42 669.2C726.138 660.589 704.055 654.561 704.055 654.561L715.098 672.647C715.098 672.647 725.659 680.397 715.577 674.369C705.494 668.341 689.651 672.215 689.651 672.215C694.451 678.675 701.654 681.688 701.654 681.688C670.448 684.271 662.285 694.605 662.285 694.605C673.807 697.62 683.89 695.466 683.89 695.466C669.415 698.063 662.719 704.705 659.863 708.815H1374.96C1369.23 705.734 1359.08 702.038 1342.11 700.633C1342.11 700.633 1349.31 697.618 1354.11 691.159ZM1010.83 621.164C1010.77 621.271 1010.7 621.376 1010.64 621.483C1009.93 621.568 1008.71 621.715 1007.15 621.904C1006.31 620.371 1005.2 618.442 1003.89 616.384C1007.16 619.138 1009.79 620.629 1010.83 621.164Z" fill="#4B9F66"/>
<path d="M14.7725 724.365C-2.19768 725.771 -12.342 729.466 -18.0762 732.547H697.023C694.167 728.437 687.471 721.795 672.997 719.198C672.997 719.198 683.079 721.352 694.601 718.337C694.601 718.337 686.439 708.004 655.233 705.42C655.233 705.42 662.435 702.405 667.236 695.947C667.236 695.947 651.392 692.071 641.31 698.101C631.227 704.129 641.791 696.379 641.791 696.379L652.834 678.295C652.834 678.295 630.748 684.323 625.468 692.934L627.87 680.017C627.87 680.017 623.069 682.171 620.668 686.906L607.225 671.406L618.268 668.822C618.268 668.822 609.146 661.933 598.584 664.085C598.584 664.085 607.706 660.209 613.467 649.446C613.467 649.446 597.145 645.14 585.621 652.89C585.621 652.89 597.143 631.791 599.063 626.193C599.063 626.193 565.456 630.93 550.572 653.751L551.532 631.791C551.532 631.791 528.968 649.877 527.048 667.1C527.048 667.1 525.606 656.766 515.526 648.153C513.482 651.411 511.447 657.854 510.012 664.736C506.383 667.93 503.173 671.588 500.975 674.301C499.207 672.669 497.055 671.072 494.4 669.683C494.4 669.683 494.209 670.041 493.905 670.685C489.003 664.277 481.918 659.923 481.918 659.923C481.918 659.923 478.078 659.348 479.998 659.635C481.918 659.923 496.002 658.487 497.283 657.911C492.161 646.716 472 642.121 472 642.121C485.124 643.556 494.411 636.951 494.411 636.951C483.207 621.736 454.411 626.609 454.411 626.609C473.295 619.433 480.358 599.038 480.358 599.038C448.35 597.601 431.748 615.374 431.748 615.374C434.628 599.298 425.746 584.317 420.625 579.724C407.501 588.623 410.222 615.787 410.222 615.787L405.1 600.358L402.699 610.262C402.699 610.262 403.18 591.315 398.858 586.58C388.775 591.317 384.456 609.833 384.456 609.833C381.094 602.082 374.373 601.651 374.373 601.651L376.775 614.568C368.612 605.525 352.769 608.109 352.769 608.109C354.689 616.29 368.612 625.333 368.612 625.333C367.068 625.597 365.514 626.338 363.986 627.4C364.576 626.466 365.16 625.496 365.732 624.472C365.732 624.472 344.606 623.611 331.645 633.084C331.645 633.084 335.007 624.472 333.087 617.152C331.645 617.152 324.445 622.75 322.044 630.069C322.044 630.069 311.482 608.109 301.399 606.386C301.399 606.386 315.323 597.343 317.243 589.161C317.243 589.161 301.399 586.578 293.237 595.621L295.639 582.704C295.639 582.704 288.918 583.133 285.556 590.886C285.556 590.886 281.234 572.37 271.154 567.633C266.832 572.37 267.313 591.315 267.313 591.315L264.912 581.411L259.79 596.84C259.79 596.84 262.51 569.676 249.389 560.777C244.267 565.37 235.385 580.351 238.266 596.427C238.266 596.427 221.662 578.656 189.656 580.091C189.656 580.091 196.718 600.485 215.601 607.662C215.601 607.662 186.804 602.789 175.601 618.003C175.601 618.003 184.888 624.609 198.011 623.174C198.011 623.174 177.85 627.769 172.729 638.964C174.01 639.538 188.093 640.974 190.014 640.687C191.934 640.399 188.093 640.974 188.093 640.974C188.093 640.974 174.972 649.012 172.089 659.346C172.089 659.346 160.247 642.409 149.364 639.252C149.364 639.252 145.845 655.616 151.606 668.245C151.606 668.245 143.821 662.634 129.83 661.739C124.012 655.171 118.479 650.734 118.479 650.734L119.439 672.695C104.556 649.873 70.9486 645.136 70.9486 645.136C72.8689 650.734 84.3908 671.833 84.3908 671.833C72.8689 664.083 56.5443 668.389 56.5443 668.389C62.3052 679.154 71.4277 683.028 71.4277 683.028C60.866 680.875 51.7435 687.766 51.7435 687.766L62.7863 690.349L49.3442 705.85C46.9428 701.113 42.142 698.961 42.142 698.961L44.5414 711.878C39.2595 703.266 17.176 697.238 17.176 697.238L28.2188 715.324C28.2188 715.324 38.7805 723.075 28.6999 717.047C18.6173 711.019 2.77372 714.893 2.77372 714.893C7.57037 721.35 14.7725 724.365 14.7725 724.365ZM352.989 640.117C351.679 642.175 350.567 644.103 349.726 645.636C348.171 645.446 346.946 645.298 346.241 645.215C346.179 645.107 346.113 645.001 346.05 644.896C347.086 644.363 349.716 642.87 352.989 640.117Z" fill="#B6E08C"/>
<path d="M-12.5313 606.807C-12.5313 606.807 -9.27047 574.255 -24.9968 563.591C-31.134 569.095 -41.7779 587.048 -38.3259 606.312C-38.3259 606.312 -58.2238 585.016 -96.5785 586.737C-96.5785 586.737 -88.116 611.177 -65.4856 619.777C-65.4856 619.777 -99.9935 613.937 -113.419 632.169C-113.419 632.169 -102.29 640.085 -86.5637 638.365C-86.5637 638.365 -110.726 643.871 -116.863 657.288C-115.329 657.976 -98.4515 659.696 -96.1488 659.353C-93.8481 659.01 -98.4495 659.698 -98.4495 659.698C-98.4495 659.698 -114.176 669.331 -117.628 681.716C-117.628 681.716 -131.82 661.419 -144.862 657.635C-144.862 657.635 -149.081 677.244 -142.176 692.379C-142.176 692.379 -154.066 683.779 -175.163 684.467C-172.862 688.938 -161.355 700.98 -156.369 703.388C-156.369 703.388 -185.519 700.292 -196.644 714.742C-196.644 714.742 -182.451 720.246 -169.795 720.589C-169.795 720.589 -200.481 726.438 -209.685 738.822C-209.685 738.822 -197.411 742.263 -183.218 737.79C-183.218 737.79 -204.697 747.766 -208.534 757.054C-208.534 757.054 -196.26 758.774 -183.603 756.021C-183.603 756.021 -208.151 764.69 -213.522 776.043L-199.138 773.532H513.714C513.714 773.532 508.537 758.068 482.646 753.425C482.646 753.425 494.727 756.014 508.537 752.402C508.537 752.402 498.757 740.021 461.358 736.925C461.358 736.925 469.989 733.314 475.742 725.575C475.742 725.575 456.755 720.932 444.674 728.157C432.593 735.381 445.249 726.093 445.249 726.093L458.482 704.421C458.482 704.421 432.017 711.645 425.687 721.964L428.563 706.484C428.563 706.484 422.81 709.064 419.934 714.74L403.823 696.163L417.056 693.067C417.056 693.067 406.124 684.812 393.467 687.391C393.467 687.391 404.399 682.748 411.303 669.848C411.303 669.848 391.742 664.688 377.934 673.976C377.934 673.976 391.742 648.691 394.043 641.983C394.043 641.983 353.768 647.659 335.932 675.007L337.083 648.689C337.083 648.689 310.043 670.362 307.74 691.004C307.74 691.004 306.015 678.619 293.932 668.299C288.755 676.554 283.576 701.839 285.303 713.193C285.303 713.193 282.427 701.325 268.618 694.1C268.618 694.1 262.29 705.968 262.866 717.836C262.866 717.836 255.386 699.776 230.071 694.614C230.646 701.323 239.275 715.77 239.275 715.77C239.275 715.77 232.947 709.578 224.891 710.095C224.891 714.223 231.796 721.446 234.096 723.512C234.096 723.512 199 712.674 173.109 728.671C173.109 728.671 177.712 722.995 179.437 712.674C171.958 715.254 160.45 717.834 154.122 726.608C154.122 726.608 163.327 709.064 155.849 694.098C150.096 698.227 140.889 708.031 138.013 715.77L131.685 704.419C131.685 704.419 126.506 711.644 125.356 722.479C125.356 722.479 117.301 703.902 106.369 697.194C106.369 697.194 120.177 699.257 125.356 697.71C122.48 697.194 114.425 683.263 100.617 681.714C100.617 681.714 117.877 677.07 124.205 669.329C120.753 668.297 90.2605 664.684 90.2605 664.684C90.2605 664.684 104.069 658.492 114.425 639.916C114.425 639.916 89.1091 638.883 73.576 650.237C73.576 650.237 77.6038 639.916 75.3031 631.144C73.5761 631.144 64.947 637.852 62.0707 646.624C62.0707 646.624 49.4139 620.307 37.3308 618.243C37.3308 618.243 54.0153 607.406 56.318 597.603C56.318 597.603 37.3308 594.507 27.5504 605.344L30.4268 589.864C30.4268 589.864 22.3714 590.38 18.3437 599.669C18.3437 599.669 13.1646 577.48 1.08355 571.804C-4.09346 577.48 -3.51984 600.185 -3.51984 600.185L-6.39618 588.317L-12.5313 606.807Z" fill="#12575C"/>
<path d="M414.973 763.762C394.635 765.446 382.478 769.875 375.607 773.567H1232.56C1229.14 768.642 1221.11 760.681 1203.77 757.57C1203.77 757.57 1215.85 760.15 1229.66 756.538C1229.66 756.538 1219.88 744.153 1182.48 741.057C1182.48 741.057 1191.11 737.445 1196.86 729.706C1196.86 729.706 1177.88 725.062 1165.8 732.285C1153.71 739.51 1166.37 730.222 1166.37 730.222L1179.6 708.549C1179.6 708.549 1153.14 715.774 1146.81 726.093L1149.68 710.613C1149.68 710.613 1143.93 713.193 1141.05 718.868L1124.94 700.292L1138.18 697.196C1138.18 697.196 1127.25 688.94 1114.59 691.52C1114.59 691.52 1125.52 686.877 1132.42 673.976C1132.42 673.976 1112.86 668.817 1099.05 678.105C1099.05 678.105 1112.86 652.82 1115.16 646.112C1115.16 646.112 1074.89 651.787 1057.05 679.138L1058.2 652.82C1058.2 652.82 1031.16 674.493 1028.86 695.134C1028.86 695.134 1027.13 682.75 1015.05 672.429C1012.6 676.333 1010.16 684.054 1008.44 692.3C1004.1 696.128 1000.25 700.513 997.615 703.764C995.495 701.808 992.917 699.896 989.736 698.23C989.736 698.23 989.508 698.66 989.144 699.431C983.27 691.751 974.779 686.534 974.779 686.534C974.779 686.534 970.177 685.846 972.478 686.189C974.779 686.534 991.658 684.812 993.192 684.124C987.055 670.707 962.893 665.201 962.893 665.201C978.619 666.921 989.748 659.005 989.748 659.005C976.325 640.771 941.815 646.613 941.815 646.613C964.445 638.013 972.908 613.572 972.908 613.572C934.551 611.852 914.655 633.148 914.655 633.148C918.107 613.884 907.463 595.931 901.326 590.426C885.6 601.09 888.86 633.642 888.86 633.642L882.723 615.153L879.847 627.021C879.847 627.021 880.423 604.315 875.243 598.64C863.16 604.315 857.983 626.504 857.983 626.504C853.956 617.216 845.9 616.7 845.9 616.7L848.777 632.18C838.996 621.343 820.009 624.439 820.009 624.439C822.31 634.244 838.996 645.081 838.996 645.081C837.146 645.396 835.283 646.287 833.453 647.557C834.16 646.438 834.862 645.274 835.544 644.048C835.544 644.048 810.229 643.015 794.696 654.369C794.696 654.369 798.723 644.048 796.423 635.276C794.696 635.276 786.066 641.985 783.19 650.757C783.19 650.757 770.533 624.439 758.45 622.376C758.45 622.376 775.135 611.538 777.438 601.736C777.438 601.736 758.45 598.64 748.67 609.477L751.546 593.996C751.546 593.996 743.491 594.513 739.463 603.801C739.463 603.801 734.284 581.612 722.203 575.936C717.026 581.612 717.6 604.317 717.6 604.317L714.723 592.449L708.586 610.939C708.586 610.939 711.847 578.387 696.121 567.723C689.983 573.227 679.34 591.181 682.792 610.445C682.792 610.445 662.894 589.149 624.539 590.869C624.539 590.869 633.001 615.309 655.632 623.91C655.632 623.91 621.124 618.07 607.698 636.301C607.698 636.301 618.827 644.218 634.554 642.497C634.554 642.497 610.392 648.003 604.254 661.42C605.788 662.108 622.666 663.829 624.969 663.486C627.269 663.141 622.668 663.831 622.668 663.831C622.668 663.831 606.942 673.464 603.49 685.848C603.49 685.848 589.299 665.551 576.258 661.767C576.258 661.767 572.039 681.376 578.943 696.512C578.943 696.512 569.615 689.787 552.848 688.715C545.874 680.845 539.246 675.527 539.246 675.527L540.397 701.845C522.561 674.496 482.288 668.819 482.288 668.819C484.589 675.527 498.397 700.812 498.397 700.812C484.589 691.524 465.026 696.683 465.026 696.683C471.93 709.584 482.862 714.227 482.862 714.227C470.205 711.647 459.274 719.903 459.274 719.903L472.506 722.999L456.397 741.575C453.521 735.9 447.766 733.32 447.766 733.32L450.642 748.8C444.314 738.479 417.847 731.256 417.847 731.256L431.08 752.929C431.08 752.929 443.736 762.217 431.655 754.992C419.572 747.768 400.587 752.413 400.587 752.413C406.344 760.15 414.973 763.762 414.973 763.762ZM820.285 662.802C818.714 665.269 817.384 667.579 816.374 669.416C814.511 669.189 813.043 669.012 812.196 668.911C812.122 668.782 812.044 668.654 811.968 668.527C813.21 667.889 816.362 666.102 820.285 662.802Z" fill="#12575C"/>
<path d="M913.567 683.711C913.567 683.711 911.045 658.516 923.216 650.264C927.965 654.524 936.204 668.418 933.531 683.329C933.531 683.329 948.93 666.847 978.617 668.179C978.617 668.179 972.067 687.094 954.554 693.751C954.554 693.751 981.261 689.232 991.652 703.342C991.652 703.342 983.04 709.47 970.868 708.138C970.868 708.138 989.567 712.4 994.317 722.783C993.128 723.316 980.067 724.648 978.286 724.382C976.506 724.116 980.067 724.649 980.067 724.649C980.067 724.649 992.238 732.105 994.909 741.69C994.909 741.69 1005.89 725.981 1015.98 723.052C1015.98 723.052 1019.25 738.229 1013.91 749.944C1013.91 749.944 1023.11 743.287 1039.44 743.82C1037.66 747.281 1028.75 756.6 1024.89 758.463C1024.89 758.463 1047.45 756.067 1056.06 767.249C1056.06 767.249 1045.08 771.509 1035.28 771.776C1035.28 771.776 1059.03 776.302 1066.15 785.887C1066.15 785.887 1056.65 788.549 1045.67 785.088C1045.67 785.088 1062.29 792.809 1065.26 799.999C1065.26 799.999 1055.76 801.33 1045.97 799.2C1045.97 799.2 1064.96 805.664 1069.12 814.45L1057.99 812.256H506.278C506.278 812.256 510.285 800.534 530.323 796.94C530.323 796.94 520.972 799.066 510.285 796.27C510.285 796.27 517.855 786.75 546.8 784.354C546.8 784.354 540.12 781.59 535.668 775.601C535.668 775.601 550.363 772.024 559.713 777.615C569.064 783.206 559.269 776.025 559.269 776.025L549.028 759.256C549.028 759.256 569.512 764.849 574.41 772.837L572.183 760.856C572.183 760.856 576.636 762.853 578.863 767.246L591.33 752.868L581.09 750.473C581.09 750.473 589.55 744.083 599.347 746.08C599.347 746.08 590.886 742.486 585.543 732.501C585.543 732.501 600.683 728.507 611.37 735.697C611.37 735.697 600.683 716.128 598.903 710.936C598.903 710.936 630.074 715.328 643.878 736.495L642.987 716.126C642.987 716.126 663.915 732.899 665.698 748.874C665.698 748.874 667.034 739.289 676.385 731.303C680.392 737.692 684.399 757.262 683.065 766.047C683.065 766.047 685.292 756.862 695.979 751.269C695.979 751.269 700.876 760.454 700.432 769.641C700.432 769.641 706.222 755.664 725.813 751.67C725.367 756.862 718.689 768.044 718.689 768.044C718.689 768.044 723.587 763.252 729.821 763.652C729.821 766.847 724.477 772.438 722.697 774.035C722.697 774.035 749.858 765.649 769.896 778.029C769.896 778.029 766.333 773.637 764.999 765.649C770.786 767.646 779.693 769.643 784.59 776.433C784.59 776.433 777.466 762.853 783.254 751.271C787.707 754.467 794.831 762.055 797.058 768.044L801.955 759.258C801.955 759.258 805.962 764.849 806.853 773.235C806.853 773.235 813.086 758.857 821.547 753.667C821.547 753.667 810.86 755.263 806.853 754.067C809.079 753.667 815.313 742.885 826 741.686C826 741.686 812.642 738.092 807.743 732.101C810.414 731.303 834.014 728.507 834.014 728.507C834.014 728.507 823.327 723.714 815.313 709.337C815.313 709.337 834.907 708.538 846.928 717.325C846.928 717.325 843.811 709.337 845.592 702.549C846.928 702.549 853.606 707.742 855.833 714.529C855.833 714.529 865.63 694.161 874.98 692.564C874.98 692.564 862.067 684.177 860.286 676.589C860.286 676.589 874.98 674.194 882.551 682.58L880.324 670.6C880.324 670.6 886.558 671 889.675 678.188C889.675 678.188 893.682 661.015 903.032 656.622C907.039 661.015 906.595 678.588 906.595 678.588L908.822 669.403L913.567 683.711Z" fill="#13334C"/>
<path d="M593.83 796.399C593.83 796.399 579.136 792.805 569.785 798.396C560.435 803.987 570.232 796.8 570.232 796.8L580.473 780.027C580.473 780.027 559.989 785.618 555.091 793.606L557.318 781.625C557.318 781.625 552.865 783.622 550.638 788.015L538.17 773.637L548.411 771.242C548.411 771.242 539.951 764.852 530.154 766.849C530.154 766.849 538.614 763.255 543.958 753.27C543.958 753.27 528.818 749.276 518.131 756.466C518.131 756.466 528.818 736.897 530.598 731.704C530.598 731.704 499.427 736.097 485.623 757.264L486.513 736.895C486.513 736.895 481.382 741.011 475.985 747.102C463.009 747.932 455.789 753.135 455.789 753.135C461.132 741.421 457.867 726.244 457.867 726.244C447.774 729.173 436.791 744.882 436.791 744.882C434.12 735.297 421.949 727.841 421.949 727.841C421.949 727.841 418.388 727.308 420.168 727.574C421.949 727.839 435.013 726.508 436.199 725.975C431.45 715.592 412.75 711.33 412.75 711.33C424.922 712.662 433.534 706.534 433.534 706.534C423.143 692.424 396.436 696.943 396.436 696.943C413.951 690.286 420.499 671.371 420.499 671.371C390.813 670.039 375.413 686.523 375.413 686.523C378.084 671.612 369.848 657.718 365.098 653.458C352.927 661.712 355.45 686.905 355.45 686.905L350.7 672.593L348.474 681.778C348.474 681.778 348.92 664.205 344.91 659.812C335.56 664.205 331.553 681.378 331.553 681.378C328.436 674.19 322.202 673.79 322.202 673.79L324.429 685.77C316.858 677.384 302.164 679.779 302.164 679.779C303.945 687.367 316.858 695.754 316.858 695.754C307.508 697.351 297.711 717.72 297.711 717.72C295.484 710.93 288.804 705.739 287.47 705.739C285.689 712.529 288.806 720.515 288.806 720.515C276.783 711.728 257.191 712.527 257.191 712.527C257.72 713.475 258.26 714.376 258.809 715.243C257.393 714.258 255.951 713.571 254.518 713.325C254.518 713.325 267.432 704.939 269.213 697.351C269.213 697.351 254.518 694.955 246.948 703.342L249.175 691.361C249.175 691.361 242.941 691.762 239.824 698.95C239.824 698.95 235.817 681.776 226.466 677.384C222.459 681.776 222.903 699.35 222.903 699.35L220.677 690.165L215.927 704.476C215.927 704.476 218.45 679.281 206.279 671.028C201.529 675.287 193.291 689.182 195.961 704.092C195.961 704.092 180.562 687.611 150.875 688.942C150.875 688.942 157.424 707.858 174.939 714.515C174.939 714.515 148.231 709.995 137.84 724.105C137.84 724.105 146.455 730.231 158.625 728.902C158.625 728.902 139.925 733.163 135.176 743.547C136.362 744.08 149.426 745.411 151.206 745.145C152.987 744.88 149.426 745.413 149.426 745.413C149.426 745.413 142.853 749.451 138.307 755.394C138.025 754.797 137.849 754.465 137.849 754.465C135.386 755.754 133.391 757.235 131.751 758.749C129.713 756.233 126.736 752.84 123.37 749.877C122.04 743.495 120.153 737.519 118.257 734.498C108.906 742.486 107.57 752.07 107.57 752.07C105.789 736.095 84.8614 719.322 84.8614 719.322L85.7517 739.691C71.9477 718.524 40.7767 714.131 40.7767 714.131C42.5572 719.322 53.2443 738.892 53.2443 738.892C42.5572 731.704 27.4168 735.697 27.4168 735.697C32.7603 745.68 41.2208 749.276 41.2208 749.276C31.4239 747.279 22.9635 753.668 22.9635 753.668L33.2044 756.064L20.7368 770.441C18.5102 766.049 14.0569 764.052 14.0569 764.052L16.2836 776.032C11.3862 768.044 -9.09776 762.453 -9.09776 762.453L1.14317 779.226C1.14317 779.226 10.94 786.414 1.58932 780.823C-7.76136 775.232 -22.4556 778.826 -22.4556 778.826C-18.0023 784.817 -11.3244 787.613 -11.3244 787.613C-40.2688 790.008 -47.839 799.593 -47.839 799.593C-37.1519 802.389 -27.8012 800.392 -27.8012 800.392C-41.2248 802.8 -47.436 808.961 -50.0862 812.772H613.155C607.836 809.914 598.428 806.488 582.687 805.184C582.699 805.186 589.377 802.391 593.83 796.399ZM275.444 731.48C275.385 731.577 275.325 731.677 275.268 731.776C274.612 731.856 273.477 731.99 272.036 732.167C271.254 730.746 270.224 728.957 269.009 727.048C272.046 729.602 274.484 730.985 275.444 731.48Z" fill="#13334C"/>
<path d="M1058.47 601.586C1058.47 601.586 1041.72 574.756 1034.54 552.221C1027.36 529.683 1021.38 525.39 1017.79 522.171C1014.2 518.951 1023.77 514.658 1023.77 514.658C1023.77 514.658 1016.59 516.805 1010.61 512.512C1004.63 508.219 995.053 499.633 989.07 495.341C983.087 491.048 979.497 487.828 969.924 481.389C960.352 474.95 943.599 462.071 937.616 459.925C931.633 457.778 902.915 442.753 902.915 442.753L888.556 440.607C888.556 440.607 913.685 438.461 935.221 441.68C956.76 444.9 987.869 463.144 1001.03 467.437C1014.19 471.73 1034.54 495.341 1042.91 500.707C1051.29 506.073 1075.22 531.83 1075.22 531.83L1096.76 565.099L1058.47 601.586Z" fill="#13334C"/>
<path d="M1108.36 612.333C1096.09 596.534 1067.51 565.2 1051.39 554.015C1035.26 542.829 1023.79 532.888 1023.79 532.888C1023.79 532.888 1018.64 546.731 1011.71 544.509C1004.79 542.287 1006.38 525.162 1006.38 525.162C1006.38 525.162 986.097 509.183 953.943 503.406C921.789 497.629 912.587 500.201 878.153 499.215C843.721 498.23 787.913 512.147 787.913 512.147C787.913 512.147 805.027 522.001 808.094 523.067C811.162 524.133 826.693 533.81 826.693 533.81L847.27 547.658C847.27 547.658 870.817 551.747 873.983 552.103C877.149 552.458 890.211 545.274 894.364 555.835C898.517 566.395 896.241 565.42 886.841 563.642C877.441 561.865 859.632 562.748 859.632 562.748C859.632 562.748 879.22 572.16 892.179 582.99C905.138 593.819 910.278 603.05 916.906 607.4C923.535 611.75 951.932 609.893 961.33 611.671C970.728 613.449 989.722 627.12 986.652 631.076C983.584 635.033 973.985 636.167 958.353 632.967C942.721 629.768 922.536 630.384 922.536 630.384C922.536 630.384 922.04 633.934 953.392 674.231C984.545 715.947 1049.35 712.414 1049.35 712.414L1094.76 721.124C1094.76 721.124 1094.76 721.124 1097.93 715.711C1101.1 710.299 1117.04 676.759 1119.32 666.2C1121.6 655.643 1120.62 628.132 1108.36 612.333ZM902.282 539.421C898.968 540.131 889.124 538.663 877.645 537.373C866.168 536.084 862.112 533.463 859.986 531.422C857.86 529.381 861.522 526.187 870.872 525.435C870.872 525.435 873.099 523.882 882.004 526.325C890.908 528.769 891.7 528.857 898.476 532.143C905.253 535.429 905.596 538.713 902.282 539.421ZM930.817 571.11C924.337 571.465 918.103 570.043 920.776 568.179C923.448 566.316 927.653 564.987 927.653 564.987C927.653 564.987 939.28 562.328 942.246 566.987C945.213 571.647 937.298 570.756 930.817 571.11ZM997.711 544.018C994.296 546.88 993.112 538.094 986.658 532.501C980.204 526.908 978.278 519.121 978.278 519.121C980.06 514.996 990.223 524.249 994.228 530.107C998.233 535.966 1001.13 541.157 997.711 544.018Z" fill="#13334C"/>
<path d="M-19.1165 707.177C-19.1165 707.177 20.5458 711.623 35.4189 671.605C50.292 631.584 28.8088 616.762 68.4711 591.566C108.133 566.368 111.439 558.957 109.786 532.278C108.133 505.599 127.966 505.599 151.102 480.4C174.238 455.202 149.449 444.828 172.585 425.558C195.721 406.288 227.12 415.182 232.079 401.842C237.038 388.503 197.376 363.305 139.535 369.233C81.6933 375.162 68.4732 404.806 53.598 431.487C38.7249 458.166 -2.5904 461.131 -2.5904 496.703C-2.5904 532.276 -32.3366 548.581 -45.5588 561.92C-58.7809 575.26 -45.5587 579.707 -68.6949 619.726C-91.8311 659.746 -78.611 714.588 -19.1165 707.177Z" fill="#4B9F66"/>
<path d="M234.104 398.842C205.777 388.929 175.05 392.036 147.526 402.547C117.854 413.878 94.3355 434.066 75.8006 457.345C55.549 482.779 41.5826 511.789 27.9843 540.399C12.0832 573.851 -3.75421 607.327 -19.6224 640.792C-28.8806 660.316 -38.1388 679.84 -47.399 699.364C-48.0178 700.668 -45.8817 701.802 -45.2587 700.487C-29.2959 666.825 -13.3331 633.161 2.62966 599.499C17.5233 568.094 31.6789 536.292 48.0056 505.457C62.9609 477.21 81.2264 449.646 107.245 428.435C131.67 408.521 164.174 395.21 197.434 394.9C209.772 394.785 221.974 396.971 233.442 400.983C234.937 401.509 235.577 399.359 234.104 398.842Z" fill="#9ED188"/>
<path d="M-31.3744 758.385C-31.3744 758.385 -33.0275 710.77 3.33084 673.714L26.467 701.784L16.5509 666.165C16.5509 666.165 24.814 637.98 61.1723 615.746L89.2675 624.629L76.0474 603.873C76.0474 603.873 127.663 562.368 168.979 547.546L180.928 556.434C180.928 556.434 174.76 540.871 180.928 540.871C185.04 540.871 235.081 531.236 235.081 531.236C235.081 531.236 205.142 574.22 178.699 605.346C152.257 636.473 142.247 649.813 142.247 649.813L112.451 640.919L132.258 657.224C132.258 657.224 91.9301 727.707 78.2104 737.672L54.5684 725.405L69.8671 744.015C69.8671 744.015 54.5643 775.8 6.63689 787.659C-41.2885 799.516 -41.2905 799.516 -41.2905 799.516L-31.3744 758.385Z" fill="#FED06F"/>
<path d="M234.627 531.422C217.011 538.671 201.073 548.348 186.126 559.211C185.757 558.562 185.599 557.758 185.531 556.762C185.431 555.295 185.48 553.823 185.566 552.357C185.651 550.924 183.171 550.932 183.087 552.357C182.963 554.461 182.326 558.623 183.868 560.858C174.754 567.598 165.999 574.764 157.457 582.075C155.76 583.526 154.093 585.003 152.411 586.467C151.926 584.922 151.846 582.971 151.759 582.158C151.638 581.009 152.366 576.969 150.898 576.471C152.397 576.978 153.038 574.83 151.558 574.326C151.455 574.291 151.352 574.256 151.248 574.221C150.847 574.085 150.328 574.245 150.041 574.507C148.373 576.027 149.14 579.023 149.202 580.937C149.274 583.205 149.555 585.879 150.489 588.138C139.362 597.885 128.514 607.887 117.899 618.086C116.75 615.223 116.456 610.471 116.289 609.35C115.691 605.324 115.646 601.251 115.788 597.198C115.837 595.763 113.36 595.767 113.308 597.198C113.14 602.027 113.294 606.875 114.153 611.655C114.571 613.978 114.69 617.478 115.954 619.969C104.546 630.982 93.3711 642.193 82.3592 653.521C80.3896 651.02 80.2004 646.958 79.6371 644.089C78.7365 639.499 78.387 634.813 77.9676 630.172C77.8381 628.754 75.3585 628.743 75.488 630.172C75.928 635.027 76.4297 639.862 77.2459 644.679C77.8278 648.114 78.3685 652.405 80.3896 655.568C69.2172 667.096 58.2074 678.752 47.253 690.449C43.8236 694.111 40.3161 697.749 36.8229 701.406C35.5379 685.32 37.5446 669.361 42.9046 653.919C43.3816 652.545 40.9884 651.964 40.5134 653.329C34.8245 669.722 32.8117 686.72 34.5305 703.814C27.793 710.91 21.1891 718.122 15.4056 725.802C11.4724 731.022 7.99369 736.492 4.59101 742.003C1.8298 729.687 0.916941 717.233 1.87504 704.67C1.984 703.239 -0.49553 703.248 -0.604498 704.67C-1.63867 718.245 -0.497589 731.714 2.74883 744.992C-1.42896 751.808 -5.58824 758.636 -10.4198 765.11C-20.4984 778.616 -30.875 792.702 -44.1629 803.851C-45.3328 804.832 -43.5749 806.401 -42.4091 805.424C-22.7682 788.944 -8.92102 767.733 4.45531 746.816C4.46559 746.814 4.47382 746.818 4.48616 746.814C20.599 743.379 37.0635 741.998 53.6019 742.879C55.1994 742.964 55.1912 740.74 53.6019 740.655C37.6268 739.803 21.7052 741.085 6.11451 744.22C8.75441 740.087 11.3861 735.973 14.0486 731.92C20.303 722.398 28.2617 713.759 36.3583 705.3C36.6112 705.223 36.7859 705.044 36.9011 704.821C53.3758 705.96 69.7559 704.917 85.8935 701.71C87.454 701.4 86.7919 699.256 85.2355 699.565C69.9369 702.606 54.4449 703.626 38.8481 702.709C41.7594 699.68 44.6707 696.661 47.5059 693.63C58.9023 681.443 70.3707 669.307 81.9891 657.29C84.6578 658.909 91.3768 658.365 93.77 658.52C100.945 658.986 108.154 658.866 115.327 658.453C116.914 658.361 116.925 656.137 115.327 656.23C105.724 656.785 96.1796 656.619 86.6069 655.732C85.6591 655.643 84.8716 655.392 84.1911 655.036C95.0776 643.818 106.147 632.739 117.439 621.848C119.694 623.53 126.345 623.218 128.858 623.39C135.089 623.814 141.354 623.558 147.563 622.991C149.138 622.848 149.152 620.624 147.563 620.768C138.293 621.612 129.109 621.478 119.879 620.29C119.663 620.262 119.464 620.172 119.275 620.052C129.855 609.89 140.692 599.945 151.757 590.203C153.39 591.455 157.477 591.588 159.278 591.798C163.174 592.252 167.184 591.651 170.893 590.596C172.41 590.165 171.762 588.018 170.233 588.452C164.801 589.995 159.476 590.019 154.021 588.54C153.929 588.514 153.859 588.442 153.774 588.4C154.473 587.79 155.146 587.157 155.847 586.549C165.485 578.166 175.399 569.951 185.79 562.296C189.421 564.002 194.417 564.234 198.338 564.293C199.938 564.317 199.936 562.093 198.338 562.069C195.075 562.02 191.911 561.629 188.755 560.887C188.48 560.823 188.239 560.745 188.009 560.664C202.771 549.978 218.524 540.48 235.885 533.338C237.328 532.744 236.068 530.828 234.627 531.422Z" fill="#F2D188"/>
<path d="M75.6651 733.895C75.6651 733.895 69.9391 714.83 72.1575 712.654C74.3739 710.478 74.6946 712.75 77.5504 711.585C80.4062 710.419 82.4643 708.874 85.2399 709.789C88.0155 710.703 88.6898 712.337 91.194 711.81C93.6962 711.284 94.7817 713.312 95.0901 715.376C95.3985 717.439 91.5806 733.825 90.5649 735.728C87.3884 741.684 78.8519 742.271 75.6651 733.895Z" fill="white"/>
<path d="M64.0445 746.285C64.0445 746.285 45.8139 735.217 45.9044 732.271C45.9949 729.324 47.8925 730.854 49.2043 728.299C50.516 725.741 50.9457 723.366 53.7131 722.431C56.4805 721.496 58.1808 722.335 59.6899 720.469C61.199 718.603 63.4996 719.503 65.239 720.882C66.9763 722.263 76.033 736.899 76.6519 738.933C78.5927 745.304 72.5625 750.753 64.0445 746.285Z" fill="white"/>
<path d="M75.6651 775.389C75.6651 775.389 69.9391 794.454 72.1575 796.63C74.3739 798.806 74.6946 796.534 77.5504 797.699C80.4062 798.865 82.4643 800.41 85.2399 799.496C88.0155 798.581 88.6898 796.949 91.194 797.474C93.6962 798.002 94.7817 795.972 95.0901 793.908C95.3985 791.845 91.5806 775.459 90.5649 773.556C87.3884 767.6 78.8519 767.013 75.6651 775.389Z" fill="white"/>
<path d="M63.1502 762.391C63.1502 762.391 44.0479 772.204 43.8917 775.149C43.7375 778.092 45.7564 776.694 46.8523 779.331C47.9461 781.968 48.1764 784.367 50.8594 785.485C53.5425 786.604 55.3066 785.881 56.6574 787.843C58.0061 789.805 60.3767 789.064 62.225 787.803C64.0733 786.543 74.3246 772.555 75.112 770.567C77.5751 764.345 72.0157 758.507 63.1502 762.391Z" fill="white"/>
<path d="M64.472 760.873C64.472 760.873 42.8039 764.367 40.5752 762.202C38.3465 760.036 40.8959 759.944 39.8453 757.292C38.7926 754.64 37.2506 752.671 38.5048 750.266C39.7589 747.863 41.6278 747.399 41.2557 745.118C40.8836 742.837 43.2295 742.04 45.5486 741.939C47.8678 741.839 65.7447 746.645 67.7719 747.712C74.1229 751.059 74.0489 758.736 64.472 760.873Z" fill="white"/>
<path d="M104.416 745.588C104.416 745.588 122.213 733.963 122.007 731.022C121.804 728.081 119.966 729.669 118.557 727.154C117.149 724.638 116.629 722.278 113.825 721.428C111.022 720.578 109.355 721.47 107.776 719.652C106.195 717.834 103.931 718.804 102.247 720.237C100.563 721.669 92.0741 736.578 91.5334 738.631C89.8393 745.055 96.0751 750.316 104.416 745.588Z" fill="white"/>
<path d="M105.171 762.296C105.171 762.296 123.253 773.56 123.122 776.504C122.992 779.449 121.115 777.899 119.768 780.441C118.422 782.984 117.961 785.356 115.181 786.261C112.402 787.167 110.712 786.309 109.178 788.159C107.644 790.008 105.356 789.084 103.635 787.685C101.916 786.285 93.0547 771.553 92.4626 769.512C90.6102 763.123 96.7124 757.738 105.171 762.296Z" fill="white"/>
<path d="M102.928 760.799C102.928 760.799 124.271 765.643 126.662 763.622C129.053 761.601 126.518 761.349 127.772 758.769C129.029 756.189 130.721 754.321 129.658 751.845C128.595 749.368 126.765 748.789 127.314 746.536C127.863 744.284 125.585 743.342 123.278 743.095C120.973 742.85 102.763 746.523 100.658 747.462C94.0664 750.403 93.5421 758.066 102.928 760.799Z" fill="white"/>
<path d="M98.9346 746.217C97.6208 744.378 95.863 742.899 93.8419 741.773C91.9401 740.135 89.588 738.918 86.944 738.328C73.9069 735.409 62.0541 746.584 64.1533 757.935C66.1373 768.667 77.986 775.745 89.5819 772.276C95.5258 770.499 99.8105 766.953 101.887 761.649C103.774 756.827 101.895 750.362 98.9346 746.217Z" fill="#FFA975"/>
<path d="M618.854 677.316C618.854 677.316 614.816 663.871 616.381 662.337C617.943 660.803 618.17 662.403 620.184 661.583C622.199 660.762 623.649 659.67 625.606 660.318C627.563 660.963 628.04 662.114 629.804 661.743C631.569 661.373 632.333 662.803 632.551 664.258C632.769 665.713 630.076 677.268 629.36 678.608C627.121 682.809 621.103 683.222 618.854 677.316Z" fill="white"/>
<path d="M610.661 686.053C610.661 686.053 597.805 678.249 597.871 676.171C597.934 674.092 599.273 675.173 600.198 673.37C601.123 671.566 601.425 669.892 603.379 669.232C605.33 668.571 606.528 669.163 607.593 667.849C608.658 666.534 610.281 667.166 611.506 668.14C612.731 669.114 619.117 679.434 619.553 680.869C620.92 685.361 616.667 689.204 610.661 686.053Z" fill="white"/>
<path d="M618.854 706.574C618.854 706.574 614.816 720.019 616.381 721.553C617.943 723.088 618.17 721.487 620.184 722.308C622.199 723.13 623.649 724.22 625.606 723.573C627.563 722.927 628.04 721.776 629.804 722.147C631.569 722.518 632.333 721.087 632.551 719.632C632.769 718.177 630.076 706.622 629.36 705.282C627.121 701.083 621.103 700.67 618.854 706.574Z" fill="white"/>
<path d="M610.03 697.41C610.03 697.41 596.559 704.33 596.45 706.407C596.341 708.483 597.766 707.496 598.537 709.355C599.308 711.216 599.47 712.907 601.362 713.694C603.253 714.483 604.497 713.973 605.449 715.357C606.401 716.74 608.071 716.219 609.374 715.33C610.678 714.441 617.906 704.577 618.462 703.176C620.203 698.787 616.282 694.671 610.03 697.41Z" fill="white"/>
<path d="M610.963 696.338C610.963 696.338 595.685 698.802 594.112 697.275C592.541 695.748 594.338 695.682 593.598 693.812C592.856 691.942 591.768 690.554 592.652 688.859C593.536 687.165 594.854 686.838 594.593 685.228C594.33 683.62 595.985 683.058 597.622 682.986C599.256 682.916 611.864 686.303 613.293 687.058C617.768 689.418 617.715 694.832 610.963 696.338Z" fill="white"/>
<path d="M639.128 685.56C639.128 685.56 651.676 677.364 651.532 675.289C651.388 673.215 650.093 674.334 649.098 672.562C648.105 670.788 647.737 669.125 645.761 668.525C643.785 667.926 642.609 668.555 641.495 667.273C640.38 665.992 638.783 666.674 637.597 667.685C636.408 668.695 630.423 679.208 630.041 680.655C628.85 685.186 633.246 688.894 639.128 685.56Z" fill="white"/>
<path d="M639.661 697.343C639.661 697.343 652.412 705.285 652.32 707.362C652.227 709.438 650.903 708.345 649.955 710.137C649.005 711.929 648.681 713.602 646.721 714.24C644.76 714.878 643.569 714.273 642.488 715.579C641.406 716.882 639.792 716.231 638.579 715.245C637.366 714.258 631.12 703.869 630.701 702.431C629.393 697.926 633.696 694.129 639.661 697.343Z" fill="white"/>
<path d="M638.08 696.287C638.08 696.287 653.13 699.702 654.815 698.278C656.501 696.853 654.713 696.676 655.599 694.856C656.485 693.038 657.677 691.719 656.927 689.975C656.179 688.229 654.887 687.819 655.274 686.231C655.66 684.644 654.055 683.978 652.428 683.807C650.802 683.633 637.962 686.224 636.478 686.886C631.829 688.957 631.461 694.36 638.08 696.287Z" fill="white"/>
<path d="M635.263 686.005C634.336 684.708 633.098 683.665 631.671 682.872C630.331 681.717 628.671 680.86 626.807 680.441C617.614 678.383 609.257 686.263 610.735 694.266C612.133 701.834 620.489 706.823 628.665 704.378C632.855 703.124 635.878 700.626 637.342 696.884C638.676 693.488 637.352 688.927 635.263 686.005Z" fill="#FFA975"/>
<path d="M426.859 691.531C426.859 691.531 423.693 680.983 424.918 679.779C426.143 678.575 426.322 679.833 427.901 679.187C429.482 678.542 430.619 677.688 432.155 678.194C433.691 678.701 434.065 679.602 435.449 679.311C436.832 679.02 437.433 680.143 437.605 681.284C437.776 682.425 435.663 691.491 435.103 692.543C433.345 695.841 428.623 696.165 426.859 691.531Z" fill="white"/>
<path d="M420.43 698.387C420.43 698.387 410.343 692.263 410.394 690.635C410.446 689.005 411.494 689.851 412.22 688.437C412.946 687.023 413.184 685.708 414.714 685.191C416.244 684.675 417.185 685.138 418.022 684.105C418.857 683.073 420.129 683.571 421.092 684.334C422.054 685.097 427.062 693.196 427.406 694.321C428.479 697.843 425.144 700.858 420.43 698.387Z" fill="white"/>
<path d="M426.859 714.487C426.859 714.487 423.693 725.035 424.918 726.239C426.143 727.443 426.322 726.185 427.901 726.831C429.482 727.476 430.619 728.33 432.155 727.825C433.691 727.318 434.065 726.416 435.449 726.707C436.832 726.999 437.433 725.876 437.605 724.734C437.776 723.593 435.663 714.528 435.103 713.475C433.345 710.178 428.623 709.853 426.859 714.487Z" fill="white"/>
<path d="M419.936 707.295C419.936 707.295 409.368 712.724 409.282 714.354C409.196 715.983 410.314 715.21 410.921 716.669C411.527 718.127 411.653 719.455 413.137 720.073C414.621 720.692 415.598 720.292 416.344 721.376C417.091 722.462 418.402 722.051 419.424 721.354C420.446 720.657 426.119 712.918 426.555 711.819C427.918 708.378 424.842 705.147 419.936 707.295Z" fill="white"/>
<path d="M420.668 706.456C420.668 706.456 408.682 708.389 407.448 707.192C406.214 705.994 407.627 705.942 407.043 704.476C406.459 703.01 405.608 701.918 406.301 700.589C406.994 699.259 408.028 699.003 407.822 697.742C407.617 696.48 408.914 696.038 410.197 695.983C411.48 695.927 421.371 698.586 422.492 699.176C426.008 701.028 425.966 705.274 420.668 706.456Z" fill="white"/>
<path d="M442.766 698C442.766 698 452.61 691.57 452.499 689.942C452.386 688.313 451.371 689.193 450.589 687.801C449.81 686.408 449.522 685.103 447.972 684.633C446.422 684.162 445.499 684.655 444.625 683.65C443.751 682.643 442.497 683.18 441.566 683.973C440.634 684.765 435.938 693.012 435.638 694.148C434.701 697.707 438.15 700.616 442.766 698Z" fill="white"/>
<path d="M443.183 707.246C443.183 707.246 453.188 713.477 453.114 715.107C453.042 716.737 452.004 715.878 451.259 717.284C450.515 718.691 450.26 720.003 448.722 720.504C447.184 721.006 446.249 720.532 445.402 721.553C444.553 722.577 443.286 722.066 442.336 721.292C441.384 720.517 436.483 712.366 436.156 711.238C435.128 707.701 438.504 704.723 443.183 707.246Z" fill="white"/>
<path d="M441.942 706.416C441.942 706.416 453.749 709.095 455.071 707.978C456.395 706.86 454.991 706.72 455.686 705.293C456.381 703.866 457.316 702.833 456.728 701.463C456.14 700.093 455.129 699.772 455.431 698.527C455.735 697.281 454.475 696.761 453.198 696.624C451.924 696.488 441.849 698.52 440.683 699.04C437.04 700.664 436.75 704.904 441.942 706.416Z" fill="white"/>
<path d="M439.733 698.348C439.006 697.331 438.033 696.512 436.915 695.89C435.864 694.985 434.561 694.312 433.099 693.984C425.886 692.37 419.33 698.551 420.489 704.83C421.585 710.768 428.142 714.683 434.556 712.765C437.844 711.782 440.215 709.82 441.364 706.884C442.41 704.22 441.372 700.642 439.733 698.348Z" fill="#FFA975"/>
<path d="M938.803 667.559C938.803 667.559 935.637 657.011 936.862 655.807C938.089 654.603 938.266 655.861 939.845 655.215C941.426 654.57 942.563 653.716 944.099 654.222C945.635 654.729 946.009 655.63 947.393 655.339C948.777 655.048 949.377 656.171 949.548 657.312C949.718 658.453 947.607 667.519 947.045 668.571C945.29 671.869 940.567 672.193 938.803 667.559Z" fill="white"/>
<path d="M932.374 674.415C932.374 674.415 922.287 668.291 922.338 666.663C922.39 665.033 923.438 665.879 924.164 664.465C924.89 663.051 925.126 661.736 926.658 661.219C928.19 660.703 929.129 661.166 929.966 660.133C930.801 659.101 932.073 659.599 933.036 660.362C933.998 661.125 939.006 669.224 939.35 670.349C940.423 673.871 937.088 676.886 932.374 674.415Z" fill="white"/>
<path d="M938.803 690.515C938.803 690.515 935.637 701.063 936.862 702.267C938.089 703.471 938.266 702.213 939.845 702.859C941.426 703.504 942.563 704.358 944.099 703.853C945.635 703.346 946.009 702.444 947.393 702.735C948.777 703.027 949.377 701.904 949.548 700.762C949.718 699.621 947.607 690.556 947.045 689.503C945.29 686.206 940.567 685.881 938.803 690.515Z" fill="white"/>
<path d="M931.88 683.323C931.88 683.323 921.313 688.752 921.226 690.382C921.14 692.011 922.258 691.238 922.865 692.697C923.471 694.155 923.599 695.483 925.081 696.101C926.566 696.72 927.542 696.32 928.289 697.404C929.035 698.49 930.347 698.079 931.368 697.382C932.39 696.685 938.063 688.946 938.499 687.847C939.862 684.406 936.786 681.175 931.88 683.323Z" fill="white"/>
<path d="M932.612 682.484C932.612 682.484 920.626 684.417 919.392 683.22C918.158 682.022 919.569 681.97 918.987 680.504C918.405 679.036 917.552 677.946 918.245 676.617C918.938 675.287 919.974 675.031 919.766 673.77C919.561 672.508 920.858 672.066 922.141 672.011C923.424 671.955 933.315 674.614 934.436 675.204C937.952 677.056 937.91 681.302 932.612 682.484Z" fill="white"/>
<path d="M954.71 674.028C954.71 674.028 964.556 667.598 964.443 665.97C964.33 664.341 963.314 665.221 962.533 663.829C961.754 662.436 961.466 661.131 959.916 660.661C958.365 660.191 957.442 660.683 956.568 659.678C955.695 658.671 954.441 659.208 953.509 660.001C952.578 660.794 947.882 669.04 947.582 670.176C946.644 673.735 950.094 676.645 954.71 674.028Z" fill="white"/>
<path d="M955.127 683.274C955.127 683.274 965.132 689.505 965.06 691.135C964.988 692.765 963.95 691.906 963.205 693.312C962.461 694.719 962.206 696.031 960.668 696.532C959.131 697.034 958.195 696.56 957.348 697.581C956.499 698.605 955.232 698.094 954.282 697.32C953.331 696.545 948.429 688.394 948.102 687.266C947.072 683.729 950.448 680.751 955.127 683.274Z" fill="white"/>
<path d="M953.885 682.444C953.885 682.444 965.693 685.123 967.015 684.006C968.339 682.888 966.935 682.748 967.63 681.321C968.325 679.894 969.26 678.861 968.672 677.491C968.084 676.121 967.073 675.8 967.375 674.555C967.679 673.309 966.419 672.789 965.142 672.652C963.867 672.516 953.793 674.548 952.627 675.068C948.984 676.692 948.694 680.932 953.885 682.444Z" fill="white"/>
<path d="M951.678 674.376C950.952 673.359 949.977 672.54 948.859 671.918C947.806 671.013 946.505 670.34 945.043 670.012C937.83 668.398 931.274 674.579 932.433 680.858C933.529 686.796 940.086 690.711 946.501 688.793C949.788 687.81 952.159 685.848 953.308 682.912C954.354 680.248 953.316 676.67 951.678 674.376Z" fill="#FFA975"/>
<path d="M241.008 676.184C241.008 676.184 238.693 668.477 239.59 667.598C240.486 666.718 240.616 667.637 241.769 667.165C242.925 666.694 243.755 666.069 244.878 666.44C246 666.811 246.272 667.469 247.283 667.257C248.295 667.045 248.733 667.863 248.858 668.699C248.984 669.532 247.44 676.156 247.031 676.925C245.746 679.333 242.296 679.569 241.008 676.184Z" fill="white"/>
<path d="M236.311 681.192C236.311 681.192 228.942 676.718 228.979 675.527C229.016 674.336 229.783 674.955 230.313 673.921C230.844 672.888 231.016 671.928 232.135 671.55C233.253 671.172 233.94 671.511 234.551 670.757C235.161 670.002 236.091 670.366 236.794 670.924C237.497 671.483 241.157 677.399 241.407 678.221C242.191 680.795 239.754 682.999 236.311 681.192Z" fill="white"/>
<path d="M241.008 692.955C241.008 692.955 238.693 700.661 239.59 701.54C240.486 702.42 240.616 701.502 241.769 701.972C242.925 702.442 243.755 703.067 244.878 702.698C246 702.328 246.272 701.669 247.283 701.882C248.295 702.094 248.733 701.275 248.858 700.44C248.984 699.606 247.44 692.982 247.031 692.213C245.746 689.807 242.296 689.569 241.008 692.955Z" fill="white"/>
<path d="M235.951 687.701C235.951 687.701 228.231 691.668 228.167 692.857C228.103 694.046 228.921 693.482 229.363 694.548C229.805 695.614 229.898 696.584 230.984 697.035C232.067 697.487 232.781 697.196 233.327 697.989C233.872 698.782 234.83 698.481 235.577 697.972C236.323 697.463 240.468 691.81 240.785 691.006C241.782 688.492 239.534 686.132 235.951 687.701Z" fill="white"/>
<path d="M236.485 687.087C236.485 687.087 227.729 688.5 226.826 687.624C225.926 686.748 226.956 686.711 226.53 685.64C226.105 684.568 225.482 683.772 225.987 682.8C226.493 681.828 227.25 681.642 227.1 680.72C226.95 679.798 227.897 679.475 228.835 679.435C229.772 679.394 236.997 681.336 237.818 681.769C240.385 683.121 240.355 686.224 236.485 687.087Z" fill="white"/>
<path d="M252.629 680.91C252.629 680.91 259.821 676.211 259.739 675.022C259.656 673.832 258.914 674.474 258.345 673.458C257.775 672.442 257.565 671.487 256.433 671.144C255.3 670.801 254.625 671.16 253.988 670.427C253.349 669.693 252.434 670.084 251.753 670.663C251.073 671.242 247.641 677.268 247.423 678.096C246.736 680.696 249.257 682.82 252.629 680.91Z" fill="white"/>
<path d="M252.933 687.664C252.933 687.664 260.242 692.217 260.189 693.407C260.135 694.596 259.377 693.971 258.834 694.998C258.289 696.025 258.104 696.984 256.979 697.351C255.855 697.718 255.172 697.371 254.553 698.118C253.932 698.865 253.007 698.492 252.312 697.926C251.617 697.36 248.036 691.406 247.797 690.581C247.049 687.998 249.516 685.822 252.933 687.664Z" fill="white"/>
<path d="M252.026 687.058C252.026 687.058 260.653 689.016 261.62 688.199C262.586 687.382 261.562 687.281 262.068 686.237C262.576 685.195 263.258 684.439 262.829 683.44C262.399 682.438 261.659 682.204 261.881 681.293C262.103 680.382 261.182 680.002 260.25 679.903C259.319 679.803 251.959 681.288 251.107 681.668C248.445 682.857 248.233 685.955 252.026 687.058Z" fill="white"/>
<path d="M250.413 681.164C249.882 680.421 249.171 679.824 248.355 679.368C247.586 678.706 246.636 678.216 245.567 677.976C240.297 676.796 235.507 681.312 236.356 685.9C237.158 690.237 241.946 693.097 246.634 691.695C249.035 690.978 250.768 689.543 251.607 687.401C252.37 685.453 251.609 682.84 250.413 681.164Z" fill="#FFA975"/>
<path d="M426.546 607.349C426.546 607.349 424.572 600.781 425.337 600.03C426.1 599.281 426.211 600.063 427.196 599.661C428.181 599.259 428.888 598.726 429.846 599.042C430.802 599.357 431.034 599.919 431.898 599.739C432.759 599.558 433.134 600.257 433.241 600.967C433.347 601.679 432.032 607.323 431.682 607.98C430.586 610.034 427.644 610.235 426.546 607.349Z" fill="white"/>
<path d="M422.541 611.618C422.541 611.618 416.26 607.804 416.291 606.788C416.321 605.772 416.975 606.301 417.428 605.42C417.88 604.539 418.028 603.72 418.982 603.399C419.936 603.076 420.522 603.366 421.042 602.722C421.562 602.079 422.356 602.388 422.954 602.864C423.552 603.34 426.673 608.383 426.887 609.084C427.555 611.28 425.477 613.157 422.541 611.618Z" fill="white"/>
<path d="M426.546 621.645C426.546 621.645 424.572 628.216 425.337 628.964C426.1 629.715 426.211 628.931 427.196 629.333C428.181 629.735 428.888 630.268 429.846 629.953C430.802 629.637 431.034 629.075 431.898 629.256C432.759 629.436 433.134 628.737 433.241 628.027C433.347 627.316 432.032 621.671 431.682 621.015C430.586 618.962 427.644 618.76 426.546 621.645Z" fill="white"/>
<path d="M422.235 617.168C422.235 617.168 415.653 620.55 415.6 621.564C415.546 622.578 416.243 622.097 416.62 623.004C416.998 623.913 417.076 624.74 418.001 625.125C418.926 625.51 419.533 625.261 420 625.938C420.464 626.615 421.281 626.359 421.918 625.925C422.555 625.49 426.087 620.672 426.359 619.988C427.204 617.841 425.29 615.829 422.235 617.168Z" fill="white"/>
<path d="M422.689 616.644C422.689 616.644 415.224 617.849 414.455 617.102C413.686 616.355 414.566 616.324 414.204 615.409C413.842 614.496 413.31 613.818 413.741 612.988C414.173 612.16 414.817 611.999 414.689 611.214C414.562 610.428 415.37 610.154 416.167 610.119C416.967 610.084 423.127 611.739 423.824 612.108C426.016 613.263 425.989 615.909 422.689 616.644Z" fill="white"/>
<path d="M436.452 611.378C436.452 611.378 442.583 607.373 442.513 606.359C442.443 605.344 441.81 605.892 441.325 605.025C440.839 604.159 440.66 603.346 439.694 603.052C438.728 602.759 438.154 603.067 437.609 602.44C437.065 601.813 436.285 602.147 435.703 602.641C435.124 603.135 432.198 608.271 432.013 608.979C431.429 611.195 433.578 613.006 436.452 611.378Z" fill="white"/>
<path d="M436.713 617.135C436.713 617.135 442.943 621.017 442.897 622.031C442.852 623.045 442.205 622.51 441.742 623.388C441.279 624.266 441.119 625.081 440.161 625.392C439.203 625.704 438.621 625.409 438.093 626.045C437.564 626.683 436.775 626.364 436.183 625.883C435.59 625.402 432.537 620.325 432.334 619.621C431.696 617.419 433.798 615.564 436.713 617.135Z" fill="white"/>
<path d="M435.94 616.619C435.94 616.619 443.294 618.287 444.117 617.592C444.939 616.897 444.067 616.809 444.499 615.92C444.931 615.031 445.515 614.387 445.149 613.534C444.783 612.68 444.152 612.481 444.341 611.704C444.53 610.928 443.744 610.604 442.951 610.519C442.157 610.434 435.882 611.701 435.157 612.023C432.887 613.038 432.706 615.678 435.94 616.619Z" fill="white"/>
<path d="M434.564 611.596C434.112 610.961 433.506 610.452 432.809 610.065C432.153 609.501 431.343 609.082 430.432 608.878C425.94 607.873 421.856 611.721 422.58 615.632C423.263 619.329 427.346 621.769 431.341 620.574C433.388 619.962 434.865 618.739 435.58 616.912C436.232 615.25 435.584 613.023 434.564 611.596Z" fill="#FFA975"/>
<path d="M747.282 553.873C747.282 553.873 745.309 547.305 746.073 546.554C746.836 545.805 746.947 546.587 747.932 546.185C748.917 545.783 749.624 545.25 750.582 545.566C751.538 545.881 751.77 546.443 752.634 546.263C753.495 546.082 753.87 546.781 753.977 547.491C754.084 548.203 752.768 553.847 752.418 554.503C751.322 556.558 748.38 556.759 747.282 553.873Z" fill="white"/>
<path d="M743.277 558.142C743.277 558.142 736.996 554.328 737.027 553.312C737.058 552.296 737.712 552.825 738.164 551.944C738.616 551.063 738.764 550.244 739.718 549.923C740.672 549.6 741.258 549.89 741.778 549.246C742.298 548.603 743.092 548.912 743.69 549.388C744.289 549.864 747.41 554.907 747.624 555.608C748.292 557.804 746.213 559.681 743.277 558.142Z" fill="white"/>
<path d="M747.282 568.169C747.282 568.169 745.309 574.74 746.073 575.488C746.836 576.239 746.947 575.455 747.932 575.857C748.917 576.259 749.624 576.792 750.582 576.477C751.538 576.161 751.77 575.599 752.634 575.78C753.495 575.96 753.87 575.261 753.977 574.551C754.084 573.84 752.768 568.195 752.418 567.539C751.322 565.486 748.38 565.283 747.282 568.169Z" fill="white"/>
<path d="M742.971 563.692C742.971 563.692 736.389 567.074 736.336 568.088C736.282 569.102 736.979 568.621 737.356 569.528C737.734 570.437 737.812 571.264 738.737 571.649C739.663 572.034 740.269 571.785 740.736 572.462C741.2 573.139 742.017 572.883 742.654 572.449C743.291 572.014 746.824 567.196 747.095 566.512C747.94 564.365 746.026 562.353 742.971 563.692Z" fill="white"/>
<path d="M743.427 563.168C743.427 563.168 735.962 564.373 735.193 563.626C734.424 562.879 735.304 562.848 734.942 561.933C734.58 561.02 734.048 560.342 734.48 559.512C734.911 558.682 735.555 558.523 735.427 557.738C735.3 556.952 736.108 556.678 736.908 556.643C737.707 556.608 743.867 558.263 744.564 558.632C746.752 559.787 746.725 562.433 743.427 563.168Z" fill="white"/>
<path d="M757.19 557.902C757.19 557.902 763.321 553.897 763.251 552.883C763.181 551.868 762.548 552.416 762.063 551.549C761.578 550.683 761.399 549.87 760.432 549.576C759.466 549.283 758.892 549.591 758.348 548.964C757.803 548.337 757.023 548.671 756.442 549.165C755.86 549.659 752.936 554.795 752.749 555.503C752.165 557.719 754.314 559.53 757.19 557.902Z" fill="white"/>
<path d="M757.449 563.659C757.449 563.659 763.679 567.541 763.636 568.555C763.59 569.569 762.943 569.034 762.48 569.912C762.018 570.79 761.857 571.605 760.899 571.916C759.941 572.228 759.359 571.933 758.831 572.569C758.302 573.207 757.513 572.888 756.921 572.407C756.329 571.926 753.275 566.849 753.072 566.145C752.433 563.943 754.534 562.088 757.449 563.659Z" fill="white"/>
<path d="M756.676 563.143C756.676 563.143 764.03 564.811 764.853 564.116C765.677 563.419 764.803 563.333 765.235 562.444C765.667 561.555 766.251 560.911 765.885 560.058C765.519 559.204 764.888 559.005 765.077 558.228C765.266 557.452 764.481 557.127 763.687 557.043C762.893 556.958 756.618 558.225 755.893 558.547C753.623 559.562 753.442 562.202 756.676 563.143Z" fill="white"/>
<path d="M755.3 558.12C754.848 557.485 754.242 556.976 753.545 556.589C752.889 556.025 752.079 555.606 751.168 555.402C746.676 554.397 742.592 558.245 743.314 562.156C743.997 565.853 748.08 568.293 752.077 567.098C754.124 566.486 755.601 565.263 756.316 563.436C756.968 561.774 756.32 559.547 755.3 558.12Z" fill="#FFA975"/>
<path d="M773.513 650.368C773.513 650.368 771.198 642.661 772.094 641.782C772.99 640.902 773.12 641.821 774.273 641.348C775.429 640.878 776.259 640.253 777.382 640.624C778.505 640.994 778.776 641.653 779.788 641.441C780.799 641.229 781.237 642.047 781.362 642.883C781.488 643.716 779.944 650.34 779.535 651.109C778.25 653.517 774.8 653.753 773.513 650.368Z" fill="white"/>
<path d="M768.815 655.376C768.815 655.376 761.446 650.902 761.483 649.711C761.52 648.52 762.287 649.139 762.817 648.105C763.348 647.072 763.521 646.112 764.641 645.734C765.76 645.356 766.446 645.695 767.057 644.941C767.667 644.186 768.597 644.55 769.3 645.108C770.003 645.667 773.663 651.583 773.914 652.405C774.695 654.979 772.259 657.183 768.815 655.376Z" fill="white"/>
<path d="M773.513 667.139C773.513 667.139 771.198 674.845 772.094 675.724C772.99 676.604 773.12 675.686 774.273 676.156C775.429 676.626 776.259 677.251 777.382 676.882C778.505 676.512 778.776 675.853 779.788 676.066C780.799 676.278 781.237 675.459 781.362 674.623C781.488 673.79 779.944 667.166 779.535 666.397C778.25 663.991 774.8 663.753 773.513 667.139Z" fill="white"/>
<path d="M768.455 661.885C768.455 661.885 760.735 665.852 760.671 667.041C760.607 668.23 761.426 667.666 761.868 668.732C762.31 669.798 762.402 670.768 763.488 671.219C764.571 671.671 765.285 671.38 765.832 672.173C766.376 672.966 767.334 672.665 768.081 672.156C768.827 671.647 772.972 665.994 773.289 665.19C774.286 662.676 772.039 660.316 768.455 661.885Z" fill="white"/>
<path d="M768.989 661.271C768.989 661.271 760.233 662.684 759.33 661.808C758.43 660.932 759.46 660.895 759.034 659.824C758.609 658.752 757.986 657.956 758.493 656.984C758.999 656.012 759.756 655.826 759.606 654.904C759.456 653.982 760.403 653.659 761.341 653.619C762.279 653.578 769.503 655.52 770.324 655.953C772.89 657.305 772.859 660.408 768.989 661.271Z" fill="white"/>
<path d="M785.133 655.094C785.133 655.094 792.325 650.395 792.243 649.206C792.16 648.016 791.418 648.658 790.849 647.642C790.279 646.626 790.07 645.671 788.937 645.328C787.804 644.985 787.129 645.344 786.492 644.611C785.853 643.877 784.938 644.268 784.257 644.847C783.577 645.426 780.145 651.452 779.927 652.28C779.241 654.88 781.761 657.004 785.133 655.094Z" fill="white"/>
<path d="M785.437 661.848C785.437 661.848 792.746 666.401 792.693 667.59C792.64 668.78 791.881 668.155 791.338 669.182C790.793 670.209 790.608 671.168 789.484 671.535C788.359 671.902 787.676 671.555 787.058 672.302C786.437 673.049 785.513 672.676 784.819 672.11C784.124 671.544 780.542 665.59 780.304 664.765C779.553 662.182 782.02 660.006 785.437 661.848Z" fill="white"/>
<path d="M784.531 661.242C784.531 661.242 793.156 663.2 794.124 662.383C795.09 661.566 794.066 661.465 794.572 660.421C795.08 659.379 795.763 658.623 795.335 657.624C794.905 656.622 794.165 656.388 794.387 655.477C794.609 654.566 793.688 654.186 792.757 654.087C791.825 653.987 784.465 655.472 783.614 655.852C780.949 657.041 780.737 660.139 784.531 661.242Z" fill="white"/>
<path d="M782.917 655.348C782.386 654.605 781.675 654.008 780.859 653.552C780.09 652.89 779.14 652.4 778.071 652.16C772.801 650.98 768.011 655.496 768.86 660.084C769.662 664.421 774.45 667.281 779.138 665.879C781.539 665.162 783.272 663.727 784.111 661.585C784.874 659.637 784.113 657.024 782.917 655.348Z" fill="#FFA975"/>
<path d="M729.88 719.134C729.88 719.134 721.142 710.375 717.544 706.226C713.946 702.077 719.6 701.155 727.31 703.46C735.02 705.765 733.992 715.446 736.048 712.68C738.104 709.914 736.048 701.616 740.674 703.921C745.3 706.226 738.104 715.446 741.702 713.602C745.3 711.758 749.926 706.687 751.468 710.375C753.01 714.063 750.954 713.141 743.758 718.673C736.562 724.205 736.048 723.744 729.88 719.134Z" fill="#E12500"/>
<path d="M184.121 743.525C184.121 743.525 173.198 738.721 168.487 736.276C163.779 733.831 168.286 731.269 175.815 730.842C183.346 730.414 186.224 739.066 186.917 736.042C187.612 733.019 182.616 726.521 187.493 727.058C192.37 727.594 189.763 737.779 192.142 735.066C194.52 732.354 196.529 726.543 199.29 729.235C202.052 731.928 199.924 731.776 195.881 738.787C191.843 745.798 191.223 745.562 184.121 743.525Z" fill="#FFCC4A"/>
<path d="M233.465 603.381C233.465 603.381 222.542 598.577 217.831 596.132C213.123 593.687 217.63 591.125 225.159 590.698C232.69 590.27 235.568 598.922 236.261 595.898C236.956 592.875 231.96 586.377 236.837 586.914C241.714 587.45 239.107 597.635 241.486 594.922C243.864 592.21 245.873 586.399 248.634 589.091C251.396 591.784 249.268 591.632 245.225 598.643C241.187 605.654 240.567 605.418 233.465 603.381Z" fill="url(#paint1_linear_15_355)"/>
<path d="M628.217 583.097C628.217 583.097 617.294 578.293 612.583 575.848C607.875 573.403 612.382 570.841 619.911 570.414C627.442 569.986 630.32 578.638 631.013 575.614C631.708 572.591 626.712 566.093 631.589 566.63C636.466 567.166 633.859 577.351 636.238 574.638C638.616 571.926 640.625 566.115 643.386 568.807C646.147 571.5 644.02 571.348 639.977 578.359C635.939 585.37 635.319 585.134 628.217 583.097Z" fill="url(#paint2_linear_15_355)"/>
<path d="M906.583 640.661C906.583 640.661 912.934 630.38 915.416 625.619C917.897 620.858 912.155 621.085 905.208 624.867C898.26 628.649 901.659 637.884 898.97 635.597C896.281 633.309 896.231 624.81 892.292 627.978C888.353 631.146 897.65 638.702 893.686 637.622C889.722 636.539 883.955 632.518 883.365 636.42C882.775 640.323 884.551 639.014 892.937 642.975C901.324 646.936 901.71 646.384 906.583 640.661Z" fill="#FFCC4A"/>
<path d="M992.877 739.849C992.877 739.849 1002.88 733.454 1007.12 730.327C1011.36 727.198 1006.4 725.311 998.825 725.994C991.247 726.678 989.964 735.719 988.72 732.809C987.476 729.901 991.261 722.693 986.502 723.947C981.742 725.201 986.206 734.959 983.339 732.608C980.473 730.257 977.408 724.767 975.15 727.854C972.893 730.941 974.986 730.478 980.295 736.866C985.605 743.252 986.181 742.925 992.877 739.849Z" fill="#FFCC4A"/>
<path d="M543.532 646.06C543.532 646.06 536.312 638.822 533.339 635.394C530.366 631.966 535.037 631.205 541.408 633.108C547.78 635.013 546.931 643.012 548.629 640.727C550.327 638.442 548.629 631.585 552.451 633.489C556.273 635.394 550.327 643.012 553.3 641.489C556.273 639.966 560.095 635.774 561.37 638.822C562.645 641.87 560.945 641.109 554.999 645.68C549.055 650.249 548.629 649.87 543.532 646.06Z" fill="#FFCC4A"/>
<path d="M336.411 734.823C336.411 734.823 328.532 728.16 325.247 724.968C321.961 721.778 326.544 720.665 333.072 722.077C339.6 723.491 339.509 731.526 340.986 729.119C342.462 726.713 340.122 720.01 344.111 721.618C348.099 723.226 342.894 731.268 345.712 729.525C348.531 727.781 351.944 723.316 353.5 726.256C355.057 729.195 353.293 728.564 347.799 733.572C342.308 738.579 341.849 738.232 336.411 734.823Z" fill="#E12500"/>
<path d="M273.448 464.662C269.47 464.662 269.47 470.194 273.448 470.194C277.426 470.194 277.426 464.662 273.448 464.662Z" fill="#4B9F66"/>
<path d="M308.4 489.248C304.422 489.248 304.422 494.78 308.4 494.78C312.379 494.78 312.379 489.248 308.4 489.248Z" fill="#B6E08C"/>
<path d="M355.688 478.492C355.688 482.06 361.856 482.06 361.856 478.492C361.856 474.804 355.688 474.804 355.688 478.492Z" fill="#4B9F66"/>
<path d="M407.088 507.688C403.11 507.688 403.11 513.22 407.088 513.22C411.067 513.22 411.067 507.688 407.088 507.688Z" fill="#4B9F66"/>
<path d="M466.712 485.868C466.712 489.556 472.88 489.556 472.88 485.868C472.88 482.3 466.712 482.3 466.712 485.868Z" fill="#B6E08C"/>
<path d="M205.6 495.088C201.622 495.088 201.622 500.62 205.6 500.62C209.712 500.62 209.712 495.088 205.6 495.088Z" fill="#B6E08C"/>
<path d="M180.928 452.368C176.816 452.368 176.816 457.9 180.928 457.9C185.04 457.9 185.04 452.368 180.928 452.368Z" fill="#4B9F66"/>
<path d="M139.934 527.553C138.745 526.488 136.761 526.488 135.573 527.553C135.345 527.758 135.116 527.963 134.888 528.167C133.7 529.233 133.7 531.013 134.888 532.079C136.076 533.144 138.06 533.144 139.249 532.079C139.477 531.874 139.705 531.669 139.934 531.464C141.12 530.399 141.12 528.619 139.934 527.553Z" fill="#4B9F66"/>
<path d="M585.96 480.336C581.848 480.336 581.848 485.868 585.96 485.868C589.938 485.868 589.938 480.336 585.96 480.336Z" fill="#4B9F66"/>
<path d="M635.304 528.28C631.192 528.28 631.192 533.812 635.304 533.812C639.282 533.812 639.282 528.28 635.304 528.28Z" fill="#B6E08C"/>
<path d="M699.04 473.268C695.062 473.268 695.062 478.8 699.04 478.8C703.019 478.8 703.019 473.268 699.04 473.268Z" fill="#B6E08C"/>
<path d="M789.504 484.332C785.392 484.332 785.392 489.864 789.504 489.864C793.616 489.864 793.616 484.332 789.504 484.332Z" fill="#4B9F66"/>
<path d="M834.736 443.764C830.758 443.764 830.758 449.296 834.736 449.296C838.715 449.296 838.715 443.764 834.736 443.764Z" fill="#4B9F66"/>
<path d="M882.024 460.052C882.024 463.74 888.192 463.74 888.192 460.052C888.192 456.484 882.024 456.484 882.024 460.052Z" fill="#B6E08C"/>
<path d="M960.152 421.02C956.04 421.02 956.04 426.552 960.152 426.552C964.264 426.552 964.264 421.02 960.152 421.02Z" fill="#4B9F66"/>
</g>
<defs>
<linearGradient id="paint0_linear_15_355" x1="-12.8727" y1="395.387" x2="-3.47085" y2="485.573" gradientUnits="userSpaceOnUse">
<stop stop-color="#2F8988"/>
<stop offset="1" stop-color="#18485B"/>
</linearGradient>
<linearGradient id="paint1_linear_15_355" x1="234.299" y1="600.466" x2="240.393" y2="643.085" gradientUnits="userSpaceOnUse">
<stop offset="7e-08" stop-color="#FFFFB7"/>
<stop offset="1" stop-color="#CE7424"/>
</linearGradient>
<linearGradient id="paint2_linear_15_355" x1="629.051" y1="580.183" x2="635.145" y2="622.801" gradientUnits="userSpaceOnUse">
<stop offset="7e-08" stop-color="#FFFFB7"/>
<stop offset="1" stop-color="#CE7424"/>
</linearGradient>
</defs>
</svg>
