<?xml version="1.0" encoding="utf-8"?>
<!-- Generator: Adobe Illustrator 27.5.0, SVG Export Plug-In . SVG Version: 6.00 Build 0)  -->
<svg version="1.1" id="Layer_1" xmlns="http://www.w3.org/2000/svg" xmlns:xlink="http://www.w3.org/1999/xlink" x="0px" y="0px"
	 viewBox="0 0 288.8 401.498" style="enable-background:new 0 0 288.8 401.498;" xml:space="preserve">
<g>
	<path style="opacity:0.3;fill:#C2C4C6;" d="M132.493,375.064c0,9.055-27.859,16.396-62.226,16.396
		c-34.365,0-62.225-7.341-62.225-16.396c0-9.054,27.86-16.389,62.225-16.389C104.634,358.675,132.493,366.011,132.493,375.064z"/>
	<path style="opacity:0.3;fill:#C2C4C6;" d="M281.58,359.229c0,11.476-41.762,20.779-93.281,20.779
		c-51.515,0-93.278-9.303-93.278-20.779c0-11.474,41.763-20.77,93.278-20.77C239.818,338.458,281.58,347.755,281.58,359.229z"/>
	<g>
		<g>
			<g>
				<g>
					<g>
						<path style="fill:#EFF3F4;" d="M243.771,36.776c0,0,9.89,2.876,1.697,10.795c0.844,16.089,4.942,26.893,18.201,48.004
							c12.262,19.128,14.62,29.357,14.62,47.987c0,18.644,0,129.437,0,154.348c0,40.519,1.784,67.109-62.849,70.91
							c-14.753,1.027-44.857,0-44.857,0c-64.642-3.801-62.858-30.391-62.858-70.91c0-24.91,0-135.703,0-154.348
							c0-18.629,2.367-28.858,14.628-47.987c13.259-21.11,17.349-31.915,18.195-48.004c-8.19-7.919,1.703-10.795,1.703-10.795
							S183.202,53.466,243.771,36.776z"/>
						<g>
							<path style="fill:#EFF3F4;" d="M278.289,297.909c0-24.91,0-135.703,0-154.348c0-18.629-2.358-28.858-14.62-47.987
								c-13.259-21.11-17.357-31.915-18.201-48.004c8.193-7.919-1.697-10.795-1.697-10.795c-0.992,0.27-1.986,0.533-2.967,0.792
								c2.758,1.85,4.037,3.623,3.953,4.74c-0.203,2.82-4.15,4.586-12.247,6.702c-8.106,2.117-16.4,3.699-2.767,2.8
								c8.248-0.511,11.377,0.487,12.543,4.115c1.433,4.444,4.191,17.209,12.718,31.551c8.523,14.344,19.712,30.606,19.712,44.958
								c0,27.298,0,60.787,0,78.513c0,17.73,0,54.264,0,74.416c0,32.8,0,21.406,0,37.023c0,13.505-11.934,41.368-66.135,41.368
								h-30.536c-54.204,0-66.141-27.863-66.141-41.368c0-15.617,0-4.223,0-37.023c0-20.151,0-56.686,0-74.416
								c0-17.727,0-51.216,0-78.513c0-14.351,11.189-30.614,19.724-44.958c8.529-14.342,11.577-27.046,12.708-31.551
								c1.128-4.516,4.017-5.47,12.329-4.254c29.497,4.788,49.398,0,37.453,0.283c-34.474,0.282-53.363-6.473-52.707-10.69
								c0.229-1.156,1.076-2.507,2.305-3.95c-0.966-0.334-1.464-0.539-1.464-0.539s-9.893,2.876-1.703,10.795
								c-0.847,16.089-4.936,26.893-18.195,48.004c-12.262,19.128-14.628,29.357-14.628,47.987c0,18.644,0,129.437,0,154.348
								c0,40.519-1.784,67.109,62.858,70.91c0,0,30.104,1.027,44.857,0C280.073,365.017,278.289,338.428,278.289,297.909z"/>
						</g>
						<g>
							<path style="fill:#FFFFFF;" d="M207.725,363.755c56.188-2.116,65.967-21.109,65.967-48.965c0-27.864,0-150.839,0-174.755
								c0-23.919-9.283-34.614-15.591-45.248c-6.804-10.977-13.483-26.457-13.483-26.457H141.144c0,0-6.673,15.48-13.477,26.457
								c-6.305,10.634-15.594,21.328-15.594,45.248c0,23.916,0,146.891,0,174.755c0,27.857,9.788,46.849,65.973,48.965H207.725z"/>
							<path style="fill:#D8D8D8;" d="M207.725,365.069h-29.68c-55.985-2.107-67.223-20.802-67.223-50.28V140.034
								c0-20.899,6.885-31.779,12.952-41.374c0.977-1.551,1.937-3.061,2.83-4.569c6.691-10.794,13.335-26.15,13.405-26.304
								c0.197-0.469,0.647-0.771,1.134-0.771h103.475c0.49,0,0.943,0.302,1.14,0.771c0.07,0.154,6.72,15.516,13.387,26.279
								c0.908,1.533,1.862,3.043,2.845,4.594c6.07,9.595,12.949,20.475,12.949,41.374v174.755c0,29.478-11.238,48.173-67.17,50.28
								C207.757,365.069,207.737,365.069,207.725,365.069z M141.944,69.646c-1.447,3.281-7.326,16.319-13.236,25.86
								c-0.89,1.507-1.856,3.04-2.854,4.611c-5.879,9.287-12.532,19.815-12.532,39.918v174.755c0,28.634,10.6,45.611,64.766,47.651
								h29.614c54.146-2.043,64.74-19.02,64.74-47.651V140.034c0-20.102-6.659-30.631-12.532-39.918
								c-0.995-1.571-1.958-3.104-2.868-4.635c-5.902-9.519-11.775-22.554-13.222-25.835H141.944z"/>
						</g>
						<g style="opacity:0.5;">
							<path style="fill:#EFF3F4;" d="M191.151,356.31c-61.144,0-75.596-25.879-79.015-37.838
								c0.913,25.84,12.23,43.269,65.909,45.283h29.68c46.924-1.76,61.48-15.304,65.004-35.948
								C264.513,341.171,243.876,356.31,191.151,356.31z"/>
						</g>
						<g>
							<path style="fill:#FFFFFF;" d="M244.679,68.33c0,5.313-23.181,9.611-51.773,9.611c-28.578,0-51.762-4.298-51.762-9.611
								c0-5.31,23.184-9.611,51.762-9.611C221.498,58.719,244.679,63.02,244.679,68.33z"/>
							<path style="fill:#D8D8D8;" d="M192.906,79.258c-21.304,0-53.012-2.912-53.012-10.928c0-8.014,31.708-10.925,53.012-10.925
								c21.313,0,53.023,2.912,53.023,10.925C245.929,76.347,214.219,79.258,192.906,79.258z M192.906,60.035
								c-33.16,0-50.512,5.4-50.512,8.295c0,2.895,17.352,8.296,50.512,8.296c33.175,0,50.524-5.401,50.524-8.296
								C243.429,65.435,226.081,60.035,192.906,60.035z"/>
						</g>
						<g>
							<path style="fill:#D8D8D8;" d="M159.812,366.289c-50.718-5.911-50.384-35.739-50.384-46.999c0-11.257,0-37.423,0-60.217
								c0-22.793,0-101.028,0-118.758c0-17.728,3.727-26.666,13.669-42.913c12.192-18.786,16.908-32.081,18.651-40.31
								c1.74-8.235,5.284-6.614,12.506-5.913c41.446,4.899,51.953,1.579,51.953,1.579c-10.107,0.702-30.307,1.052-54.227-2.98
								c-9.205-1.973-12.908-5.96-14.106-9.935c-1.029,1.721-0.945,4.234,2.677,7.728c-0.847,16.089-4.936,26.893-18.195,48.004
								c-12.262,19.128-14.628,29.357-14.628,47.987c0,18.644,0,129.437,0,154.348c0,40.519-1.784,67.109,62.858,70.91
								c0,0,30.104,1.027,44.857,0c4.568-0.272,8.796-0.656,12.723-1.145C210.977,369.379,187.833,369.55,159.812,366.289z"/>
						</g>
						<path style="fill:#FFFFFF;" d="M141.692,62.756c0,0-6.087,18.417-18.854,37.855C125.677,94.078,136.622,73.77,141.692,62.756z
							"/>
						<path style="fill:#FFFFFF;" d="M111.046,157.848v117.729C111.046,275.577,108.282,188.323,111.046,157.848z"/>
						
							<radialGradient id="SVGID_1_" cx="246.0701" cy="51.9939" r="28.8441" gradientTransform="matrix(1.1654 0 0 0.9893 -93.2176 28.817)" gradientUnits="userSpaceOnUse">
							<stop  offset="0" style="stop-color:#FCFFF1"/>
							<stop  offset="1" style="stop-color:#000000"/>
						</radialGradient>
						<path style="fill:url(#SVGID_1_);" d="M154.545,74.849c0,0,39.483,6.415,74.331,0.417
							C212.064,81.883,179.646,82.298,154.545,74.849z"/>
						<path style="fill:#EFF3F4;" d="M278.289,297.909c0-24.91,0-135.703,0-154.348c0-18.629-2.358-28.858-14.62-47.987
							c-13.259-21.11-17.357-31.915-18.201-48.004c8.193-7.919-1.697-10.795-1.697-10.795c-49.653,13.68-86.12,4.931-97.651,1.336
							c11.023,5.424,30.742,11.312,63.322,9.826c15.504-1.536,0.882,4.823-22.63,5.481c6.462,1.541,11.111,1.757,17.569,1.319
							c6.461-0.435,16.618,21.417,25.24,45.619c8.622,24.203,8.622,84.985,8.622,159.276c0,43.901,0,29.272,0,58.532
							c0,25.341,1.784,48.559-49.648,51.057c9.133,0.119,19.753,0.092,26.844-0.402
							C280.073,365.017,278.289,338.428,278.289,297.909z"/>
						<path style="fill:#EFF3F4;" d="M278.289,297.909c0-24.91,0-135.703,0-154.348c0-18.629-2.358-28.858-14.62-47.987
							c-13.259-21.11-17.357-31.915-18.201-48.004c8.193-7.919-1.697-10.795-1.697-10.795c-12.311,3.383-23.796,5.397-34.294,6.451
							c4.643,1.514,9.257,2.337,13.358,1.852c16.876-2.011,12.149,5.728,1.685,7.734c8.776-0.287,9.791,7.167,18.222,26.928
							c8.442,19.771,21.328,35.393,21.328,74.645c0,39.258,0,106.798,0,143.096c0,24.921,1.169,53.022-24.152,68.194
							C279.58,356.871,278.289,332.444,278.289,297.909z"/>
						<g style="opacity:0.5;">
							<path style="fill:#FFFFFF;" d="M130.053,297.044c6.238,3.556,13.515,5.768,20.974,7.179V199.942
								c0-48.428-2.52-72.639,10.067-103.979c8.454-21.05,14.817-39.072,19.132-52.068c-7.828-0.452-14.602-1.379-20.177-2.409
								c-4.312,13.138-10.936,32.089-19.921,54.477c-12.592,31.341-10.075,55.552-10.075,103.979V297.044z"/>
						</g>
						<g>
							<path style="opacity:0.5;fill:#FFFFFF;" d="M245.668,190.967c0,47.835,0,122.697,0,146.332l13.265-3.375
								c0,0,0-106.938,0-147.458c0-40.527-0.664-65.845-17.242-99.618c-8.671-17.66-16.783-33.617-22.563-44.829
								c-3.585,0.539-7.056,0.961-10.432,1.284c6.285,12.38,14.666,29.121,21.725,44.101
								C243.679,115.548,245.668,143.13,245.668,190.967z"/>
						</g>
						<path style="fill:#D8D8D8;" d="M182.184,365.614c0,0,25.814-0.267,38.581-1.434c8.207-0.837,0.18,3.782-31.739,4.448
							c21.887,0.165,43.383-1.515,46.513-3.852c3.628-2.691,0.911-2.841-5.925-2.172
							C222.769,363.271,199.512,365.451,182.184,365.614z"/>
						<g>
							<path style="fill:#FFFFFF;" d="M229.613,362.603c-4.347,0.427-15.304,1.461-27.174,2.2
								c7.885-0.308,16.969-0.772,24.532-1.444c6.546-0.721,7.364,0.063,6.215,1.263c-1.143,1.197-15.539,3.061-30.759,3.602
								c-3.596,0.13-6.581,0.217-9.04,0.282c-1.413,0.052-2.86,0.095-4.362,0.122c21.887,0.165,43.383-1.515,46.513-3.852
								C239.166,362.084,236.449,361.935,229.613,362.603z"/>
						</g>
						<path style="fill:#FFFFFF;" d="M139.758,359.297c0,0,11.96,3.809,39.715,5.553c22.285,1.298,1.734,4.397-21.598,0.656
							C139.468,362.547,136.263,358.691,139.758,359.297z"/>
						<path style="fill:#FFFFFF;" d="M274.351,141.314c0,0,0.07,2.247,0.192,6.194c0.078,3.934,0.275,9.56,0.362,16.315
							c0.09,6.756,0.264,14.632,0.305,23.072c0.04,8.438,0.084,17.44,0.136,26.444c-0.052,9.005-0.096,18.005-0.136,26.446
							c-0.032,8.44-0.215,16.315-0.305,23.064c-0.087,6.754-0.284,12.385-0.362,16.33c-0.122,3.934-0.192,6.185-0.192,6.185
							s-0.075-2.25-0.189-6.185c-0.09-3.945-0.281-9.576-0.368-16.33c-0.09-6.75-0.278-14.624-0.307-23.064
							c-0.041-8.441-0.087-17.441-0.133-26.446c0.046-9.004,0.093-18.006,0.133-26.444c0.035-8.44,0.217-16.316,0.307-23.072
							c0.087-6.754,0.279-12.38,0.368-16.315C274.275,143.561,274.351,141.314,274.351,141.314z"/>
					</g>
					<path style="fill:#D8D8D8;" d="M111.904,298.745c0,0,0.09,1.314,0.194,3.608c0.09,2.301,0.264,5.574,0.38,9.512
						c0.049,1.963,0.116,4.101,0.171,6.356c0.072,2.246,0.043,4.655,0.223,7.049c0.189,2.42,0.6,4.893,1.285,7.359
						c0.685,2.458,1.659,4.901,2.993,7.195c1.302,2.301,2.917,4.473,4.806,6.414c1.894,1.938,4.005,3.673,6.261,5.139
						c2.245,1.472,4.585,2.711,6.882,3.768c1.174,0.49,2.3,1.007,3.445,1.414c0.563,0.211,1.117,0.415,1.662,0.622
						c0.56,0.185,1.102,0.362,1.641,0.54c1.061,0.37,2.112,0.646,3.106,0.934c0.992,0.307,1.952,0.538,2.854,0.76
						c1.789,0.47,3.39,0.759,4.704,1.047c2.642,0.484,4.153,0.76,4.153,0.76s-0.392-0.041-1.111-0.11
						c-0.713-0.084-1.781-0.147-3.112-0.331c-1.34-0.206-2.978-0.391-4.814-0.759c-0.934-0.165-1.917-0.345-2.95-0.588
						c-1.021-0.232-2.102-0.476-3.205-0.801c-2.247-0.576-4.605-1.391-7.039-2.357c-2.421-1.017-4.907-2.215-7.282-3.713
						c-2.375-1.487-4.669-3.237-6.665-5.281c-2.01-2.03-3.744-4.305-5.133-6.731c-1.38-2.418-2.378-4.986-3.065-7.557
						c-0.705-2.568-1.027-5.151-1.157-7.647c-0.136-2.516,0.021-4.864,0.044-7.125c0.052-2.255,0.113-4.392,0.166-6.356
						c0.116-3.938,0.29-7.211,0.377-9.512C111.826,300.06,111.904,298.745,111.904,298.745z"/>
					<path style="fill:#FFFFFF;" d="M171.082,362.913c0,0,3.088,0.015,7.72,0.051c2.308,0.052,5.005,0.02,7.883,0.081
						c1.438,0,2.932,0.006,4.443,0.006c1.517,0,3.048,0.055,4.582,0.009c1.534-0.015,3.068-0.026,4.579-0.035
						c0.754-0.009,1.508-0.009,2.248-0.005c0.74,0.005,1.476-0.037,2.198-0.056c1.427-0.051,2.816-0.078,4.147-0.104
						c1.32-0.041,2.572-0.004,3.718-0.091c4.594-0.258,7.709-0.281,7.709-0.281s-3.005,0.583-7.604,1.247
						c-1.146,0.193-2.401,0.267-3.724,0.385c-1.317,0.111-2.718,0.237-4.167,0.328c-1.447,0.118-2.95,0.184-4.475,0.204
						c-1.517,0.037-3.068,0.061-4.623,0.098c-1.546,0.026-3.092-0.05-4.617-0.07c-1.517-0.032-3.019-0.087-4.472-0.15
						c-1.45-0.076-2.851-0.179-4.167-0.276c-1.328-0.079-2.578-0.202-3.729-0.327c-2.303-0.219-4.226-0.478-5.557-0.681
						c-0.67-0.087-1.189-0.18-1.546-0.246C171.273,362.938,171.082,362.913,171.082,362.913z"/>
				</g>
				<g>
					
						<linearGradient id="SVGID_00000011005700164788684390000010978384955927632274_" gradientUnits="userSpaceOnUse" x1="193.1147" y1="-2.4529" x2="193.1147" y2="39.6013">
						<stop  offset="0" style="stop-color:#C7C3C2"/>
						<stop  offset="0.0021" style="stop-color:#C9C5C4"/>
						<stop  offset="0.0275" style="stop-color:#DDDADA"/>
						<stop  offset="0.0572" style="stop-color:#ECEBEB"/>
						<stop  offset="0.0943" style="stop-color:#F7F6F6"/>
						<stop  offset="0.1462" style="stop-color:#FDFDFD"/>
						<stop  offset="0.2906" style="stop-color:#FFFFFF"/>
						<stop  offset="0.4571" style="stop-color:#FAFAFA"/>
						<stop  offset="0.6601" style="stop-color:#EDEBEB"/>
						<stop  offset="0.8811" style="stop-color:#D6D3D2"/>
						<stop  offset="1" style="stop-color:#C7C3C2"/>
					</linearGradient>
					<path style="fill:url(#SVGID_00000011005700164788684390000010978384955927632274_);" d="M247.974,39.569
						c-1.381-1.979-4.202-2.794-4.202-2.794c-60.57,16.69-101.52,0-101.52,0s-2.567,0.748-3.996,2.527
						c5.844,2.876,20.556,8.121,50.981,8.887C218.796,48.933,238.743,43.093,247.974,39.569z"/>
				</g>
				<g>
					<g>
						<path style="fill:#6D9AC7;" d="M253.357,22.306c0,6.772-26.841,12.266-59.943,12.266c-33.108,0-59.943-5.494-59.943-12.266
							c0-6.78,26.835-12.269,59.943-12.269C226.516,10.037,253.357,15.526,253.357,22.306z"/>
						<g>
							<path style="fill:#4573B1;" d="M253.194,21.404c-0.658,6.657-27.093,13.169-59.781,13.169
								c-33.108,0-59.943-5.494-59.943-12.266c0-0.506,0.165-1.007,0.455-1.49c-3.01,2.272-4.689,4.769-4.689,7.385
								c0,10.795,28.375,19.555,63.389,19.555c35.008,0,63.395-8.76,63.395-19.555C256.019,26.235,254.937,23.188,253.194,21.404z"
								/>
							<g style="opacity:0.4;">
								
									<linearGradient id="SVGID_00000149369889822648576740000009544152845144760476_" gradientUnits="userSpaceOnUse" x1="146.7323" y1="37.9459" x2="211.9749" y2="42.9858">
									<stop  offset="0" style="stop-color:#30A3DA"/>
									<stop  offset="0.0533" style="stop-color:#41ABEC"/>
									<stop  offset="0.0976" style="stop-color:#53B3FF"/>
									<stop  offset="0.1346" style="stop-color:#65BCFF"/>
									<stop  offset="0.2088" style="stop-color:#95D4FF"/>
									<stop  offset="0.2745" style="stop-color:#C4ECFF"/>
									<stop  offset="0.4148" style="stop-color:#53B3FF"/>
									<stop  offset="0.5037" style="stop-color:#42ABED"/>
									<stop  offset="0.5775" style="stop-color:#30A3DA"/>
									<stop  offset="0.6755" style="stop-color:#41ABEC"/>
									<stop  offset="0.7569" style="stop-color:#53B3FF"/>
									<stop  offset="0.8896" style="stop-color:#42ABED"/>
									<stop  offset="1" style="stop-color:#30A3DA"/>
								</linearGradient>
								<path style="fill:url(#SVGID_00000149369889822648576740000009544152845144760476_);" d="M154.986,31.718v12.22
									c6.021,1.369,12.842,2.423,20.223,3.073v-13.02C167.724,33.511,160.879,32.731,154.986,31.718z"/>
							</g>
						</g>
						<g style="opacity:0.5;">
							
								<linearGradient id="SVGID_00000039097961117313068730000010209828028876371636_" gradientUnits="userSpaceOnUse" x1="64.904" y1="34.2867" x2="222.6436" y2="34.2867">
								<stop  offset="0" style="stop-color:#30A3DA"/>
								<stop  offset="0.0533" style="stop-color:#41ABEC"/>
								<stop  offset="0.0976" style="stop-color:#53B3FF"/>
								<stop  offset="0.1346" style="stop-color:#65BCFF"/>
								<stop  offset="0.2088" style="stop-color:#95D4FF"/>
								<stop  offset="0.2745" style="stop-color:#C4ECFF"/>
								<stop  offset="0.4148" style="stop-color:#53B3FF"/>
								<stop  offset="0.5037" style="stop-color:#42ABED"/>
								<stop  offset="0.5775" style="stop-color:#30A3DA"/>
								<stop  offset="0.6755" style="stop-color:#41ABEC"/>
								<stop  offset="0.7569" style="stop-color:#53B3FF"/>
								<stop  offset="0.8896" style="stop-color:#42ABED"/>
								<stop  offset="1" style="stop-color:#30A3DA"/>
							</linearGradient>
							<path style="fill:url(#SVGID_00000039097961117313068730000010209828028876371636_);" d="M253.194,21.404
								c-0.658,6.657-27.093,13.169-59.781,13.169c-33.108,0-59.943-5.494-59.943-12.266c0-0.506,0.165-1.007,0.455-1.49
								c-0.522,0.394-0.992,0.793-1.432,1.205c3.21,5.836,14.42,13.174,50.045,14.024c29.466,0.579,43.134-0.159,43.363,3.055
								c0.223,3.211-23.503,8.533-54.775,5.951c-16.998-1.396-27.711-4.247-34.86-7.907c10.536,6.303,31.809,10.612,56.359,10.612
								c35.008,0,63.395-8.76,63.395-19.555C256.019,26.235,254.937,23.188,253.194,21.404z"/>
						</g>
						<g style="opacity:0.7;">
							
								<linearGradient id="SVGID_00000067230250061920515640000016821966267430722476_" gradientUnits="userSpaceOnUse" x1="64.9006" y1="34.5802" x2="222.6433" y2="34.5802">
								<stop  offset="0" style="stop-color:#30A3DA"/>
								<stop  offset="0.0533" style="stop-color:#41ABEC"/>
								<stop  offset="0.0976" style="stop-color:#53B3FF"/>
								<stop  offset="0.1346" style="stop-color:#65BCFF"/>
								<stop  offset="0.2088" style="stop-color:#95D4FF"/>
								<stop  offset="0.2745" style="stop-color:#C4ECFF"/>
								<stop  offset="0.4148" style="stop-color:#53B3FF"/>
								<stop  offset="0.5037" style="stop-color:#42ABED"/>
								<stop  offset="0.5775" style="stop-color:#30A3DA"/>
								<stop  offset="0.6755" style="stop-color:#41ABEC"/>
								<stop  offset="0.7569" style="stop-color:#53B3FF"/>
								<stop  offset="0.8896" style="stop-color:#42ABED"/>
								<stop  offset="1" style="stop-color:#30A3DA"/>
							</linearGradient>
							<path style="fill:url(#SVGID_00000067230250061920515640000016821966267430722476_);" d="M253.194,21.404
								c-0.615,6.287-24.257,12.451-54.445,13.109c6.589,0.245,13.785,0.183,21.618-0.318c14.683-1.638,22.74-2.784,22.74,0.955
								c0,3.754-14.095,13.169-61.434,12.198c-0.908-0.021-1.778-0.034-2.625-0.047c4.371,0.294,8.912,0.456,13.576,0.456
								c35.008,0,63.395-8.76,63.395-19.555C256.019,26.235,254.937,23.188,253.194,21.404z"/>
						</g>
						<g style="opacity:0.7;">
							
								<linearGradient id="SVGID_00000102505738263130125050000008602758431310447528_" gradientUnits="userSpaceOnUse" x1="129.2356" y1="32.1217" x2="256.0229" y2="32.1217">
								<stop  offset="0" style="stop-color:#30A3DA"/>
								<stop  offset="0.0533" style="stop-color:#41ABEC"/>
								<stop  offset="0.0976" style="stop-color:#53B3FF"/>
								<stop  offset="0.1346" style="stop-color:#65BCFF"/>
								<stop  offset="0.2088" style="stop-color:#95D4FF"/>
								<stop  offset="0.2745" style="stop-color:#C4ECFF"/>
								<stop  offset="0.4148" style="stop-color:#53B3FF"/>
								<stop  offset="0.5037" style="stop-color:#42ABED"/>
								<stop  offset="0.5775" style="stop-color:#30A3DA"/>
								<stop  offset="0.6755" style="stop-color:#41ABEC"/>
								<stop  offset="0.7569" style="stop-color:#53B3FF"/>
								<stop  offset="0.8896" style="stop-color:#42ABED"/>
								<stop  offset="1" style="stop-color:#30A3DA"/>
							</linearGradient>
							<path style="fill:url(#SVGID_00000102505738263130125050000008602758431310447528_);" d="M148.696,41.702
								c-18.979-4.962-19.286-15.756-9.188-12.31c6.56,2.152,13.277,2.861,19.153,2.896c-15.246-2.22-25.191-5.854-25.191-9.981
								c0-0.506,0.165-1.007,0.455-1.49c-3.01,2.272-4.689,4.769-4.689,7.385c0,6.151,9.22,11.638,23.616,15.225
								C152.423,42.91,151.123,42.331,148.696,41.702z"/>
						</g>
					</g>
					<g>
						
							<linearGradient id="SVGID_00000056387642869178691770000004495898788791461527_" gradientUnits="userSpaceOnUse" x1="106.0212" y1="40.0103" x2="198.0212" y2="40.0103">
							<stop  offset="0" style="stop-color:#30A3DA"/>
							<stop  offset="0.0533" style="stop-color:#41ABEC"/>
							<stop  offset="0.0976" style="stop-color:#53B3FF"/>
							<stop  offset="0.1346" style="stop-color:#65BCFF"/>
							<stop  offset="0.2088" style="stop-color:#95D4FF"/>
							<stop  offset="0.2745" style="stop-color:#C4ECFF"/>
							<stop  offset="0.4148" style="stop-color:#53B3FF"/>
							<stop  offset="0.5037" style="stop-color:#42ABED"/>
							<stop  offset="0.5775" style="stop-color:#30A3DA"/>
							<stop  offset="0.6755" style="stop-color:#41ABEC"/>
							<stop  offset="0.7569" style="stop-color:#53B3FF"/>
							<stop  offset="0.8896" style="stop-color:#42ABED"/>
							<stop  offset="1" style="stop-color:#30A3DA"/>
						</linearGradient>
						<path style="fill:url(#SVGID_00000056387642869178691770000004495898788791461527_);" d="M188.3,40.095
							c0-0.099,0.012-0.169,0.012-0.169S188.3,39.996,188.3,40.095z"/>
						
							<linearGradient id="SVGID_00000009555722314417536680000013595679133647912880_" gradientUnits="userSpaceOnUse" x1="129.2369" y1="39.0045" x2="256.0113" y2="39.0045">
							<stop  offset="0" style="stop-color:#30A3DA"/>
							<stop  offset="0.0533" style="stop-color:#41ABEC"/>
							<stop  offset="0.0976" style="stop-color:#53B3FF"/>
							<stop  offset="0.1346" style="stop-color:#65BCFF"/>
							<stop  offset="0.2088" style="stop-color:#95D4FF"/>
							<stop  offset="0.2745" style="stop-color:#C4ECFF"/>
							<stop  offset="0.4148" style="stop-color:#53B3FF"/>
							<stop  offset="0.5037" style="stop-color:#42ABED"/>
							<stop  offset="0.5775" style="stop-color:#30A3DA"/>
							<stop  offset="0.6755" style="stop-color:#41ABEC"/>
							<stop  offset="0.7569" style="stop-color:#53B3FF"/>
							<stop  offset="0.8896" style="stop-color:#42ABED"/>
							<stop  offset="1" style="stop-color:#30A3DA"/>
						</linearGradient>
						<path style="fill:url(#SVGID_00000009555722314417536680000013595679133647912880_);" d="M247.008,34.259
							c0.623-2.583-1.624,2.366-3.486,3.806c-1.862,1.448-7.584,3.825-6.099,0.731c1.496-3.099,0.255-2.372-1.61,0.107
							c-1.868,2.47-6.589,5.149-4.727,2.567c1.871-2.567,2.741-6.503,1.117-4.229c-1.612,2.272-4.727,5.985-9.701,6.916
							c-4.971,0.921-4.475-3.404-4.721-5.066c-0.25-1.641-0.87,0.741-1.369,4.039c-0.493,3.3-2.984,1.547-2.984-1.756
							c0-3.308-0.751-3.924-0.992,1.03c-0.186,3.713-8.831,2.789-16.795,3.094c-7.184,0.282-7.369-4.474-7.34-5.403
							c-0.049,0.892-0.301,5.316-0.864,5.51c-0.624,0.204-0.998-0.527-2.239-4.748c0,3.514-1.363,5.468-3.483,4.748
							c-2.108-0.717-3.854-2.379-6.714-1.13c-2.86,1.234-4.101-2.585-4.73-5.267c-0.374,4.844-1.357,4.751-2.601,4.751
							c-1.25,0-4.855-6.19-4.855-6.19s2.485,6.284-1.99,5.775c-4.478-0.517-7.085-5.987-7.085-5.987s1.114,4.847-3.614,3.3
							c-6.96-1.954-9.443-11.251-9.443-8.155c0,3.099,4.226,5.987-1.366,4.951c-2.709-0.501-5.745-2.617-8.178-4.698
							c6.885,8.499,31.8,14.802,61.486,14.802c32.748,0,59.691-7.662,63.032-17.504C252.643,34.035,246.506,36.302,247.008,34.259z"
							/>
					</g>
				</g>
			</g>
			<g>
				<g>
					<path style="fill:#015B94;" d="M173.676,205.428c0,18.211,0,27.313,0,45.516c-4.573-0.231-6.873-0.391-11.443-0.762
						c-0.007-12.292-0.007-18.431-0.023-30.723c-1.817,12.143-2.726,18.208-4.543,30.333c-3.239-0.306-4.864-0.482-8.096-0.85
						c-1.912-12.23-2.871-18.35-4.78-30.605c-0.01,12.015-0.01,18.02-0.013,30.027c-4.556-0.587-6.829-0.914-11.365-1.626
						c0-18.208,0-27.311,0-45.513c6.715,1.058,10.085,1.52,16.83,2.278c0.503,2.799,1.023,6.076,1.557,9.848
						c0.74,4.714,1.104,7.063,1.848,11.772c1.202-8.377,1.8-12.563,2.999-20.956C163.452,204.821,166.857,205.083,173.676,205.428z"
						/>
					<path style="fill:#015B94;" d="M192.057,205.928c0,18.205,0,27.31,0,45.513c-5.252-0.018-7.869-0.076-13.115-0.271
						c0-18.211,0-27.305,0-45.516C184.187,205.851,186.805,205.906,192.057,205.928z"/>
					<path style="fill:#015B94;" d="M210.431,205.547c0,14.553,0,21.841,0,36.408c3.195-0.145,4.786-0.226,7.968-0.433
						c0,3.639,0,5.462,0,9.106c-8.424,0.546-12.653,0.705-21.08,0.788c0-18.197,0-27.311,0-45.51
						C202.561,205.851,205.196,205.782,210.431,205.547z"/>
					<path style="fill:#015B94;" d="M252.651,201.337c-2.982,8.686-4.465,13.012-7.454,21.636c3.273,9.544,4.901,14.293,8.16,23.765
						c-5.367,0.85-8.049,1.231-13.433,1.886c-2.118-7.545-3.172-11.331-5.286-18.906c0,7.799,0,11.706,0,19.505
						c-5.215,0.569-7.826,0.809-13.068,1.194c0-18.208,0-27.311,0-45.515c5.242-0.388,7.853-0.628,13.068-1.187
						c0,7.068,0,10.604,0,17.677c2.33-7.322,3.489-10.995,5.806-18.353C245.335,202.438,247.777,202.093,252.651,201.337z"/>
				</g>
			</g>
		</g>
		<g>
			<g>
				<path style="opacity:0.8;fill:#FFFFFF;" d="M7.905,223.476l9.919,142.516c0,7.708,22.501,13.959,50.262,13.959
					c27.757,0,50.258-6.251,50.258-13.959l9.923-142.516c0,0-12.77,20.265-60.181,20.265S7.905,223.476,7.905,223.476z"/>
				<path style="fill:#D8D8D8;" d="M127.392,226.213l-9.734,139.779c0,7.233-22.703,13.345-49.572,13.345
					c-26.874,0-49.579-6.112-49.579-13.384L8.843,227.125c-0.652-0.673-1.152-1.462-1.534-2.324l9.83,141.191
					c0,8.171,22.377,14.573,50.947,14.573c28.566,0,50.94-6.402,50.94-14.535l9.893-142.139
					C128.457,224.696,127.945,225.472,127.392,226.213z"/>
			</g>
			<g>
				<path style="opacity:0.8;fill:#F6F8F9;" d="M68.086,240.195c-26.954,0-49.766-4.922-57.429-11.708l8.972,128.884
					c0,7.434,21.694,13.461,48.457,13.461c26.757,0,48.45-6.027,48.45-13.461l8.974-128.881
					C117.842,235.275,95.032,240.195,68.086,240.195z"/>
				<path style="fill:#D1E3E8;" d="M122.549,261.19l-6.697,96.181c0,6.963-21.875,12.848-47.765,12.848
					c-25.897,0-47.772-5.884-47.772-12.885l-6.696-96.144h-1.366l6.694,96.181c0,7.892,21.587,14.076,49.14,14.076
					c27.553,0,49.135-6.184,49.135-14.037l6.7-96.22H122.549z"/>
			</g>
			<g>
				<path style="opacity:0.5;fill:#F4F4F4;" d="M68.179,273.494c-30.436,0-55.125-6.088-55.329-13.619h-0.004l6.784,97.496
					c0,7.434,21.694,13.461,48.457,13.461c26.756,0,48.45-6.027,48.45-13.461l6.7-96.21
					C120.445,268.083,96.864,273.494,68.179,273.494z"/>
				<path style="fill:#FFFFFF;" d="M68.179,246.069c-30.567,0-55.339,6.143-55.339,13.712c0,0.031,0.006,0.063,0.011,0.094
					c0.204,7.531,24.892,13.619,55.329,13.619c28.686,0,52.267-5.411,55.058-12.333c0.183-0.453,0.277-0.914,0.277-1.38
					C123.514,252.212,98.737,246.069,68.179,246.069z"/>
				<path style="fill:#E4E9EA;" d="M68.179,274.175c-31.19,0-55.793-6.273-56.009-14.281c-0.011-9.122,28.472-14.506,56.009-14.506
					c27.534,0,56.015,5.384,56.015,14.393c0,0.547-0.109,1.096-0.326,1.634C120.935,268.689,96.994,274.175,68.179,274.175z
					 M68.179,246.749c-32.695,0-54.658,6.738-54.658,13.031c0.18,6.333,22.179,13.032,54.658,13.032
					c27.827,0,51.735-5.23,54.426-11.907c0.15-0.375,0.227-0.754,0.227-1.126C122.833,253.487,100.871,246.749,68.179,246.749z"/>
			</g>
			<path style="opacity:0.6;fill:#7C7C7C;" d="M18.314,233.395c0,0-9.994-3.951-10.409-9.918l9.919,142.516
				c0,3.465,4.56,6.633,12.084,9.075C26.854,321.534,20.418,285.906,18.314,233.395z"/>
			<path style="opacity:0.6;fill:#FFFFFF;" d="M60.061,223.476H38.243c1.208,24.859,8.101,128.316,9.222,155.238
				c3.047,0.382,6.258,0.682,9.589,0.89C57.041,327.548,57.211,275.473,60.061,223.476z"/>
			<path style="opacity:0.6;fill:#7C7C7C;" d="M108.307,236.184c-2.757,24.797-7.423,114.508-9.244,140.796
				c11.737-2.555,19.281-6.524,19.281-10.987l9.923-141.707C126.162,231.853,108.307,236.184,108.307,236.184z"/>
			<g>
				<g>
					<path style="opacity:0.8;fill:#EFF3F4;" d="M128.267,223.476c0,9.235-26.948,16.718-60.181,16.718
						c-33.238,0-60.181-7.484-60.181-16.718c0-9.23,26.944-16.713,60.181-16.713C101.319,206.764,128.267,214.247,128.267,223.476z"
						/>
					<path style="opacity:0.6;fill:#FFFFFF;" d="M61.946,235.188c0.322-9.49,0.538-18.933,1.116-28.359
						c-8.67,0.2-16.823,0.904-24.06,2.016c0.641,9.807,0.817,19.661,1.39,29.474c6.518,0.941,13.736,1.556,21.375,1.778
						C61.829,238.46,61.891,236.824,61.946,235.188z"/>
					<path style="fill:#EFF3F4;" d="M18.646,213.952c-6.765,2.703-10.741,5.984-10.741,9.525c0,3.883,4.777,7.454,12.77,10.291
						C19.879,227.173,19.166,220.57,18.646,213.952z"/>
					<path style="fill:#EFF3F4;" d="M116.658,213.613c-0.314,6.757-0.799,13.502-1.4,20.239c8.137-2.851,13.009-6.454,13.009-10.375
						C128.267,219.787,123.951,216.378,116.658,213.613z"/>
					<path style="fill:#D8D8D8;" d="M68.086,240.809c-34.131,0-60.866-7.613-60.866-17.332c0-9.716,26.735-17.327,60.866-17.327
						c34.131,0,60.866,7.611,60.866,17.327C128.952,233.195,102.217,240.809,68.086,240.809z M68.086,207.377
						c-32.254,0-59.496,7.374-59.496,16.1c0,8.73,27.242,16.104,59.496,16.104c32.248,0,59.498-7.374,59.498-16.104
						C127.584,214.75,100.334,207.377,68.086,207.377z"/>
				</g>
				<g style="opacity:0.3;">
					<path style="fill:#A6A6A6;" d="M68.086,239.257c-32.569,0-58.075-7.065-58.075-16.085c0-9.02,25.506-16.085,58.075-16.085
						c32.565,0,58.075,7.064,58.075,16.085C126.162,232.191,100.651,239.257,68.086,239.257z M68.086,208.316
						c-30.741,0-56.705,6.803-56.705,14.856c0,8.053,25.964,14.857,56.705,14.857c30.737,0,56.705-6.803,56.705-14.857
						C124.791,215.119,98.823,208.316,68.086,208.316z"/>
				</g>
			</g>
		</g>
	</g>
</g>
</svg>
