<svg width="123" height="130" viewBox="0 0 123 130" fill="none" xmlns="http://www.w3.org/2000/svg">
<path d="M38.1392 100.237H24.4741V124.27H38.1392V100.237Z" fill="#F6A300"/>
<path d="M27.0069 129.542H36.3209C39.3109 127.602 39.3499 123.532 38.1249 121.408C37.0539 119.543 34.4269 119.451 33.8519 121.266C33.8399 121.299 33.6599 119.321 31.3169 119.457C28.9739 119.596 28.9199 121.449 28.9169 121.365C28.8609 119.67 25.186 119.45 24.392 121.238C22.384 125.766 25.5609 129.542 27.0069 129.542Z" fill="#F6A300"/>
<path d="M28.9151 121.366C28.6951 122.064 28.5481 122.759 28.4241 123.443C28.3141 124.131 28.2451 124.817 28.2631 125.5C28.2701 126.874 28.6331 128.194 29.2101 129.542C28.6791 129.038 28.2391 128.415 27.9561 127.719C27.6631 127.025 27.5211 126.268 27.5031 125.513C27.4941 124.007 27.9621 122.494 28.9151 121.366Z" fill="#F6A300"/>
<path d="M33.8502 121.259C34.8072 122.406 35.2741 123.937 35.2661 125.458C35.2481 126.222 35.1081 126.986 34.8141 127.689C34.5321 128.395 34.0911 129.028 33.5571 129.542C34.1341 128.176 34.4952 126.837 34.5012 125.446C34.5182 124.755 34.4491 124.059 34.3401 123.362C34.2171 122.669 34.0692 121.966 33.8502 121.259Z" fill="#F6A300"/>
<path d="M53.8076 100.237H40.1396V124.27H53.8076V100.237Z" fill="#F6A300"/>
<path d="M42.6749 129.542H51.9819C54.9759 127.602 55.0129 123.532 53.7889 121.408C52.7179 119.543 50.0979 119.451 49.5179 121.266C49.5089 121.299 49.3259 119.321 46.9819 119.457C44.6389 119.596 44.5859 121.449 44.5799 121.365C44.5269 119.67 40.8509 119.45 40.0569 121.238C38.0499 125.766 41.2229 129.542 42.6749 129.542Z" fill="#F6A300"/>
<path d="M44.5781 121.366C44.3581 122.064 44.2112 122.759 44.0872 123.443C43.9772 124.131 43.9092 124.817 43.9262 125.5C43.9332 126.874 44.2972 128.194 44.8742 129.542C44.3432 129.038 43.9031 128.415 43.6201 127.719C43.3261 127.025 43.1841 126.268 43.1661 125.513C43.1571 124.007 43.6241 122.494 44.5781 121.366Z" fill="#F6A300"/>
<path d="M49.5157 121.259C50.4727 122.406 50.9387 123.937 50.9297 125.459C50.9117 126.222 50.7697 126.987 50.4767 127.691C50.1937 128.397 49.7527 129.029 49.2188 129.543C49.7968 128.177 50.1578 126.838 50.1648 125.447C50.1828 124.756 50.1138 124.06 50.0048 123.364C49.8818 122.669 49.7347 121.966 49.5157 121.259Z" fill="#F6A300"/>
<path d="M53.7994 113.685L52.1924 114.094L53.7994 115.058V113.685Z" fill="#43403D"/>
<path d="M53.799 115.617L48.79 116.075L53.799 117.075V115.617Z" fill="#43403D"/>
<path d="M53.799 107.448L50.2529 109.345L53.799 108.857V107.448Z" fill="#43403D"/>
<path d="M53.799 110.774L51.166 112.304L53.799 112.829V110.774Z" fill="#43403D"/>
<path d="M53.799 120.113V118.259L51.166 118.619C51.166 118.619 53.814 120.351 53.799 120.113Z" fill="#43403D"/>
<path d="M38.1373 115.374L34.2183 116.019L38.1373 116.667V115.374Z" fill="#43403D"/>
<path d="M38.137 110.762L34.563 111.938L38.137 112.343V110.762Z" fill="#43403D"/>
<path d="M38.137 118.092L34.564 118.372C34.564 118.372 36.739 119.174 38.137 119.622V118.092Z" fill="#43403D"/>
<path d="M24.4741 113.665V115.105L26.1652 114.094L24.4741 113.665Z" fill="#43403D"/>
<path d="M24.4741 110.729V112.846L27.1881 112.304L24.4741 110.729Z" fill="#43403D"/>
<path d="M24.4741 117.092L29.5662 116.075L24.4741 115.608V117.092Z" fill="#43403D"/>
<path d="M24.4741 107.408V108.845L28.1002 109.345L24.4741 107.408Z" fill="#43403D"/>
<path d="M24.4741 119.734L29.2101 118.895L24.4741 118.249V119.734Z" fill="#43403D"/>
<path d="M40.1401 111.718V113.62L42.3701 112.28L40.1401 111.718Z" fill="#43403D"/>
<path d="M40.1401 116.243L43.5461 114.597L40.1401 114.285V116.243Z" fill="#43403D"/>
<path d="M40.1401 119.734L44.8741 118.092L40.1401 117.772V119.734Z" fill="#43403D"/>
<path d="M24.811 64.856C23.551 64.744 15.021 62.785 7.04502 74.382C0.534021 83.851 -1.77699 87.397 1.43601 89.611C4.64801 91.825 9.199 94.681 11.809 89.729C14.42 84.777 18.565 71.611 25.495 67.533C27.629 66.277 26.066 64.971 24.811 64.856Z" fill="#F6A300"/>
<path d="M10.5792 88.302C9.47224 87.847 8.06921 88.604 7.45021 89.99C7.43421 90.019 8.40122 87.646 6.45522 86.91C4.51222 86.174 3.39025 88.357 3.42025 88.288C4.04325 86.899 3.64923 85.406 2.54323 84.953C1.82323 84.656 0.987232 84.881 0.319232 85.449C-0.329768 87.373 0.0022366 88.628 1.43624 89.613C4.61024 91.801 9.08324 94.607 11.7122 89.903C11.6062 89.175 11.2182 88.563 10.5792 88.302Z" fill="#F6A300"/>
<path d="M53.4833 64.856C54.7433 64.744 63.2743 62.785 71.2513 74.382C77.7573 83.851 80.0752 87.397 76.8622 89.611C73.6482 91.825 69.0962 94.681 66.4852 89.729C63.8752 84.777 59.7353 71.611 52.8013 67.533C50.6703 66.277 52.2293 64.971 53.4833 64.856Z" fill="#F6A300"/>
<path d="M67.7184 88.302C68.8234 87.847 70.2284 88.604 70.8514 89.99C70.8654 90.019 69.8984 87.646 71.8414 86.91C73.7854 86.174 74.9054 88.357 74.8764 88.288C74.2564 86.899 74.6474 85.406 75.7584 84.953C76.4764 84.656 77.3104 84.881 77.9804 85.449C78.6274 87.373 78.2954 88.628 76.8634 89.613C73.6864 91.801 69.2144 94.607 66.5874 89.903C66.6874 89.175 67.0814 88.563 67.7184 88.302Z" fill="#F6A300"/>
<path d="M8.02618 80.264L5.52521 76.611C5.04021 77.321 4.58323 77.997 4.15723 78.632L8.02618 80.264Z" fill="#43403D"/>
<path d="M11.6957 69.054C11.2017 69.49 10.6988 69.964 10.1978 70.487L14.6048 71.36L11.6957 69.054Z" fill="#43403D"/>
<path d="M16.7888 68.4699L15.3328 66.5099C14.8448 66.7699 14.3468 67.066 13.8398 67.405L16.7888 68.4699Z" fill="#43403D"/>
<path d="M7.85614 73.259C7.58514 73.621 7.31814 73.99 7.04614 74.383C6.69814 74.894 6.36213 75.382 6.03613 75.857L11.4351 76.615L7.85614 73.259Z" fill="#43403D"/>
<path d="M2.54297 81.132C2.08897 81.867 1.68998 82.544 1.35498 83.166L9.04297 83.825L2.54297 81.132Z" fill="#43403D"/>
<path d="M74.151 78.6439C73.729 78.0119 73.276 77.3429 72.795 76.6389L70.312 80.2629L74.151 78.6439Z" fill="#43403D"/>
<path d="M62.9968 66.5259L61.5479 68.4689L64.4708 67.4109C63.9678 67.0759 63.4778 66.7859 62.9968 66.5259Z" fill="#43403D"/>
<path d="M75.7598 81.145L69.2979 83.825L76.9398 83.168C76.6078 82.548 76.2148 81.878 75.7598 81.145Z" fill="#43403D"/>
<path d="M71.251 74.3829C70.989 74.0029 70.7219 73.6359 70.4589 73.2809L66.8989 76.6139L72.2629 75.8609C71.9359 75.3849 71.6 74.8929 71.251 74.3829Z" fill="#43403D"/>
<path d="M66.6198 69.0729L63.7378 71.3589L68.1058 70.4939C67.6038 69.9769 67.1118 69.5039 66.6198 69.0729Z" fill="#43403D"/>
<path d="M121.766 82.4209C121.225 83.8959 119.852 85.0379 118.152 85.2549C115.85 85.5489 113.794 84.0459 113.471 81.8739C112.866 80.7479 108.924 78.2699 103.836 78.4639C97.8069 78.6939 93.0529 82.5679 90.0759 89.6669C81.6469 109.831 60.3729 108.566 50.3069 105.079C48.0999 104.313 46.9899 101.982 47.8759 99.7919C48.7399 97.6369 51.2319 96.5099 53.4409 97.2709C54.3549 97.5829 74.8009 104.284 82.1229 86.7889C86.9339 75.2929 96.3249 69.1329 107.239 70.3119C114.042 71.0469 121.428 75.0969 121.996 80.6069C122.065 81.2389 121.98 81.8539 121.766 82.4209Z" fill="#F6A300"/>
<path d="M68.596 103.093C68.566 102.062 68.479 101.029 68.278 100.013C68.184 99.521 67.967 98.957 67.802 98.39C66.842 98.558 65.887 98.673 64.958 98.729L68.59 103.383C68.591 103.287 68.598 103.191 68.596 103.093Z" fill="#43403D"/>
<path d="M77.371 100.966C76.983 100.369 76.587 99.7769 76.189 99.1829C76.627 100.723 77.046 102.267 77.493 103.799C77.96 103.557 78.4239 103.294 78.8879 103.019C78.3709 102.324 77.816 101.649 77.371 100.966Z" fill="#43403D"/>
<path d="M80.9268 93.2859C82.1538 94.9699 83.3628 96.6619 84.5908 98.3489C84.9208 97.9939 85.2448 97.6169 85.5608 97.2339C84.0518 95.8859 82.4658 94.6059 80.9268 93.2859Z" fill="#43403D"/>
<path d="M80.8188 89.384C80.5838 89.784 80.3388 90.174 80.0898 90.546C80.1538 90.577 80.2218 90.605 80.2858 90.663C81.3978 91.684 82.5478 92.657 83.7018 93.631C82.8938 92.327 81.9818 90.385 80.8188 89.384Z" fill="#43403D"/>
<path d="M85.7739 86.7429C86.2859 87.3739 86.7689 88.0239 87.1819 88.7179C87.8989 89.5869 88.6039 90.4639 89.3069 91.3389C89.5779 90.7999 89.8369 90.2449 90.0759 89.6669C90.1069 89.6009 90.135 89.5409 90.165 89.4789C88.58 88.7679 87.1699 87.7639 85.7739 86.7429Z" fill="#43403D"/>
<path d="M87.189 85.841C86.339 84.511 85.4439 83.222 84.7219 81.837C84.3849 82.368 84.062 82.914 83.752 83.481C84.961 84.212 86.088 85.082 87.239 85.917C87.225 85.889 87.204 85.869 87.189 85.841Z" fill="#43403D"/>
<path d="M89.4758 83.614C90.2038 84.368 91.1878 85.124 91.9788 85.959C92.4318 85.235 92.9138 84.579 93.4168 83.958C92.0138 83.53 90.5968 83.13 89.2598 82.54C88.8568 82.359 88.4628 82.161 88.0688 81.96C88.5248 82.522 88.9668 83.099 89.4758 83.614Z" fill="#43403D"/>
<path d="M87.5299 78.1219C87.5239 78.1159 87.5239 78.1109 87.5239 78.1069C87.1439 78.5319 86.7779 78.9739 86.4199 79.4309C87.7619 80.0969 89.0559 80.8579 90.4659 81.3839C90.4689 81.3869 90.4749 81.3879 90.4769 81.3879C89.4969 80.2979 88.4559 79.2569 87.5299 78.1219Z" fill="#43403D"/>
<path d="M94.3699 77.474C94.5519 77.631 94.7449 77.773 94.9409 77.914C94.1699 76.516 93.3559 75.124 92.2579 73.962C91.9049 74.194 91.5579 74.44 91.2129 74.691C92.3169 75.566 93.2919 76.567 94.3699 77.474Z" fill="#43403D"/>
<path d="M103.211 70.2469C102.505 70.2959 101.806 70.366 101.115 70.476C101.332 70.918 101.499 71.3599 101.625 71.6379C102.099 72.6829 102.524 73.7469 102.973 74.8029C103.121 73.2809 103.367 71.7699 103.211 70.2469Z" fill="#43403D"/>
<path d="M106.538 74.2599C107.835 73.2519 108.95 72.0839 109.887 70.7759C109.208 70.6209 108.524 70.4869 107.841 70.3939C107.42 71.7759 107.026 73.1649 106.377 74.4489C106.419 74.3799 106.462 74.3179 106.538 74.2599Z" fill="#43403D"/>
<path d="M98.2278 77.7179C97.6778 77.0559 97.1407 76.386 96.5938 75.726C97.2968 77.064 97.8628 78.4559 98.5228 79.8159C98.9498 79.6059 99.3848 79.4209 99.8318 79.2589C99.2138 78.6469 98.5228 78.0679 98.2278 77.7179Z" fill="#43403D"/>
<path d="M70.9462 101.818C71.1212 103.254 70.9682 104.708 71.2002 106.138C71.9852 105.946 72.7662 105.728 73.5382 105.467C72.6222 104.175 71.7232 102.852 70.8452 101.518C70.8922 101.604 70.9312 101.702 70.9462 101.818Z" fill="#43403D"/>
<path d="M111.319 77.5089C111.331 78.3839 111.292 79.2499 111.225 80.1169C112.416 80.7479 113.224 81.4169 113.471 81.8739C113.793 84.0459 115.85 85.5489 118.152 85.2549C119.852 85.0379 121.225 83.8959 121.766 82.4209C121.98 81.8549 122.065 81.2389 121.996 80.6069C121.544 76.2019 116.725 72.7299 111.33 71.1429C111.691 73.2439 111.65 75.3629 111.319 77.5089Z" fill="#43403D"/>
<path d="M64.296 86.492C64.296 99.7869 53.0359 110.567 39.1479 110.567C25.2589 110.567 14.002 99.7869 14.002 86.492C14.002 73.194 21.9709 50.739 39.1479 50.739C56.327 50.739 64.296 73.194 64.296 86.492Z" fill="#F6A300"/>
<path d="M53.7622 89.7299C53.7622 98.9999 47.2192 106.514 39.1482 106.514C31.0772 106.514 24.5342 98.9989 24.5342 89.7299C24.5342 80.4589 29.1652 64.8029 39.1482 64.8029C49.1332 64.8039 53.7622 80.4599 53.7622 89.7299Z" fill="white"/>
<path d="M64.2961 86.4919C64.2961 85.9709 64.2781 85.4289 64.2531 84.8799L63.2311 84.8649L57.3091 85.6579L64.1501 89.0679C64.2441 88.2209 64.2961 87.3609 64.2961 86.4919Z" fill="#43403D"/>
<path d="M51.8511 103.759L52.9321 106.626C53.2811 106.403 53.6301 106.174 53.9711 105.936L51.8511 103.759Z" fill="#43403D"/>
<path d="M63.2079 77.1169L54.981 78.5639L63.741 79.9619C63.595 79.0299 63.4169 78.0769 63.2079 77.1169Z" fill="#43403D"/>
<path d="M60.6279 68.7549L54.5459 70.6379L61.5389 71.1739C61.2589 70.3619 60.9539 69.5549 60.6279 68.7549Z" fill="#43403D"/>
<path d="M63.4732 92.6009C63.6642 91.9039 63.8232 91.1919 63.9462 90.4699L57.2212 90.2089L63.4732 92.6009Z" fill="#43403D"/>
<path d="M58.2291 102.161L55.4541 101.146L56.7511 103.68C57.2641 103.196 57.7621 102.688 58.2291 102.161Z" fill="#43403D"/>
<path d="M54.604 96.353L60.346 99.434C61.162 98.204 61.87 96.905 62.453 95.541L54.604 96.353Z" fill="#43403D"/>
<path d="M16.0723 96.0609C16.4213 96.8309 16.8112 97.5789 17.2372 98.3009L23.7253 95.7559L16.0723 96.0609Z" fill="#43403D"/>
<path d="M14.096 83.97C14.055 84.531 14.03 85.073 14.019 85.609L19.04 84.802L14.096 83.97Z" fill="#43403D"/>
<path d="M15.1691 76.736C14.9161 77.863 14.7081 78.974 14.5371 80.064L20.2831 78.274L15.1691 76.736Z" fill="#43403D"/>
<path d="M23.038 104.971L25.855 103.432L21.8149 103.923C22.2129 104.285 22.614 104.637 23.038 104.971Z" fill="#43403D"/>
<path d="M21.3969 70.4839L18.7249 66.338C18.4409 66.93 18.1749 67.534 17.9199 68.14L21.3969 70.4839Z" fill="#43403D"/>
<path d="M16.0479 73.3849L18.4258 73.7479L16.6339 71.5399C16.4249 72.1549 16.2289 72.7689 16.0479 73.3849Z" fill="#43403D"/>
<path d="M14.0312 87.6879C14.0962 88.8699 14.2463 90.0249 14.4783 91.1559L19.9302 89.2719L14.0312 87.6879Z" fill="#43403D"/>
<path d="M13.789 20.223C17.886 15.959 22.825 12.221 28.743 9.45396C28.943 6.08196 28.158 -1.01004 17.618 0.711958C4.58604 2.83596 3.37 17.188 13.789 20.223Z" fill="#F6A300"/>
<path d="M64.2 19.7529C74.557 16.6849 73.318 2.38594 60.313 0.264943C49.797 -1.45006 48.989 5.59294 49.187 8.97794C55.134 11.7429 60.093 15.4809 64.2 19.7529Z" fill="#F6A300"/>
<path d="M62.5671 18.1219C67.1891 15.2149 65.8251 7.72192 58.3641 6.50392C53.3761 5.68892 51.8271 7.96992 51.4121 10.0779C55.6491 12.3099 59.3491 15.0559 62.5671 18.1219Z" fill="#43403D"/>
<path d="M15.4071 18.605C18.6171 15.538 22.3051 12.796 26.5261 10.555C26.1161 8.43797 24.5761 6.13297 19.5601 6.95297C12.0771 8.17597 10.7261 15.719 15.4071 18.605Z" fill="#43403D"/>
<path d="M72.9908 42.2289C72.9908 50.6799 61.5018 67.0489 39.1478 67.0489C16.7938 67.0489 5.30176 50.5069 5.30176 42.2289C5.30176 33.9519 12.2798 7.45892 39.1478 7.45892C66.0208 7.45892 72.9908 33.7739 72.9908 42.2289Z" fill="#FFB400"/>
<path d="M39.1876 60.5589C37.7776 61.2979 36.3006 61.7059 34.9546 61.9279C35.6646 63.5349 37.3296 64.6649 39.2676 64.6649C41.1986 64.6649 42.8476 63.5459 43.5656 61.9509C42.1846 61.7329 40.6526 61.3239 39.1876 60.5589Z" fill="white"/>
<path d="M48.1407 44.2429C42.8367 44.2429 35.5397 44.2429 30.2377 44.2429C24.0287 44.2429 21.1797 48.3199 21.1797 53.1619C21.1797 58.0059 25.2117 61.9379 30.2377 62.0679V62.0789C30.2377 62.0789 35.0187 62.7429 39.1877 60.5589C43.3597 62.7429 48.1407 62.0789 48.1407 62.0789V62.0679C53.1647 61.9379 57.2027 58.0049 57.2027 53.1619C57.2027 48.3199 54.3517 44.2429 48.1407 44.2429Z" fill="white"/>
<path d="M39.1875 60.5589C38.7915 58.6689 38.7035 56.7789 38.6865 54.8889C38.7015 52.9989 38.7905 51.1089 39.1875 49.2189C39.5845 51.1089 39.6735 52.9989 39.6885 54.8889C39.6725 56.7789 39.5835 58.6699 39.1875 60.5589Z" fill="#43403D"/>
<path d="M39.1877 60.5589C38.2357 61.0579 37.2547 61.4029 36.3027 61.6489C36.8607 62.6789 37.9707 63.3919 39.2667 63.3919C40.5497 63.3919 41.6477 62.6959 42.2137 61.6839C41.2207 61.4379 40.1877 61.0799 39.1877 60.5589Z" fill="#D40022"/>
<path d="M5.45782 39.8219C5.38582 40.4699 5.3378 41.0669 5.3208 41.6059L10.4188 40.8139L5.45782 39.8219Z" fill="#43403D"/>
<path d="M6.323 46.9369L11.847 44.3659H5.54004C5.71104 45.1919 5.971 46.0539 6.323 46.9369Z" fill="#43403D"/>
<path d="M9.25171 26.9069C8.86071 27.7309 8.49871 28.5529 8.17871 29.3679L15.3797 28.5689L9.25171 26.9069Z" fill="#43403D"/>
<path d="M12.145 21.7459L20.502 24.2689L13.988 19.2299C13.333 20.0539 12.71 20.8909 12.145 21.7459Z" fill="#43403D"/>
<path d="M6.4989 34.4439C6.1829 35.6329 5.93688 36.7599 5.75488 37.8109L15.3799 35.5149L6.4989 34.4439Z" fill="#43403D"/>
<path d="M72.9398 40.917C72.8938 40.255 72.8168 39.527 72.7048 38.737L63.7188 38.454L72.9398 40.917Z" fill="#43403D"/>
<path d="M69.9988 28.984C69.7048 28.251 69.3698 27.513 69.0228 26.777L61.2388 27.518L69.9988 28.984Z" fill="#43403D"/>
<path d="M61.1309 22.978L66.3679 22.021C65.9299 21.348 65.4668 20.684 64.9768 20.028L61.1309 22.978Z" fill="#43403D"/>
<path d="M72.3136 36.5719C72.1846 35.9489 72.0416 35.3069 71.8706 34.6409L68.1426 35.0899L72.3136 36.5719Z" fill="#43403D"/>
<path d="M72.8389 44.002L65.043 43.356L72.17 46.493C72.479 45.638 72.6999 44.802 72.8389 44.002Z" fill="#43403D"/>
<path d="M26.222 40.9538C26.222 42.1691 25.4538 43.1541 24.5061 43.1541C23.5566 43.1541 22.7866 42.1691 22.7866 40.9538C22.7866 39.7376 23.5566 38.7519 24.5061 38.7519C25.4544 38.7519 26.222 39.7376 26.222 40.9538Z" fill="#1E1F24"/>
<path d="M24.4763 40.0719C23.847 40.0719 23.542 40.6634 23.542 41.271C23.542 41.9322 23.961 42.4685 24.4763 42.4685C24.9941 42.4685 25.4119 41.9331 25.4119 41.271C25.4119 40.6098 24.9947 40.0719 24.4763 40.0719ZM23.9979 41.7627C23.9034 41.7627 23.8239 41.6621 23.8239 41.5388C23.8239 41.4154 23.9034 41.3165 23.9979 41.3165C24.095 41.3165 24.175 41.4154 24.175 41.5388C24.175 41.6621 24.0956 41.7627 23.9979 41.7627ZM24.1647 41.2199C23.9737 41.2199 23.8209 41.0219 23.8209 40.7802C23.8209 40.5384 23.9737 40.3421 24.1647 40.3421C24.3533 40.3421 24.5066 40.5384 24.5066 40.7802C24.506 41.0219 24.3527 41.2199 24.1647 41.2199Z" fill="#1E1F24"/>
<path d="M51.436 40.9538C51.436 42.1691 52.2061 43.1541 53.1537 43.1541C54.1026 43.1541 54.872 42.1691 54.872 40.9538C54.872 39.7376 54.1026 38.7519 53.1537 38.7519C52.2061 38.7519 51.436 39.7376 51.436 40.9538Z" fill="#1E1F24"/>
<path d="M52.249 41.271C52.249 41.9322 52.6662 42.4685 53.1834 42.4685C53.6999 42.4685 54.1189 41.9331 54.1189 41.271C54.1189 40.6642 53.8121 40.0719 53.1834 40.0719C52.6656 40.0719 52.249 40.6098 52.249 41.271ZM53.4859 41.5388C53.4859 41.4154 53.5647 41.3165 53.663 41.3165C53.7582 41.3165 53.837 41.4154 53.837 41.5388C53.837 41.6621 53.7582 41.7627 53.663 41.7627C53.5647 41.7627 53.4859 41.6621 53.4859 41.5388ZM53.1536 40.7802C53.1536 40.5384 53.3064 40.3421 53.4962 40.3421C53.6854 40.3421 53.8388 40.5384 53.8388 40.7802C53.8388 41.0219 53.6848 41.2199 53.4962 41.2199C53.3064 41.2199 53.1536 41.0219 53.1536 40.7802Z" fill="#1E1F24"/>
<path d="M29.9388 14.4089C36.5918 18.7529 34.4857 25.1319 32.8257 31.6039C31.1627 38.0769 29.5547 45.9539 29.5547 45.9539L39.1487 45.5069L48.7397 45.9539C48.7397 45.9539 47.1348 38.0769 45.4738 31.6039C43.8108 25.1309 41.7047 18.7529 48.3517 14.4089C51.3837 12.4299 54.4187 12.1179 56.8207 12.3639C52.2107 9.39192 46.4117 7.45892 39.1487 7.45892C31.9137 7.45892 26.1318 9.38893 21.5298 12.3579C23.9268 12.1219 26.9348 12.4429 29.9388 14.4089Z" fill="#F7A300"/>
<path d="M48.8047 46.7359C48.8047 49.9379 43.2848 54.9609 38.6838 54.9609C34.0878 54.9609 29.4888 49.9379 29.4888 46.7359C29.4888 43.5279 32.2078 43.3549 35.5518 43.3549H42.7418C46.0928 43.3549 48.8047 43.5279 48.8047 46.7359Z" fill="#43403D"/>
<path d="M38.0515 15.373L36.7455 7.53296C35.6215 7.60196 34.5475 7.73296 33.5005 7.89396L38.0515 15.373Z" fill="#43403D"/>
<path d="M45.0196 13.425L44.9716 7.91999C44.1576 7.79299 43.3206 7.69099 42.4546 7.61499L45.0196 13.425Z" fill="#43403D"/>
<path d="M30.4626 13.4249L26.6996 9.71094C25.9316 10.0109 25.1876 10.3339 24.4736 10.6829L30.4626 13.4249Z" fill="#43403D"/>
<path d="M50.9295 9.44196L47.6855 13.424L53.5526 10.538C52.7136 10.14 51.8365 9.77396 50.9295 9.44196Z" fill="#43403D"/>
<path d="M31.3496 12.2999L31.0306 8.36993C30.5386 8.48693 30.0516 8.59994 29.5806 8.73394L31.3496 12.2999Z" fill="#43403D"/>
</svg>
